<svg id="svg" version="1.1" xmlns="http://www.w3.org/2000/svg" xmlns:xlink="http://www.w3.org/1999/xlink" width="400" height="465.75342465753425" viewBox="0, 0, 400,465.75342465753425"><g id="svgg"><path id="path0" d="M226.400 89.800 C 225.899 90.334,225.286 91.177,225.038 91.674 C 224.790 92.171,223.816 93.096,222.872 93.730 C 221.929 94.363,220.703 95.569,220.147 96.409 C 219.591 97.249,218.456 98.386,217.625 98.936 C 216.794 99.486,215.683 100.496,215.157 101.180 C 214.631 101.865,213.750 102.860,213.200 103.392 C 212.650 103.924,211.366 105.199,210.346 106.226 C 204.885 111.722,198.472 118.117,196.531 120.000 C 195.965 120.550,194.628 121.900,193.561 123.000 C 190.588 126.064,190.322 126.320,188.500 127.858 C 187.565 128.647,186.800 129.511,186.800 129.777 C 186.800 130.361,185.120 132.000,184.521 132.000 C 184.286 132.000,183.443 132.765,182.647 133.700 C 181.852 134.635,180.976 135.627,180.701 135.905 C 180.425 136.183,179.120 137.483,177.800 138.795 C 176.480 140.107,175.040 141.550,174.600 142.001 C 174.160 142.453,173.035 143.469,172.100 144.258 C 171.165 145.047,170.400 145.911,170.400 146.177 C 170.400 146.761,168.720 148.400,168.121 148.400 C 167.886 148.400,167.047 149.165,166.258 150.100 C 164.720 151.922,164.464 152.188,161.400 155.161 C 160.300 156.228,158.950 157.565,158.400 158.131 C 157.185 159.383,154.153 162.436,150.095 166.495 C 147.185 169.404,146.509 170.075,144.674 171.874 C 141.605 174.881,140.761 175.727,138.755 177.800 C 135.822 180.832,135.530 181.113,133.725 182.636 C 132.803 183.413,131.993 184.428,131.925 184.892 C 131.855 185.367,131.187 186.073,130.400 186.506 C 128.515 187.543,127.355 188.660,126.819 189.955 C 126.574 190.546,125.469 191.622,124.364 192.346 C 123.179 193.122,121.870 194.449,121.172 195.584 C 120.498 196.680,119.491 197.714,118.834 197.986 C 117.465 198.553,116.313 199.749,115.548 201.396 C 115.243 202.054,114.454 202.843,113.796 203.148 C 112.149 203.913,110.953 205.065,110.386 206.434 C 110.114 207.091,109.080 208.098,107.984 208.772 C 106.849 209.470,105.522 210.779,104.746 211.964 C 104.022 213.069,102.946 214.174,102.355 214.419 C 101.061 214.955,99.945 216.113,98.904 218.000 C 98.479 218.770,97.787 219.462,97.366 219.538 C 96.329 219.725,94.115 221.888,93.840 222.983 C 93.717 223.472,92.747 224.411,91.673 225.078 C 90.604 225.743,89.201 227.073,88.555 228.034 C 87.910 228.995,86.595 230.310,85.634 230.955 C 84.673 231.601,83.343 233.004,82.678 234.073 C 82.011 235.147,81.072 236.117,80.583 236.240 C 79.488 236.515,77.325 238.729,77.138 239.766 C 77.062 240.187,76.370 240.879,75.600 241.304 C 73.713 242.345,72.555 243.461,72.019 244.755 C 71.774 245.346,70.669 246.422,69.564 247.146 C 68.368 247.929,67.070 249.250,66.356 250.410 C 65.696 251.483,64.761 252.479,64.278 252.625 C 63.795 252.771,62.905 253.354,62.299 253.921 L 61.198 254.951 62.445 255.476 C 63.458 255.902,77.601 256.000,137.891 256.000 L 212.091 256.000 213.658 256.881 C 215.625 257.986,215.727 258.422,215.537 264.920 C 215.359 271.011,214.265 274.229,211.967 275.417 C 211.099 275.866,210.800 276.308,210.800 277.140 C 210.800 282.697,208.900 289.691,206.916 291.438 C 205.623 292.576,205.465 292.965,204.970 296.238 C 203.456 306.234,203.230 306.937,201.148 308.167 C 200.519 308.539,199.924 309.238,199.825 309.721 C 199.409 311.764,199.103 314.011,198.791 317.314 C 198.431 321.132,197.123 324.116,195.598 324.601 C 194.408 324.978,194.135 325.821,193.849 330.000 C 193.437 336.027,191.952 340.524,190.232 340.956 C 189.490 341.142,189.183 341.539,189.033 342.503 C 188.922 343.216,188.550 345.600,188.208 347.800 C 187.166 354.492,186.812 355.527,185.051 357.035 L 183.475 358.384 182.598 364.570 C 182.061 368.358,181.470 371.113,181.074 371.678 C 179.832 373.449,179.309 374.000,178.870 374.000 C 177.612 374.000,176.632 381.541,177.706 382.964 C 178.260 383.698,178.318 383.678,179.216 382.464 C 179.730 381.769,180.365 381.200,180.627 381.200 C 180.889 381.200,181.320 380.676,181.586 380.035 C 181.859 379.376,182.476 378.767,183.007 378.634 C 183.524 378.504,184.060 378.042,184.198 377.607 C 184.336 377.172,184.978 376.504,185.624 376.122 C 186.271 375.740,186.800 375.293,186.800 375.130 C 186.800 374.786,196.825 364.801,197.171 364.799 C 197.297 364.798,197.760 364.257,198.200 363.597 C 198.640 362.936,199.286 362.303,199.636 362.191 C 199.986 362.079,200.501 361.560,200.780 361.037 C 201.059 360.515,201.715 359.859,202.237 359.580 C 202.760 359.301,203.279 358.786,203.391 358.436 C 203.503 358.086,204.136 357.440,204.797 357.000 C 205.457 356.560,205.998 356.095,205.999 355.967 C 206.000 355.662,216.062 345.600,216.367 345.599 C 216.495 345.598,216.960 345.057,217.400 344.397 C 217.840 343.736,218.486 343.103,218.836 342.991 C 219.186 342.879,219.701 342.360,219.980 341.837 C 220.259 341.315,220.915 340.659,221.437 340.380 C 221.960 340.101,222.479 339.586,222.591 339.236 C 222.703 338.886,223.336 338.240,223.997 337.800 C 224.657 337.360,225.198 336.889,225.199 336.754 C 225.200 336.433,232.433 329.200,232.754 329.199 C 232.889 329.198,233.360 328.657,233.800 327.997 C 234.240 327.336,234.886 326.703,235.236 326.591 C 235.586 326.479,236.101 325.960,236.380 325.437 C 236.659 324.915,237.315 324.259,237.837 323.980 C 238.360 323.701,238.879 323.186,238.991 322.836 C 239.103 322.486,239.736 321.840,240.397 321.400 C 241.057 320.960,241.598 320.495,241.599 320.367 C 241.600 320.062,251.662 310.000,251.967 309.999 C 252.095 309.998,252.560 309.457,253.000 308.797 C 253.440 308.136,254.086 307.503,254.436 307.391 C 254.786 307.279,255.301 306.760,255.580 306.237 C 255.859 305.715,256.515 305.059,257.037 304.780 C 257.560 304.501,258.079 303.986,258.191 303.636 C 258.303 303.286,258.936 302.640,259.597 302.200 C 260.257 301.760,260.798 301.257,260.799 301.081 C 260.799 300.906,279.772 281.793,302.960 258.608 L 345.121 216.454 343.800 215.827 C 342.616 215.265,334.838 215.200,268.540 215.198 C 221.045 215.196,194.099 215.054,193.200 214.800 C 189.274 213.691,189.558 201.670,193.590 198.330 C 194.927 197.223,195.317 195.882,196.159 189.509 C 196.736 185.143,198.218 181.652,199.510 181.615 C 200.369 181.590,200.896 179.595,201.212 175.175 C 201.567 170.222,203.223 165.876,205.015 165.194 C 205.557 164.988,206.000 164.579,206.000 164.284 C 206.000 159.043,208.004 151.306,209.881 149.299 C 211.367 147.709,211.840 146.394,212.219 142.800 C 212.836 136.939,214.755 132.000,216.415 132.000 C 216.911 132.000,217.596 128.714,217.968 124.549 C 218.305 120.767,218.578 119.874,220.200 117.248 C 220.420 116.891,221.095 116.113,221.700 115.518 C 222.571 114.662,222.800 114.068,222.800 112.671 C 222.800 107.800,224.533 101.702,226.330 100.247 C 227.697 99.141,229.506 91.917,228.883 90.050 C 228.512 88.937,227.323 88.818,226.400 89.800 M234.446 181.853 C 234.382 182.481,232.881 182.819,232.651 182.258 C 232.522 181.942,232.453 181.956,232.432 182.300 C 232.410 182.645,231.596 182.800,229.800 182.800 C 227.412 182.800,227.200 182.870,227.200 183.654 C 227.200 184.444,227.345 184.489,229.100 184.248 C 230.145 184.105,232.221 183.874,233.714 183.735 C 235.429 183.575,236.370 183.320,236.272 183.041 C 236.187 182.799,235.835 182.650,235.490 182.710 C 235.145 182.771,234.779 182.501,234.678 182.110 C 234.576 181.720,234.472 181.604,234.446 181.853 " stroke="none" fill="#fbcb3d" fill-rule="evenodd"></path><path id="path1" d="M231.927 79.296 C 230.842 80.759,229.136 82.458,226.842 84.361 C 225.939 85.110,225.200 85.965,225.200 86.261 C 225.200 86.558,225.010 86.800,224.778 86.800 C 224.546 86.800,186.519 124.669,140.273 170.954 L 56.191 255.107 56.996 256.359 C 58.942 259.389,53.616 259.198,136.942 259.213 C 194.987 259.223,211.140 259.332,211.647 259.718 C 213.291 260.970,212.874 265.426,210.723 269.600 C 209.310 272.343,208.658 274.156,208.382 276.116 C 207.886 279.629,206.093 285.112,205.006 286.438 C 204.454 287.112,203.614 289.711,202.615 293.838 C 201.023 300.412,200.496 301.891,199.426 302.778 C 199.082 303.064,198.800 303.690,198.800 304.169 C 198.800 304.648,198.640 305.211,198.445 305.420 C 198.060 305.832,197.086 309.650,196.442 313.268 C 196.216 314.540,195.259 316.998,194.262 318.868 C 192.558 322.062,192.167 323.315,191.238 328.553 C 190.862 330.667,189.784 333.572,188.770 335.200 C 187.647 337.002,186.822 339.374,186.245 342.456 C 185.377 347.098,184.467 349.877,183.185 351.800 C 182.598 352.680,182.021 353.850,181.902 354.400 C 181.783 354.950,181.216 357.237,180.643 359.482 C 180.069 361.727,179.600 363.907,179.600 364.326 C 179.600 364.745,179.123 365.788,178.539 366.644 C 177.170 368.652,175.200 374.036,175.200 375.769 C 175.200 377.673,173.722 382.273,172.428 384.400 C 169.187 389.724,171.586 396.250,174.946 391.248 C 175.714 390.104,176.718 389.238,177.859 388.733 C 178.817 388.309,179.600 387.831,179.600 387.670 C 179.600 387.510,180.140 386.787,180.800 386.064 C 181.460 385.342,182.000 384.594,182.000 384.402 C 182.000 384.211,182.366 383.938,182.812 383.796 C 183.757 383.496,186.468 380.681,186.887 379.564 C 187.045 379.144,187.405 378.793,187.687 378.784 C 188.313 378.764,191.600 375.843,191.600 375.307 C 191.600 375.096,192.455 374.181,193.500 373.274 C 194.545 372.367,195.621 371.394,195.891 371.112 C 196.636 370.334,199.991 366.960,201.893 365.077 C 202.824 364.154,203.589 363.175,203.593 362.900 C 203.597 362.625,203.825 362.397,204.100 362.393 C 204.575 362.386,206.084 360.986,209.483 357.400 C 210.317 356.520,211.495 355.481,212.100 355.091 C 212.705 354.701,213.200 354.190,213.200 353.955 C 213.200 353.375,216.055 350.400,216.612 350.400 C 217.095 350.400,220.400 346.515,220.400 345.946 C 220.400 345.756,220.646 345.600,220.947 345.600 C 221.660 345.600,225.200 342.060,225.200 341.347 C 225.200 341.046,225.380 340.800,225.600 340.800 C 225.820 340.800,226.348 340.452,226.773 340.027 C 227.199 339.601,228.009 338.951,228.573 338.581 C 229.138 338.211,229.600 337.711,229.600 337.469 C 229.600 336.875,232.848 333.600,233.437 333.600 C 233.696 333.600,234.211 333.138,234.581 332.573 C 234.951 332.009,235.601 331.199,236.027 330.773 C 236.452 330.348,236.800 329.820,236.800 329.600 C 236.800 329.380,237.046 329.200,237.347 329.200 C 238.060 329.200,241.600 325.660,241.600 324.947 C 241.600 324.646,241.756 324.400,241.946 324.400 C 242.515 324.400,246.400 321.095,246.400 320.612 C 246.400 320.055,249.375 317.200,249.955 317.200 C 250.190 317.200,250.701 316.705,251.091 316.100 C 251.481 315.495,252.520 314.317,253.400 313.483 C 256.986 310.084,258.386 308.575,258.393 308.100 C 258.397 307.825,258.625 307.597,258.900 307.593 C 259.526 307.585,263.200 304.172,263.200 303.599 C 263.200 303.076,265.842 300.705,266.867 300.309 C 267.280 300.150,267.750 299.680,267.909 299.267 C 268.370 298.075,270.507 295.846,271.705 295.309 C 272.307 295.038,272.800 294.661,272.800 294.470 C 272.800 294.140,273.549 293.176,275.186 291.400 C 275.591 290.960,276.560 290.150,277.339 289.600 C 278.117 289.050,278.990 288.155,279.277 287.611 C 279.887 286.458,282.181 284.329,283.267 283.909 C 283.680 283.750,284.150 283.280,284.309 282.867 C 284.764 281.690,287.011 279.314,287.951 279.016 C 288.418 278.867,288.995 278.383,289.233 277.939 C 289.738 276.995,291.159 275.277,291.958 274.643 C 292.682 274.069,296.069 270.682,296.643 269.958 C 297.277 269.159,298.995 267.738,299.939 267.233 C 300.383 266.995,300.867 266.418,301.016 265.951 C 301.307 265.033,303.517 262.917,305.052 262.087 C 305.573 261.805,306.005 261.355,306.011 261.087 C 306.024 260.516,308.652 257.600,309.154 257.600 C 309.516 257.600,312.416 254.580,313.037 253.556 C 313.237 253.227,314.255 252.351,315.300 251.611 C 316.345 250.870,317.200 250.147,317.200 250.004 C 317.200 249.433,320.109 246.391,321.118 245.908 C 321.709 245.625,322.421 244.917,322.700 244.335 C 322.979 243.753,323.880 242.709,324.703 242.014 C 327.176 239.928,328.437 238.654,329.077 237.600 C 329.410 237.050,330.558 235.970,331.627 235.200 C 332.696 234.430,333.802 233.355,334.085 232.811 C 334.683 231.662,336.976 229.531,338.067 229.109 C 338.480 228.950,338.950 228.480,339.109 228.067 C 339.564 226.890,341.811 224.514,342.751 224.216 C 343.218 224.067,343.795 223.583,344.033 223.139 C 344.496 222.274,345.944 220.487,346.600 219.971 C 346.820 219.798,347.809 218.938,348.798 218.059 L 350.596 216.461 349.698 215.247 C 349.204 214.579,348.800 213.864,348.800 213.659 C 348.800 212.688,342.619 212.587,271.200 212.400 C 229.290 212.290,194.775 212.054,194.500 211.876 C 193.440 211.191,193.877 206.489,195.200 204.338 C 195.860 203.266,196.400 202.153,196.400 201.865 C 196.400 201.578,196.655 200.545,196.966 199.571 C 197.278 198.597,197.929 196.043,198.413 193.895 C 198.897 191.747,199.624 189.569,200.029 189.054 C 201.504 187.179,202.899 183.009,203.575 178.449 C 203.832 176.723,204.660 174.458,206.136 171.449 C 207.764 168.129,208.373 166.400,208.537 164.635 C 208.774 162.072,210.702 155.974,211.419 155.519 C 212.138 155.062,213.102 152.424,213.802 149.000 C 214.789 144.170,216.075 140.070,216.871 139.216 C 217.827 138.190,218.997 134.646,219.960 129.860 C 220.512 127.116,221.257 124.951,222.414 122.727 C 224.362 118.983,224.698 117.950,225.194 114.200 C 225.588 111.219,227.110 107.030,228.465 105.197 C 228.917 104.586,229.445 103.301,229.638 102.343 C 229.936 100.861,230.439 98.714,231.875 92.800 C 232.009 92.250,232.597 91.080,233.182 90.200 C 236.457 85.277,235.252 74.810,231.927 79.296 M233.637 84.034 C 233.802 85.453,233.279 86.686,232.416 86.912 C 231.926 87.040,231.496 87.725,231.197 88.855 C 230.942 89.815,230.479 91.476,230.167 92.546 C 229.855 93.616,229.600 95.118,229.600 95.884 C 229.600 98.011,228.530 101.231,226.956 103.843 C 226.020 105.396,225.288 107.360,224.811 109.600 C 223.520 115.661,222.417 119.330,221.633 120.174 C 220.725 121.151,219.563 124.561,218.625 129.000 C 217.537 134.146,217.199 135.201,216.377 136.023 C 215.950 136.450,215.600 136.974,215.600 137.188 C 215.600 137.401,215.233 138.279,214.785 139.140 C 214.336 140.000,213.783 141.851,213.555 143.252 C 212.773 148.060,211.927 150.738,210.325 153.467 C 209.179 155.420,208.615 156.942,208.349 158.800 C 207.804 162.599,205.987 168.433,204.955 169.695 C 203.939 170.938,202.547 175.757,200.977 183.469 C 200.880 183.947,200.377 184.847,199.859 185.469 C 198.635 186.940,197.360 190.701,196.598 195.091 C 196.057 198.207,194.397 202.638,193.557 203.208 C 192.953 203.618,192.433 205.600,192.175 208.477 L 191.913 211.400 193.256 212.600 L 194.600 213.800 269.400 214.015 C 323.018 214.169,344.633 214.357,345.729 214.679 C 348.242 215.418,349.614 217.196,347.676 217.202 C 347.304 217.204,346.280 218.020,345.400 219.016 C 342.828 221.927,340.653 223.989,339.900 224.230 C 339.515 224.353,339.200 224.680,339.200 224.955 C 339.200 225.681,335.724 229.200,335.007 229.200 C 334.673 229.200,334.400 229.348,334.400 229.528 C 334.400 229.708,333.860 230.461,333.200 231.200 C 332.540 231.939,332.000 232.778,332.000 233.064 C 332.000 233.351,331.573 233.692,331.051 233.823 C 329.906 234.110,327.392 236.651,327.017 237.900 C 326.868 238.395,326.512 238.800,326.225 238.800 C 325.938 238.800,324.884 239.655,323.882 240.700 C 321.580 243.102,319.902 244.780,317.500 247.082 C 316.455 248.084,315.600 249.129,315.600 249.403 C 315.600 249.678,315.084 250.117,314.453 250.378 C 313.056 250.957,310.987 253.072,310.617 254.300 C 310.468 254.795,310.116 255.200,309.834 255.200 C 309.553 255.200,308.890 255.578,308.361 256.041 C 307.833 256.504,307.130 257.090,306.800 257.343 C 306.470 257.597,305.899 258.343,305.532 259.002 C 305.165 259.661,304.071 260.740,303.102 261.400 C 302.133 262.060,300.738 263.466,300.004 264.524 C 299.269 265.582,298.202 266.689,297.634 266.984 C 296.339 267.655,294.270 269.928,293.984 270.995 C 293.865 271.438,293.411 271.852,292.976 271.916 C 292.540 271.979,291.467 272.841,290.592 273.829 C 288.013 276.742,285.850 278.790,285.100 279.030 C 284.715 279.153,284.400 279.480,284.400 279.755 C 284.400 280.481,280.924 284.000,280.207 284.000 C 279.873 284.000,279.600 284.148,279.600 284.328 C 279.600 284.508,279.060 285.261,278.400 286.000 C 277.740 286.739,277.200 287.578,277.200 287.864 C 277.200 288.151,276.795 288.487,276.300 288.613 C 275.805 288.738,274.770 289.556,274.000 290.431 C 271.622 293.130,269.432 295.196,268.700 295.430 C 268.315 295.553,268.000 295.880,268.000 296.155 C 268.000 296.823,264.552 300.400,263.907 300.401 C 263.628 300.401,263.130 300.822,262.800 301.336 C 262.470 301.850,261.777 302.930,261.260 303.735 C 260.744 304.541,260.069 305.200,259.760 305.200 C 259.018 305.200,256.000 308.238,256.000 308.986 C 256.000 309.308,255.595 309.785,255.100 310.045 C 253.700 310.780,251.472 312.823,250.702 314.077 C 250.317 314.703,249.237 315.756,248.302 316.417 C 247.366 317.079,245.970 318.508,245.200 319.593 C 244.430 320.679,243.449 321.688,243.020 321.836 C 242.037 322.175,239.200 325.187,239.200 325.892 C 239.200 326.182,238.795 326.575,238.300 326.764 C 237.212 327.181,234.400 329.779,234.400 330.367 C 234.400 330.599,233.429 331.556,232.241 332.494 C 231.054 333.432,229.340 335.145,228.432 336.300 C 227.524 337.455,226.592 338.400,226.359 338.400 C 225.771 338.400,222.800 341.649,222.800 342.292 C 222.800 342.582,222.395 342.975,221.900 343.164 C 220.726 343.614,218.176 346.036,217.834 347.025 C 217.687 347.451,216.679 348.430,215.593 349.200 C 214.508 349.970,213.079 351.366,212.417 352.302 C 211.756 353.237,210.703 354.317,210.077 354.702 C 208.823 355.472,206.780 357.700,206.045 359.100 C 205.785 359.595,205.308 360.000,204.986 360.000 C 204.222 360.000,201.200 363.025,201.200 363.790 C 201.200 364.114,200.705 364.644,200.100 364.967 C 198.821 365.651,196.520 367.837,195.472 369.365 C 195.071 369.948,194.081 370.855,193.272 371.379 C 192.462 371.904,191.170 373.240,190.400 374.348 C 189.630 375.456,188.748 376.371,188.440 376.381 C 187.735 376.405,184.400 379.900,184.400 380.615 C 184.400 380.907,184.078 381.248,183.683 381.374 C 182.759 381.667,179.600 384.521,179.600 385.062 C 179.600 386.052,178.037 386.896,176.677 386.641 L 175.321 386.386 175.507 383.293 C 175.782 378.744,177.333 372.226,178.508 370.684 C 179.798 368.993,181.584 363.622,181.873 360.568 C 181.999 359.231,182.511 357.341,183.011 356.368 C 186.025 350.497,186.427 349.460,186.836 346.511 C 187.361 342.721,188.399 339.655,190.055 337.000 C 190.959 335.551,191.564 333.732,192.249 330.400 C 192.768 327.870,193.375 325.387,193.597 324.881 C 193.819 324.376,194.000 323.689,194.000 323.354 C 194.000 323.020,194.450 322.157,195.000 321.435 C 196.314 319.713,197.469 316.279,198.238 311.815 C 198.922 307.838,199.804 305.361,200.650 305.036 C 200.953 304.920,201.200 304.470,201.200 304.036 C 201.200 303.602,201.375 303.139,201.589 303.007 C 202.217 302.619,203.600 297.666,203.600 295.808 C 203.600 293.603,204.440 291.261,206.436 287.896 C 207.730 285.716,208.153 284.477,208.625 281.496 C 209.350 276.916,210.680 272.905,211.894 271.637 C 212.401 271.108,212.917 270.208,213.041 269.637 C 213.165 269.067,213.431 268.078,213.633 267.440 C 214.604 264.371,213.950 259.276,212.435 258.113 C 211.941 257.734,195.211 257.623,137.198 257.613 L 62.595 257.600 60.598 256.358 L 58.600 255.116 139.066 174.658 C 183.322 130.406,219.721 94.020,219.951 93.800 C 220.182 93.580,221.239 92.455,222.302 91.300 C 223.364 90.145,224.451 89.200,224.717 89.200 C 224.982 89.200,225.203 89.065,225.208 88.900 C 225.220 88.413,227.799 85.600,228.233 85.600 C 229.316 85.600,231.792 83.888,232.337 82.762 C 232.996 81.402,233.375 81.773,233.637 84.034 M227.200 177.209 C 227.200 177.433,226.766 178.288,226.236 179.109 C 224.457 181.860,224.581 187.162,226.481 189.613 L 227.400 190.798 244.200 190.668 C 259.073 190.553,261.264 190.455,263.300 189.813 L 265.600 189.089 265.600 187.177 C 265.600 185.047,265.285 183.900,264.786 184.209 C 264.604 184.321,264.342 184.230,264.204 184.007 C 264.042 183.744,259.253 183.600,250.724 183.600 L 237.495 183.600 237.712 182.266 C 237.947 180.819,237.474 179.464,237.080 180.455 C 236.950 180.782,236.851 180.660,236.832 180.149 C 236.789 179.014,235.667 178.044,235.225 178.759 C 234.987 179.144,234.849 179.104,234.652 178.592 C 234.510 178.221,234.151 178.010,233.855 178.123 C 233.560 178.237,233.023 177.986,232.663 177.565 C 231.941 176.721,227.200 176.412,227.200 177.209 M235.221 180.821 C 235.538 181.322,235.589 181.322,235.594 180.825 C 235.598 180.416,235.832 180.499,236.400 181.108 C 238.036 182.864,237.486 183.801,234.619 184.145 C 233.266 184.307,232.000 185.193,232.000 185.979 C 232.000 186.249,230.122 187.106,228.528 187.563 C 226.901 188.030,225.544 184.396,226.575 182.329 C 226.919 181.641,227.200 180.838,227.200 180.546 C 227.200 179.755,234.710 180.012,235.221 180.821 " stroke="none" fill="#917424" fill-rule="evenodd"></path><path id="path2" d="M232.337 82.762 C 231.792 83.888,229.316 85.600,228.233 85.600 C 227.799 85.600,225.220 88.413,225.208 88.900 C 225.203 89.065,224.982 89.200,224.717 89.200 C 224.451 89.200,223.364 90.145,222.302 91.300 C 221.239 92.455,220.182 93.580,219.951 93.800 C 219.721 94.020,183.322 130.406,139.066 174.658 L 58.600 255.116 60.598 256.358 L 62.595 257.600 137.198 257.613 C 195.211 257.623,211.941 257.734,212.435 258.113 C 213.950 259.276,214.604 264.371,213.633 267.440 C 213.431 268.078,213.165 269.067,213.041 269.637 C 212.917 270.208,212.401 271.108,211.894 271.637 C 210.680 272.905,209.350 276.916,208.625 281.496 C 208.153 284.477,207.730 285.716,206.436 287.896 C 204.440 291.261,203.600 293.603,203.600 295.808 C 203.600 297.666,202.217 302.619,201.589 303.007 C 201.375 303.139,201.200 303.602,201.200 304.036 C 201.200 304.470,200.953 304.920,200.650 305.036 C 199.804 305.361,198.922 307.838,198.238 311.815 C 197.469 316.279,196.314 319.713,195.000 321.435 C 194.450 322.157,194.000 323.020,194.000 323.354 C 194.000 323.689,193.819 324.376,193.597 324.881 C 193.375 325.387,192.768 327.870,192.249 330.400 C 191.564 333.732,190.959 335.551,190.055 337.000 C 188.399 339.655,187.361 342.721,186.836 346.511 C 186.427 349.460,186.025 350.497,183.011 356.368 C 182.511 357.341,181.999 359.231,181.873 360.568 C 181.584 363.622,179.798 368.993,178.508 370.684 C 177.333 372.226,175.782 378.744,175.507 383.293 L 175.321 386.386 176.677 386.641 C 178.037 386.896,179.600 386.052,179.600 385.062 C 179.600 384.521,182.759 381.667,183.683 381.374 C 184.078 381.248,184.400 380.907,184.400 380.615 C 184.400 379.900,187.735 376.405,188.440 376.381 C 188.748 376.371,189.630 375.456,190.400 374.348 C 191.170 373.240,192.462 371.904,193.272 371.379 C 194.081 370.855,195.071 369.948,195.472 369.365 C 196.520 367.837,198.821 365.651,200.100 364.967 C 200.705 364.644,201.200 364.114,201.200 363.790 C 201.200 363.025,204.222 360.000,204.986 360.000 C 205.308 360.000,205.785 359.595,206.045 359.100 C 206.780 357.700,208.823 355.472,210.077 354.702 C 210.703 354.317,211.756 353.237,212.417 352.302 C 213.079 351.366,214.508 349.970,215.593 349.200 C 216.679 348.430,217.687 347.451,217.834 347.025 C 218.176 346.036,220.726 343.614,221.900 343.164 C 222.395 342.975,222.800 342.582,222.800 342.292 C 222.800 341.649,225.771 338.400,226.359 338.400 C 226.592 338.400,227.524 337.455,228.432 336.300 C 229.340 335.145,231.054 333.432,232.241 332.494 C 233.429 331.556,234.400 330.599,234.400 330.367 C 234.400 329.779,237.212 327.181,238.300 326.764 C 238.795 326.575,239.200 326.182,239.200 325.892 C 239.200 325.187,242.037 322.175,243.020 321.836 C 243.449 321.688,244.430 320.679,245.200 319.593 C 245.970 318.508,247.366 317.079,248.302 316.417 C 249.237 315.756,250.317 314.703,250.702 314.077 C 251.472 312.823,253.700 310.780,255.100 310.045 C 255.595 309.785,256.000 309.308,256.000 308.986 C 256.000 308.238,259.018 305.200,259.760 305.200 C 260.069 305.200,260.744 304.541,261.260 303.735 C 261.777 302.930,262.470 301.850,262.800 301.336 C 263.130 300.822,263.628 300.401,263.907 300.401 C 264.552 300.400,268.000 296.823,268.000 296.155 C 268.000 295.880,268.315 295.553,268.700 295.430 C 269.432 295.196,271.622 293.130,274.000 290.431 C 274.770 289.556,275.805 288.738,276.300 288.613 C 276.795 288.487,277.200 288.151,277.200 287.864 C 277.200 287.578,277.740 286.739,278.400 286.000 C 279.060 285.261,279.600 284.508,279.600 284.328 C 279.600 284.148,279.873 284.000,280.207 284.000 C 280.924 284.000,284.400 280.481,284.400 279.755 C 284.400 279.480,284.715 279.153,285.100 279.030 C 285.850 278.790,288.013 276.742,290.592 273.829 C 291.467 272.841,292.540 271.979,292.976 271.916 C 293.411 271.852,293.865 271.438,293.984 270.995 C 294.270 269.928,296.339 267.655,297.634 266.984 C 298.202 266.689,299.269 265.582,300.004 264.524 C 300.738 263.466,302.133 262.060,303.102 261.400 C 304.071 260.740,305.165 259.661,305.532 259.002 C 305.899 258.343,306.470 257.597,306.800 257.343 C 307.130 257.090,307.833 256.504,308.361 256.041 C 308.890 255.578,309.553 255.200,309.834 255.200 C 310.116 255.200,310.468 254.795,310.617 254.300 C 310.987 253.072,313.056 250.957,314.453 250.378 C 315.084 250.117,315.600 249.678,315.600 249.403 C 315.600 249.129,316.455 248.084,317.500 247.082 C 319.902 244.780,321.580 243.102,323.882 240.700 C 324.884 239.655,325.938 238.800,326.225 238.800 C 326.512 238.800,326.868 238.395,327.017 237.900 C 327.392 236.651,329.906 234.110,331.051 233.823 C 331.573 233.692,332.000 233.351,332.000 233.064 C 332.000 232.778,332.540 231.939,333.200 231.200 C 333.860 230.461,334.400 229.708,334.400 229.528 C 334.400 229.348,334.673 229.200,335.007 229.200 C 335.724 229.200,339.200 225.681,339.200 224.955 C 339.200 224.680,339.515 224.353,339.900 224.230 C 340.653 223.989,342.828 221.927,345.400 219.016 C 346.280 218.020,347.304 217.204,347.676 217.202 C 349.614 217.196,348.242 215.418,345.729 214.679 C 344.633 214.357,323.018 214.169,269.400 214.015 L 194.600 213.800 193.256 212.600 L 191.913 211.400 192.175 208.477 C 192.433 205.600,192.953 203.618,193.557 203.208 C 194.397 202.638,196.057 198.207,196.598 195.091 C 197.360 190.701,198.635 186.940,199.859 185.469 C 200.377 184.847,200.880 183.947,200.977 183.469 C 202.547 175.757,203.939 170.938,204.955 169.695 C 205.987 168.433,207.804 162.599,208.349 158.800 C 208.615 156.942,209.179 155.420,210.325 153.467 C 211.927 150.738,212.773 148.060,213.555 143.252 C 213.783 141.851,214.336 140.000,214.785 139.140 C 215.233 138.279,215.600 137.401,215.600 137.188 C 215.600 136.974,215.950 136.450,216.377 136.023 C 217.199 135.201,217.537 134.146,218.625 129.000 C 219.563 124.561,220.725 121.151,221.633 120.174 C 222.417 119.330,223.520 115.661,224.811 109.600 C 225.288 107.360,226.020 105.396,226.956 103.843 C 228.530 101.231,229.600 98.011,229.600 95.884 C 229.600 95.118,229.855 93.616,230.167 92.546 C 230.479 91.476,230.942 89.815,231.197 88.855 C 231.496 87.725,231.926 87.040,232.416 86.912 C 233.652 86.588,234.033 84.440,233.236 82.286 C 232.976 81.584,232.884 81.633,232.337 82.762 M228.883 90.050 C 229.506 91.917,227.697 99.141,226.330 100.247 C 224.533 101.702,222.800 107.800,222.800 112.671 C 222.800 114.068,222.571 114.662,221.700 115.518 C 221.095 116.113,220.420 116.891,220.200 117.248 C 218.578 119.874,218.305 120.767,217.968 124.549 C 217.596 128.714,216.911 132.000,216.415 132.000 C 214.755 132.000,212.836 136.939,212.219 142.800 C 211.840 146.394,211.367 147.709,209.881 149.299 C 208.004 151.306,206.000 159.043,206.000 164.284 C 206.000 164.579,205.557 164.988,205.015 165.194 C 203.223 165.876,201.567 170.222,201.212 175.175 C 200.896 179.595,200.369 181.590,199.510 181.615 C 198.218 181.652,196.736 185.143,196.159 189.509 C 195.317 195.882,194.927 197.223,193.590 198.330 C 189.558 201.670,189.274 213.691,193.200 214.800 C 194.099 215.054,221.045 215.196,268.540 215.198 C 334.838 215.200,342.616 215.265,343.800 215.827 L 345.121 216.454 302.960 258.608 C 279.772 281.793,260.799 300.906,260.799 301.081 C 260.798 301.257,260.257 301.760,259.597 302.200 C 258.936 302.640,258.303 303.286,258.191 303.636 C 258.079 303.986,257.560 304.501,257.037 304.780 C 256.515 305.059,255.859 305.715,255.580 306.237 C 255.301 306.760,254.786 307.279,254.436 307.391 C 254.086 307.503,253.440 308.136,253.000 308.797 C 252.560 309.457,252.095 309.998,251.967 309.999 C 251.662 310.000,241.600 320.062,241.599 320.367 C 241.598 320.495,241.057 320.960,240.397 321.400 C 239.736 321.840,239.103 322.486,238.991 322.836 C 238.879 323.186,238.360 323.701,237.837 323.980 C 237.315 324.259,236.659 324.915,236.380 325.437 C 236.101 325.960,235.586 326.479,235.236 326.591 C 234.886 326.703,234.240 327.336,233.800 327.997 C 233.360 328.657,232.889 329.198,232.754 329.199 C 232.433 329.200,225.200 336.433,225.199 336.754 C 225.198 336.889,224.657 337.360,223.997 337.800 C 223.336 338.240,222.703 338.886,222.591 339.236 C 222.479 339.586,221.960 340.101,221.437 340.380 C 220.915 340.659,220.259 341.315,219.980 341.837 C 219.701 342.360,219.186 342.879,218.836 342.991 C 218.486 343.103,217.840 343.736,217.400 344.397 C 216.960 345.057,216.495 345.598,216.367 345.599 C 216.062 345.600,206.000 355.662,205.999 355.967 C 205.998 356.095,205.457 356.560,204.797 357.000 C 204.136 357.440,203.503 358.086,203.391 358.436 C 203.279 358.786,202.760 359.301,202.237 359.580 C 201.715 359.859,201.059 360.515,200.780 361.037 C 200.501 361.560,199.986 362.079,199.636 362.191 C 199.286 362.303,198.640 362.936,198.200 363.597 C 197.760 364.257,197.297 364.798,197.171 364.799 C 196.825 364.801,186.800 374.786,186.800 375.130 C 186.800 375.293,186.271 375.740,185.624 376.122 C 184.978 376.504,184.336 377.172,184.198 377.607 C 184.060 378.042,183.524 378.504,183.007 378.634 C 182.476 378.767,181.859 379.376,181.586 380.035 C 181.320 380.676,180.889 381.200,180.627 381.200 C 180.365 381.200,179.730 381.769,179.216 382.464 C 178.318 383.678,178.260 383.698,177.706 382.964 C 176.632 381.541,177.612 374.000,178.870 374.000 C 179.309 374.000,179.832 373.449,181.074 371.678 C 181.470 371.113,182.061 368.358,182.598 364.570 L 183.475 358.384 185.051 357.035 C 186.812 355.527,187.166 354.492,188.208 347.800 C 188.550 345.600,188.922 343.216,189.033 342.503 C 189.183 341.539,189.490 341.142,190.232 340.956 C 191.952 340.524,193.437 336.027,193.849 330.000 C 194.135 325.821,194.408 324.978,195.598 324.601 C 197.123 324.116,198.431 321.132,198.791 317.314 C 199.103 314.011,199.409 311.764,199.825 309.721 C 199.924 309.238,200.519 308.539,201.148 308.167 C 203.230 306.937,203.456 306.234,204.970 296.238 C 205.465 292.965,205.623 292.576,206.916 291.438 C 208.900 289.691,210.800 282.697,210.800 277.140 C 210.800 276.308,211.099 275.866,211.967 275.417 C 214.265 274.229,215.359 271.011,215.537 264.920 C 215.727 258.422,215.625 257.986,213.658 256.881 L 212.091 256.000 137.891 256.000 C 77.601 256.000,63.458 255.902,62.445 255.476 L 61.198 254.951 62.299 253.921 C 62.905 253.354,63.795 252.771,64.278 252.625 C 64.761 252.479,65.696 251.483,66.356 250.410 C 67.070 249.250,68.368 247.929,69.564 247.146 C 70.669 246.422,71.774 245.346,72.019 244.755 C 72.555 243.461,73.713 242.345,75.600 241.304 C 76.370 240.879,77.062 240.187,77.138 239.766 C 77.325 238.729,79.488 236.515,80.583 236.240 C 81.072 236.117,82.011 235.147,82.678 234.073 C 83.343 233.004,84.673 231.601,85.634 230.955 C 86.595 230.310,87.910 228.995,88.555 228.034 C 89.201 227.073,90.604 225.743,91.673 225.078 C 92.747 224.411,93.717 223.472,93.840 222.983 C 94.115 221.888,96.329 219.725,97.366 219.538 C 97.787 219.462,98.479 218.770,98.904 218.000 C 99.945 216.113,101.061 214.955,102.355 214.419 C 102.946 214.174,104.022 213.069,104.746 211.964 C 105.522 210.779,106.849 209.470,107.984 208.772 C 109.080 208.098,110.114 207.091,110.386 206.434 C 110.953 205.065,112.149 203.913,113.796 203.148 C 114.454 202.843,115.243 202.054,115.548 201.396 C 116.313 199.749,117.465 198.553,118.834 197.986 C 119.491 197.714,120.498 196.680,121.172 195.584 C 121.870 194.449,123.179 193.122,124.364 192.346 C 125.469 191.622,126.574 190.546,126.819 189.955 C 127.355 188.660,128.515 187.543,130.400 186.506 C 131.187 186.073,131.855 185.367,131.925 184.892 C 131.993 184.428,132.803 183.413,133.725 182.636 C 135.530 181.113,135.822 180.832,138.755 177.800 C 140.761 175.727,141.605 174.881,144.674 171.874 C 146.509 170.075,147.185 169.404,150.095 166.495 C 154.153 162.436,157.185 159.383,158.400 158.131 C 158.950 157.565,160.300 156.228,161.400 155.161 C 164.464 152.188,164.720 151.922,166.258 150.100 C 167.047 149.165,167.886 148.400,168.121 148.400 C 168.720 148.400,170.400 146.761,170.400 146.177 C 170.400 145.911,171.165 145.047,172.100 144.258 C 173.035 143.469,174.160 142.453,174.600 142.001 C 175.040 141.550,176.480 140.107,177.800 138.795 C 179.120 137.483,180.425 136.183,180.701 135.905 C 180.976 135.627,181.852 134.635,182.647 133.700 C 183.443 132.765,184.286 132.000,184.521 132.000 C 185.120 132.000,186.800 130.361,186.800 129.777 C 186.800 129.511,187.565 128.647,188.500 127.858 C 190.322 126.320,190.588 126.064,193.561 123.000 C 194.628 121.900,195.965 120.550,196.531 120.000 C 198.472 118.117,204.885 111.722,210.346 106.226 C 211.366 105.199,212.650 103.924,213.200 103.392 C 213.750 102.860,214.631 101.865,215.157 101.180 C 215.683 100.496,216.794 99.486,217.625 98.936 C 218.456 98.386,219.591 97.249,220.147 96.409 C 220.703 95.569,221.929 94.363,222.872 93.730 C 223.816 93.096,224.790 92.171,225.038 91.674 C 226.280 89.184,228.309 88.326,228.883 90.050 M227.200 180.546 C 227.200 180.838,226.919 181.641,226.575 182.329 C 225.544 184.396,226.901 188.030,228.528 187.563 C 230.742 186.928,231.955 186.217,232.367 185.313 C 232.596 184.811,232.967 184.378,233.191 184.350 C 233.416 184.322,233.780 184.255,234.000 184.200 C 234.220 184.145,234.940 184.078,235.600 184.050 C 236.637 184.007,236.800 183.847,236.800 182.876 C 236.800 181.683,235.642 179.669,235.607 180.800 C 235.590 181.319,235.538 181.321,235.221 180.821 C 234.710 180.012,227.200 179.755,227.200 180.546 M235.490 182.710 C 235.835 182.650,236.187 182.799,236.272 183.041 C 236.370 183.320,235.429 183.575,233.714 183.735 C 232.221 183.874,230.145 184.105,229.100 184.248 C 227.345 184.489,227.200 184.444,227.200 183.654 C 227.200 182.870,227.412 182.800,229.800 182.800 C 231.596 182.800,232.410 182.645,232.432 182.300 C 232.453 181.956,232.522 181.942,232.651 182.258 C 232.881 182.819,234.382 182.481,234.446 181.853 C 234.472 181.604,234.576 181.720,234.678 182.110 C 234.779 182.501,235.145 182.771,235.490 182.710 " stroke="none" fill="#b48c2c" fill-rule="evenodd"></path><path id="path3" d="M226.885 46.699 C 222.248 46.845,222.000 47.034,222.000 50.426 L 222.000 52.000 219.829 52.000 C 216.997 52.000,216.400 52.593,216.400 55.409 L 216.400 57.562 213.900 57.681 L 211.400 57.800 211.296 59.200 C 210.999 63.196,211.033 63.150,208.285 63.281 L 205.800 63.400 205.682 65.853 L 205.564 68.306 203.150 68.481 C 200.315 68.686,200.015 69.013,200.006 71.900 L 200.000 74.000 197.624 74.000 C 194.870 74.000,194.789 74.083,194.506 77.209 L 194.292 79.565 191.846 79.682 L 189.400 79.800 189.281 82.300 L 189.162 84.800 187.407 84.800 C 184.114 84.800,183.600 85.231,183.600 87.990 L 183.600 90.400 181.190 90.400 C 178.431 90.400,178.000 90.914,178.000 94.207 L 178.000 95.962 175.500 96.081 L 173.000 96.200 172.882 98.639 L 172.765 101.078 170.082 101.439 L 167.400 101.800 167.281 104.300 L 167.162 106.800 164.795 106.800 C 162.001 106.800,161.600 107.246,161.600 110.355 L 161.600 112.362 159.100 112.481 L 156.600 112.600 156.496 114.000 C 156.199 117.996,156.233 117.950,153.485 118.081 L 151.000 118.200 150.881 120.700 L 150.762 123.200 148.609 123.200 C 145.798 123.200,145.200 123.798,145.200 126.609 L 145.200 128.762 142.700 128.881 L 140.200 129.000 139.855 131.682 L 139.511 134.364 137.055 134.482 L 134.600 134.600 134.481 137.100 L 134.362 139.600 132.607 139.600 C 129.314 139.600,128.800 140.031,128.800 142.790 L 128.800 145.200 126.390 145.200 C 123.631 145.200,123.200 145.714,123.200 149.007 L 123.200 150.762 120.700 150.881 L 118.200 151.000 118.082 153.446 L 117.965 155.892 115.609 156.106 C 112.483 156.389,112.400 156.470,112.400 159.224 L 112.400 161.600 110.014 161.600 C 107.199 161.600,106.800 162.041,106.800 165.155 L 106.800 167.162 104.300 167.281 L 101.800 167.400 101.682 169.839 L 101.565 172.278 98.882 172.639 L 96.200 173.000 96.081 175.500 L 95.962 178.000 93.809 178.000 C 90.998 178.000,90.400 178.598,90.400 181.409 L 90.400 183.562 87.900 183.681 L 85.400 183.800 85.055 186.482 L 84.711 189.164 82.255 189.282 L 79.800 189.400 79.681 191.900 L 79.562 194.400 77.555 194.400 C 74.441 194.400,74.000 194.799,74.000 197.614 L 74.000 200.000 71.590 200.000 C 68.831 200.000,68.400 200.514,68.400 203.807 L 68.400 205.562 65.900 205.681 L 63.400 205.800 63.281 208.300 L 63.162 210.800 61.407 210.800 C 58.114 210.800,57.600 211.231,57.600 213.990 L 57.600 216.400 55.214 216.400 C 52.399 216.400,52.000 216.841,52.000 219.955 L 52.000 221.962 49.500 222.081 L 47.000 222.200 46.882 224.646 L 46.765 227.092 44.409 227.306 C 41.283 227.589,41.200 227.670,41.200 230.424 L 41.200 232.800 38.880 232.800 C 35.986 232.800,35.600 233.186,35.600 236.080 L 35.600 238.400 33.187 238.400 C 30.500 238.400,30.580 238.313,30.205 241.658 L 29.953 243.916 28.169 244.184 C 25.047 244.652,25.019 244.768,24.873 258.226 C 24.728 271.580,24.637 271.200,27.982 271.200 L 29.907 271.200 30.191 273.858 C 30.348 275.319,30.648 276.714,30.859 276.958 C 31.070 277.201,31.548 278.030,31.921 278.800 C 32.864 280.744,35.439 281.962,38.654 281.984 L 41.108 282.000 41.379 284.172 C 41.530 285.381,41.933 286.578,42.287 286.872 C 42.807 287.304,54.780 287.419,107.861 287.505 L 172.800 287.609 172.800 295.757 L 172.800 303.904 170.368 304.080 C 167.163 304.312,167.213 304.173,167.206 312.844 L 167.200 320.288 164.943 320.521 C 161.742 320.851,161.817 320.654,161.670 329.153 L 161.539 336.668 159.070 337.034 L 156.600 337.400 156.259 345.200 C 156.072 349.490,155.871 353.051,155.813 353.112 C 155.756 353.174,154.739 353.337,153.554 353.474 C 150.772 353.795,150.813 353.700,150.806 359.855 L 150.800 365.111 149.464 365.362 C 146.552 365.908,145.200 369.510,145.200 376.726 L 145.200 381.200 144.019 381.200 C 142.513 381.200,140.917 381.923,140.589 382.754 C 140.077 384.048,139.601 396.343,139.854 401.716 C 140.147 407.940,140.180 408.000,143.314 408.000 L 145.081 408.000 145.305 412.549 C 145.630 419.138,145.680 419.186,152.300 419.195 L 156.400 419.200 156.400 421.592 C 156.400 424.648,155.440 424.462,170.467 424.318 C 184.155 424.186,183.269 424.383,183.515 421.417 L 183.696 419.234 186.348 419.117 L 189.000 419.000 189.118 416.319 L 189.236 413.637 191.718 413.519 L 194.200 413.400 194.318 410.718 L 194.436 408.036 197.118 407.918 L 199.800 407.800 199.919 405.318 L 200.037 402.836 202.719 402.718 L 205.400 402.600 205.518 399.900 L 205.637 397.200 208.218 397.200 L 210.800 397.200 210.800 394.418 L 210.800 391.637 213.500 391.518 L 216.200 391.400 216.318 388.700 L 216.437 386.000 219.218 386.000 L 222.000 386.000 222.000 383.400 L 222.000 380.800 224.600 380.800 L 227.200 380.800 227.200 378.018 L 227.200 375.237 229.900 375.118 L 232.600 375.000 232.718 372.318 L 232.836 369.636 235.518 369.518 L 238.200 369.400 238.319 366.918 L 238.437 364.436 241.119 364.318 L 243.800 364.200 243.918 361.519 L 244.036 358.837 246.518 358.719 L 249.000 358.600 249.118 355.918 L 249.236 353.236 251.918 353.118 L 254.600 353.000 254.719 350.518 L 254.837 348.036 257.519 347.918 L 260.200 347.800 260.318 345.100 L 260.437 342.400 263.018 342.400 L 265.600 342.400 265.600 339.618 L 265.600 336.837 268.300 336.718 L 271.000 336.600 271.118 333.900 L 271.237 331.200 274.018 331.200 L 276.800 331.200 276.800 328.600 L 276.800 326.000 279.400 326.000 L 282.000 326.000 282.000 323.218 L 282.000 320.437 284.700 320.318 L 287.400 320.200 287.518 317.500 L 287.637 314.800 290.418 314.800 L 293.200 314.800 293.200 312.218 L 293.200 309.637 295.900 309.518 L 298.600 309.400 298.718 306.719 L 298.836 304.037 301.318 303.919 L 303.800 303.800 303.918 301.118 L 304.036 298.436 306.718 298.318 L 309.400 298.200 309.519 295.718 L 309.637 293.236 312.319 293.118 L 315.000 293.000 315.118 290.300 L 315.237 287.600 317.818 287.600 L 320.400 287.600 320.400 284.818 L 320.400 282.037 323.100 281.918 L 325.800 281.800 325.919 279.318 L 326.037 276.836 328.719 276.718 L 331.400 276.600 331.518 273.900 L 331.637 271.200 334.218 271.200 L 336.800 271.200 336.800 268.418 L 336.800 265.637 339.500 265.518 L 342.200 265.400 342.318 262.700 L 342.437 260.000 345.218 260.000 L 348.000 260.000 348.000 257.418 L 348.000 254.837 350.700 254.718 L 353.400 254.600 353.518 251.919 L 353.636 249.237 356.118 249.119 L 358.600 249.000 358.718 246.300 L 358.837 243.600 361.618 243.600 L 364.400 243.600 364.400 241.018 L 364.400 238.437 367.100 238.318 L 369.800 238.200 369.918 235.519 L 370.036 232.837 372.518 232.719 L 375.000 232.600 375.118 229.900 L 375.237 227.200 377.390 227.200 C 381.054 227.200,380.881 227.999,380.731 211.769 C 380.580 195.530,380.625 195.736,377.106 195.041 L 375.288 194.682 375.116 192.309 C 374.909 189.448,374.616 189.215,371.200 189.203 C 369.770 189.197,367.655 189.080,366.500 188.941 L 364.400 188.689 364.400 186.558 C 364.400 183.387,367.181 183.594,325.326 183.652 C 293.604 183.696,277.807 183.962,283.000 184.363 C 284.253 184.460,286.095 185.102,285.400 185.200 C 285.180 185.231,285.360 185.411,285.800 185.600 C 286.536 185.916,286.520 185.947,285.600 185.990 C 284.617 186.035,284.621 186.046,285.800 186.586 C 286.757 187.024,286.838 187.144,286.200 187.182 C 285.480 187.224,285.500 187.285,286.400 187.800 C 286.950 188.114,287.164 188.378,286.876 188.386 C 286.588 188.394,286.447 188.552,286.562 188.738 C 286.676 188.924,285.202 189.295,283.285 189.563 C 278.276 190.265,273.398 191.073,267.000 192.263 C 261.300 193.322,230.565 194.230,227.388 193.433 C 222.261 192.146,221.155 178.765,225.792 174.128 C 227.472 172.448,232.800 172.046,232.800 173.600 C 232.800 174.133,233.067 174.400,233.600 174.400 C 234.040 174.400,234.400 174.610,234.400 174.867 C 234.400 175.123,234.505 175.229,234.632 175.101 C 234.760 174.973,234.644 174.448,234.374 173.934 L 233.884 173.000 234.842 173.790 C 236.397 175.073,236.800 175.692,236.800 176.796 C 236.800 177.370,236.966 178.011,237.169 178.220 C 237.372 178.429,237.630 179.140,237.743 179.800 C 237.855 180.460,237.871 179.074,237.779 176.720 C 237.677 174.146,237.767 172.344,238.005 172.197 C 238.461 171.915,238.551 167.197,238.100 167.206 C 237.467 167.219,236.996 167.839,236.888 168.800 C 236.827 169.350,236.308 170.250,235.734 170.800 C 235.161 171.350,234.841 171.530,235.023 171.200 C 235.307 170.684,235.259 170.677,234.681 171.145 C 234.311 171.445,234.080 171.805,234.166 171.945 C 234.253 172.085,233.919 172.200,233.424 172.200 C 232.602 172.200,232.517 171.996,232.439 169.831 C 232.392 168.528,232.065 166.818,231.712 166.031 C 229.850 161.876,229.904 160.665,232.094 157.500 C 233.762 155.089,237.773 156.218,238.060 159.180 C 238.093 159.521,238.228 158.990,238.360 158.000 L 238.600 156.200 240.918 155.994 C 244.006 155.719,243.987 155.775,243.994 147.150 L 244.000 139.699 246.200 139.517 C 249.144 139.272,248.984 139.741,249.124 130.989 L 249.247 123.242 251.006 122.978 C 254.428 122.465,254.776 121.500,254.790 112.500 C 254.798 107.893,254.922 106.399,255.300 106.398 C 259.272 106.380,260.072 104.777,260.374 96.224 L 260.600 89.849 262.000 89.490 C 265.344 88.634,265.600 87.468,265.599 73.123 C 265.599 59.801,265.512 59.415,262.302 58.400 L 260.404 57.800 260.402 55.549 C 260.400 52.808,259.929 52.326,257.022 52.085 L 254.893 51.909 254.699 49.887 C 254.583 48.677,254.247 47.677,253.862 47.396 C 252.748 46.581,240.579 46.267,226.885 46.699 M235.674 76.065 C 239.182 77.407,237.727 92.298,233.887 94.353 C 232.641 95.020,232.423 95.813,232.006 101.200 C 231.827 103.510,231.554 105.760,231.399 106.200 C 230.597 108.475,229.368 110.308,228.338 110.763 C 227.425 111.167,227.200 111.523,227.200 112.563 C 227.200 119.502,224.841 126.853,222.348 127.684 C 222.121 127.760,221.527 130.735,221.027 134.296 C 220.086 140.992,219.061 143.600,217.370 143.600 C 216.460 143.600,216.055 145.181,215.634 150.376 C 215.180 155.976,213.867 159.417,211.900 160.160 C 211.007 160.497,210.800 160.823,210.800 161.890 C 210.800 168.570,208.401 176.066,206.008 176.864 C 205.762 176.946,205.213 179.387,204.787 182.288 C 203.616 190.263,203.502 190.619,201.511 192.554 C 199.236 194.765,197.524 205.771,199.149 207.736 C 199.657 208.350,205.258 208.400,273.877 208.400 L 348.056 208.400 349.796 209.597 C 353.665 212.259,353.256 219.709,349.191 220.602 C 347.910 220.883,347.019 221.778,346.601 223.200 C 346.154 224.726,344.816 225.965,343.126 226.420 C 341.890 226.753,341.600 227.015,341.600 227.801 C 341.600 229.243,339.368 231.600,338.004 231.600 C 336.962 231.600,335.600 233.351,335.600 234.691 C 335.600 235.275,333.898 236.679,332.800 237.001 C 331.378 237.419,330.483 238.310,330.202 239.591 C 329.918 240.883,328.622 242.183,327.200 242.603 C 325.810 243.013,325.200 243.572,325.200 244.435 C 325.200 245.485,322.905 247.961,321.655 248.259 C 320.245 248.595,319.600 249.147,319.600 250.018 C 319.600 251.078,317.769 253.071,316.503 253.388 C 314.982 253.770,314.508 254.240,313.621 256.246 C 312.983 257.689,312.471 258.166,310.626 259.040 C 308.703 259.950,308.400 260.247,308.400 261.218 C 308.400 262.543,305.958 264.800,304.524 264.800 C 303.828 264.800,303.540 265.136,303.220 266.326 C 302.748 268.078,301.477 269.422,299.929 269.806 C 298.675 270.118,297.811 271.004,297.401 272.400 C 296.985 273.821,295.684 275.118,294.391 275.402 C 293.110 275.683,292.219 276.578,291.801 278.000 C 291.354 279.526,290.016 280.765,288.326 281.220 C 287.090 281.553,286.800 281.815,286.800 282.601 C 286.800 284.043,284.568 286.400,283.204 286.400 C 282.162 286.400,280.800 288.151,280.800 289.491 C 280.800 290.075,279.098 291.479,278.000 291.801 C 276.604 292.211,275.718 293.075,275.406 294.329 C 275.022 295.877,273.678 297.148,271.926 297.620 C 270.690 297.953,270.400 298.215,270.400 299.001 C 270.400 300.442,268.168 302.800,266.805 302.800 C 265.829 302.800,265.581 303.075,264.779 305.052 C 264.002 306.966,263.615 307.415,262.207 308.038 C 260.303 308.880,259.547 309.657,258.803 311.535 C 258.407 312.535,257.734 313.135,256.129 313.923 C 254.317 314.811,253.921 315.206,253.582 316.467 C 253.151 318.069,251.433 319.600,250.068 319.600 C 249.476 319.600,248.988 320.191,248.251 321.802 C 247.521 323.395,246.933 324.114,246.121 324.402 C 244.191 325.087,243.830 325.411,242.715 327.457 C 241.854 329.037,241.216 329.643,239.627 330.387 C 237.943 331.176,237.539 331.585,237.085 332.963 C 236.563 334.549,236.088 334.932,232.861 336.370 C 232.565 336.502,232.090 337.285,231.807 338.109 C 231.109 340.139,230.668 340.593,228.876 341.130 C 227.592 341.515,227.187 341.919,226.395 343.610 C 225.643 345.217,225.042 345.852,223.457 346.715 C 221.411 347.830,221.087 348.191,220.402 350.121 C 220.114 350.933,219.395 351.521,217.802 352.251 C 216.191 352.988,215.600 353.476,215.600 354.068 C 215.600 355.441,214.069 357.151,212.450 357.587 C 211.167 357.932,210.794 358.305,209.970 360.063 C 209.200 361.709,208.668 362.280,207.376 362.852 C 205.498 363.683,204.745 364.463,203.995 366.355 C 203.582 367.397,202.966 367.935,201.329 368.684 C 199.723 369.419,199.140 369.921,198.953 370.729 C 198.523 372.585,197.653 373.555,196.026 373.993 C 194.656 374.362,194.324 374.693,193.480 376.537 C 192.734 378.166,192.195 378.782,191.155 379.195 C 189.282 379.937,188.551 380.636,187.607 382.586 C 186.975 383.890,186.346 384.476,184.792 385.204 C 183.111 385.991,182.715 386.392,182.323 387.698 C 181.799 389.449,180.890 390.233,178.700 390.825 C 177.593 391.125,177.200 391.443,177.200 392.042 C 177.200 395.707,171.419 397.149,169.300 394.013 C 167.351 391.130,168.599 382.521,171.368 379.752 C 172.815 378.305,173.413 376.591,173.797 372.800 C 174.297 367.853,176.382 362.467,177.817 362.415 C 178.442 362.392,179.163 359.248,179.448 355.304 C 179.692 351.931,180.877 348.000,181.649 348.000 C 181.842 348.000,182.000 347.745,182.000 347.433 C 182.000 347.122,182.470 346.525,183.044 346.107 C 183.985 345.421,184.122 344.976,184.444 341.573 C 185.029 335.387,186.252 331.608,188.157 330.102 C 189.172 329.299,189.797 327.180,190.369 322.600 C 190.896 318.388,191.848 315.309,192.778 314.812 C 194.386 313.951,195.187 311.840,195.836 306.749 C 196.596 300.793,196.876 299.992,199.053 297.540 C 200.856 295.510,200.966 295.115,201.363 289.242 C 201.590 285.885,203.025 282.432,204.821 280.921 C 205.775 280.118,205.954 279.563,206.372 276.107 C 206.931 271.489,207.804 267.759,208.616 266.519 C 209.161 265.687,209.106 265.532,207.790 264.217 L 206.380 262.806 131.602 262.703 L 56.825 262.600 55.624 261.200 C 52.369 257.405,53.529 250.819,57.456 250.803 C 58.064 250.801,58.553 250.308,59.145 249.100 C 60.268 246.810,60.822 246.172,62.002 245.811 C 63.445 245.369,64.403 244.406,65.079 242.718 C 65.505 241.655,66.143 241.003,67.336 240.411 C 69.748 239.214,70.400 238.622,70.400 237.630 C 70.400 236.594,72.436 234.736,74.061 234.290 C 74.831 234.078,75.276 233.633,75.461 232.890 C 75.855 231.308,77.665 229.200,78.630 229.200 C 79.632 229.200,80.880 227.881,81.599 226.063 C 81.951 225.172,82.607 224.511,83.564 224.080 C 85.558 223.182,86.800 222.012,86.800 221.030 C 86.800 220.186,89.142 218.000,90.047 218.000 C 90.770 218.000,91.998 216.773,92.012 216.038 C 92.030 215.054,94.285 212.800,95.250 212.800 C 96.223 212.800,96.819 212.138,98.011 209.736 C 98.603 208.543,99.255 207.905,100.318 207.479 C 102.006 206.803,102.969 205.845,103.411 204.402 C 103.772 203.222,104.410 202.668,106.700 201.545 C 107.895 200.959,108.400 200.463,108.400 199.873 C 108.400 198.756,111.130 196.000,112.237 196.000 C 112.869 196.000,113.343 195.528,113.945 194.300 C 115.068 192.010,115.622 191.372,116.802 191.011 C 118.245 190.569,119.203 189.606,119.879 187.918 C 120.305 186.855,120.943 186.203,122.136 185.611 C 124.548 184.414,125.200 183.822,125.200 182.830 C 125.200 181.893,127.196 179.941,128.507 179.596 C 128.934 179.483,129.733 178.583,130.283 177.596 C 131.618 175.197,132.370 174.400,133.298 174.400 C 134.187 174.400,135.270 173.254,136.417 171.100 C 136.857 170.275,137.362 169.600,137.540 169.600 C 138.558 169.600,141.600 167.046,141.600 166.191 C 141.600 165.171,143.037 163.846,145.061 163.000 C 145.761 162.708,146.450 162.056,146.608 161.537 C 147.121 159.851,148.782 158.000,149.783 158.000 C 150.646 158.000,153.200 154.965,153.200 153.940 C 153.200 153.762,153.875 153.257,154.700 152.817 C 156.847 151.674,157.820 150.740,158.269 149.394 C 158.541 148.578,159.357 147.810,160.931 146.890 C 162.443 146.007,163.200 145.308,163.200 144.796 C 163.200 144.373,163.836 143.391,164.613 142.613 C 165.391 141.836,166.373 141.200,166.796 141.200 C 167.308 141.200,168.007 140.443,168.890 138.931 C 169.776 137.415,170.587 136.538,171.331 136.290 C 172.744 135.819,174.114 134.455,174.773 132.866 C 175.114 132.042,176.007 131.221,177.443 130.411 C 178.903 129.586,179.600 128.940,179.600 128.410 C 179.600 127.402,182.192 124.800,183.196 124.800 C 183.708 124.800,184.407 124.043,185.290 122.531 C 186.210 120.957,186.978 120.141,187.794 119.869 C 189.140 119.420,190.074 118.447,191.217 116.300 C 191.657 115.475,192.162 114.800,192.340 114.800 C 193.358 114.800,196.400 112.246,196.400 111.391 C 196.400 110.371,197.837 109.046,199.861 108.200 C 200.561 107.908,201.250 107.256,201.408 106.737 C 201.921 105.051,203.582 103.200,204.583 103.200 C 205.270 103.200,205.851 102.687,206.733 101.300 C 208.213 98.971,208.536 98.644,210.790 97.198 C 211.969 96.442,212.731 95.598,213.023 94.725 C 213.354 93.739,214.021 93.089,215.631 92.187 C 216.880 91.487,217.857 90.642,217.944 90.187 C 218.212 88.777,219.619 87.218,220.923 86.884 C 221.884 86.638,222.518 86.029,223.487 84.418 C 224.307 83.055,225.364 81.944,226.400 81.355 C 228.481 80.173,228.982 79.657,229.467 78.193 C 229.713 77.450,230.454 76.664,231.431 76.110 C 232.975 75.233,233.487 75.228,235.674 76.065 M184.344 281.733 C 185.062 282.598,184.033 283.597,182.700 283.329 C 182.095 283.207,181.600 282.948,181.600 282.753 C 181.600 282.559,181.285 282.381,180.900 282.358 C 180.515 282.335,180.920 282.079,181.800 281.789 C 183.866 281.108,183.826 281.109,184.344 281.733 " stroke="none" fill="#040404" fill-rule="evenodd"></path><path id="path4" d="M231.431 76.110 C 230.454 76.664,229.713 77.450,229.467 78.193 C 228.982 79.657,228.481 80.173,226.400 81.355 C 225.364 81.944,224.307 83.055,223.487 84.418 C 222.518 86.029,221.884 86.638,220.923 86.884 C 219.619 87.218,218.212 88.777,217.944 90.187 C 217.857 90.642,216.880 91.487,215.631 92.187 C 214.021 93.089,213.354 93.739,213.023 94.725 C 212.731 95.598,211.969 96.442,210.790 97.198 C 208.536 98.644,208.213 98.971,206.733 101.300 C 205.851 102.687,205.270 103.200,204.583 103.200 C 203.582 103.200,201.921 105.051,201.408 106.737 C 201.250 107.256,200.561 107.908,199.861 108.200 C 197.837 109.046,196.400 110.371,196.400 111.391 C 196.400 112.246,193.358 114.800,192.340 114.800 C 192.162 114.800,191.657 115.475,191.217 116.300 C 190.074 118.447,189.140 119.420,187.794 119.869 C 186.978 120.141,186.210 120.957,185.290 122.531 C 184.407 124.043,183.708 124.800,183.196 124.800 C 182.192 124.800,179.600 127.402,179.600 128.410 C 179.600 128.940,178.903 129.586,177.443 130.411 C 176.007 131.221,175.114 132.042,174.773 132.866 C 174.114 134.455,172.744 135.819,171.331 136.290 C 170.587 136.538,169.776 137.415,168.890 138.931 C 168.007 140.443,167.308 141.200,166.796 141.200 C 166.373 141.200,165.391 141.836,164.613 142.613 C 163.836 143.391,163.200 144.373,163.200 144.796 C 163.200 145.308,162.443 146.007,160.931 146.890 C 159.357 147.810,158.541 148.578,158.269 149.394 C 157.820 150.740,156.847 151.674,154.700 152.817 C 153.875 153.257,153.200 153.762,153.200 153.940 C 153.200 154.965,150.646 158.000,149.783 158.000 C 148.782 158.000,147.121 159.851,146.608 161.537 C 146.450 162.056,145.761 162.708,145.061 163.000 C 143.037 163.846,141.600 165.171,141.600 166.191 C 141.600 167.046,138.558 169.600,137.540 169.600 C 137.362 169.600,136.857 170.275,136.417 171.100 C 135.270 173.254,134.187 174.400,133.298 174.400 C 132.370 174.400,131.618 175.197,130.283 177.596 C 129.733 178.583,128.934 179.483,128.507 179.596 C 127.196 179.941,125.200 181.893,125.200 182.830 C 125.200 183.822,124.548 184.414,122.136 185.611 C 120.943 186.203,120.305 186.855,119.879 187.918 C 119.203 189.606,118.245 190.569,116.802 191.011 C 115.622 191.372,115.068 192.010,113.945 194.300 C 113.343 195.528,112.869 196.000,112.237 196.000 C 111.130 196.000,108.400 198.756,108.400 199.873 C 108.400 200.463,107.895 200.959,106.700 201.545 C 104.410 202.668,103.772 203.222,103.411 204.402 C 102.969 205.845,102.006 206.803,100.318 207.479 C 99.255 207.905,98.603 208.543,98.011 209.736 C 96.819 212.138,96.223 212.800,95.250 212.800 C 94.285 212.800,92.030 215.054,92.012 216.038 C 91.998 216.773,90.770 218.000,90.047 218.000 C 89.142 218.000,86.800 220.186,86.800 221.030 C 86.800 222.012,85.558 223.182,83.564 224.080 C 82.607 224.511,81.951 225.172,81.599 226.063 C 80.880 227.881,79.632 229.200,78.630 229.200 C 77.665 229.200,75.855 231.308,75.461 232.890 C 75.276 233.633,74.831 234.078,74.061 234.290 C 72.436 234.736,70.400 236.594,70.400 237.630 C 70.400 238.622,69.748 239.214,67.336 240.411 C 66.143 241.003,65.505 241.655,65.079 242.718 C 64.403 244.406,63.445 245.369,62.002 245.811 C 60.822 246.172,60.268 246.810,59.145 249.100 C 58.553 250.308,58.064 250.801,57.456 250.803 C 53.529 250.819,52.369 257.405,55.624 261.200 L 56.825 262.600 131.602 262.703 L 206.380 262.806 207.790 264.217 C 209.106 265.532,209.161 265.687,208.616 266.519 C 207.804 267.759,206.931 271.489,206.372 276.107 C 205.954 279.563,205.775 280.118,204.821 280.921 C 203.025 282.432,201.590 285.885,201.363 289.242 C 200.966 295.115,200.856 295.510,199.053 297.540 C 196.876 299.992,196.596 300.793,195.836 306.749 C 195.187 311.840,194.386 313.951,192.778 314.812 C 191.848 315.309,190.896 318.388,190.369 322.600 C 189.797 327.180,189.172 329.299,188.157 330.102 C 186.252 331.608,185.029 335.387,184.444 341.573 C 184.122 344.976,183.985 345.421,183.044 346.107 C 182.470 346.525,182.000 347.122,182.000 347.433 C 182.000 347.745,181.842 348.000,181.649 348.000 C 180.877 348.000,179.692 351.931,179.448 355.304 C 179.163 359.248,178.442 362.392,177.817 362.415 C 176.382 362.467,174.297 367.853,173.797 372.800 C 173.413 376.591,172.815 378.305,171.368 379.752 C 168.599 382.521,167.351 391.130,169.300 394.013 C 171.419 397.149,177.200 395.707,177.200 392.042 C 177.200 391.443,177.593 391.125,178.700 390.825 C 180.890 390.233,181.799 389.449,182.323 387.698 C 182.715 386.392,183.111 385.991,184.792 385.204 C 186.346 384.476,186.975 383.890,187.607 382.586 C 188.551 380.636,189.282 379.937,191.155 379.195 C 192.195 378.782,192.734 378.166,193.480 376.537 C 194.324 374.693,194.656 374.362,196.026 373.993 C 197.653 373.555,198.523 372.585,198.953 370.729 C 199.140 369.921,199.723 369.419,201.329 368.684 C 202.966 367.935,203.582 367.397,203.995 366.355 C 204.745 364.463,205.498 363.683,207.376 362.852 C 208.668 362.280,209.200 361.709,209.970 360.063 C 210.794 358.305,211.167 357.932,212.450 357.587 C 214.069 357.151,215.600 355.441,215.600 354.068 C 215.600 353.476,216.191 352.988,217.802 352.251 C 219.395 351.521,220.114 350.933,220.402 350.121 C 221.087 348.191,221.411 347.830,223.457 346.715 C 225.042 345.852,225.643 345.217,226.395 343.610 C 227.187 341.919,227.592 341.515,228.876 341.130 C 230.668 340.593,231.109 340.139,231.807 338.109 C 232.090 337.285,232.565 336.502,232.861 336.370 C 236.088 334.932,236.563 334.549,237.085 332.963 C 237.539 331.585,237.943 331.176,239.627 330.387 C 241.216 329.643,241.854 329.037,242.715 327.457 C 243.830 325.411,244.191 325.087,246.121 324.402 C 246.933 324.114,247.521 323.395,248.251 321.802 C 248.988 320.191,249.476 319.600,250.068 319.600 C 251.433 319.600,253.151 318.069,253.582 316.467 C 253.921 315.206,254.317 314.811,256.129 313.923 C 257.734 313.135,258.407 312.535,258.803 311.535 C 259.547 309.657,260.303 308.880,262.207 308.038 C 263.615 307.415,264.002 306.966,264.779 305.052 C 265.581 303.075,265.829 302.800,266.805 302.800 C 268.168 302.800,270.400 300.442,270.400 299.001 C 270.400 298.215,270.690 297.953,271.926 297.620 C 273.678 297.148,275.022 295.877,275.406 294.329 C 275.718 293.075,276.604 292.211,278.000 291.801 C 279.098 291.479,280.800 290.075,280.800 289.491 C 280.800 288.151,282.162 286.400,283.204 286.400 C 284.568 286.400,286.800 284.043,286.800 282.601 C 286.800 281.815,287.090 281.553,288.326 281.220 C 290.016 280.765,291.354 279.526,291.801 278.000 C 292.219 276.578,293.110 275.683,294.391 275.402 C 295.684 275.118,296.985 273.821,297.401 272.400 C 297.811 271.004,298.675 270.118,299.929 269.806 C 301.477 269.422,302.748 268.078,303.220 266.326 C 303.540 265.136,303.828 264.800,304.524 264.800 C 305.958 264.800,308.400 262.543,308.400 261.218 C 308.400 260.247,308.703 259.950,310.626 259.040 C 312.471 258.166,312.983 257.689,313.621 256.246 C 314.508 254.240,314.982 253.770,316.503 253.388 C 317.769 253.071,319.600 251.078,319.600 250.018 C 319.600 249.147,320.245 248.595,321.655 248.259 C 322.905 247.961,325.200 245.485,325.200 244.435 C 325.200 243.572,325.810 243.013,327.200 242.603 C 328.622 242.183,329.918 240.883,330.202 239.591 C 330.483 238.310,331.378 237.419,332.800 237.001 C 333.898 236.679,335.600 235.275,335.600 234.691 C 335.600 233.351,336.962 231.600,338.004 231.600 C 339.368 231.600,341.600 229.243,341.600 227.801 C 341.600 227.015,341.890 226.753,343.126 226.420 C 344.816 225.965,346.154 224.726,346.601 223.200 C 347.019 221.778,347.910 220.883,349.191 220.602 C 353.256 219.709,353.665 212.259,349.796 209.597 L 348.056 208.400 273.877 208.400 C 205.258 208.400,199.657 208.350,199.149 207.736 C 197.524 205.771,199.236 194.765,201.511 192.554 C 203.502 190.619,203.616 190.263,204.787 182.288 C 205.213 179.387,205.762 176.946,206.008 176.864 C 208.401 176.066,210.800 168.570,210.800 161.890 C 210.800 160.823,211.007 160.497,211.900 160.160 C 213.867 159.417,215.180 155.976,215.634 150.376 C 216.055 145.181,216.460 143.600,217.370 143.600 C 219.061 143.600,220.086 140.992,221.027 134.296 C 221.527 130.735,222.121 127.760,222.348 127.684 C 224.841 126.853,227.200 119.502,227.200 112.563 C 227.200 111.523,227.425 111.167,228.338 110.763 C 229.368 110.308,230.597 108.475,231.399 106.200 C 231.554 105.760,231.827 103.510,232.006 101.200 C 232.423 95.813,232.641 95.020,233.887 94.353 C 235.763 93.350,236.633 91.348,237.136 86.886 C 237.982 79.380,237.636 76.815,235.674 76.065 C 233.487 75.228,232.975 75.233,231.431 76.110 M234.394 79.189 C 235.807 81.829,235.223 87.132,233.182 90.200 C 232.597 91.080,232.009 92.250,231.875 92.800 C 230.439 98.714,229.936 100.861,229.638 102.343 C 229.445 103.301,228.917 104.586,228.465 105.197 C 227.110 107.030,225.588 111.219,225.194 114.200 C 224.698 117.950,224.362 118.983,222.414 122.727 C 221.257 124.951,220.512 127.116,219.960 129.860 C 218.997 134.646,217.827 138.190,216.871 139.216 C 216.075 140.070,214.789 144.170,213.802 149.000 C 213.102 152.424,212.138 155.062,211.419 155.519 C 210.702 155.974,208.774 162.072,208.537 164.635 C 208.373 166.400,207.764 168.129,206.136 171.449 C 204.660 174.458,203.832 176.723,203.575 178.449 C 202.899 183.009,201.504 187.179,200.029 189.054 C 199.624 189.569,198.897 191.747,198.413 193.895 C 197.929 196.043,197.278 198.597,196.966 199.571 C 196.655 200.545,196.400 201.578,196.400 201.865 C 196.400 202.153,195.860 203.266,195.200 204.338 C 193.877 206.489,193.440 211.191,194.500 211.876 C 194.775 212.054,229.290 212.290,271.200 212.400 C 342.619 212.587,348.800 212.688,348.800 213.659 C 348.800 213.864,349.204 214.579,349.698 215.247 L 350.596 216.461 348.798 218.059 C 347.809 218.938,346.820 219.798,346.600 219.971 C 345.944 220.487,344.496 222.274,344.033 223.139 C 343.795 223.583,343.218 224.067,342.751 224.216 C 341.811 224.514,339.564 226.890,339.109 228.067 C 338.950 228.480,338.480 228.950,338.067 229.109 C 336.976 229.531,334.683 231.662,334.085 232.811 C 333.802 233.355,332.696 234.430,331.627 235.200 C 330.558 235.970,329.410 237.050,329.077 237.600 C 328.437 238.654,327.176 239.928,324.703 242.014 C 323.880 242.709,322.979 243.753,322.700 244.335 C 322.421 244.917,321.709 245.625,321.118 245.908 C 320.109 246.391,317.200 249.433,317.200 250.004 C 317.200 250.147,316.345 250.870,315.300 251.611 C 314.255 252.351,313.237 253.227,313.037 253.556 C 312.416 254.580,309.516 257.600,309.154 257.600 C 308.652 257.600,306.024 260.516,306.011 261.087 C 306.005 261.355,305.573 261.805,305.052 262.087 C 303.517 262.917,301.307 265.033,301.016 265.951 C 300.867 266.418,300.383 266.995,299.939 267.233 C 298.995 267.738,297.277 269.159,296.643 269.958 C 296.069 270.682,292.682 274.069,291.958 274.643 C 291.159 275.277,289.738 276.995,289.233 277.939 C 288.995 278.383,288.418 278.867,287.951 279.016 C 287.011 279.314,284.764 281.690,284.309 282.867 C 284.150 283.280,283.680 283.750,283.267 283.909 C 282.181 284.329,279.887 286.458,279.277 287.611 C 278.990 288.155,278.117 289.050,277.339 289.600 C 276.560 290.150,275.591 290.960,275.186 291.400 C 273.549 293.176,272.800 294.140,272.800 294.470 C 272.800 294.661,272.307 295.038,271.705 295.309 C 270.507 295.846,268.370 298.075,267.909 299.267 C 267.750 299.680,267.280 300.150,266.867 300.309 C 265.842 300.705,263.200 303.076,263.200 303.599 C 263.200 304.172,259.526 307.585,258.900 307.593 C 258.625 307.597,258.397 307.825,258.393 308.100 C 258.386 308.575,256.986 310.084,253.400 313.483 C 252.520 314.317,251.481 315.495,251.091 316.100 C 250.701 316.705,250.190 317.200,249.955 317.200 C 249.375 317.200,246.400 320.055,246.400 320.612 C 246.400 321.095,242.515 324.400,241.946 324.400 C 241.756 324.400,241.600 324.646,241.600 324.947 C 241.600 325.660,238.060 329.200,237.347 329.200 C 237.046 329.200,236.800 329.380,236.800 329.600 C 236.800 329.820,236.452 330.348,236.027 330.773 C 235.601 331.199,234.951 332.009,234.581 332.573 C 234.211 333.138,233.696 333.600,233.437 333.600 C 232.848 333.600,229.600 336.875,229.600 337.469 C 229.600 337.711,229.138 338.211,228.573 338.581 C 228.009 338.951,227.199 339.601,226.773 340.027 C 226.348 340.452,225.820 340.800,225.600 340.800 C 225.380 340.800,225.200 341.046,225.200 341.347 C 225.200 342.060,221.660 345.600,220.947 345.600 C 220.646 345.600,220.400 345.756,220.400 345.946 C 220.400 346.515,217.095 350.400,216.612 350.400 C 216.055 350.400,213.200 353.375,213.200 353.955 C 213.200 354.190,212.705 354.701,212.100 355.091 C 211.495 355.481,210.317 356.520,209.483 357.400 C 206.084 360.986,204.575 362.386,204.100 362.393 C 203.825 362.397,203.597 362.625,203.593 362.900 C 203.589 363.175,202.824 364.154,201.893 365.077 C 199.991 366.960,196.636 370.334,195.891 371.112 C 195.621 371.394,194.545 372.367,193.500 373.274 C 192.455 374.181,191.600 375.096,191.600 375.307 C 191.600 375.843,188.313 378.764,187.687 378.784 C 187.405 378.793,187.045 379.144,186.887 379.564 C 186.468 380.681,183.757 383.496,182.812 383.796 C 182.366 383.938,182.000 384.211,182.000 384.402 C 182.000 384.594,181.460 385.342,180.800 386.064 C 180.140 386.787,179.600 387.510,179.600 387.670 C 179.600 387.831,178.817 388.309,177.859 388.733 C 176.718 389.238,175.714 390.104,174.946 391.248 C 171.586 396.250,169.187 389.724,172.428 384.400 C 173.722 382.273,175.200 377.673,175.200 375.769 C 175.200 374.036,177.170 368.652,178.539 366.644 C 179.123 365.788,179.600 364.745,179.600 364.326 C 179.600 363.907,180.069 361.727,180.643 359.482 C 181.216 357.237,181.783 354.950,181.902 354.400 C 182.021 353.850,182.598 352.680,183.185 351.800 C 184.467 349.877,185.377 347.098,186.245 342.456 C 186.822 339.374,187.647 337.002,188.770 335.200 C 189.784 333.572,190.862 330.667,191.238 328.553 C 192.167 323.315,192.558 322.062,194.262 318.868 C 195.259 316.998,196.216 314.540,196.442 313.268 C 197.086 309.650,198.060 305.832,198.445 305.420 C 198.640 305.211,198.800 304.648,198.800 304.169 C 198.800 303.690,199.082 303.064,199.426 302.778 C 200.496 301.891,201.023 300.412,202.615 293.838 C 203.614 289.711,204.454 287.112,205.006 286.438 C 206.093 285.112,207.886 279.629,208.382 276.116 C 208.658 274.156,209.310 272.343,210.723 269.600 C 212.874 265.426,213.291 260.970,211.647 259.718 C 211.140 259.332,194.987 259.223,136.942 259.213 C 53.616 259.198,58.942 259.389,56.996 256.359 L 56.191 255.107 140.273 170.954 C 186.519 124.669,224.546 86.800,224.778 86.800 C 225.010 86.800,225.200 86.558,225.200 86.261 C 225.200 85.965,225.939 85.110,226.842 84.361 C 229.136 82.458,230.842 80.759,231.927 79.296 C 232.900 77.983,233.730 77.947,234.394 79.189 M232.094 157.500 C 229.904 160.665,229.850 161.876,231.712 166.031 C 232.065 166.818,232.392 168.528,232.439 169.831 C 232.517 171.996,232.602 172.200,233.424 172.200 C 233.919 172.200,234.253 172.085,234.166 171.945 C 234.080 171.805,234.311 171.445,234.681 171.145 C 235.259 170.677,235.307 170.684,235.023 171.200 C 234.841 171.530,235.184 171.328,235.785 170.752 C 236.386 170.175,236.906 169.228,236.939 168.647 C 236.976 168.006,237.291 167.498,237.743 167.355 C 238.663 167.062,238.519 159.394,237.558 157.503 C 236.725 155.866,233.225 155.864,232.094 157.500 M225.792 174.128 C 221.155 178.765,222.261 192.146,227.388 193.433 C 230.565 194.230,261.300 193.322,267.000 192.263 C 273.398 191.073,278.276 190.265,283.285 189.563 C 285.202 189.295,286.676 188.924,286.562 188.738 C 286.447 188.552,286.588 188.394,286.876 188.386 C 287.164 188.378,286.950 188.114,286.400 187.800 C 285.500 187.285,285.480 187.224,286.200 187.182 C 286.838 187.144,286.757 187.024,285.800 186.586 C 284.621 186.046,284.617 186.035,285.600 185.990 C 286.520 185.947,286.536 185.916,285.800 185.600 C 285.360 185.411,285.180 185.231,285.400 185.200 C 286.088 185.103,284.259 184.461,283.000 184.357 C 282.340 184.303,283.060 184.142,284.600 184.000 C 286.195 183.853,282.355 183.711,275.676 183.671 C 267.820 183.623,264.036 183.734,264.204 184.007 C 264.342 184.230,264.604 184.321,264.786 184.209 C 265.285 183.900,265.600 185.047,265.600 187.177 L 265.600 189.089 263.300 189.813 C 261.264 190.455,259.073 190.553,244.200 190.668 L 227.400 190.798 226.481 189.613 C 224.581 187.162,224.457 181.860,226.236 179.109 C 226.766 178.288,227.200 177.433,227.200 177.209 C 227.200 176.412,231.941 176.721,232.663 177.565 C 233.023 177.986,233.560 178.237,233.855 178.123 C 234.151 178.010,234.510 178.221,234.652 178.592 C 234.849 179.104,234.987 179.144,235.225 178.759 C 235.642 178.085,236.670 178.900,236.953 180.129 C 237.063 180.608,237.064 179.863,236.954 178.473 C 236.704 175.306,236.628 175.119,235.147 174.024 L 233.932 173.126 234.399 173.997 C 234.655 174.476,234.760 174.973,234.632 175.101 C 234.505 175.229,234.400 175.123,234.400 174.867 C 234.400 174.610,234.040 174.400,233.600 174.400 C 233.067 174.400,232.800 174.133,232.800 173.600 C 232.800 172.046,227.472 172.448,225.792 174.128 M181.800 281.789 C 180.920 282.079,180.515 282.335,180.900 282.358 C 181.285 282.381,181.600 282.559,181.600 282.753 C 181.600 282.948,182.095 283.207,182.700 283.329 C 184.033 283.597,185.062 282.598,184.344 281.733 C 183.826 281.109,183.866 281.108,181.800 281.789 " stroke="none" fill="#42340c" fill-rule="evenodd"></path></g></svg>