<svg id="svg" version="1.1" xmlns="http://www.w3.org/2000/svg" xmlns:xlink="http://www.w3.org/1999/xlink" width="400" height="389.47368421052636" viewBox="0, 0, 400,389.47368421052636"><g id="svgg"><path id="path0" d="M164.065 2.434 C 163.850 2.702,163.554 3.477,163.409 4.157 L 163.145 5.394 155.614 5.521 C 147.446 5.658,146.829 5.822,146.282 7.999 C 146.060 8.885,145.878 8.934,142.450 9.041 L 138.851 9.153 138.731 10.808 L 138.611 12.463 133.612 12.463 C 128.161 12.463,128.140 12.472,128.140 14.832 L 128.140 15.969 124.148 15.975 C 119.401 15.981,118.263 16.403,118.086 18.217 C 117.967 19.447,117.923 19.474,116.042 19.474 C 114.984 19.474,114.119 19.625,114.119 19.809 C 114.119 21.182,111.372 22.980,109.276 22.980 L 107.108 22.980 107.108 24.717 L 107.108 26.455 103.700 26.567 L 100.292 26.680 100.172 28.335 L 100.053 29.990 97.518 29.990 C 94.399 29.990,93.581 30.399,93.259 32.117 C 93.026 33.359,92.892 33.463,91.392 33.573 C 89.800 33.689,89.774 33.714,89.659 35.295 L 89.541 36.899 86.841 37.092 C 83.768 37.312,82.960 37.790,82.960 39.386 C 82.960 40.424,82.851 40.506,81.480 40.506 C 79.669 40.506,79.065 41.056,79.065 42.704 C 79.065 43.911,78.992 43.972,77.410 44.087 C 75.763 44.206,75.754 44.214,75.635 45.862 L 75.515 47.517 73.785 47.517 L 72.055 47.517 72.055 49.270 L 72.055 51.022 70.302 51.022 L 68.549 51.022 68.549 52.775 L 68.549 54.528 66.796 54.528 L 65.044 54.528 65.044 56.280 L 65.044 58.033 63.291 58.033 L 61.538 58.033 61.538 59.786 L 61.538 61.538 59.786 61.538 L 58.033 61.538 58.033 63.291 L 58.033 65.044 56.280 65.044 L 54.528 65.044 54.528 66.774 L 54.528 68.504 52.872 68.624 C 51.225 68.743,51.217 68.752,51.097 70.399 C 50.983 71.982,50.922 72.055,49.715 72.055 C 48.123 72.055,47.517 72.654,47.517 74.231 C 47.517 75.345,47.375 75.500,46.136 75.732 C 44.456 76.047,44.012 76.994,44.012 80.259 L 44.012 82.571 42.259 82.571 L 40.506 82.571 40.506 84.280 C 40.506 85.929,40.458 85.998,39.126 86.248 C 37.448 86.563,37.001 87.510,37.001 90.753 L 37.001 93.042 35.346 93.162 L 33.690 93.281 33.578 96.689 L 33.465 100.097 31.728 100.097 L 29.990 100.097 29.990 103.603 L 29.990 107.108 28.238 107.108 L 26.485 107.108 26.485 108.970 C 26.485 110.684,26.391 110.867,25.310 111.276 C 23.640 111.906,22.980 113.757,22.980 117.806 L 22.980 121.130 21.694 121.130 C 19.643 121.130,19.474 121.566,19.474 126.855 L 19.474 131.646 18.189 131.646 C 16.141 131.646,15.969 132.085,15.969 137.321 L 15.969 142.062 14.453 142.304 C 12.449 142.625,12.463 142.555,12.463 151.736 L 12.463 159.688 11.464 159.688 C 8.742 159.688,8.958 156.872,8.958 192.366 C 8.958 227.789,8.846 226.290,11.496 226.290 L 12.420 226.290 12.539 234.453 C 12.669 243.348,12.785 243.772,15.093 243.805 C 15.950 243.817,15.969 243.913,15.969 248.322 C 15.969 253.591,16.235 254.333,18.125 254.333 L 19.474 254.333 19.474 258.946 C 19.474 264.025,19.816 264.849,21.924 264.849 C 22.945 264.849,22.950 264.864,23.062 268.257 L 23.174 271.665 24.815 271.784 L 26.455 271.903 26.567 275.289 L 26.680 278.676 28.320 278.795 L 29.961 278.914 30.073 282.300 L 30.185 285.686 31.840 285.806 L 33.496 285.926 33.496 288.793 C 33.496 292.597,33.639 292.892,35.485 292.892 L 37.001 292.892 37.001 294.645 L 37.001 296.397 38.738 296.397 L 40.476 296.397 40.589 299.805 L 40.701 303.213 42.356 303.333 L 44.012 303.453 44.012 305.183 L 44.012 306.913 45.723 306.913 L 47.435 306.913 47.577 310.046 C 47.730 313.423,48.024 313.907,49.929 313.918 C 50.883 313.924,50.988 314.073,51.097 315.579 C 51.216 317.223,51.229 317.236,52.851 317.353 C 54.470 317.471,54.486 317.487,54.604 319.106 C 54.721 320.725,54.738 320.741,56.356 320.859 C 57.975 320.976,57.992 320.993,58.109 322.611 C 58.227 324.234,58.240 324.246,59.883 324.365 L 61.538 324.485 61.538 326.215 L 61.538 327.945 63.269 327.945 L 64.999 327.945 65.119 329.601 C 65.238 331.244,65.250 331.257,66.873 331.375 C 68.491 331.492,68.508 331.509,68.625 333.127 C 68.743 334.746,68.759 334.763,70.378 334.880 C 71.996 334.998,72.013 335.014,72.131 336.633 C 72.248 338.255,72.261 338.268,73.905 338.387 C 75.487 338.501,75.560 338.562,75.560 339.769 C 75.560 341.437,76.164 341.966,78.072 341.969 C 79.426 341.971,79.746 342.142,80.334 343.175 C 80.711 343.837,81.368 344.470,81.795 344.581 C 82.222 344.693,82.571 344.939,82.571 345.128 C 82.571 345.317,83.349 345.472,84.301 345.472 L 86.031 345.472 86.151 347.128 C 86.270 348.775,86.279 348.783,87.926 348.903 C 89.460 349.014,89.581 349.104,89.581 350.137 C 89.581 352.360,89.777 352.483,93.323 352.483 L 96.592 352.483 96.592 354.236 L 96.592 355.988 98.345 355.988 C 100.068 355.988,100.097 356.010,100.097 357.274 C 100.097 359.180,100.655 359.494,104.048 359.494 L 107.063 359.494 107.183 361.149 L 107.303 362.804 110.689 362.917 L 114.075 363.029 114.194 364.669 L 114.314 366.310 117.722 366.422 L 121.130 366.535 121.130 367.656 C 121.130 369.939,121.260 370.009,125.553 370.021 C 129.724 370.032,130.962 370.592,131.766 372.833 C 131.975 373.417,132.538 373.515,135.674 373.515 L 139.338 373.515 139.575 374.701 C 139.944 376.547,141.574 377.020,147.553 377.020 L 152.580 377.020 152.826 378.249 C 153.275 380.495,153.377 380.526,160.303 380.526 L 166.664 380.526 166.922 381.900 C 167.334 384.096,166.311 384.031,200.304 384.031 C 235.469 384.031,233.301 384.193,233.301 381.566 L 233.301 380.526 239.696 380.526 C 247.304 380.526,247.322 380.521,247.322 378.537 L 247.322 377.020 253.580 377.020 C 260.676 377.020,261.344 376.835,261.344 374.865 L 261.344 373.515 265.336 373.509 C 269.923 373.503,271.089 373.089,271.607 371.285 L 271.964 370.039 275.320 369.927 L 278.676 369.815 278.796 368.160 L 278.915 366.504 282.398 366.504 L 285.881 366.504 285.881 364.767 L 285.881 363.029 289.289 362.917 L 292.697 362.804 292.816 361.164 L 292.935 359.523 296.322 359.411 L 299.708 359.299 299.828 357.644 L 299.947 355.988 301.678 355.988 L 303.408 355.988 303.408 354.251 L 303.408 352.513 306.816 352.401 L 310.224 352.288 310.344 350.633 L 310.463 348.978 312.194 348.978 L 313.924 348.978 313.924 347.225 L 313.924 345.472 315.387 345.472 C 318.409 345.472,320.502 344.333,320.533 342.670 C 320.542 342.161,320.969 341.982,322.395 341.891 L 324.245 341.772 324.365 340.117 L 324.485 338.462 326.215 338.462 L 327.945 338.462 327.945 336.709 L 327.945 334.956 329.698 334.956 L 331.451 334.956 331.451 333.204 L 331.451 331.451 333.204 331.451 L 334.956 331.451 334.956 329.698 L 334.956 327.945 336.709 327.945 L 338.462 327.945 338.462 326.193 L 338.462 324.440 340.214 324.440 L 341.967 324.440 341.967 322.687 L 341.967 320.935 343.720 320.935 L 345.472 320.935 345.472 319.204 L 345.472 317.474 347.128 317.354 C 348.775 317.235,348.783 317.227,348.903 315.579 C 349.014 314.044,349.104 313.924,350.141 313.924 C 351.995 313.924,352.483 313.066,352.483 309.807 L 352.483 306.913 354.236 306.913 L 355.988 306.913 355.988 305.161 L 355.988 303.408 357.741 303.408 L 359.494 303.408 359.494 301.699 C 359.494 300.068,359.554 299.978,360.797 299.745 C 362.444 299.436,362.999 298.293,362.999 295.210 L 362.999 292.892 364.752 292.892 L 366.504 292.892 366.504 289.387 L 366.504 285.881 368.257 285.881 L 370.010 285.881 370.010 282.376 L 370.010 278.870 371.762 278.870 L 373.515 278.870 373.515 276.923 C 373.515 275.297,373.633 274.976,374.226 274.976 C 376.017 274.976,376.798 273.248,376.957 268.937 L 377.107 264.890 378.719 264.772 L 380.331 264.654 380.440 259.516 L 380.548 254.377 382.192 254.257 L 383.836 254.138 383.945 248.978 L 384.054 243.817 385.559 243.817 C 387.530 243.817,387.537 243.792,387.537 236.190 L 387.537 229.796 388.683 229.796 C 391.164 229.796,391.042 231.720,391.042 192.527 C 391.042 152.928,391.266 156.183,388.536 156.183 L 387.537 156.183 387.537 148.052 C 387.537 139.199,387.552 139.263,385.260 138.805 C 384.133 138.579,384.031 138.433,384.031 137.036 C 384.031 135.651,383.963 135.550,383.278 135.916 C 381.039 137.115,380.526 136.582,380.526 133.056 C 380.526 129.723,381.297 127.746,381.818 129.741 C 381.968 130.315,382.235 130.503,382.665 130.337 C 383.010 130.205,383.206 130.237,383.100 130.409 C 382.993 130.581,383.142 131.587,383.430 132.644 L 383.954 134.567 383.953 132.035 C 383.952 129.129,383.680 128.645,381.850 128.302 C 380.737 128.093,380.526 127.888,380.526 127.015 C 380.526 126.034,380.438 125.986,378.921 126.130 C 376.924 126.321,376.603 125.888,376.655 123.077 C 376.728 119.159,376.805 119.340,375.129 119.499 C 373.365 119.668,373.126 119.075,373.126 114.537 C 373.126 111.673,372.748 111.003,371.134 111.003 C 370.096 111.003,370.071 110.945,369.821 107.984 C 369.485 104.013,369.475 103.992,367.887 103.992 C 366.395 103.992,366.380 103.965,365.923 100.424 C 365.687 98.602,365.256 98.150,363.754 98.150 C 362.866 98.150,362.648 97.360,362.514 93.671 L 362.415 90.944 361.052 90.750 C 359.709 90.558,359.687 90.524,359.570 88.494 C 359.456 86.507,359.486 86.438,360.403 86.561 C 361.748 86.741,362.610 87.570,362.610 88.683 C 362.610 89.675,363.506 90.892,363.926 90.472 C 364.059 90.339,364.167 90.464,364.167 90.750 C 364.167 91.035,364.285 91.152,364.428 91.009 C 364.571 90.865,365.011 91.039,365.404 91.396 C 366.261 92.171,366.673 91.893,366.319 90.780 C 366.139 90.212,365.613 89.900,364.551 89.730 C 363.104 89.498,363.034 89.420,362.922 87.879 C 362.805 86.287,362.788 86.270,361.149 86.151 C 359.499 86.032,359.494 86.026,359.494 84.483 C 359.494 82.170,358.562 80.276,357.190 79.797 C 356.153 79.436,356.016 79.198,355.911 77.574 L 355.794 75.755 354.160 75.636 C 352.541 75.518,352.525 75.502,352.407 73.883 C 352.289 72.261,352.276 72.248,350.633 72.130 L 348.978 72.010 348.978 70.279 L 348.978 68.549 347.225 68.549 L 345.472 68.549 345.472 66.796 L 345.472 65.044 343.720 65.044 L 341.967 65.044 341.967 63.291 L 341.967 61.538 340.214 61.538 L 338.462 61.538 338.462 59.786 L 338.462 58.033 336.709 58.033 L 334.956 58.033 334.956 56.280 L 334.956 54.528 333.204 54.528 L 331.451 54.528 331.451 52.775 L 331.451 51.022 329.698 51.022 L 327.945 51.022 327.945 49.270 L 327.945 47.517 326.193 47.517 L 324.440 47.517 324.440 45.764 L 324.440 44.012 322.710 44.012 L 320.980 44.012 320.860 42.356 C 320.741 40.709,320.732 40.700,319.085 40.581 C 317.502 40.467,317.429 40.406,317.429 39.199 C 317.429 37.313,316.865 37.001,313.457 37.001 L 310.419 37.001 310.419 35.248 L 310.419 33.496 308.666 33.496 C 306.943 33.496,306.913 33.474,306.913 32.210 C 306.913 30.301,306.357 29.990,302.941 29.990 L 299.903 29.990 299.903 28.238 L 299.903 26.485 298.193 26.485 C 296.557 26.485,296.473 26.428,296.235 25.156 C 295.936 23.563,294.658 22.980,291.471 22.980 C 289.424 22.980,289.387 22.959,289.387 21.833 C 289.387 20.127,288.178 19.474,285.016 19.474 L 282.376 19.474 282.376 18.125 C 282.376 16.236,281.634 15.969,276.387 15.969 L 271.905 15.969 271.785 14.314 L 271.665 12.658 266.526 12.550 L 261.387 12.441 261.268 10.797 L 261.149 9.153 257.838 9.040 L 254.528 8.926 253.901 7.444 C 253.096 5.543,252.637 5.453,243.768 5.453 L 236.806 5.453 236.806 4.103 C 236.806 3.168,236.575 2.630,236.053 2.351 C 234.866 1.715,164.579 1.797,164.065 2.434 M213.437 27.253 C 220.655 27.710,226.978 28.377,230.310 29.031 C 241.472 31.224,245.616 32.234,246.314 32.933 C 246.611 33.229,248.888 33.990,251.375 34.622 C 253.862 35.255,256.465 36.118,257.159 36.541 C 257.854 36.963,259.912 37.791,261.733 38.379 C 266.574 39.943,273.456 43.034,273.924 43.855 C 274.095 44.155,274.446 44.403,274.703 44.405 C 275.450 44.411,279.282 46.289,281.402 47.687 C 282.473 48.394,283.788 49.107,284.323 49.272 C 284.859 49.436,285.778 49.973,286.366 50.465 C 286.954 50.956,287.817 51.479,288.283 51.627 C 288.750 51.775,289.321 52.049,289.551 52.236 C 289.782 52.422,290.732 53.189,291.663 53.941 C 292.594 54.692,293.587 55.307,293.870 55.307 C 294.153 55.307,294.443 55.438,294.515 55.599 C 294.656 55.916,295.446 56.502,298.735 58.726 C 301.886 60.857,303.779 62.337,305.393 63.930 C 306.183 64.710,307.119 65.510,307.473 65.708 C 309.798 67.009,327.167 84.285,327.167 85.296 C 327.167 85.464,327.999 86.477,329.017 87.548 C 330.034 88.618,331.392 90.213,332.035 91.092 C 332.678 91.971,333.510 93.070,333.885 93.533 C 334.260 93.996,334.567 94.490,334.567 94.631 C 334.567 94.772,334.873 95.227,335.248 95.642 C 336.220 96.719,338.072 99.496,338.072 99.876 C 338.072 100.053,338.678 100.868,339.418 101.688 C 340.159 102.508,341.146 103.931,341.613 104.851 C 342.079 105.771,342.601 106.615,342.772 106.725 C 342.943 106.836,343.606 108.033,344.246 109.386 C 344.885 110.738,345.670 112.138,345.990 112.495 C 346.638 113.220,348.588 117.343,348.588 117.989 C 348.588 118.217,348.943 118.758,349.377 119.192 C 350.115 119.930,352.093 123.807,352.093 124.516 C 352.093 124.692,352.507 125.623,353.013 126.585 C 353.518 127.548,354.417 129.906,355.009 131.825 C 355.602 133.745,356.406 135.760,356.797 136.304 C 357.188 136.848,357.957 139.188,358.508 141.505 C 359.058 143.821,359.759 146.100,360.065 146.568 C 361.412 148.627,364.224 162.002,365.320 171.568 C 366.496 181.832,366.495 205.291,365.319 214.606 C 364.361 222.193,363.688 226.508,363.406 226.874 C 363.242 227.089,362.996 228.110,362.861 229.145 C 362.439 232.385,361.029 237.724,360.238 239.080 C 359.821 239.794,359.033 242.248,358.486 244.532 C 357.939 246.817,357.153 249.266,356.739 249.975 C 356.325 250.685,355.360 253.136,354.595 255.423 C 353.830 257.710,353.065 259.671,352.896 259.781 C 352.727 259.891,352.456 260.419,352.295 260.954 C 351.741 262.795,350.072 266.213,349.594 266.485 C 349.330 266.636,348.871 267.512,348.574 268.433 C 348.276 269.354,347.549 270.896,346.958 271.860 C 346.367 272.824,345.166 274.927,344.290 276.534 C 343.414 278.140,342.277 280.156,341.763 281.013 C 341.250 281.870,340.555 283.053,340.220 283.642 C 339.884 284.231,339.454 284.713,339.264 284.713 C 339.074 284.713,338.289 285.838,337.520 287.212 C 336.751 288.587,335.981 289.770,335.809 289.841 C 335.636 289.913,334.809 291.012,333.971 292.284 C 333.132 293.556,332.047 295.027,331.559 295.554 C 331.071 296.080,330.672 296.638,330.672 296.792 C 330.672 296.947,329.927 297.883,329.017 298.872 C 328.106 299.861,326.660 301.480,325.803 302.470 C 323.809 304.774,311.847 316.768,309.598 318.718 C 308.657 319.534,306.898 321.024,305.688 322.029 C 304.479 323.034,303.035 324.235,302.479 324.699 C 301.924 325.162,300.657 326.039,299.664 326.646 C 298.672 327.254,297.487 328.121,297.031 328.573 C 296.575 329.025,295.195 329.962,293.963 330.655 C 292.731 331.348,291.723 332.065,291.723 332.248 C 291.723 332.431,290.540 333.237,289.094 334.038 C 287.648 334.839,286.375 335.624,286.264 335.783 C 286.153 335.942,284.956 336.595,283.603 337.235 C 282.251 337.875,280.852 338.660,280.494 338.979 C 279.833 339.570,276.277 341.268,274.684 341.753 C 274.202 341.899,273.807 342.189,273.807 342.395 C 273.807 342.751,269.186 345.083,268.480 345.083 C 268.298 345.083,267.478 345.442,266.658 345.882 C 265.838 346.321,263.475 347.225,261.406 347.891 C 259.336 348.556,257.205 349.415,256.670 349.799 C 256.134 350.183,253.801 350.947,251.484 351.497 C 249.168 352.047,246.889 352.748,246.421 353.055 C 245.340 353.762,241.542 354.821,238.712 355.205 C 236.141 355.553,233.526 356.967,230.640 359.569 C 229.499 360.599,228.316 361.441,228.011 361.441 C 227.707 361.441,227.457 361.573,227.456 361.733 C 227.454 361.894,226.497 362.639,225.329 363.389 C 224.161 364.138,223.199 364.883,223.190 365.044 C 223.181 365.204,222.904 365.336,222.574 365.336 C 222.244 365.336,220.885 365.842,219.555 366.461 C 214.450 368.838,204.650 370.887,199.296 370.698 C 194.575 370.531,183.663 368.149,182.126 366.951 C 181.889 366.765,180.818 366.295,179.747 365.905 C 178.027 365.279,175.827 364.046,175.268 363.394 C 175.161 363.269,174.056 362.500,172.813 361.686 C 171.571 360.871,169.825 359.531,168.934 358.709 C 166.812 356.749,164.622 355.687,161.794 355.246 C 158.326 354.705,155.158 353.835,154.081 353.129 C 153.551 352.782,151.229 352.043,148.921 351.487 C 145.002 350.543,143.411 349.986,142.941 349.395 C 142.833 349.261,140.730 348.479,138.267 347.658 C 135.803 346.837,133.610 346.022,133.394 345.848 C 133.177 345.673,132.012 345.161,130.805 344.710 C 129.599 344.258,127.901 343.375,127.034 342.746 C 126.166 342.117,124.964 341.480,124.364 341.331 C 123.181 341.037,120.898 339.854,119.961 339.049 C 119.640 338.774,118.095 337.871,116.527 337.044 C 114.960 336.217,112.945 335.149,112.048 334.670 C 111.152 334.191,109.851 333.268,109.156 332.618 C 108.462 331.969,107.410 331.225,106.819 330.966 C 106.228 330.707,104.635 329.656,103.279 328.630 C 101.923 327.604,100.302 326.500,99.676 326.177 C 99.051 325.853,98.539 325.434,98.539 325.246 C 98.539 325.058,97.749 324.441,96.784 323.875 C 95.818 323.309,94.741 322.407,94.389 321.870 C 94.038 321.334,93.294 320.652,92.737 320.356 C 90.259 319.037,73.451 302.167,72.764 300.309 C 72.611 299.896,72.056 299.277,71.530 298.932 C 71.005 298.588,70.094 297.570,69.506 296.670 C 68.919 295.770,68.196 294.771,67.899 294.450 C 66.797 293.254,63.472 288.537,62.484 286.768 C 61.922 285.761,61.205 284.749,60.890 284.519 C 60.228 284.035,57.917 280.264,55.877 276.339 C 55.098 274.839,54.226 273.350,53.939 273.028 C 53.653 272.707,52.937 271.305,52.349 269.912 C 51.761 268.520,50.985 267.030,50.625 266.602 C 49.870 265.702,48.575 262.961,47.923 260.882 C 47.676 260.093,47.332 259.391,47.158 259.324 C 46.985 259.257,46.205 257.216,45.425 254.790 C 44.645 252.363,43.760 250.131,43.458 249.829 C 43.156 249.527,42.642 248.182,42.316 246.841 C 41.079 241.750,40.573 240.070,39.826 238.559 C 39.402 237.702,38.688 235.336,38.239 233.301 C 37.789 231.266,37.223 228.724,36.980 227.653 C 33.477 212.211,33.055 176.943,36.197 162.220 C 36.380 161.363,36.820 159.260,37.175 157.546 C 38.693 150.225,39.514 147.285,40.169 146.827 C 40.329 146.715,41.013 144.436,41.688 141.763 C 42.363 139.091,43.151 136.639,43.438 136.317 C 43.726 135.994,44.576 133.833,45.328 131.515 C 46.079 129.196,46.864 127.094,47.072 126.844 C 47.280 126.593,47.897 125.202,48.442 123.752 C 48.988 122.303,49.862 120.550,50.385 119.858 C 50.908 119.165,51.804 117.477,52.376 116.107 C 52.948 114.737,53.639 113.394,53.910 113.123 C 54.181 112.852,54.992 111.431,55.713 109.966 C 56.433 108.501,57.129 107.215,57.259 107.108 C 57.389 107.001,58.139 105.750,58.927 104.328 C 59.715 102.906,60.586 101.656,60.862 101.550 C 61.139 101.444,61.873 100.416,62.493 99.267 C 63.113 98.117,63.946 96.826,64.343 96.397 C 65.080 95.604,67.122 92.817,69.411 89.481 C 70.111 88.461,70.964 87.538,71.307 87.429 C 71.649 87.321,72.175 86.752,72.474 86.167 C 73.784 83.607,90.593 66.801,93.178 65.468 C 93.763 65.166,94.331 64.639,94.440 64.296 C 94.549 63.953,95.472 63.100,96.491 62.401 C 99.202 60.541,102.346 58.252,103.536 57.273 C 104.108 56.803,105.417 55.985,106.445 55.457 C 107.472 54.928,108.412 54.238,108.533 53.922 C 108.654 53.607,109.917 52.704,111.339 51.916 C 112.761 51.129,114.012 50.385,114.119 50.264 C 114.226 50.143,115.365 49.523,116.650 48.887 C 117.936 48.250,119.338 47.436,119.766 47.079 C 120.195 46.721,121.814 45.894,123.365 45.239 C 124.915 44.585,126.524 43.735,126.940 43.349 C 127.355 42.964,128.803 42.224,130.157 41.706 C 131.511 41.188,133.145 40.464,133.788 40.098 C 134.430 39.732,136.678 38.885,138.782 38.216 C 140.887 37.547,142.856 36.752,143.159 36.449 C 143.462 36.146,144.807 35.635,146.149 35.314 C 150.819 34.195,153.150 33.482,153.934 32.933 C 154.368 32.629,156.760 31.919,159.250 31.355 C 161.741 30.791,165.180 30.001,166.894 29.600 C 169.926 28.891,172.674 28.515,181.110 27.656 C 188.435 26.910,204.796 26.706,213.437 27.253 M319.543 42.714 C 319.869 43.564,319.468 44.012,318.380 44.012 C 317.634 44.012,317.429 43.809,317.429 43.070 C 317.429 41.655,319.033 41.384,319.543 42.714 M350.155 73.710 C 350.908 74.516,350.953 74.524,350.723 73.807 C 350.474 73.036,350.478 73.035,351.093 73.791 C 351.942 74.834,351.679 75.342,350.213 75.487 C 349.034 75.604,348.978 75.546,348.978 74.221 C 348.978 72.591,349.072 72.550,350.155 73.710 M354.041 76.944 C 354.041 77.250,354.383 77.714,354.800 77.975 C 355.812 78.607,355.127 79.455,353.604 79.455 C 352.159 79.455,351.829 76.554,353.262 76.446 C 353.705 76.413,354.041 76.627,354.041 76.944 M368.062 96.981 C 368.817 97.469,369.231 97.469,369.231 96.981 C 369.231 96.767,368.836 96.595,368.354 96.598 C 367.646 96.603,367.590 96.676,368.062 96.981 M372.175 104.175 C 373.079 104.859,373.515 104.918,373.515 104.359 C 373.515 104.132,373.340 104.055,373.126 104.187 C 372.911 104.319,372.736 104.242,372.736 104.015 C 372.736 103.788,372.440 103.603,372.077 103.603 C 371.503 103.603,371.516 103.676,372.175 104.175 M374.781 110.878 C 375.370 110.975,375.852 111.218,375.852 111.418 C 375.852 111.618,376.130 111.782,376.469 111.782 C 377.830 111.782,376.659 110.804,375.238 110.755 C 374.282 110.721,374.111 110.767,374.781 110.878 M377.410 118.443 C 376.939 118.779,376.993 118.824,377.689 118.672 C 378.163 118.568,378.519 118.596,378.478 118.735 C 378.366 119.124,379.792 121.130,380.181 121.130 C 380.732 121.130,380.580 119.822,379.919 118.879 C 379.263 117.943,378.336 117.781,377.410 118.443 M248.491 129.952 C 246.181 130.303,242.259 131.590,242.259 131.997 C 242.259 132.138,241.339 132.928,240.214 133.753 C 239.090 134.578,237.556 136.019,236.806 136.956 C 236.056 137.892,235.261 138.877,235.039 139.144 C 232.369 142.358,231.608 145.198,231.623 151.899 C 231.637 158.344,232.347 160.874,235.054 164.126 C 238.764 168.585,241.085 170.651,243.232 171.406 C 244.393 171.813,246.357 172.614,247.598 173.185 C 250.140 174.354,256.798 174.735,257.952 173.777 C 258.264 173.519,260.250 172.696,262.365 171.950 C 264.481 171.204,266.278 170.396,266.359 170.154 C 266.439 169.913,267.864 168.378,269.526 166.743 C 272.254 164.058,272.652 163.470,273.638 160.658 C 274.238 158.947,275.004 157.116,275.339 156.590 C 276.473 154.811,276.188 147.874,274.878 145.382 C 274.289 144.261,273.807 143.156,273.807 142.926 C 273.807 140.644,267.379 133.473,263.410 131.328 C 261.057 130.056,252.810 129.296,248.491 129.952 M125.803 135.146 C 120.816 135.774,113.442 137.936,112.812 138.954 C 112.689 139.153,111.423 139.998,109.999 140.831 C 108.575 141.664,107.123 142.700,106.772 143.135 C 106.421 143.570,105.630 144.316,105.014 144.793 C 103.396 146.048,99.908 150.845,98.679 153.507 C 98.099 154.765,97.500 155.794,97.348 155.794 C 96.529 155.794,95.283 160.346,95.257 163.433 C 95.220 167.718,95.420 167.913,99.860 167.926 C 103.732 167.937,103.927 167.832,105.317 164.990 C 106.575 162.420,110.237 158.678,112.561 157.589 C 114.275 156.786,114.772 156.767,134.956 156.767 L 155.599 156.767 157.449 157.678 C 160.197 159.032,163.002 161.931,164.986 165.470 C 166.268 167.758,166.553 167.904,169.775 167.919 C 173.614 167.938,174.271 167.412,174.410 164.211 C 174.520 161.700,173.251 156.597,172.174 155.211 C 172.007 154.996,171.746 154.302,171.594 153.668 C 170.970 151.065,162.182 141.551,159.300 140.359 C 158.550 140.048,157.673 139.479,157.352 139.095 C 154.758 135.990,136.875 133.751,125.803 135.146 M108.025 230.359 C 106.090 231.201,105.795 236.814,107.362 242.939 C 108.103 245.838,109.400 251.327,109.862 253.522 C 110.499 256.544,113.738 265.783,114.562 266.926 C 115.000 267.532,115.873 269.285,116.502 270.821 C 117.131 272.356,117.877 273.788,118.159 274.002 C 118.441 274.216,119.269 275.445,119.998 276.733 C 122.208 280.634,122.777 281.506,125.543 285.225 C 127.006 287.192,129.753 290.426,131.647 292.410 C 133.540 294.395,135.147 296.147,135.218 296.305 C 135.288 296.463,136.134 297.238,137.098 298.026 C 138.062 298.815,139.464 299.998,140.214 300.655 C 140.964 301.311,141.685 301.849,141.817 301.849 C 141.948 301.850,142.649 302.384,143.375 303.036 C 144.100 303.688,145.307 304.545,146.056 304.942 C 146.806 305.338,147.754 306.031,148.162 306.482 C 148.906 307.305,150.163 307.540,150.964 307.005 C 152.471 305.999,152.479 305.837,152.602 274.163 L 152.721 243.555 154.064 242.172 C 155.927 240.254,153.852 240.339,198.832 240.336 C 245.273 240.332,244.144 240.289,245.874 242.123 L 247.128 243.452 247.322 274.111 C 247.540 308.309,247.432 307.002,250.059 307.224 C 251.158 307.316,251.649 307.107,252.563 306.153 C 253.188 305.500,253.898 304.966,254.141 304.966 C 254.384 304.966,255.271 304.385,256.113 303.676 C 256.955 302.966,258.062 302.100,258.574 301.751 C 260.222 300.628,264.166 297.051,266.585 294.487 C 267.880 293.115,269.788 291.114,270.825 290.042 C 271.863 288.969,273.175 287.375,273.742 286.500 C 274.309 285.624,274.991 284.769,275.256 284.600 C 275.522 284.431,276.220 283.467,276.807 282.458 C 277.394 281.449,278.184 280.286,278.563 279.873 C 278.941 279.460,279.365 278.759,279.505 278.315 C 279.644 277.871,280.673 276.105,281.791 274.391 C 282.909 272.678,283.946 270.768,284.095 270.147 C 284.245 269.526,285.058 267.872,285.903 266.471 C 286.748 265.071,287.443 263.651,287.447 263.316 C 287.452 262.981,287.896 261.480,288.433 259.981 C 289.463 257.108,290.213 254.358,291.193 249.854 C 291.519 248.354,292.123 246.076,292.534 244.791 C 294.443 238.824,294.162 230.958,292.013 230.209 C 290.042 229.522,109.611 229.669,108.025 230.359 " stroke="none" fill="#130f08" fill-rule="evenodd"></path><path id="path1" d="M189.484 29.990 C 186.913 30.171,183.671 30.505,182.278 30.731 C 180.886 30.958,176.153 31.569,171.761 32.089 C 164.651 32.932,161.192 33.696,159.848 34.722 C 159.614 34.901,157.949 35.310,156.147 35.632 C 150.453 36.650,148.823 37.100,147.977 37.889 C 147.524 38.311,145.986 39.005,144.560 39.432 C 143.134 39.859,141.003 40.687,139.825 41.273 C 138.647 41.858,136.806 42.546,135.735 42.802 C 133.355 43.370,131.528 44.189,130.869 44.983 C 130.597 45.310,129.127 45.949,127.602 46.402 C 125.810 46.934,124.347 47.668,123.466 48.477 C 122.717 49.166,121.134 50.175,119.949 50.720 C 118.764 51.265,117.569 51.982,117.293 52.315 C 117.017 52.648,116.271 53.034,115.635 53.174 C 114.999 53.313,113.676 54.040,112.695 54.789 C 110.476 56.483,108.433 57.644,107.672 57.644 C 107.353 57.644,106.909 58.044,106.686 58.533 C 106.463 59.023,105.541 59.891,104.637 60.463 C 103.733 61.035,102.574 61.949,102.061 62.494 C 101.549 63.040,100.991 63.486,100.822 63.486 C 100.316 63.486,97.262 65.554,96.008 66.746 C 95.365 67.357,94.428 68.015,93.925 68.208 C 93.423 68.401,92.931 68.863,92.834 69.235 C 92.736 69.608,92.141 70.351,91.511 70.886 C 90.882 71.422,89.701 72.493,88.888 73.268 C 88.075 74.042,87.022 74.799,86.548 74.949 C 86.074 75.100,85.686 75.409,85.686 75.636 C 85.686 75.864,84.766 76.992,83.642 78.143 C 82.517 79.294,81.032 80.893,80.341 81.696 C 77.737 84.722,76.904 85.560,76.271 85.791 C 75.912 85.922,75.320 86.659,74.954 87.429 C 74.589 88.199,73.996 89.042,73.637 89.303 C 72.858 89.867,70.497 93.256,70.497 93.810 C 70.497 94.024,70.098 94.518,69.611 94.908 C 69.124 95.299,68.210 96.440,67.580 97.444 C 66.949 98.448,66.033 99.452,65.544 99.675 C 65.055 99.898,64.654 100.342,64.654 100.661 C 64.654 101.423,63.494 103.465,61.800 105.684 C 61.051 106.665,60.324 107.988,60.184 108.624 C 60.045 109.260,59.669 109.998,59.349 110.263 C 59.030 110.528,58.242 111.811,57.597 113.113 C 56.953 114.416,55.912 116.016,55.282 116.669 C 54.653 117.322,54.138 118.111,54.138 118.422 C 54.138 119.393,52.553 123.234,51.815 124.051 C 51.428 124.479,50.730 126.056,50.265 127.556 C 49.800 129.056,48.989 131.166,48.463 132.245 C 47.937 133.325,47.085 135.578,46.568 137.252 C 46.052 138.926,45.291 140.671,44.879 141.131 C 44.044 142.060,43.484 144.029,42.814 148.393 C 42.567 150.000,41.966 152.278,41.479 153.457 C 40.280 156.354,39.834 158.691,38.949 166.699 C 38.534 170.448,37.915 175.355,37.573 177.605 C 36.386 185.416,36.735 205.562,38.182 212.658 C 38.379 213.622,38.810 217.215,39.140 220.643 C 39.822 227.715,40.251 229.904,41.503 232.699 C 41.987 233.780,42.581 235.979,42.823 237.585 C 43.472 241.897,44.028 243.873,44.961 245.180 C 45.419 245.823,46.111 247.400,46.497 248.685 C 46.884 249.971,47.703 252.074,48.317 253.359 C 48.931 254.645,49.806 256.969,50.262 258.525 C 50.718 260.081,51.443 261.750,51.875 262.235 C 52.669 263.126,53.530 265.139,54.132 267.516 C 54.314 268.233,54.817 269.068,55.251 269.372 C 55.684 269.675,56.683 271.192,57.471 272.742 C 58.260 274.292,59.042 275.648,59.210 275.755 C 59.378 275.862,59.974 276.913,60.536 278.092 C 61.097 279.270,62.248 281.198,63.093 282.376 C 63.939 283.554,64.636 284.813,64.642 285.173 C 64.649 285.533,65.164 286.191,65.786 286.634 C 66.408 287.077,67.376 288.221,67.936 289.177 C 68.496 290.132,69.178 291.053,69.452 291.221 C 69.727 291.390,70.443 292.381,71.045 293.422 C 71.646 294.464,72.751 295.954,73.499 296.733 C 74.248 297.512,75.035 298.632,75.248 299.221 C 75.462 299.810,75.838 300.298,76.085 300.304 C 76.667 300.320,78.676 302.088,78.676 302.584 C 78.676 302.794,79.206 303.343,79.853 303.804 C 80.501 304.265,81.363 305.294,81.769 306.090 C 82.176 306.887,82.965 307.747,83.524 308.002 C 84.083 308.256,84.899 309.072,85.336 309.814 C 85.774 310.556,86.490 311.277,86.926 311.415 C 87.798 311.692,93.087 316.730,93.087 317.284 C 93.087 317.473,93.629 317.869,94.292 318.162 C 94.954 318.455,95.983 319.155,96.576 319.718 C 98.140 321.198,98.988 321.834,100.278 322.493 C 100.907 322.814,101.929 323.570,102.550 324.172 C 103.171 324.775,104.107 325.430,104.631 325.629 C 105.154 325.828,105.882 326.517,106.248 327.161 C 106.614 327.804,107.123 328.331,107.380 328.332 C 108.113 328.336,111.525 330.224,112.171 330.984 C 112.755 331.670,116.097 333.398,116.841 333.398 C 117.057 333.398,117.235 333.544,117.235 333.722 C 117.235 333.899,118.559 334.717,120.179 335.539 C 121.798 336.361,123.419 337.406,123.781 337.861 C 124.153 338.328,125.673 339.077,127.268 339.578 C 128.823 340.066,130.612 340.900,131.243 341.431 C 131.874 341.962,133.668 342.740,135.231 343.161 C 136.794 343.581,139.036 344.425,140.214 345.036 C 141.392 345.646,143.273 346.362,144.394 346.625 C 145.515 346.889,147.105 347.592,147.929 348.189 C 151.755 350.961,162.100 351.337,160.134 348.633 C 159.615 347.918,156.962 342.474,156.962 342.123 C 156.962 341.996,156.640 341.427,156.245 340.859 C 154.303 338.057,153.020 330.868,152.689 320.935 C 152.387 311.901,152.141 310.999,149.818 310.405 C 147.715 309.869,145.899 308.927,144.397 307.595 C 143.733 307.006,143.039 306.524,142.854 306.524 C 142.475 306.524,141.803 306.020,140.176 304.514 C 139.559 303.944,138.439 303.097,137.687 302.632 C 136.934 302.166,136.215 301.377,136.090 300.877 C 135.964 300.375,135.370 299.765,134.762 299.513 C 134.157 299.263,133.044 298.415,132.290 297.630 C 131.536 296.845,130.469 295.768,129.919 295.237 C 129.369 294.706,128.919 294.053,128.919 293.786 C 128.919 293.520,128.380 293.022,127.720 292.681 C 127.023 292.321,126.277 291.477,125.938 290.667 C 125.322 289.193,124.841 288.591,123.802 287.998 C 122.906 287.486,119.764 282.960,118.641 280.564 C 118.124 279.461,117.322 278.179,116.859 277.716 C 116.024 276.880,114.508 273.773,114.508 272.895 C 114.508 272.642,114.072 271.966,113.539 271.391 C 112.576 270.352,110.613 266.478,110.613 265.616 C 110.613 265.367,110.285 264.699,109.883 264.130 C 109.251 263.234,108.236 259.717,107.292 255.144 C 107.141 254.413,106.698 253.288,106.308 252.647 C 105.162 250.763,103.992 241.666,103.992 234.642 C 103.992 229.938,104.806 227.688,106.700 227.154 C 108.028 226.780,292.017 226.793,293.353 227.167 C 293.928 227.329,294.804 228.030,295.300 228.725 C 297.058 231.190,296.041 248.640,293.898 252.775 C 293.399 253.739,292.863 255.316,292.708 256.280 C 292.217 259.325,291.020 263.259,290.246 264.366 C 289.836 264.953,289.381 265.959,289.236 266.602 C 288.843 268.343,287.381 271.085,286.631 271.486 C 286.268 271.680,285.855 272.462,285.712 273.224 C 285.413 274.820,284.200 277.011,282.892 278.319 C 282.394 278.817,281.986 279.493,281.986 279.821 C 281.986 280.586,279.696 284.323,279.227 284.323 C 279.031 284.323,278.870 284.575,278.870 284.882 C 278.870 285.189,277.950 286.386,276.826 287.541 C 275.701 288.697,274.449 290.282,274.042 291.064 C 273.636 291.846,273.023 292.578,272.679 292.691 C 272.336 292.803,271.654 293.514,271.165 294.271 C 270.676 295.028,269.844 295.844,269.315 296.085 C 268.787 296.325,268.354 296.724,268.354 296.971 C 268.354 297.610,266.353 299.412,265.465 299.573 C 265.054 299.647,264.427 300.234,264.072 300.876 C 263.718 301.519,262.828 302.451,262.094 302.947 C 261.361 303.444,260.627 304.090,260.463 304.382 C 260.299 304.675,259.216 305.457,258.057 306.121 C 256.897 306.785,255.891 307.453,255.822 307.607 C 255.525 308.268,252.359 309.999,250.974 310.258 C 247.974 310.819,247.322 312.684,247.325 320.690 C 247.329 329.634,246.291 335.831,243.974 340.708 C 243.031 342.693,242.259 344.483,242.259 344.686 C 242.259 345.218,240.268 348.734,239.791 349.045 C 239.018 349.549,240.364 350.536,241.820 350.533 C 245.332 350.528,250.747 349.405,251.751 348.474 C 252.298 347.967,253.848 347.239,255.195 346.856 C 256.542 346.474,258.875 345.568,260.381 344.843 C 261.886 344.118,263.349 343.525,263.631 343.525 C 264.962 343.525,268.277 342.255,269.214 341.386 C 269.788 340.854,271.451 340.042,272.909 339.583 C 274.367 339.124,275.939 338.341,276.402 337.844 C 276.865 337.347,278.092 336.547,279.128 336.067 C 280.165 335.587,281.865 334.615,282.906 333.907 C 283.948 333.199,285.071 332.619,285.401 332.619 C 285.955 332.619,288.529 330.909,289.011 330.221 C 289.125 330.057,290.089 329.543,291.153 329.078 C 292.216 328.613,293.581 327.643,294.186 326.921 C 294.791 326.199,295.506 325.609,295.776 325.609 C 296.047 325.609,296.866 325.026,297.598 324.315 C 298.330 323.603,299.718 322.562,300.682 322.000 C 301.646 321.439,303.223 320.269,304.187 319.400 C 305.151 318.531,306.246 317.820,306.621 317.819 C 306.996 317.819,307.303 317.588,307.303 317.305 C 307.303 316.686,309.358 314.314,309.893 314.314 C 310.102 314.314,310.653 313.799,311.118 313.169 C 311.583 312.540,312.446 311.794,313.035 311.512 C 313.624 311.230,314.453 310.468,314.878 309.820 C 315.303 309.171,316.182 308.293,316.830 307.867 C 317.479 307.442,318.240 306.613,318.523 306.024 C 318.805 305.435,319.551 304.573,320.180 304.107 C 320.809 303.642,321.324 303.091,321.324 302.883 C 321.324 302.347,323.697 300.292,324.316 300.292 C 324.598 300.292,324.830 299.985,324.830 299.611 C 324.830 299.236,325.542 298.140,326.411 297.176 C 327.280 296.212,328.450 294.635,329.011 293.671 C 329.572 292.707,330.614 291.319,331.325 290.587 C 332.037 289.856,332.619 289.036,332.619 288.766 C 332.619 288.496,333.225 287.775,333.966 287.165 C 334.707 286.554,335.596 285.378,335.941 284.552 C 336.286 283.725,337.236 282.153,338.052 281.057 C 338.867 279.962,339.740 278.422,339.992 277.636 C 340.243 276.850,340.711 275.989,341.032 275.722 C 341.353 275.456,342.079 274.259,342.645 273.062 C 343.211 271.865,344.152 270.360,344.735 269.718 C 345.319 269.075,346.160 267.428,346.606 266.057 C 347.051 264.686,347.855 262.989,348.391 262.286 C 348.928 261.582,349.367 260.767,349.367 260.474 C 349.367 260.181,349.519 259.775,349.704 259.572 C 349.889 259.368,350.244 258.325,350.493 257.254 C 350.742 256.183,351.458 254.255,352.083 252.970 C 352.708 251.685,353.507 249.669,353.860 248.491 C 354.212 247.313,354.931 245.779,355.458 245.083 C 356.057 244.293,356.561 242.904,356.800 241.383 C 357.548 236.644,358.000 234.355,358.311 233.734 C 359.854 230.657,360.295 228.793,360.853 222.980 C 361.183 219.552,361.539 216.359,361.646 215.883 C 363.665 206.869,364.171 187.541,362.658 177.215 C 362.203 174.109,361.461 168.238,361.008 164.167 C 360.238 157.237,359.938 155.941,358.304 152.483 C 358.102 152.055,357.577 149.536,357.139 146.887 C 356.700 144.237,356.130 141.833,355.873 141.545 C 354.681 140.211,354.464 139.796,353.833 137.642 C 353.463 136.379,352.570 134.114,351.848 132.609 C 351.126 131.103,350.536 129.678,350.536 129.440 C 350.536 128.321,349.146 124.726,348.377 123.856 C 347.903 123.320,347.122 121.655,346.641 120.156 C 346.159 118.656,345.363 117.070,344.870 116.631 C 344.378 116.192,343.500 114.790,342.919 113.515 C 342.338 112.241,341.447 110.702,340.941 110.097 C 340.434 109.491,339.909 108.527,339.773 107.954 C 339.541 106.968,338.274 105.019,336.877 103.495 C 336.528 103.115,336.019 102.125,335.745 101.296 C 335.442 100.379,334.877 99.619,334.303 99.358 C 333.783 99.121,333.100 98.309,332.784 97.554 C 332.468 96.798,331.759 95.791,331.208 95.315 C 330.657 94.839,329.872 93.797,329.462 92.999 C 329.053 92.201,327.920 90.649,326.943 89.549 C 325.967 88.450,325.009 87.131,324.814 86.618 C 324.619 86.106,324.246 85.686,323.984 85.686 C 323.337 85.686,321.324 83.716,321.324 83.082 C 321.324 82.801,321.156 82.571,320.951 82.571 C 320.431 82.571,318.598 80.540,318.598 79.964 C 318.598 79.705,317.809 78.950,316.845 78.286 C 315.881 77.623,315.093 76.828,315.093 76.520 C 315.093 76.211,314.435 75.525,313.632 74.995 C 311.506 73.592,310.808 72.991,310.808 72.561 C 310.808 72.351,310.376 71.983,309.847 71.742 C 309.319 71.501,308.486 70.685,307.997 69.928 C 307.508 69.172,306.758 68.440,306.329 68.303 C 305.901 68.166,305.080 67.566,304.504 66.969 C 303.929 66.372,302.264 65.070,300.804 64.077 C 295.377 60.383,294.244 59.505,293.783 58.637 C 293.523 58.147,292.822 57.649,292.225 57.529 C 291.628 57.410,290.358 56.729,289.403 56.017 C 287.484 54.586,284.007 52.570,279.844 50.474 C 278.345 49.719,276.805 48.681,276.422 48.168 C 275.958 47.546,274.878 47.006,273.177 46.546 C 271.775 46.166,270.160 45.471,269.589 45.001 C 268.443 44.059,265.604 42.843,264.549 42.843 C 264.179 42.843,262.756 42.313,261.387 41.665 C 260.018 41.018,257.611 40.068,256.036 39.553 C 254.462 39.039,252.690 38.279,252.098 37.864 C 250.722 36.898,249.059 36.410,245.180 35.830 C 243.466 35.574,241.188 34.967,240.116 34.480 C 237.537 33.308,235.214 32.851,227.069 31.916 C 223.320 31.486,218.588 30.884,216.553 30.580 C 211.992 29.897,195.805 29.544,189.484 29.990 M263.875 99.144 C 269.169 100.386,280.033 104.734,281.527 106.210 C 281.810 106.490,282.172 106.719,282.330 106.719 C 282.489 106.719,282.958 107.027,283.373 107.403 C 283.789 107.780,284.632 108.411,285.247 108.807 C 287.178 110.047,294.839 117.412,294.839 118.028 C 294.839 118.187,295.453 118.994,296.204 119.821 C 296.954 120.648,298.210 122.463,298.994 123.856 C 299.778 125.248,300.540 126.475,300.688 126.582 C 300.836 126.689,301.267 127.722,301.647 128.876 C 302.027 130.030,302.817 131.886,303.403 133.000 C 307.505 140.797,307.433 162.294,303.278 170.463 C 302.533 171.928,301.797 173.564,301.642 174.099 C 301.487 174.635,300.913 175.862,300.367 176.826 C 299.821 177.790,299.062 179.170,298.681 179.894 C 298.300 180.617,297.368 181.880,296.609 182.701 C 295.850 183.521,295.229 184.359,295.229 184.563 C 295.229 185.079,288.357 192.041,286.488 193.417 C 285.644 194.039,284.566 194.933,284.091 195.404 C 283.617 195.875,282.380 196.657,281.342 197.141 C 280.304 197.625,279.223 198.247,278.940 198.523 C 278.657 198.800,278.245 199.026,278.025 199.026 C 277.805 199.026,277.073 199.270,276.398 199.568 C 267.659 203.424,267.416 203.503,262.317 204.129 C 251.759 205.427,240.367 204.324,234.275 201.416 C 232.989 200.802,230.974 199.883,229.796 199.372 C 228.617 198.862,227.449 198.252,227.200 198.018 C 226.950 197.783,226.161 197.350,225.447 197.057 C 223.950 196.442,223.939 196.434,221.634 194.358 C 220.679 193.498,219.750 192.795,219.569 192.795 C 219.025 192.795,211.867 185.319,210.806 183.642 C 210.263 182.785,209.320 181.446,208.710 180.667 C 207.303 178.873,204.261 172.774,203.886 170.996 C 203.729 170.254,203.466 169.377,203.301 169.049 C 199.883 162.242,198.962 144.249,201.719 138.129 C 202.119 137.241,202.934 135.024,203.530 133.204 C 204.614 129.892,207.646 123.616,208.516 122.882 C 208.769 122.668,209.642 121.481,210.455 120.244 C 211.268 119.007,212.315 117.589,212.783 117.092 C 213.250 116.595,214.421 115.345,215.385 114.313 C 217.591 111.951,222.004 108.277,222.633 108.277 C 222.895 108.277,223.168 108.145,223.239 107.984 C 223.738 106.862,231.522 102.661,234.859 101.714 C 235.823 101.440,237.313 100.898,238.169 100.511 C 243.072 98.292,257.069 97.548,263.875 99.144 M150.124 132.817 C 151.612 133.039,153.364 133.506,154.019 133.853 C 154.674 134.201,156.376 135.068,157.801 135.780 C 159.227 136.492,160.979 137.615,161.696 138.275 C 162.413 138.936,163.543 139.738,164.208 140.058 C 164.874 140.377,165.656 141.084,165.947 141.628 C 166.239 142.172,166.962 142.868,167.555 143.175 C 168.148 143.482,168.922 144.299,169.274 144.992 C 169.626 145.685,170.485 146.729,171.182 147.313 C 171.879 147.896,172.749 149.123,173.115 150.038 C 173.481 150.953,173.916 151.790,174.082 151.898 C 174.882 152.417,176.157 155.812,176.683 158.824 C 177.004 160.667,177.431 162.480,177.631 162.853 C 178.408 164.306,178.047 166.899,176.833 168.574 C 173.115 173.707,164.511 172.451,161.621 166.353 C 160.950 164.937,160.272 163.526,160.114 163.217 C 159.956 162.908,159.350 162.497,158.766 162.302 C 158.182 162.108,157.158 161.449,156.489 160.838 C 154.781 159.278,153.917 159.224,133.007 159.368 L 114.700 159.494 113.508 160.742 C 112.852 161.428,111.842 162.170,111.263 162.390 C 110.684 162.610,110.057 163.192,109.871 163.682 C 109.684 164.173,108.899 165.332,108.125 166.258 C 107.352 167.184,106.715 168.144,106.712 168.391 C 106.668 171.186,98.302 172.881,95.162 170.732 C 91.825 168.448,90.665 164.693,92.451 161.962 C 92.779 161.461,93.218 160.088,93.428 158.909 C 94.076 155.271,94.561 153.751,95.408 152.708 C 95.857 152.156,96.729 150.685,97.346 149.440 C 98.445 147.225,98.859 146.681,101.264 144.304 C 104.962 140.647,105.826 139.895,106.604 139.657 C 107.077 139.512,107.904 138.870,108.443 138.230 C 108.982 137.589,110.427 136.621,111.656 136.078 C 112.884 135.534,114.335 134.777,114.880 134.396 C 117.884 132.292,139.999 131.301,150.124 132.817 " stroke="none" fill="#faca3b" fill-rule="evenodd"></path><path id="path2" d="M155.152 243.097 L 154.041 244.257 153.846 276.267 L 153.651 308.277 152.734 309.563 C 152.017 310.569,151.876 311.121,152.090 312.095 C 152.241 312.779,152.494 316.758,152.653 320.935 C 153.033 330.933,154.323 338.085,156.245 340.859 C 156.640 341.427,156.962 341.996,156.962 342.123 C 156.962 342.665,159.660 348.135,160.045 348.373 C 160.277 348.517,160.472 348.930,160.477 349.293 C 160.489 350.128,163.058 352.833,164.776 353.820 C 166.141 354.604,166.748 355.099,170.897 358.812 C 172.273 360.044,173.644 361.052,173.943 361.052 C 174.242 361.052,175.166 361.665,175.995 362.415 C 176.825 363.165,177.626 363.778,177.774 363.778 C 177.922 363.778,179.877 364.561,182.118 365.518 C 188.280 368.150,195.374 369.431,201.947 369.097 C 206.816 368.850,214.247 367.398,217.137 366.128 C 218.208 365.657,219.611 365.037,220.253 364.750 C 220.896 364.463,221.904 364.107,222.493 363.961 C 223.082 363.814,223.564 363.553,223.564 363.381 C 223.564 363.210,224.784 362.265,226.276 361.282 C 227.768 360.299,229.580 358.925,230.303 358.229 C 232.255 356.348,235.048 354.038,236.293 353.275 C 237.871 352.308,239.934 350.091,239.664 349.653 C 239.537 349.448,239.604 349.168,239.813 349.031 C 240.274 348.730,242.259 345.204,242.259 344.686 C 242.259 344.483,243.031 342.693,243.974 340.708 C 246.291 335.831,247.329 329.634,247.325 320.690 C 247.323 316.265,247.480 314.021,247.856 313.095 C 248.451 311.631,248.358 311.137,247.169 309.445 C 246.355 308.285,246.347 308.039,246.154 276.013 L 245.959 243.749 244.906 242.843 L 243.853 241.938 200.058 241.938 L 156.263 241.938 155.152 243.097 " stroke="none" fill="#ed350f" fill-rule="evenodd"></path><path id="path3" d="M247.128 98.511 C 243.436 98.843,240.316 99.539,238.169 100.511 C 237.313 100.898,235.823 101.440,234.859 101.714 C 231.522 102.661,223.738 106.862,223.239 107.984 C 223.168 108.145,222.895 108.277,222.633 108.277 C 222.004 108.277,217.591 111.951,215.385 114.313 C 214.421 115.345,213.250 116.595,212.783 117.092 C 212.315 117.589,211.268 119.007,210.455 120.244 C 209.642 121.481,208.769 122.668,208.516 122.882 C 207.646 123.616,204.614 129.892,203.530 133.204 C 202.934 135.024,202.119 137.241,201.719 138.129 C 198.962 144.249,199.883 162.242,203.301 169.049 C 203.466 169.377,203.729 170.254,203.886 170.996 C 204.261 172.774,207.303 178.873,208.710 180.667 C 209.320 181.446,210.263 182.785,210.806 183.642 C 211.867 185.319,219.025 192.795,219.569 192.795 C 219.750 192.795,220.679 193.498,221.634 194.358 C 223.939 196.434,223.950 196.442,225.447 197.057 C 226.161 197.350,226.950 197.783,227.200 198.018 C 227.449 198.252,228.617 198.862,229.796 199.372 C 230.974 199.883,232.989 200.802,234.275 201.416 C 240.367 204.324,251.759 205.427,262.317 204.129 C 267.416 203.503,267.659 203.424,276.398 199.568 C 277.073 199.270,277.805 199.026,278.025 199.026 C 278.245 199.026,278.657 198.800,278.940 198.523 C 279.223 198.247,280.304 197.625,281.342 197.141 C 282.380 196.657,283.617 195.875,284.091 195.404 C 284.566 194.933,285.644 194.039,286.488 193.417 C 288.357 192.041,295.229 185.079,295.229 184.563 C 295.229 184.359,295.850 183.521,296.609 182.701 C 297.368 181.880,298.300 180.617,298.681 179.894 C 299.062 179.170,299.821 177.790,300.367 176.826 C 300.913 175.862,301.487 174.635,301.642 174.099 C 301.797 173.564,302.533 171.928,303.278 170.463 C 306.156 164.804,307.297 151.730,305.781 141.772 C 305.073 137.124,304.542 135.165,303.403 133.000 C 302.817 131.886,302.027 130.030,301.647 128.876 C 301.267 127.722,300.836 126.689,300.688 126.582 C 300.540 126.475,299.778 125.248,298.994 123.856 C 298.210 122.463,296.954 120.648,296.204 119.821 C 295.453 118.994,294.839 118.187,294.839 118.028 C 294.839 117.412,287.178 110.047,285.247 108.807 C 284.632 108.411,283.789 107.780,283.373 107.403 C 282.958 107.027,282.489 106.719,282.330 106.719 C 282.172 106.719,281.810 106.490,281.527 106.210 C 280.033 104.734,269.169 100.386,263.875 99.144 C 261.065 98.485,251.455 98.121,247.128 98.511 M258.993 127.354 C 259.758 127.745,261.753 128.511,263.425 129.057 C 266.237 129.976,267.100 130.522,270.357 133.443 C 272.354 135.235,274.117 137.341,274.396 138.267 C 274.557 138.802,275.260 140.117,275.957 141.188 C 279.211 146.184,279.412 157.767,276.306 161.339 C 275.867 161.844,275.169 163.083,274.755 164.094 C 273.495 167.166,267.745 172.718,265.358 173.165 C 264.644 173.299,263.930 173.629,263.773 173.898 C 262.025 176.880,249.452 177.666,244.890 175.078 C 243.978 174.561,242.181 173.599,240.896 172.940 C 239.611 172.281,238.121 171.321,237.585 170.807 C 232.916 166.322,231.404 164.140,230.530 160.624 C 230.269 159.574,229.735 158.093,229.343 157.333 C 227.908 154.550,228.050 147.025,229.570 145.293 C 229.860 144.963,230.292 143.767,230.529 142.636 C 231.029 140.257,232.138 137.924,233.396 136.609 C 233.879 136.104,234.811 135.087,235.467 134.349 C 236.123 133.612,237.001 132.746,237.420 132.425 C 237.838 132.103,238.755 131.363,239.458 130.779 C 240.161 130.196,241.473 129.530,242.374 129.300 C 243.275 129.069,245.326 128.371,246.933 127.748 C 251.378 126.025,256.086 125.871,258.993 127.354 " stroke="none" fill="#fbf9f3" fill-rule="evenodd"></path><path id="path4" d="M187.926 27.133 C 185.241 27.238,180.398 27.688,173.515 28.472 C 171.587 28.692,168.608 29.200,166.894 29.600 C 165.180 30.001,161.741 30.791,159.250 31.355 C 156.760 31.919,154.368 32.629,153.934 32.933 C 153.150 33.482,150.819 34.195,146.149 35.314 C 144.807 35.635,143.462 36.146,143.159 36.449 C 142.856 36.752,140.887 37.547,138.782 38.216 C 136.678 38.885,134.430 39.732,133.788 40.098 C 133.145 40.464,131.511 41.188,130.157 41.706 C 128.803 42.224,127.355 42.964,126.940 43.349 C 126.524 43.735,124.915 44.585,123.365 45.239 C 121.814 45.894,120.195 46.721,119.766 47.079 C 119.338 47.436,117.936 48.250,116.650 48.887 C 115.365 49.523,114.226 50.143,114.119 50.264 C 114.012 50.385,112.761 51.129,111.339 51.916 C 109.917 52.704,108.654 53.607,108.533 53.922 C 108.412 54.238,107.472 54.928,106.445 55.457 C 105.417 55.985,104.108 56.803,103.536 57.273 C 102.346 58.252,99.202 60.541,96.491 62.401 C 95.472 63.100,94.549 63.953,94.440 64.296 C 94.331 64.639,93.763 65.166,93.178 65.468 C 90.593 66.801,73.784 83.607,72.474 86.167 C 72.175 86.752,71.649 87.321,71.307 87.429 C 70.964 87.538,70.111 88.461,69.411 89.481 C 67.122 92.817,65.080 95.604,64.343 96.397 C 63.946 96.826,63.113 98.117,62.493 99.267 C 61.873 100.416,61.139 101.444,60.862 101.550 C 60.586 101.656,59.715 102.906,58.927 104.328 C 58.139 105.750,57.389 107.001,57.259 107.108 C 57.129 107.215,56.433 108.501,55.713 109.966 C 54.992 111.431,54.181 112.852,53.910 113.123 C 53.639 113.394,52.948 114.737,52.376 116.107 C 51.804 117.477,50.908 119.165,50.385 119.858 C 49.862 120.550,48.988 122.303,48.442 123.752 C 47.897 125.202,47.280 126.593,47.072 126.844 C 46.864 127.094,46.079 129.196,45.328 131.515 C 44.576 133.833,43.726 135.994,43.438 136.317 C 43.151 136.639,42.363 139.091,41.688 141.763 C 41.013 144.436,40.329 146.715,40.169 146.827 C 39.514 147.285,38.693 150.225,37.175 157.546 C 36.820 159.260,36.380 161.363,36.197 162.220 C 33.055 176.943,33.477 212.211,36.980 227.653 C 37.223 228.724,37.789 231.266,38.239 233.301 C 38.688 235.336,39.402 237.702,39.826 238.559 C 40.573 240.070,41.079 241.750,42.316 246.841 C 42.642 248.182,43.156 249.527,43.458 249.829 C 43.760 250.131,44.645 252.363,45.425 254.790 C 46.205 257.216,46.985 259.257,47.158 259.324 C 47.332 259.391,47.676 260.093,47.923 260.882 C 48.575 262.961,49.870 265.702,50.625 266.602 C 50.985 267.030,51.761 268.520,52.349 269.912 C 52.937 271.305,53.653 272.707,53.939 273.028 C 54.226 273.350,55.098 274.839,55.877 276.339 C 57.917 280.264,60.228 284.035,60.890 284.519 C 61.205 284.749,61.922 285.761,62.484 286.768 C 63.472 288.537,66.797 293.254,67.899 294.450 C 68.196 294.771,68.919 295.770,69.506 296.670 C 70.094 297.570,71.005 298.588,71.530 298.932 C 72.056 299.277,72.611 299.896,72.764 300.309 C 73.451 302.167,90.259 319.037,92.737 320.356 C 93.294 320.652,94.038 321.334,94.389 321.870 C 94.741 322.407,95.818 323.309,96.784 323.875 C 97.749 324.441,98.539 325.058,98.539 325.246 C 98.539 325.434,99.051 325.853,99.676 326.177 C 100.302 326.500,101.923 327.604,103.279 328.630 C 104.635 329.656,106.228 330.707,106.819 330.966 C 107.410 331.225,108.462 331.969,109.156 332.618 C 109.851 333.268,111.152 334.191,112.048 334.670 C 112.945 335.149,114.960 336.217,116.527 337.044 C 118.095 337.871,119.640 338.774,119.961 339.049 C 120.898 339.854,123.181 341.037,124.364 341.331 C 124.964 341.480,126.166 342.117,127.034 342.746 C 127.901 343.375,129.599 344.258,130.805 344.710 C 132.012 345.161,133.177 345.673,133.394 345.848 C 133.610 346.022,135.803 346.837,138.267 347.658 C 140.730 348.479,142.833 349.261,142.941 349.395 C 143.411 349.986,145.002 350.543,148.921 351.487 C 151.229 352.043,153.551 352.782,154.081 353.129 C 155.158 353.835,158.326 354.705,161.794 355.246 C 164.622 355.687,166.812 356.749,168.934 358.709 C 169.825 359.531,171.571 360.871,172.813 361.686 C 174.056 362.500,175.161 363.269,175.268 363.394 C 175.827 364.046,178.027 365.279,179.747 365.905 C 180.818 366.295,181.889 366.765,182.126 366.951 C 183.663 368.149,194.575 370.531,199.296 370.698 C 204.650 370.887,214.450 368.838,219.555 366.461 C 220.885 365.842,222.244 365.336,222.574 365.336 C 222.904 365.336,223.181 365.204,223.190 365.044 C 223.199 364.883,224.161 364.138,225.329 363.389 C 226.497 362.639,227.454 361.894,227.456 361.733 C 227.457 361.573,227.707 361.441,228.011 361.441 C 228.316 361.441,229.499 360.599,230.640 359.569 C 233.526 356.967,236.141 355.553,238.712 355.205 C 241.542 354.821,245.340 353.762,246.421 353.055 C 246.889 352.748,249.168 352.047,251.484 351.497 C 253.801 350.947,256.134 350.183,256.670 349.799 C 257.205 349.415,259.336 348.556,261.406 347.891 C 263.475 347.225,265.838 346.321,266.658 345.882 C 267.478 345.442,268.298 345.083,268.480 345.083 C 269.186 345.083,273.807 342.751,273.807 342.395 C 273.807 342.189,274.202 341.899,274.684 341.753 C 276.277 341.268,279.833 339.570,280.494 338.979 C 280.852 338.660,282.251 337.875,283.603 337.235 C 284.956 336.595,286.153 335.942,286.264 335.783 C 286.375 335.624,287.648 334.839,289.094 334.038 C 290.540 333.237,291.723 332.431,291.723 332.248 C 291.723 332.065,292.731 331.348,293.963 330.655 C 295.195 329.962,296.575 329.025,297.031 328.573 C 297.487 328.121,298.672 327.254,299.664 326.646 C 300.657 326.039,301.924 325.162,302.479 324.699 C 303.035 324.235,304.479 323.034,305.688 322.029 C 306.898 321.024,308.657 319.534,309.598 318.718 C 311.847 316.768,323.809 304.774,325.803 302.470 C 326.660 301.480,328.106 299.861,329.017 298.872 C 329.927 297.883,330.672 296.947,330.672 296.792 C 330.672 296.638,331.071 296.080,331.559 295.554 C 332.047 295.027,333.132 293.556,333.971 292.284 C 334.809 291.012,335.636 289.913,335.809 289.841 C 335.981 289.770,336.751 288.587,337.520 287.212 C 338.289 285.838,339.074 284.713,339.264 284.713 C 339.454 284.713,339.884 284.231,340.220 283.642 C 340.555 283.053,341.250 281.870,341.763 281.013 C 342.277 280.156,343.414 278.140,344.290 276.534 C 345.166 274.927,346.367 272.824,346.958 271.860 C 347.549 270.896,348.276 269.354,348.574 268.433 C 348.871 267.512,349.330 266.636,349.594 266.485 C 350.072 266.213,351.741 262.795,352.295 260.954 C 352.456 260.419,352.727 259.891,352.896 259.781 C 353.065 259.671,353.830 257.710,354.595 255.423 C 355.360 253.136,356.325 250.685,356.739 249.975 C 357.153 249.266,357.939 246.817,358.486 244.532 C 359.033 242.248,359.821 239.794,360.238 239.080 C 361.029 237.724,362.439 232.385,362.861 229.145 C 362.996 228.110,363.242 227.089,363.406 226.874 C 363.688 226.508,364.361 222.193,365.319 214.606 C 366.495 205.291,366.496 181.832,365.320 171.568 C 364.224 162.002,361.412 148.627,360.065 146.568 C 359.759 146.100,359.058 143.821,358.508 141.505 C 357.957 139.188,357.188 136.848,356.797 136.304 C 356.406 135.760,355.602 133.745,355.009 131.825 C 354.417 129.906,353.518 127.548,353.013 126.585 C 352.507 125.623,352.093 124.692,352.093 124.516 C 352.093 123.807,350.115 119.930,349.377 119.192 C 348.943 118.758,348.588 118.217,348.588 117.989 C 348.588 117.343,346.638 113.220,345.990 112.495 C 345.670 112.138,344.885 110.738,344.246 109.386 C 343.606 108.033,342.943 106.836,342.772 106.725 C 342.601 106.615,342.079 105.771,341.613 104.851 C 341.146 103.931,340.159 102.508,339.418 101.688 C 338.678 100.868,338.072 100.053,338.072 99.876 C 338.072 99.496,336.220 96.719,335.248 95.642 C 334.873 95.227,334.567 94.772,334.567 94.631 C 334.567 94.490,334.260 93.996,333.885 93.533 C 333.510 93.070,332.678 91.971,332.035 91.092 C 331.392 90.213,330.034 88.618,329.017 87.548 C 327.999 86.477,327.167 85.464,327.167 85.296 C 327.167 84.285,309.798 67.009,307.473 65.708 C 307.119 65.510,306.183 64.710,305.393 63.930 C 303.779 62.337,301.886 60.857,298.735 58.726 C 295.446 56.502,294.656 55.916,294.515 55.599 C 294.443 55.438,294.153 55.307,293.870 55.307 C 293.587 55.307,292.594 54.692,291.663 53.941 C 290.732 53.189,289.782 52.422,289.551 52.236 C 289.321 52.049,288.750 51.775,288.283 51.627 C 287.817 51.479,286.954 50.956,286.366 50.465 C 285.778 49.973,284.859 49.436,284.323 49.272 C 283.788 49.107,282.473 48.394,281.402 47.687 C 279.282 46.289,275.450 44.411,274.703 44.405 C 274.446 44.403,274.095 44.155,273.924 43.855 C 273.456 43.034,266.574 39.943,261.733 38.379 C 259.912 37.791,257.854 36.963,257.159 36.541 C 256.465 36.118,253.862 35.255,251.375 34.622 C 248.888 33.990,246.611 33.229,246.314 32.933 C 245.616 32.234,241.472 31.224,230.310 29.031 C 221.825 27.365,203.299 26.535,187.926 27.133 M216.553 30.580 C 218.588 30.884,223.320 31.486,227.069 31.916 C 235.214 32.851,237.537 33.308,240.116 34.480 C 241.188 34.967,243.466 35.574,245.180 35.830 C 249.059 36.410,250.722 36.898,252.098 37.864 C 252.690 38.279,254.462 39.039,256.036 39.553 C 257.611 40.068,260.018 41.018,261.387 41.665 C 262.756 42.313,264.179 42.843,264.549 42.843 C 265.604 42.843,268.443 44.059,269.589 45.001 C 270.160 45.471,271.775 46.166,273.177 46.546 C 274.878 47.006,275.958 47.546,276.422 48.168 C 276.805 48.681,278.345 49.719,279.844 50.474 C 284.007 52.570,287.484 54.586,289.403 56.017 C 290.358 56.729,291.628 57.410,292.225 57.529 C 292.822 57.649,293.523 58.147,293.783 58.637 C 294.244 59.505,295.377 60.383,300.804 64.077 C 302.264 65.070,303.929 66.372,304.504 66.969 C 305.080 67.566,305.901 68.166,306.329 68.303 C 306.758 68.440,307.508 69.172,307.997 69.928 C 308.486 70.685,309.319 71.501,309.847 71.742 C 310.376 71.983,310.808 72.351,310.808 72.561 C 310.808 72.991,311.506 73.592,313.632 74.995 C 314.435 75.525,315.093 76.211,315.093 76.520 C 315.093 76.828,315.881 77.623,316.845 78.286 C 317.809 78.950,318.598 79.705,318.598 79.964 C 318.598 80.540,320.431 82.571,320.951 82.571 C 321.156 82.571,321.324 82.801,321.324 83.082 C 321.324 83.716,323.337 85.686,323.984 85.686 C 324.246 85.686,324.619 86.106,324.814 86.618 C 325.009 87.131,325.967 88.450,326.943 89.549 C 327.920 90.649,329.053 92.201,329.462 92.999 C 329.872 93.797,330.657 94.839,331.208 95.315 C 331.759 95.791,332.468 96.798,332.784 97.554 C 333.100 98.309,333.783 99.121,334.303 99.358 C 334.877 99.619,335.442 100.379,335.745 101.296 C 336.019 102.125,336.528 103.115,336.877 103.495 C 338.274 105.019,339.541 106.968,339.773 107.954 C 339.909 108.527,340.434 109.491,340.941 110.097 C 341.447 110.702,342.338 112.241,342.919 113.515 C 343.500 114.790,344.378 116.192,344.870 116.631 C 345.363 117.070,346.159 118.656,346.641 120.156 C 347.122 121.655,347.903 123.320,348.377 123.856 C 349.146 124.726,350.536 128.321,350.536 129.440 C 350.536 129.678,351.126 131.103,351.848 132.609 C 352.570 134.114,353.463 136.379,353.833 137.642 C 354.464 139.796,354.681 140.211,355.873 141.545 C 356.130 141.833,356.700 144.237,357.139 146.887 C 357.577 149.536,358.102 152.055,358.304 152.483 C 359.938 155.941,360.238 157.237,361.008 164.167 C 361.461 168.238,362.203 174.109,362.658 177.215 C 364.171 187.541,363.665 206.869,361.646 215.883 C 361.539 216.359,361.183 219.552,360.853 222.980 C 360.295 228.793,359.854 230.657,358.311 233.734 C 358.000 234.355,357.548 236.644,356.800 241.383 C 356.561 242.904,356.057 244.293,355.458 245.083 C 354.931 245.779,354.212 247.313,353.860 248.491 C 353.507 249.669,352.708 251.685,352.083 252.970 C 351.458 254.255,350.742 256.183,350.493 257.254 C 350.244 258.325,349.889 259.368,349.704 259.572 C 349.519 259.775,349.367 260.181,349.367 260.474 C 349.367 260.767,348.928 261.582,348.391 262.286 C 347.855 262.989,347.051 264.686,346.606 266.057 C 346.160 267.428,345.319 269.075,344.735 269.718 C 344.152 270.360,343.211 271.865,342.645 273.062 C 342.079 274.259,341.353 275.456,341.032 275.722 C 340.711 275.989,340.243 276.850,339.992 277.636 C 339.740 278.422,338.867 279.962,338.052 281.057 C 337.236 282.153,336.286 283.725,335.941 284.552 C 335.596 285.378,334.707 286.554,333.966 287.165 C 333.225 287.775,332.619 288.496,332.619 288.766 C 332.619 289.036,332.037 289.856,331.325 290.587 C 330.614 291.319,329.572 292.707,329.011 293.671 C 328.450 294.635,327.280 296.212,326.411 297.176 C 325.542 298.140,324.830 299.236,324.830 299.611 C 324.830 299.985,324.598 300.292,324.316 300.292 C 323.697 300.292,321.324 302.347,321.324 302.883 C 321.324 303.091,320.809 303.642,320.180 304.107 C 319.551 304.573,318.805 305.435,318.523 306.024 C 318.240 306.613,317.479 307.442,316.830 307.867 C 316.182 308.293,315.303 309.171,314.878 309.820 C 314.453 310.468,313.624 311.230,313.035 311.512 C 312.446 311.794,311.583 312.540,311.118 313.169 C 310.653 313.799,310.102 314.314,309.893 314.314 C 309.358 314.314,307.303 316.686,307.303 317.305 C 307.303 317.588,306.996 317.819,306.621 317.819 C 306.246 317.820,305.151 318.531,304.187 319.400 C 303.223 320.269,301.646 321.439,300.682 322.000 C 299.718 322.562,298.330 323.603,297.598 324.315 C 296.866 325.026,296.047 325.609,295.776 325.609 C 295.506 325.609,294.791 326.199,294.186 326.921 C 293.581 327.643,292.216 328.613,291.153 329.078 C 290.089 329.543,289.125 330.057,289.011 330.221 C 288.529 330.909,285.955 332.619,285.401 332.619 C 285.071 332.619,283.948 333.199,282.906 333.907 C 281.865 334.615,280.165 335.587,279.128 336.067 C 278.092 336.547,276.865 337.347,276.402 337.844 C 275.939 338.341,274.367 339.124,272.909 339.583 C 271.451 340.042,269.788 340.854,269.214 341.386 C 268.277 342.255,264.962 343.525,263.631 343.525 C 263.349 343.525,261.886 344.118,260.381 344.843 C 258.875 345.568,256.542 346.474,255.195 346.856 C 253.848 347.239,252.298 347.967,251.750 348.475 C 250.614 349.528,244.107 350.734,241.234 350.425 C 239.834 350.275,239.480 350.405,238.515 351.428 C 237.904 352.075,236.908 352.906,236.300 353.276 C 235.054 354.034,232.272 356.332,230.303 358.229 C 229.580 358.925,227.768 360.299,226.276 361.282 C 224.784 362.265,223.564 363.210,223.564 363.381 C 223.564 363.553,223.082 363.814,222.493 363.961 C 221.904 364.107,220.896 364.463,220.253 364.750 C 219.611 365.037,218.208 365.657,217.137 366.128 C 207.737 370.257,192.596 369.994,182.118 365.518 C 179.877 364.561,177.922 363.778,177.774 363.778 C 177.626 363.778,176.825 363.165,175.995 362.415 C 175.166 361.665,174.242 361.052,173.943 361.052 C 173.644 361.052,172.273 360.044,170.897 358.812 C 166.743 355.095,166.140 354.604,164.771 353.820 C 164.047 353.406,162.913 352.486,162.251 351.775 C 161.074 350.512,160.963 350.480,157.349 350.349 C 152.571 350.175,149.790 349.537,147.929 348.189 C 147.105 347.592,145.515 346.889,144.394 346.625 C 143.273 346.362,141.392 345.646,140.214 345.036 C 139.036 344.425,136.794 343.581,135.231 343.161 C 133.668 342.740,131.874 341.962,131.243 341.431 C 130.612 340.900,128.823 340.066,127.268 339.578 C 125.673 339.077,124.153 338.328,123.781 337.861 C 123.419 337.406,121.798 336.361,120.179 335.539 C 118.559 334.717,117.235 333.899,117.235 333.722 C 117.235 333.544,117.057 333.398,116.841 333.398 C 116.097 333.398,112.755 331.670,112.171 330.984 C 111.525 330.224,108.113 328.336,107.380 328.332 C 107.123 328.331,106.614 327.804,106.248 327.161 C 105.882 326.517,105.154 325.828,104.631 325.629 C 104.107 325.430,103.171 324.775,102.550 324.172 C 101.929 323.570,100.907 322.814,100.278 322.493 C 98.988 321.834,98.140 321.198,96.576 319.718 C 95.983 319.155,94.954 318.455,94.292 318.162 C 93.629 317.869,93.087 317.473,93.087 317.284 C 93.087 316.730,87.798 311.692,86.926 311.415 C 86.490 311.277,85.774 310.556,85.336 309.814 C 84.899 309.072,84.083 308.256,83.524 308.002 C 82.965 307.747,82.176 306.887,81.769 306.090 C 81.363 305.294,80.501 304.265,79.853 303.804 C 79.206 303.343,78.676 302.794,78.676 302.584 C 78.676 302.088,76.667 300.320,76.085 300.304 C 75.838 300.298,75.462 299.810,75.248 299.221 C 75.035 298.632,74.248 297.512,73.499 296.733 C 72.751 295.954,71.646 294.464,71.045 293.422 C 70.443 292.381,69.727 291.390,69.452 291.221 C 69.178 291.053,68.496 290.132,67.936 289.177 C 67.376 288.221,66.408 287.077,65.786 286.634 C 65.164 286.191,64.649 285.533,64.642 285.173 C 64.636 284.813,63.939 283.554,63.093 282.376 C 62.248 281.198,61.097 279.270,60.536 278.092 C 59.974 276.913,59.378 275.862,59.210 275.755 C 59.042 275.648,58.260 274.292,57.471 272.742 C 56.683 271.192,55.684 269.675,55.251 269.372 C 54.817 269.068,54.314 268.233,54.132 267.516 C 53.530 265.139,52.669 263.126,51.875 262.235 C 51.443 261.750,50.718 260.081,50.262 258.525 C 49.806 256.969,48.931 254.645,48.317 253.359 C 47.703 252.074,46.884 249.971,46.497 248.685 C 46.111 247.400,45.419 245.823,44.961 245.180 C 44.028 243.873,43.472 241.897,42.823 237.585 C 42.581 235.979,41.987 233.780,41.503 232.699 C 40.251 229.904,39.822 227.715,39.140 220.643 C 38.810 217.215,38.379 213.622,38.182 212.658 C 36.735 205.562,36.386 185.416,37.573 177.605 C 37.915 175.355,38.534 170.448,38.949 166.699 C 39.834 158.691,40.280 156.354,41.479 153.457 C 41.966 152.278,42.567 150.000,42.814 148.393 C 43.484 144.029,44.044 142.060,44.879 141.131 C 45.291 140.671,46.052 138.926,46.568 137.252 C 47.085 135.578,47.937 133.325,48.463 132.245 C 48.989 131.166,49.800 129.056,50.265 127.556 C 50.730 126.056,51.428 124.479,51.815 124.051 C 52.553 123.234,54.138 119.393,54.138 118.422 C 54.138 118.111,54.653 117.322,55.282 116.669 C 55.912 116.016,56.953 114.416,57.597 113.113 C 58.242 111.811,59.030 110.528,59.349 110.263 C 59.669 109.998,60.045 109.260,60.184 108.624 C 60.324 107.988,61.051 106.665,61.800 105.684 C 63.494 103.465,64.654 101.423,64.654 100.661 C 64.654 100.342,65.055 99.898,65.544 99.675 C 66.033 99.452,66.949 98.448,67.580 97.444 C 68.210 96.440,69.124 95.299,69.611 94.908 C 70.098 94.518,70.497 94.024,70.497 93.810 C 70.497 93.256,72.858 89.867,73.637 89.303 C 73.996 89.042,74.589 88.199,74.954 87.429 C 75.320 86.659,75.912 85.922,76.271 85.791 C 76.904 85.560,77.737 84.722,80.341 81.696 C 81.032 80.893,82.517 79.294,83.642 78.143 C 84.766 76.992,85.686 75.864,85.686 75.636 C 85.686 75.409,86.074 75.100,86.548 74.949 C 87.022 74.799,88.075 74.042,88.888 73.268 C 89.701 72.493,90.882 71.422,91.511 70.886 C 92.141 70.351,92.736 69.608,92.834 69.235 C 92.931 68.863,93.423 68.401,93.925 68.208 C 94.428 68.015,95.365 67.357,96.008 66.746 C 97.262 65.554,100.316 63.486,100.822 63.486 C 100.991 63.486,101.549 63.040,102.061 62.494 C 102.574 61.949,103.733 61.035,104.637 60.463 C 105.541 59.891,106.463 59.023,106.686 58.533 C 106.909 58.044,107.353 57.644,107.672 57.644 C 108.433 57.644,110.476 56.483,112.695 54.789 C 113.676 54.040,114.999 53.313,115.635 53.174 C 116.271 53.034,117.017 52.648,117.293 52.315 C 117.569 51.982,118.764 51.265,119.949 50.720 C 121.134 50.175,122.717 49.166,123.466 48.477 C 124.347 47.668,125.810 46.934,127.602 46.402 C 129.127 45.949,130.597 45.310,130.869 44.983 C 131.528 44.189,133.355 43.370,135.735 42.802 C 136.806 42.546,138.647 41.858,139.825 41.273 C 141.003 40.687,143.134 39.859,144.560 39.432 C 145.986 39.005,147.524 38.311,147.977 37.889 C 148.823 37.100,150.453 36.650,156.147 35.632 C 157.949 35.310,159.614 34.901,159.848 34.722 C 161.192 33.696,164.651 32.932,171.761 32.089 C 176.153 31.569,180.886 30.958,182.278 30.731 C 189.504 29.556,209.139 29.469,216.553 30.580 M317.916 41.959 C 316.954 42.295,317.342 44.012,318.380 44.012 C 319.468 44.012,319.869 43.564,319.543 42.714 C 319.280 42.028,318.609 41.718,317.916 41.959 M348.978 74.221 C 348.978 75.546,349.034 75.604,350.213 75.487 C 351.679 75.342,351.942 74.834,351.093 73.791 C 350.478 73.035,350.474 73.036,350.723 73.807 C 350.953 74.524,350.908 74.516,350.155 73.710 C 349.072 72.550,348.978 72.591,348.978 74.221 M352.483 77.980 C 352.483 79.345,352.566 79.455,353.604 79.455 C 355.127 79.455,355.812 78.607,354.800 77.975 C 354.383 77.714,354.041 77.250,354.041 76.944 C 354.041 76.627,353.705 76.413,353.262 76.446 C 352.630 76.494,352.483 76.784,352.483 77.980 M359.570 88.494 C 359.687 90.524,359.709 90.558,361.052 90.750 L 362.415 90.944 362.514 93.671 C 362.648 97.360,362.866 98.150,363.754 98.150 C 365.256 98.150,365.687 98.602,365.923 100.424 C 366.380 103.965,366.395 103.992,367.887 103.992 C 369.475 103.992,369.485 104.013,369.821 107.984 C 370.071 110.945,370.096 111.003,371.134 111.003 C 372.748 111.003,373.126 111.673,373.126 114.537 C 373.126 119.075,373.365 119.668,375.129 119.499 C 376.805 119.340,376.728 119.159,376.655 123.077 C 376.604 125.835,376.917 126.278,378.813 126.122 L 380.331 125.998 380.340 123.686 C 380.348 121.705,380.196 121.206,379.287 120.211 C 378.703 119.572,378.305 118.920,378.402 118.762 C 378.500 118.605,378.185 118.549,377.703 118.638 C 377.220 118.728,377.065 118.690,377.357 118.555 C 377.694 118.398,377.741 118.218,377.484 118.059 C 377.262 117.922,377.030 116.454,376.968 114.796 C 376.888 112.655,376.710 111.782,376.354 111.782 C 376.078 111.782,375.852 111.607,375.852 111.392 C 375.852 111.178,375.435 111.003,374.926 111.003 C 373.581 111.003,373.290 110.344,373.336 107.400 C 373.359 105.954,373.223 104.771,373.034 104.771 C 372.845 104.771,372.780 104.625,372.891 104.447 C 373.098 104.111,372.955 104.070,370.985 103.899 L 369.819 103.797 369.770 100.876 C 369.744 99.270,369.699 97.774,369.671 97.552 C 369.624 97.182,369.017 97.038,367.186 96.961 C 366.511 96.933,366.263 95.693,366.419 93.113 C 366.473 92.217,365.151 90.822,364.460 91.045 C 364.299 91.097,364.167 90.935,364.167 90.685 C 364.167 90.435,364.059 90.339,363.926 90.472 C 363.506 90.892,362.610 89.675,362.610 88.683 C 362.610 87.570,361.748 86.741,360.403 86.561 C 359.486 86.438,359.456 86.507,359.570 88.494 M251.022 126.443 C 250.380 126.538,248.539 127.125,246.933 127.748 C 245.326 128.371,243.275 129.069,242.374 129.300 C 241.473 129.530,240.161 130.196,239.458 130.779 C 238.755 131.363,237.838 132.103,237.420 132.425 C 237.001 132.746,236.123 133.612,235.467 134.349 C 234.811 135.087,233.879 136.104,233.396 136.609 C 232.138 137.924,231.029 140.257,230.529 142.636 C 230.292 143.767,229.860 144.963,229.570 145.293 C 228.050 147.025,227.908 154.550,229.343 157.333 C 229.735 158.093,230.269 159.574,230.530 160.624 C 231.404 164.140,232.916 166.322,237.585 170.807 C 238.121 171.321,239.611 172.281,240.896 172.940 C 242.181 173.599,243.978 174.561,244.890 175.078 C 249.452 177.666,262.025 176.880,263.773 173.898 C 263.930 173.629,264.644 173.299,265.358 173.165 C 267.745 172.718,273.495 167.166,274.755 164.094 C 275.169 163.083,275.867 161.844,276.306 161.339 C 279.412 157.767,279.211 146.184,275.957 141.188 C 275.260 140.117,274.557 138.802,274.396 138.267 C 274.117 137.341,272.354 135.235,270.357 133.443 C 267.100 130.522,266.237 129.976,263.425 129.057 C 261.753 128.511,259.758 127.745,258.993 127.354 C 257.580 126.633,253.152 126.127,251.022 126.443 M381.001 129.379 C 379.944 130.436,380.388 136.319,381.525 136.319 C 383.920 136.319,384.206 135.616,383.250 132.072 C 383.053 131.342,382.982 130.599,383.092 130.421 C 383.202 130.242,383.022 130.201,382.691 130.328 C 382.302 130.477,381.981 130.266,381.783 129.731 C 381.542 129.080,381.375 129.005,381.001 129.379 M259.858 130.264 C 263.600 131.057,264.712 131.782,269.915 136.819 C 271.963 138.802,273.807 141.695,273.807 142.926 C 273.807 143.156,274.289 144.261,274.878 145.382 C 276.188 147.874,276.473 154.811,275.339 156.590 C 275.004 157.116,274.238 158.947,273.638 160.658 C 272.652 163.470,272.254 164.058,269.526 166.743 C 267.864 168.378,266.439 169.913,266.359 170.154 C 266.278 170.396,264.481 171.204,262.365 171.950 C 260.250 172.696,258.264 173.519,257.952 173.777 C 256.798 174.735,250.140 174.354,247.598 173.185 C 246.357 172.614,244.393 171.813,243.232 171.406 C 241.085 170.651,238.764 168.585,235.054 164.126 C 232.347 160.874,231.637 158.344,231.623 151.899 C 231.608 145.198,232.369 142.358,235.039 139.144 C 235.261 138.877,236.056 137.892,236.806 136.956 C 237.556 136.019,239.090 134.578,240.214 133.753 C 241.339 132.928,242.259 132.138,242.259 131.997 C 242.259 131.590,246.181 130.303,248.491 129.952 C 250.920 129.583,257.496 129.763,259.858 130.264 M124.012 132.400 C 119.339 132.766,116.240 133.444,114.880 134.396 C 114.335 134.777,112.884 135.534,111.656 136.078 C 110.427 136.621,108.982 137.589,108.443 138.230 C 107.904 138.870,107.077 139.512,106.604 139.657 C 105.826 139.895,104.962 140.647,101.264 144.304 C 98.859 146.681,98.445 147.225,97.346 149.440 C 96.729 150.685,95.857 152.156,95.408 152.708 C 94.561 153.751,94.076 155.271,93.428 158.909 C 93.218 160.088,92.779 161.461,92.451 161.962 C 90.665 164.693,91.825 168.448,95.162 170.732 C 98.302 172.881,106.668 171.186,106.712 168.391 C 106.715 168.144,107.352 167.184,108.125 166.258 C 108.899 165.332,109.684 164.173,109.871 163.682 C 110.057 163.192,110.684 162.610,111.263 162.390 C 111.842 162.170,112.852 161.428,113.508 160.742 L 114.700 159.494 133.007 159.368 C 153.917 159.224,154.781 159.278,156.489 160.838 C 157.158 161.449,158.182 162.108,158.766 162.302 C 159.350 162.497,159.956 162.908,160.114 163.217 C 160.272 163.526,160.950 164.937,161.621 166.353 C 164.511 172.451,173.115 173.707,176.833 168.574 C 178.047 166.899,178.408 164.306,177.631 162.853 C 177.431 162.480,177.004 160.667,176.683 158.824 C 176.157 155.812,174.882 152.417,174.082 151.898 C 173.916 151.790,173.481 150.953,173.115 150.038 C 172.749 149.123,171.879 147.896,171.182 147.313 C 170.485 146.729,169.626 145.685,169.274 144.992 C 168.922 144.299,168.148 143.482,167.555 143.175 C 166.962 142.868,166.239 142.172,165.947 141.628 C 165.656 141.084,164.874 140.377,164.208 140.058 C 163.543 139.738,162.413 138.936,161.696 138.275 C 160.979 137.615,159.227 136.492,157.801 135.780 C 156.376 135.068,154.674 134.201,154.019 133.853 C 151.468 132.500,133.715 131.640,124.012 132.400 M144.109 135.135 C 149.202 135.689,156.272 137.803,157.352 139.095 C 157.673 139.479,158.550 140.048,159.300 140.359 C 162.182 141.551,170.970 151.065,171.594 153.668 C 171.746 154.302,172.007 154.996,172.174 155.211 C 173.251 156.597,174.520 161.700,174.410 164.211 C 174.271 167.412,173.614 167.938,169.775 167.919 C 166.553 167.904,166.268 167.758,164.986 165.470 C 163.002 161.931,160.197 159.032,157.449 157.678 L 155.599 156.767 134.956 156.767 C 114.772 156.767,114.275 156.786,112.561 157.589 C 110.237 158.678,106.575 162.420,105.317 164.990 C 103.927 167.832,103.732 167.937,99.860 167.926 C 95.420 167.913,95.220 167.718,95.257 163.433 C 95.283 160.346,96.529 155.794,97.348 155.794 C 97.500 155.794,98.099 154.765,98.679 153.507 C 99.908 150.845,103.396 146.048,105.014 144.793 C 105.630 144.316,106.421 143.570,106.772 143.135 C 107.123 142.700,108.575 141.664,109.999 140.831 C 111.423 139.998,112.689 139.153,112.812 138.954 C 114.579 136.096,132.659 133.889,144.109 135.135 M108.666 226.941 C 106.130 227.208,105.709 227.431,104.850 228.960 C 103.200 231.896,104.271 249.297,106.308 252.647 C 106.698 253.288,107.141 254.413,107.292 255.144 C 108.236 259.717,109.251 263.234,109.883 264.130 C 110.285 264.699,110.613 265.367,110.613 265.616 C 110.613 266.478,112.576 270.352,113.539 271.391 C 114.072 271.966,114.508 272.642,114.508 272.895 C 114.508 273.773,116.024 276.880,116.859 277.716 C 117.322 278.179,118.124 279.461,118.641 280.564 C 119.764 282.960,122.906 287.486,123.802 287.998 C 124.841 288.591,125.322 289.193,125.938 290.667 C 126.277 291.477,127.023 292.321,127.720 292.681 C 128.380 293.022,128.919 293.520,128.919 293.786 C 128.919 294.053,129.369 294.706,129.919 295.237 C 130.469 295.768,131.536 296.845,132.290 297.630 C 133.044 298.415,134.157 299.263,134.762 299.513 C 135.370 299.765,135.964 300.375,136.090 300.877 C 136.215 301.377,136.934 302.166,137.687 302.632 C 138.439 303.097,139.559 303.944,140.176 304.514 C 141.843 306.056,142.331 306.401,143.263 306.697 C 143.728 306.845,144.109 307.114,144.109 307.296 C 144.109 307.856,147.859 309.967,149.353 310.247 C 150.132 310.393,151.023 310.767,151.334 311.078 C 151.701 311.445,151.899 311.484,151.899 311.188 C 151.899 310.938,152.293 310.181,152.775 309.505 L 153.651 308.277 153.846 276.267 L 154.041 244.257 155.152 243.097 L 156.263 241.938 200.058 241.938 L 243.853 241.938 244.906 242.843 L 245.959 243.749 246.154 276.013 L 246.349 308.277 247.225 309.505 C 247.707 310.181,248.101 310.926,248.101 311.160 C 248.101 311.772,248.866 311.688,249.111 311.049 C 249.225 310.753,250.017 310.399,250.872 310.262 C 252.276 310.038,255.509 308.304,255.822 307.607 C 255.891 307.453,256.897 306.785,258.057 306.121 C 259.216 305.457,260.299 304.675,260.463 304.382 C 260.627 304.090,261.361 303.444,262.094 302.947 C 262.828 302.451,263.718 301.519,264.072 300.876 C 264.427 300.234,265.054 299.647,265.465 299.573 C 266.353 299.412,268.354 297.610,268.354 296.971 C 268.354 296.724,268.787 296.325,269.315 296.085 C 269.844 295.844,270.676 295.028,271.165 294.271 C 271.654 293.514,272.336 292.803,272.679 292.691 C 273.023 292.578,273.636 291.846,274.042 291.064 C 274.449 290.282,275.701 288.697,276.826 287.541 C 277.950 286.386,278.870 285.189,278.870 284.882 C 278.870 284.575,279.031 284.323,279.227 284.323 C 279.696 284.323,281.986 280.586,281.986 279.821 C 281.986 279.493,282.394 278.817,282.892 278.319 C 284.200 277.011,285.413 274.820,285.712 273.224 C 285.855 272.462,286.268 271.680,286.631 271.486 C 287.381 271.085,288.843 268.343,289.236 266.602 C 289.381 265.959,289.836 264.953,290.246 264.366 C 291.020 263.259,292.217 259.325,292.708 256.280 C 292.863 255.316,293.399 253.739,293.898 252.775 C 295.163 250.334,296.025 243.953,296.122 236.312 C 296.209 229.509,295.966 228.526,293.908 227.345 C 293.141 226.905,112.740 226.511,108.666 226.941 M292.013 230.209 C 294.162 230.958,294.443 238.824,292.534 244.791 C 292.123 246.076,291.519 248.354,291.193 249.854 C 290.213 254.358,289.463 257.108,288.433 259.981 C 287.896 261.480,287.452 262.981,287.447 263.316 C 287.443 263.651,286.748 265.071,285.903 266.471 C 285.058 267.872,284.245 269.526,284.095 270.147 C 283.946 270.768,282.909 272.678,281.791 274.391 C 280.673 276.105,279.644 277.871,279.505 278.315 C 279.365 278.759,278.941 279.460,278.563 279.873 C 278.184 280.286,277.394 281.449,276.807 282.458 C 276.220 283.467,275.522 284.431,275.256 284.600 C 274.991 284.769,274.309 285.624,273.742 286.500 C 273.175 287.375,271.863 288.969,270.825 290.042 C 269.788 291.114,267.880 293.115,266.585 294.487 C 264.166 297.051,260.222 300.628,258.574 301.751 C 258.062 302.100,256.955 302.966,256.113 303.676 C 255.271 304.385,254.384 304.966,254.141 304.966 C 253.898 304.966,253.188 305.500,252.563 306.153 C 251.649 307.107,251.158 307.316,250.059 307.224 C 247.432 307.002,247.540 308.309,247.322 274.111 L 247.128 243.452 245.874 242.123 C 244.144 240.289,245.273 240.332,198.832 240.336 C 153.852 240.339,155.927 240.254,154.064 242.172 L 152.721 243.555 152.602 274.163 C 152.479 305.837,152.471 305.999,150.964 307.005 C 150.163 307.540,148.906 307.305,148.162 306.482 C 147.754 306.031,146.806 305.338,146.056 304.942 C 145.307 304.545,144.100 303.688,143.375 303.036 C 142.649 302.384,141.948 301.850,141.817 301.849 C 141.685 301.849,140.964 301.311,140.214 300.655 C 139.464 299.998,138.062 298.815,137.098 298.026 C 136.134 297.238,135.288 296.463,135.218 296.305 C 135.147 296.147,133.540 294.395,131.647 292.410 C 129.753 290.426,127.006 287.192,125.543 285.225 C 122.777 281.506,122.208 280.634,119.998 276.733 C 119.269 275.445,118.441 274.216,118.159 274.002 C 117.877 273.788,117.131 272.356,116.502 270.821 C 115.873 269.285,115.000 267.532,114.562 266.926 C 113.738 265.783,110.499 256.544,109.862 253.522 C 109.400 251.327,108.103 245.838,107.362 242.939 C 105.795 236.814,106.090 231.201,108.025 230.359 C 109.611 229.669,290.042 229.522,292.013 230.209 " stroke="none" fill="#9f7a28" fill-rule="evenodd"></path></g></svg>