<svg id="svg" version="1.1" xmlns="http://www.w3.org/2000/svg" xmlns:xlink="http://www.w3.org/1999/xlink" width="400" height="392.92035398230087" viewBox="0, 0, 400,392.92035398230087"><g id="svgg"><path id="path0" d="M168.583 13.328 C 168.357 13.749,168.173 14.547,168.173 15.102 L 168.173 16.110 160.609 16.115 C 151.486 16.122,151.405 16.138,150.872 18.120 L 150.461 19.646 146.998 19.646 C 143.168 19.646,140.990 20.569,140.741 22.298 C 140.625 23.102,140.381 23.162,136.811 23.267 L 133.006 23.379 132.885 25.049 L 132.764 26.719 128.120 26.719 C 123.077 26.719,122.787 26.832,122.360 28.966 C 122.127 30.131,122.064 30.160,119.342 30.354 C 116.357 30.568,115.521 31.122,115.521 32.885 C 115.521 33.711,115.346 33.792,113.556 33.792 C 111.869 33.792,111.591 33.900,111.591 34.560 C 111.591 36.148,109.833 37.281,107.172 37.408 L 104.715 37.525 104.594 39.194 L 104.473 40.864 101.577 40.864 C 98.304 40.864,97.446 41.360,97.446 43.250 C 97.446 44.352,97.371 44.401,95.678 44.401 L 93.910 44.401 93.910 46.169 L 93.910 47.937 91.191 47.937 C 87.656 47.937,87.273 48.118,86.984 49.924 C 86.754 51.366,86.671 51.438,85.120 51.551 C 83.513 51.669,83.496 51.686,83.376 53.340 L 83.255 55.010 81.510 55.010 L 79.764 55.010 79.764 56.778 L 79.764 58.546 77.996 58.546 C 76.504 58.546,76.228 58.666,76.228 59.314 C 76.228 60.540,74.477 61.978,72.613 62.284 C 70.612 62.612,69.548 63.439,69.548 64.666 C 69.548 65.353,69.256 65.619,68.271 65.829 C 66.543 66.199,66.138 66.591,65.839 68.187 C 65.632 69.288,65.404 69.548,64.647 69.548 C 63.448 69.548,62.475 70.521,62.475 71.722 C 62.475 72.238,62.198 72.889,61.858 73.167 C 59.341 75.232,58.539 76.446,58.600 78.099 C 58.637 79.132,58.706 79.286,58.832 78.620 C 59.073 77.339,59.764 76.720,61.134 76.559 C 63.088 76.329,62.882 80.081,60.904 80.746 C 59.863 81.096,59.481 81.477,59.332 82.311 C 59.122 83.488,58.599 83.905,56.876 84.267 C 56.040 84.443,55.796 84.720,55.796 85.495 C 55.796 86.970,55.100 88.015,54.112 88.022 C 52.619 88.032,52.283 88.559,51.972 91.375 L 51.670 94.106 50.295 94.303 C 49.056 94.480,48.907 94.635,48.789 95.873 C 48.611 97.747,48.103 98.232,46.317 98.232 C 44.918 98.232,44.793 98.320,44.788 99.312 C 44.779 101.258,44.360 102.161,43.471 102.155 C 41.930 102.144,40.673 100.604,41.692 99.974 C 41.892 99.851,41.962 99.597,41.847 99.412 C 41.733 99.226,41.995 98.961,42.430 98.823 C 42.866 98.685,43.222 98.388,43.222 98.163 C 43.222 97.939,43.473 97.851,43.779 97.969 C 44.085 98.086,44.419 97.966,44.520 97.702 C 44.651 97.361,44.289 97.267,43.276 97.380 C 41.077 97.625,40.864 97.979,40.864 101.401 L 40.864 104.473 39.194 104.594 L 37.525 104.715 37.405 106.582 C 37.300 108.221,37.177 108.448,36.399 108.448 C 34.731 108.448,34.215 109.252,33.938 112.282 C 33.685 115.063,33.648 115.143,32.458 115.451 C 30.944 115.843,30.252 117.135,30.317 119.450 L 30.367 121.218 30.648 119.646 C 30.803 118.782,30.967 118.340,31.013 118.664 C 31.073 119.090,31.190 119.035,31.434 118.468 C 31.923 117.331,31.894 117.006,31.336 117.341 C 31.002 117.542,31.018 117.423,31.384 116.971 C 31.949 116.275,32.424 116.051,32.049 116.658 C 31.929 116.852,32.084 117.107,32.392 117.225 C 32.779 117.373,32.908 117.211,32.809 116.699 C 32.716 116.215,32.845 116.027,33.181 116.156 C 33.762 116.379,34.383 121.349,33.986 122.600 C 33.795 123.203,33.389 123.379,32.194 123.379 L 30.648 123.379 30.642 126.817 C 30.639 128.708,30.490 130.486,30.311 130.768 C 29.787 131.594,27.769 131.111,27.216 130.028 C 26.765 129.144,26.730 129.209,26.725 130.943 C 26.719 132.791,26.707 132.809,25.422 132.809 C 23.353 132.809,23.183 133.249,23.183 138.585 L 23.183 143.418 22.036 143.418 C 19.654 143.418,19.646 143.437,19.646 148.961 L 19.646 154.028 18.638 154.028 C 16.161 154.028,16.110 154.179,16.110 161.633 L 16.110 168.424 14.833 168.986 C 12.515 170.007,12.549 169.457,12.665 203.490 L 12.770 234.381 13.752 235.853 C 14.293 236.662,15.044 237.426,15.422 237.549 C 16.043 237.752,16.111 238.455,16.116 244.722 C 16.123 252.737,16.491 254.474,18.380 255.403 L 19.580 255.992 19.711 261.034 C 19.853 266.476,20.147 267.191,22.243 267.191 C 23.095 267.191,23.122 267.324,23.249 272.117 C 23.390 277.443,23.532 277.782,25.623 277.794 L 26.688 277.800 26.802 281.238 L 26.916 284.676 28.570 284.796 L 30.225 284.916 30.339 288.332 L 30.452 291.749 32.107 291.869 L 33.762 291.989 33.875 295.405 L 33.988 298.821 35.658 298.942 L 37.328 299.063 37.328 301.955 C 37.328 305.793,37.472 306.090,39.335 306.090 L 40.864 306.090 40.864 307.859 L 40.864 309.627 42.633 309.627 L 44.401 309.627 44.401 312.542 C 44.401 316.404,44.544 316.699,46.407 316.699 L 47.937 316.699 47.937 318.468 L 47.937 320.236 49.664 320.236 L 51.390 320.236 51.534 323.396 C 51.688 326.803,51.985 327.292,53.907 327.302 C 54.869 327.308,54.976 327.459,55.085 328.978 C 55.205 330.636,55.218 330.649,56.855 330.768 C 58.488 330.887,58.504 330.903,58.623 332.536 C 58.742 334.169,58.758 334.186,60.391 334.304 C 62.024 334.423,62.041 334.440,62.159 336.073 C 62.278 337.709,62.291 337.722,63.949 337.842 L 65.619 337.963 65.619 339.708 L 65.619 341.454 67.364 341.454 L 69.110 341.454 69.231 343.124 C 69.351 344.782,69.363 344.795,71.000 344.913 C 72.633 345.032,72.650 345.049,72.768 346.682 C 72.887 348.315,72.904 348.331,74.536 348.450 C 76.169 348.568,76.186 348.585,76.305 350.218 C 76.424 351.855,76.436 351.867,78.094 351.987 C 79.642 352.099,79.764 352.191,79.764 353.232 C 79.764 355.170,80.120 355.599,81.727 355.599 C 83.113 355.599,83.230 355.691,83.470 356.970 C 83.800 358.727,84.616 359.136,87.793 359.136 L 90.373 359.136 90.373 360.904 L 90.373 362.672 92.141 362.672 C 93.833 362.672,93.910 362.722,93.910 363.819 C 93.910 366.087,94.101 366.208,97.684 366.208 L 100.982 366.208 100.982 367.976 L 100.982 369.745 102.750 369.745 C 104.442 369.745,104.519 369.794,104.519 370.891 C 104.519 373.158,104.712 373.281,108.271 373.281 L 111.546 373.281 111.667 374.951 L 111.788 376.621 115.204 376.734 L 118.620 376.847 118.740 378.502 L 118.861 380.157 122.299 380.271 L 125.737 380.384 125.743 381.646 C 125.752 383.656,126.072 383.846,129.663 383.971 L 132.976 384.086 133.246 385.414 C 133.626 387.276,134.020 387.414,138.998 387.420 L 143.418 387.426 143.418 388.434 C 143.418 390.907,143.584 390.963,150.898 390.963 L 157.564 390.963 157.564 391.945 C 157.564 392.874,157.682 392.927,159.725 392.927 C 161.768 392.927,161.886 392.874,161.886 391.945 C 161.886 390.985,161.952 390.963,164.833 390.963 C 167.714 390.963,167.780 390.985,167.780 391.945 L 167.780 392.927 205.501 392.927 L 243.222 392.927 243.222 391.945 C 243.222 390.991,243.301 390.963,245.972 390.963 C 248.644 390.963,248.723 390.991,248.723 391.945 C 248.723 392.874,248.841 392.927,250.884 392.927 C 252.927 392.927,253.045 392.874,253.045 391.945 L 253.045 390.963 258.841 390.957 C 265.347 390.950,266.375 390.665,266.935 388.713 L 267.296 387.455 270.681 387.343 L 274.067 387.230 274.188 385.560 L 274.308 383.890 278.973 383.890 C 284.142 383.890,284.872 383.596,284.872 381.520 L 284.872 380.384 288.310 380.271 L 291.749 380.157 291.869 378.487 L 291.990 376.817 294.744 376.817 C 298.236 376.817,299.018 376.420,299.018 374.642 L 299.018 373.281 301.350 373.281 C 304.644 373.281,305.598 372.833,305.917 371.138 C 306.169 369.794,306.238 369.745,307.902 369.745 L 309.627 369.745 309.627 367.992 L 309.627 366.239 313.065 366.125 L 316.503 366.012 316.624 364.342 L 316.745 362.672 318.643 362.672 C 320.506 362.672,320.546 362.698,320.803 364.065 C 321.115 365.731,322.079 366.208,325.128 366.208 L 327.219 366.208 327.484 367.976 L 327.750 369.745 329.494 369.745 C 331.205 369.745,331.238 369.769,331.238 371.041 C 331.238 373.342,330.763 373.281,348.577 373.281 C 366.611 373.281,366.208 373.335,366.208 370.895 C 366.208 369.807,366.299 369.743,367.878 369.722 C 370.648 369.686,372.244 368.946,372.669 367.504 C 373.008 366.353,373.194 366.235,374.830 366.128 L 376.621 366.012 376.742 364.342 C 376.854 362.793,376.944 362.672,377.991 362.672 C 379.857 362.672,380.354 361.804,380.354 358.541 L 380.354 355.644 382.024 355.524 L 383.694 355.403 383.807 351.965 L 383.921 348.527 385.056 348.527 C 387.588 348.527,387.426 351.338,387.426 307.241 L 387.426 267.191 388.956 267.191 C 390.915 267.191,390.963 267.045,390.963 261.076 C 390.963 256.246,390.971 256.201,391.916 255.964 C 394.156 255.402,394.292 254.860,394.429 245.908 L 394.556 237.673 395.707 236.616 C 396.340 236.035,397.123 235.332,397.447 235.053 C 397.960 234.611,398.035 230.623,398.035 203.765 C 398.035 170.360,398.183 172.434,395.776 171.920 L 394.499 171.647 394.499 163.309 C 394.499 154.208,394.456 154.028,392.271 154.028 L 390.985 154.028 390.876 148.821 L 390.766 143.615 389.108 143.495 L 387.449 143.374 387.339 138.190 L 387.230 133.006 385.560 132.885 C 383.942 132.768,383.890 132.722,383.890 131.412 C 383.890 130.668,383.713 130.059,383.497 130.059 C 383.281 130.059,383.103 130.192,383.102 130.354 C 383.097 131.181,380.352 130.769,380.297 129.933 C 380.012 125.585,380.727 121.973,381.576 123.477 C 381.790 123.856,382.191 124.165,382.468 124.165 C 382.752 124.165,383.147 124.982,383.371 126.031 L 383.769 127.898 383.800 125.933 C 383.846 123.003,383.647 122.627,381.899 122.347 L 380.354 122.100 380.354 119.570 C 380.354 116.444,379.939 115.626,378.188 115.297 C 376.901 115.056,376.817 114.946,376.817 113.512 C 376.817 112.672,376.662 111.984,376.473 111.984 C 376.283 111.984,376.218 112.780,376.327 113.752 L 376.527 115.521 374.904 115.521 L 373.281 115.521 373.281 112.377 C 373.281 109.792,373.390 109.234,373.894 109.234 C 374.230 109.234,374.397 109.411,374.263 109.627 C 374.130 109.843,374.290 110.020,374.619 110.020 C 374.948 110.020,375.407 110.373,375.639 110.806 C 376.204 111.863,376.817 111.800,376.817 110.684 C 376.817 108.882,373.629 107.085,373.060 108.567 C 372.901 108.980,372.433 109.087,371.390 108.947 C 369.856 108.742,369.235 108.198,369.552 107.335 C 369.658 107.047,369.745 106.275,369.745 105.619 C 369.745 104.620,369.872 104.460,370.530 104.633 C 371.546 104.898,371.523 104.593,370.441 103.442 C 369.815 102.775,369.751 102.581,370.215 102.759 C 370.571 102.896,371.150 103.613,371.501 104.353 C 371.852 105.092,372.296 105.697,372.487 105.697 C 372.679 105.697,372.909 106.184,373.000 106.778 C 373.122 107.587,373.178 107.464,373.221 106.287 C 373.291 104.349,372.110 102.277,370.739 101.933 C 370.073 101.765,369.745 101.413,369.745 100.865 C 369.745 100.133,369.693 100.113,369.253 100.682 C 368.036 102.259,366.415 101.726,366.285 99.705 C 366.149 97.584,366.438 97.430,367.939 98.821 C 369.215 100.004,369.745 100.066,369.745 99.032 C 369.745 98.132,368.651 97.446,367.216 97.446 C 366.284 97.446,366.208 97.314,366.208 95.678 L 366.208 93.910 364.440 93.910 L 362.672 93.910 362.672 91.330 C 362.672 88.152,362.263 87.336,360.506 87.007 C 359.228 86.767,359.136 86.650,359.136 85.264 C 359.136 83.656,358.707 83.301,356.768 83.301 C 355.727 83.301,355.636 83.178,355.524 81.631 C 355.403 79.969,355.395 79.960,353.733 79.840 L 352.063 79.719 352.063 77.973 L 352.063 76.228 350.295 76.228 L 348.527 76.228 348.527 74.460 L 348.527 72.692 346.758 72.692 L 344.990 72.692 344.990 70.923 L 344.990 69.155 343.222 69.155 L 341.454 69.155 341.454 67.387 L 341.454 65.619 339.686 65.619 L 337.917 65.619 337.917 63.851 L 337.917 62.083 336.149 62.083 L 334.381 62.083 334.381 60.314 L 334.381 58.546 332.613 58.546 L 330.845 58.546 330.845 56.778 L 330.845 55.010 329.099 55.010 L 327.354 55.010 327.233 53.340 C 327.112 51.674,327.108 51.669,325.344 51.473 C 323.676 51.288,323.583 51.215,323.705 50.176 C 323.921 48.327,323.240 47.937,319.795 47.937 L 316.699 47.937 316.699 46.169 L 316.699 44.401 314.931 44.401 C 313.097 44.401,312.945 44.220,313.152 42.284 C 313.254 41.321,312.515 40.878,310.792 40.870 C 309.676 40.866,309.270 40.638,308.722 39.711 C 307.944 38.394,306.055 37.321,304.557 37.343 C 303.541 37.359,303.542 37.361,304.729 37.879 C 305.709 38.305,305.940 38.654,306.019 39.828 L 306.115 41.257 304.236 41.251 C 301.972 41.244,301.582 41.018,301.208 39.493 C 300.824 37.926,300.426 37.734,297.544 37.727 C 294.911 37.721,294.798 37.593,295.019 34.887 C 295.067 34.304,294.592 34.199,291.462 34.101 L 287.850 33.988 287.585 32.691 C 287.217 30.886,287.138 30.847,283.759 30.825 C 279.710 30.800,279.099 30.551,278.900 28.851 C 278.716 27.273,279.348 26.519,280.584 26.842 C 281.309 27.031,281.377 26.931,281.150 26.004 C 280.720 24.241,279.709 23.545,277.374 23.404 C 276.203 23.333,275.674 23.358,276.197 23.458 C 279.060 24.008,279.553 27.192,276.806 27.401 C 272.409 27.735,270.129 25.651,272.825 23.762 C 273.610 23.212,273.568 23.183,272.003 23.183 C 270.362 23.183,270.355 23.176,270.601 21.945 C 270.916 20.370,270.024 19.641,267.803 19.659 C 266.352 19.670,266.273 19.721,266.934 20.221 C 267.333 20.524,267.908 20.676,268.211 20.560 C 268.548 20.430,268.762 20.602,268.762 21.003 C 268.762 21.363,268.902 21.571,269.072 21.466 C 269.242 21.361,269.416 21.687,269.457 22.191 C 269.542 23.219,266.742 23.813,262.672 23.632 C 259.431 23.487,259.377 23.428,259.695 20.334 C 259.711 20.172,260.300 20.013,261.002 19.980 C 262.191 19.926,262.204 19.910,261.198 19.758 C 260.126 19.595,259.959 19.321,260.101 17.953 C 260.254 16.484,259.402 16.108,256.042 16.158 L 252.849 16.206 255.156 16.543 C 256.425 16.728,257.679 17.059,257.943 17.277 C 258.206 17.496,258.509 17.588,258.615 17.482 C 258.721 17.376,258.823 17.510,258.842 17.780 C 258.861 18.050,258.968 18.669,259.081 19.155 C 259.285 20.033,259.252 20.040,254.496 20.090 C 246.744 20.172,242.784 19.909,242.904 19.319 C 243.081 18.453,242.236 16.863,241.509 16.692 C 240.556 16.470,236.984 16.157,235.069 16.129 C 234.204 16.116,233.792 15.920,233.792 15.521 C 233.792 15.196,233.979 14.931,234.208 14.931 C 234.437 14.931,234.525 14.770,234.403 14.574 C 233.846 13.673,234.635 13.114,236.262 13.258 C 237.172 13.338,238.448 13.443,239.096 13.490 C 239.745 13.536,240.540 13.741,240.864 13.944 C 241.188 14.147,241.807 14.319,242.239 14.327 C 242.672 14.335,242.981 14.563,242.927 14.833 C 242.873 15.103,243.050 15.280,243.320 15.226 C 243.590 15.172,243.767 15.349,243.713 15.619 C 243.652 15.924,244.060 16.110,244.794 16.110 C 246.150 16.110,246.405 14.947,245.354 13.556 C 244.430 12.333,169.235 12.109,168.583 13.328 M162.910 17.485 C 162.685 16.863,162.726 16.800,163.111 17.181 C 163.494 17.562,163.720 17.562,164.185 17.181 C 164.680 16.776,164.739 16.830,164.560 17.528 C 164.442 17.983,164.510 18.649,164.711 19.008 C 165.109 19.718,156.235 19.965,155.797 19.255 C 155.688 19.078,155.996 19.028,156.483 19.143 C 157.354 19.349,157.356 19.342,156.582 18.737 C 155.842 18.160,155.881 18.142,157.238 18.444 C 158.455 18.714,158.644 18.669,158.449 18.158 C 158.296 17.761,158.374 17.650,158.676 17.837 C 158.929 17.993,159.136 17.934,159.136 17.705 C 159.136 17.476,158.929 17.289,158.677 17.289 C 158.425 17.289,158.332 17.175,158.471 17.036 C 158.610 16.897,158.949 16.962,159.224 17.179 C 159.967 17.765,161.033 17.637,161.309 16.929 C 161.512 16.409,161.687 16.468,162.373 17.289 C 163.038 18.083,163.141 18.121,162.910 17.485 M148.501 20.873 C 148.217 21.403,148.205 21.613,148.468 21.451 C 148.928 21.167,149.820 22.544,149.430 22.935 C 149.120 23.244,143.418 23.266,143.418 22.958 C 143.418 22.835,143.639 22.487,143.910 22.186 C 144.180 21.885,144.633 21.362,144.917 21.025 C 145.235 20.647,145.949 20.446,146.770 20.501 C 147.505 20.550,148.230 20.467,148.382 20.315 C 148.897 19.799,148.948 20.037,148.501 20.873 M136.739 24.961 C 136.739 25.244,136.846 25.756,136.977 26.098 C 137.174 26.611,136.889 26.719,135.337 26.719 L 133.458 26.719 134.316 25.806 C 134.788 25.304,135.040 24.745,134.876 24.564 C 134.712 24.383,134.799 24.363,135.069 24.518 C 135.339 24.674,135.560 24.619,135.560 24.397 C 135.560 24.175,135.825 24.095,136.149 24.219 C 136.473 24.344,136.739 24.677,136.739 24.961 M285.265 27.165 C 286.238 27.356,287.260 27.540,287.538 27.574 C 287.843 27.612,287.900 27.778,287.682 27.996 C 287.363 28.315,288.189 30.648,288.622 30.648 C 288.847 30.648,288.352 29.358,287.907 28.782 C 287.654 28.455,287.674 28.291,287.968 28.291 C 288.638 28.291,288.494 27.229,287.787 26.958 C 287.445 26.826,286.340 26.741,285.331 26.768 L 283.497 26.817 285.265 27.165 M129.278 27.996 C 129.281 28.266,129.390 28.885,129.521 29.371 C 129.747 30.216,129.656 30.254,127.453 30.230 C 125.672 30.211,125.349 30.125,126.031 29.850 C 126.518 29.655,126.916 29.390,126.916 29.263 C 126.916 29.135,126.720 29.151,126.482 29.298 C 126.243 29.446,126.352 29.102,126.723 28.536 C 127.425 27.466,129.268 27.076,129.278 27.996 M289.212 30.404 C 289.315 30.506,290.487 30.644,291.818 30.710 C 293.148 30.776,294.165 30.946,294.077 31.088 C 293.843 31.467,295.061 32.378,295.379 32.061 C 296.231 31.209,294.705 30.448,291.918 30.335 C 290.327 30.270,289.110 30.301,289.212 30.404 M298.414 34.369 C 299.054 34.651,299.777 34.805,300.021 34.712 C 300.264 34.618,300.713 34.849,301.018 35.225 C 301.500 35.818,301.495 35.868,300.982 35.606 C 300.658 35.441,300.720 35.572,301.120 35.898 C 301.520 36.223,301.730 36.679,301.588 36.909 C 301.445 37.140,301.497 37.328,301.703 37.328 C 302.147 37.328,302.554 36.379,302.554 35.345 C 302.554 34.316,301.366 33.786,299.142 33.824 L 297.250 33.856 298.414 34.369 M220.635 37.710 C 229.334 38.239,236.878 39.304,245.187 41.178 C 250.472 42.369,251.955 42.831,253.647 43.810 C 254.518 44.313,255.932 44.848,256.790 44.997 C 259.529 45.472,262.620 46.430,264.440 47.367 C 265.413 47.868,267.446 48.654,268.959 49.116 C 270.472 49.577,272.770 50.454,274.067 51.066 C 275.363 51.677,277.220 52.530,278.193 52.961 C 279.165 53.392,280.298 54.118,280.709 54.574 C 281.121 55.030,281.707 55.403,282.011 55.403 C 282.813 55.403,286.814 57.288,287.528 58.003 C 287.863 58.337,289.215 59.105,290.535 59.709 C 292.985 60.831,298.113 64.154,298.821 65.079 C 299.037 65.361,300.187 66.107,301.375 66.737 C 302.564 67.367,304.234 68.523,305.087 69.305 C 305.939 70.087,306.834 70.727,307.076 70.727 C 307.317 70.727,308.023 71.257,308.644 71.906 C 309.266 72.554,309.962 73.090,310.191 73.097 C 310.777 73.114,312.593 74.769,313.133 75.778 C 313.381 76.242,313.806 76.621,314.077 76.621 C 314.348 76.621,315.300 77.284,316.193 78.094 C 325.152 86.229,324.467 85.567,328.094 89.582 C 329.715 91.375,331.589 93.392,332.258 94.064 C 332.927 94.735,333.755 95.815,334.097 96.464 C 334.439 97.112,335.245 97.987,335.889 98.407 C 336.533 98.828,337.343 99.712,337.689 100.372 C 338.280 101.497,339.982 103.842,341.840 106.090 C 343.105 107.621,344.597 109.937,344.597 110.370 C 344.597 110.585,345.226 111.435,345.995 112.257 C 346.764 113.080,347.742 114.371,348.169 115.128 C 348.595 115.884,349.445 117.310,350.056 118.296 C 350.667 119.282,351.383 120.740,351.646 121.537 C 351.909 122.334,352.284 122.986,352.481 122.986 C 352.913 122.986,354.983 127.049,355.374 128.666 C 355.528 129.305,355.996 130.066,356.413 130.359 C 357.099 130.839,358.743 133.872,358.743 134.657 C 358.743 134.833,359.162 135.771,359.675 136.742 C 360.187 137.713,360.994 139.745,361.467 141.257 C 361.940 142.770,362.667 144.657,363.083 145.450 C 364.241 147.662,365.292 150.814,365.809 153.635 C 366.067 155.039,366.509 156.454,366.792 156.778 C 368.024 158.193,370.275 167.388,372.132 178.585 C 373.902 189.265,373.897 222.068,372.124 232.190 C 371.913 233.395,371.465 236.135,371.128 238.278 C 370.792 240.422,370.365 242.367,370.180 242.601 C 369.995 242.834,369.724 243.910,369.579 244.990 C 369.208 247.739,367.840 252.162,366.783 254.028 C 366.294 254.892,365.698 256.542,365.459 257.693 C 364.623 261.724,363.628 263.341,361.260 264.517 L 359.128 265.576 358.150 264.597 C 357.611 264.059,357.138 263.582,357.097 263.538 C 357.056 263.494,356.899 249.047,356.748 231.434 C 356.451 196.908,356.463 197.120,354.782 196.251 C 354.025 195.860,353.511 195.159,353.187 194.080 C 352.827 192.877,352.404 192.359,351.463 191.966 C 350.776 191.679,349.837 190.914,349.375 190.265 C 348.913 189.616,348.106 188.978,347.581 188.846 C 347.056 188.714,346.244 187.987,345.776 187.231 C 345.039 186.037,344.722 185.855,343.386 185.855 C 342.540 185.855,341.714 185.824,341.552 185.787 C 340.437 185.533,339.520 189.257,339.890 192.534 C 340.949 201.917,341.082 210.026,340.975 258.546 C 340.855 313.197,340.934 311.198,338.916 311.198 C 338.650 311.198,338.118 311.545,337.734 311.969 C 337.351 312.394,336.439 312.938,335.709 313.179 C 334.979 313.420,334.381 313.855,334.381 314.145 C 334.381 315.583,315.200 334.381,313.732 334.381 C 313.419 334.381,313.163 334.613,313.163 334.897 C 313.163 335.495,311.151 337.525,310.558 337.525 C 310.337 337.525,309.731 337.978,309.211 338.531 C 308.691 339.085,307.643 339.913,306.883 340.372 C 306.123 340.830,304.968 341.659,304.317 342.214 C 303.666 342.768,302.251 343.664,301.173 344.204 C 300.096 344.745,299.152 345.329,299.076 345.502 C 298.744 346.262,296.756 347.778,295.583 348.165 C 294.879 348.397,294.303 348.759,294.303 348.969 C 294.303 349.179,292.932 349.998,291.257 350.790 C 289.583 351.581,287.963 352.471,287.659 352.768 C 287.005 353.408,283.544 355.032,282.017 355.415 C 281.426 355.563,280.943 355.840,280.943 356.030 C 280.943 356.505,278.294 358.131,276.621 358.683 C 275.864 358.933,274.376 359.579,273.313 360.119 C 272.249 360.658,271.066 361.100,270.684 361.100 C 270.301 361.100,269.897 361.247,269.786 361.427 C 269.675 361.606,268.603 361.972,267.405 362.241 C 266.206 362.509,265.226 362.849,265.226 362.997 C 265.226 363.560,260.462 365.248,257.760 365.642 C 256.788 365.784,254.839 366.483,253.430 367.197 C 251.753 368.046,249.583 368.716,247.144 369.139 C 245.095 369.493,243.114 369.950,242.743 370.153 C 242.078 370.516,237.551 371.407,232.699 372.128 C 216.062 374.603,185.221 373.988,171.513 370.907 C 169.568 370.470,166.297 369.768,164.244 369.347 C 160.528 368.585,157.901 367.674,156.778 366.759 C 156.454 366.495,155.039 366.067,153.635 365.809 C 150.814 365.292,147.662 364.241,145.450 363.083 C 144.657 362.667,142.770 361.945,141.257 361.477 C 139.745 361.010,137.962 360.315,137.296 359.934 C 136.630 359.552,135.392 359.013,134.546 358.735 C 132.721 358.135,130.059 356.524,130.059 356.018 C 130.059 355.822,129.484 355.537,128.782 355.385 C 127.143 355.030,122.986 352.947,122.986 352.481 C 122.986 352.284,122.334 351.909,121.537 351.646 C 120.740 351.383,119.282 350.667,118.296 350.056 C 117.310 349.445,115.884 348.595,115.128 348.169 C 114.371 347.742,113.080 346.764,112.257 345.995 C 111.435 345.226,110.585 344.597,110.370 344.597 C 109.937 344.597,107.621 343.105,106.090 341.840 C 103.846 339.985,101.498 338.280,100.378 337.692 C 99.721 337.347,98.770 336.461,98.264 335.723 C 97.759 334.985,97.127 334.381,96.862 334.381 C 96.596 334.381,95.448 333.517,94.310 332.460 C 93.173 331.403,90.801 329.237,89.039 327.646 C 87.278 326.056,84.646 323.428,83.190 321.807 C 81.735 320.187,79.663 317.899,78.585 316.723 C 77.508 315.547,76.525 314.265,76.401 313.874 C 76.276 313.483,76.019 313.163,75.828 313.163 C 75.347 313.163,73.089 310.705,73.086 310.179 C 73.085 309.942,72.705 309.412,72.241 309.000 C 71.777 308.588,70.799 307.323,70.068 306.189 C 69.337 305.054,68.608 304.126,68.448 304.126 C 68.288 304.126,67.551 303.021,66.809 301.670 C 66.068 300.319,64.878 298.612,64.165 297.877 C 63.452 297.141,62.868 296.362,62.868 296.146 C 62.868 295.929,62.435 295.184,61.905 294.489 C 61.375 293.794,60.417 292.080,59.776 290.681 C 59.135 289.281,58.337 287.863,58.003 287.528 C 57.380 286.905,55.403 282.855,55.403 282.201 C 55.403 282.001,54.879 281.178,54.239 280.373 C 53.599 279.567,52.703 277.907,52.249 276.684 C 51.794 275.461,51.167 274.066,50.855 273.585 C 50.544 273.104,49.786 271.159,49.171 269.263 C 48.557 267.367,47.646 265.020,47.149 264.047 C 46.230 262.252,45.962 261.391,45.011 257.161 C 44.718 255.859,44.122 254.180,43.686 253.429 C 42.828 251.951,42.314 250.262,41.237 245.383 C 40.856 243.654,40.341 241.447,40.093 240.479 C 39.538 238.319,38.636 231.971,38.025 225.933 C 37.426 220.017,37.423 191.027,38.021 185.069 C 38.777 177.530,39.663 171.649,40.447 168.959 C 40.856 167.554,41.301 165.625,41.436 164.671 C 41.755 162.405,43.582 156.778,43.998 156.778 C 44.176 156.778,44.526 155.850,44.774 154.715 C 45.760 150.215,46.509 147.849,47.591 145.821 C 48.214 144.655,48.723 143.294,48.723 142.797 C 48.723 142.300,48.900 141.784,49.116 141.650 C 49.332 141.517,49.509 141.108,49.509 140.743 C 49.509 140.378,50.019 139.018,50.642 137.721 C 51.265 136.424,52.270 134.258,52.875 132.908 C 53.480 131.557,54.129 130.452,54.316 130.452 C 54.504 130.452,54.924 129.789,55.251 128.978 C 55.578 128.168,56.099 126.948,56.410 126.267 C 56.720 125.586,56.974 124.865,56.974 124.665 C 56.974 124.465,57.402 123.901,57.924 123.410 C 58.446 122.920,58.978 122.099,59.107 121.586 C 59.236 121.072,59.858 119.807,60.489 118.774 C 61.121 117.741,62.173 115.982,62.827 114.866 C 63.481 113.750,64.358 112.597,64.774 112.305 C 65.191 112.014,65.791 111.159,66.109 110.406 C 66.628 109.175,70.121 104.185,71.665 102.469 C 71.999 102.098,72.719 101.086,73.266 100.220 C 73.813 99.353,74.696 98.360,75.227 98.011 C 75.759 97.663,76.511 96.878,76.898 96.267 C 78.968 93.003,92.692 79.304,96.449 76.751 C 97.213 76.232,97.839 75.651,97.839 75.461 C 97.839 75.271,98.767 74.442,99.902 73.618 C 101.036 72.794,102.141 71.929,102.358 71.696 C 102.574 71.462,103.458 70.790,104.322 70.202 C 106.456 68.750,108.487 67.314,109.412 66.602 C 109.834 66.278,110.402 66.012,110.673 66.012 C 110.945 66.012,111.615 65.528,112.163 64.937 C 113.354 63.653,116.256 61.809,120.100 59.895 C 121.646 59.125,123.221 58.153,123.599 57.735 C 123.977 57.316,124.454 56.974,124.658 56.974 C 124.862 56.974,125.586 56.720,126.267 56.410 C 126.948 56.099,128.168 55.578,128.978 55.251 C 129.789 54.924,130.452 54.504,130.452 54.316 C 130.452 54.129,131.557 53.480,132.908 52.875 C 134.258 52.270,136.424 51.286,137.721 50.688 C 139.018 50.090,141.397 49.202,143.009 48.716 C 144.620 48.229,146.174 47.595,146.463 47.306 C 147.017 46.753,150.737 45.602,154.519 44.815 C 155.761 44.556,156.778 44.194,156.778 44.009 C 156.778 43.544,162.303 41.830,165.591 41.276 C 167.088 41.024,168.591 40.670,168.931 40.490 C 169.553 40.161,174.180 39.363,180.354 38.522 C 188.401 37.425,209.091 37.008,220.635 37.710 M108.448 39.512 C 108.448 40.828,108.405 40.864,106.876 40.864 C 105.239 40.864,105.021 40.558,105.723 39.245 C 106.722 37.379,108.448 37.549,108.448 39.512 M307.687 40.125 C 308.258 41.191,307.591 41.012,306.765 39.877 C 306.183 39.077,306.168 38.954,306.678 39.150 C 307.015 39.279,307.469 39.718,307.687 40.125 M311.810 41.723 C 311.975 41.575,311.995 41.655,311.855 41.900 C 311.715 42.146,311.860 42.563,312.177 42.826 C 313.114 43.604,312.259 44.683,310.743 44.637 C 309.725 44.605,309.415 44.398,309.215 43.615 C 308.827 42.096,309.440 41.206,310.576 41.638 C 311.090 41.833,311.645 41.872,311.810 41.723 M101.307 43.026 C 101.397 44.355,101.354 44.401,100.012 44.401 C 98.203 44.401,98.333 42.666,100.196 41.942 C 101.173 41.562,101.211 41.599,101.307 43.026 M315.294 45.566 C 316.650 47.117,316.466 47.937,314.761 47.937 L 313.163 47.937 313.163 46.390 C 313.163 44.700,314.189 44.303,315.294 45.566 M97.446 46.562 C 97.446 47.867,97.377 47.937,96.094 47.937 C 94.524 47.937,93.980 47.378,94.982 46.794 C 95.365 46.572,95.524 46.384,95.335 46.377 C 94.647 46.353,95.993 45.187,96.708 45.187 C 97.289 45.187,97.446 45.478,97.446 46.562 M321.755 50.098 L 322.567 51.473 321.191 51.473 C 319.782 51.473,319.476 50.635,320.367 49.214 C 320.798 48.527,320.846 48.557,321.755 50.098 M91.188 50.688 C 92.134 50.688,91.410 51.317,90.373 51.396 C 89.019 51.499,88.918 51.252,89.882 50.184 C 90.479 49.522,90.586 49.505,90.697 50.055 C 90.767 50.403,90.988 50.688,91.188 50.688 M86.991 52.881 C 87.609 54.491,87.285 55.010,85.658 55.010 C 83.849 55.010,83.770 54.819,84.976 53.347 C 85.973 52.130,86.644 51.974,86.991 52.881 M325.888 53.228 C 326.824 54.656,326.676 55.010,325.147 55.010 C 323.838 55.010,323.772 54.944,323.772 53.635 C 323.772 51.945,324.905 51.727,325.888 53.228 M83.301 57.236 C 83.301 58.430,83.196 58.546,82.122 58.546 C 80.738 58.546,80.538 57.695,81.726 56.863 C 82.157 56.561,82.422 56.227,82.316 56.121 C 82.209 56.014,82.387 55.927,82.711 55.927 C 83.117 55.927,83.301 56.334,83.301 57.236 M329.198 57.262 C 328.866 57.662,328.916 57.722,329.418 57.529 C 329.901 57.344,330.005 57.443,329.825 57.913 C 329.396 59.030,327.308 58.741,327.308 57.564 C 327.308 56.936,327.530 56.582,327.921 56.582 C 328.258 56.582,328.416 56.392,328.273 56.160 C 328.129 55.928,328.375 55.964,328.819 56.242 C 329.428 56.622,329.521 56.873,329.198 57.262 M78.984 60.216 C 78.988 60.544,79.117 60.511,79.371 60.118 C 79.660 59.671,79.754 59.836,79.758 60.806 C 79.764 62.034,79.705 62.083,78.193 62.083 C 77.305 62.083,76.621 61.893,76.621 61.648 C 76.621 61.406,76.907 61.322,77.266 61.460 C 77.805 61.667,77.829 61.610,77.414 61.109 C 76.995 60.604,77.052 60.511,77.775 60.511 C 78.246 60.511,78.523 60.334,78.389 60.118 C 78.255 59.902,78.333 59.725,78.562 59.725 C 78.791 59.725,78.981 59.946,78.984 60.216 M332.559 61.493 C 332.722 61.919,332.516 62.083,331.815 62.083 C 330.703 62.083,330.504 61.443,331.532 61.175 C 331.911 61.076,332.245 60.974,332.276 60.949 C 332.307 60.924,332.434 61.169,332.559 61.493 M66.002 72.128 C 65.791 72.682,65.619 73.733,65.619 74.462 C 65.619 75.192,65.459 75.888,65.263 76.009 C 65.067 76.130,65.000 75.831,65.115 75.344 C 65.321 74.474,65.314 74.472,64.718 75.245 C 64.384 75.677,63.979 75.898,63.817 75.736 C 63.656 75.574,63.733 75.442,63.989 75.442 C 64.293 75.442,64.367 75.092,64.202 74.434 C 64.007 73.656,64.201 73.163,65.054 72.273 C 66.403 70.864,66.487 70.852,66.002 72.128 M55.010 80.288 C 55.010 80.576,55.275 80.812,55.599 80.812 C 55.923 80.812,56.189 80.678,56.189 80.513 C 56.189 80.349,56.498 80.134,56.876 80.035 C 57.254 79.936,56.989 79.835,56.287 79.810 C 55.462 79.780,55.010 79.950,55.010 80.288 M53.438 83.261 C 51.682 83.496,51.669 83.508,51.549 85.167 C 51.434 86.763,51.372 86.837,50.154 86.837 C 48.252 86.837,47.937 87.407,47.937 90.845 L 47.937 93.910 46.169 93.910 L 44.401 93.910 44.447 95.383 C 44.492 96.809,44.502 96.819,44.744 95.678 C 44.962 94.654,45.201 94.473,46.564 94.303 L 48.134 94.106 48.330 91.229 C 48.534 88.237,48.829 87.773,50.875 87.214 C 51.404 87.070,51.750 86.503,51.962 85.431 C 52.241 84.018,52.400 83.850,53.537 83.763 C 54.232 83.710,54.971 83.496,55.180 83.287 C 55.389 83.079,55.480 82.934,55.383 82.967 C 55.286 82.999,54.411 83.132,53.438 83.261 M357.196 86.097 C 357.535 86.731,357.449 86.837,356.595 86.837 C 355.798 86.837,355.599 86.643,355.599 85.867 C 355.599 84.741,356.542 84.877,357.196 86.097 M360.160 90.266 C 359.745 90.681,359.399 90.518,359.303 89.860 C 359.218 89.283,359.305 89.239,359.766 89.621 C 360.078 89.880,360.255 90.170,360.160 90.266 M41.019 105.533 C 41.849 107.697,41.115 109.234,39.251 109.234 C 37.784 109.234,37.721 109.181,37.721 107.946 C 37.721 105.585,40.312 103.690,41.019 105.533 M37.581 113.083 L 37.525 115.324 35.855 115.445 C 34.250 115.561,34.186 115.523,34.224 114.463 C 34.276 113.000,34.702 111.539,35.069 111.568 C 35.231 111.581,35.319 111.522,35.265 111.436 C 35.211 111.351,35.514 110.897,35.939 110.428 C 37.044 109.207,37.654 110.195,37.581 113.083 M377.809 116.445 C 378.659 116.119,379.812 118.374,379.786 120.313 C 379.765 121.979,379.742 122.006,378.291 122.126 L 376.817 122.248 376.848 118.982 C 376.865 117.187,376.965 115.928,377.070 116.186 C 377.175 116.444,377.508 116.561,377.809 116.445 M28.291 122.473 C 27.160 122.877,26.719 123.927,26.764 126.107 C 26.809 128.272,26.812 128.277,27.115 126.719 C 27.283 125.855,27.324 124.987,27.205 124.792 C 27.087 124.596,27.176 124.551,27.403 124.691 C 27.790 124.930,28.485 123.913,28.358 123.295 C 28.326 123.141,28.524 123.100,28.798 123.206 C 29.072 123.311,29.644 123.133,30.070 122.811 C 30.907 122.178,29.737 121.956,28.291 122.473 M386.652 134.400 C 387.412 135.629,386.849 136.934,385.503 137.063 C 383.895 137.216,383.624 136.857,383.817 134.830 C 383.967 133.259,385.777 132.984,386.652 134.400 M26.719 135.392 C 26.719 137.120,26.678 137.183,25.639 137.063 C 24.301 136.908,23.867 136.357,24.482 135.596 C 24.849 135.142,24.845 135.080,24.464 135.308 C 24.134 135.507,24.053 135.405,24.211 134.993 C 24.339 134.659,24.576 134.467,24.738 134.567 C 24.899 134.667,25.367 134.495,25.777 134.185 C 26.187 133.874,26.567 133.615,26.621 133.608 C 26.675 133.601,26.719 134.404,26.719 135.392 M23.183 146.389 C 23.183 147.483,23.030 148.085,22.790 147.937 C 22.574 147.804,22.383 147.926,22.366 148.209 C 22.342 148.604,22.289 148.610,22.137 148.232 C 22.028 147.962,21.698 147.741,21.405 147.741 C 20.575 147.741,20.380 147.107,20.875 146.020 C 21.271 145.151,21.758 144.818,22.888 144.643 C 23.050 144.618,23.183 145.403,23.183 146.389 M389.357 145.626 C 390.335 146.869,390.119 147.348,388.582 147.348 C 387.523 147.348,387.426 147.232,387.426 145.972 C 387.426 144.292,388.199 144.154,389.357 145.626 M135.842 159.739 C 132.266 160.451,131.879 160.592,130.725 161.604 C 130.178 162.083,129.247 162.884,128.655 163.384 C 124.150 167.190,123.575 169.937,123.582 187.623 C 123.589 205.977,123.508 205.598,128.701 211.493 C 129.225 212.087,129.804 212.574,129.988 212.574 C 130.172 212.574,130.782 213.090,131.344 213.721 C 133.640 216.298,145.404 216.235,148.256 213.630 C 149.011 212.941,150.132 211.923,150.747 211.368 C 155.827 206.785,155.796 206.934,155.796 187.623 C 155.796 168.986,155.202 166.245,150.472 163.065 C 149.990 162.741,149.070 162.045,148.427 161.518 C 146.110 159.623,140.451 158.823,135.842 159.739 M105.992 255.832 C 104.966 256.299,104.126 256.836,104.126 257.025 C 104.126 257.214,103.385 258.067,102.479 258.920 C 100.374 260.902,98.787 266.909,100.146 267.749 C 100.334 267.865,100.587 268.450,100.707 269.049 C 100.828 269.648,101.484 270.756,102.165 271.513 C 102.846 272.269,103.659 273.507,103.973 274.263 C 104.287 275.020,104.772 275.815,105.051 276.031 C 105.330 276.248,106.224 277.618,107.037 279.077 C 107.850 280.535,108.661 281.729,108.838 281.729 C 109.015 281.729,109.667 282.480,110.287 283.399 C 111.481 285.168,112.031 285.772,118.504 292.436 C 120.761 294.759,122.739 296.660,122.899 296.660 C 123.283 296.660,125.344 298.577,125.345 298.935 C 125.345 299.089,126.141 299.717,127.113 300.331 C 128.085 300.945,128.880 301.582,128.880 301.746 C 128.880 302.032,132.640 304.519,133.074 304.519 C 133.190 304.519,133.822 304.971,134.479 305.523 C 135.135 306.075,136.531 306.962,137.581 307.494 C 138.630 308.026,139.489 308.618,139.489 308.809 C 139.489 309.284,141.774 310.594,143.647 311.193 C 144.494 311.464,146.071 312.251,147.151 312.942 C 148.232 313.633,150.088 314.478,151.277 314.820 C 152.466 315.161,154.683 315.966,156.204 316.609 C 157.725 317.252,159.847 317.966,160.919 318.197 C 161.991 318.428,163.716 319.069,164.752 319.621 C 166.660 320.638,170.365 321.449,176.424 322.176 C 178.261 322.396,181.886 322.931,184.479 323.365 C 188.750 324.079,191.022 324.154,208.571 324.159 C 228.924 324.165,229.220 324.144,233.262 322.355 C 233.943 322.054,234.743 321.807,235.041 321.807 C 235.683 321.807,236.660 320.730,237.515 319.075 C 237.856 318.417,238.300 317.878,238.502 317.878 C 239.976 317.878,240.039 309.464,238.576 307.984 C 238.081 307.483,237.078 306.454,236.347 305.697 C 235.616 304.941,234.440 303.880,233.734 303.340 L 232.449 302.358 209.447 302.113 C 182.860 301.830,177.041 301.454,173.674 299.804 C 172.917 299.433,170.530 298.731,168.369 298.243 C 166.208 297.756,163.334 296.847,161.983 296.223 C 160.632 295.599,159.343 295.088,159.119 295.088 C 158.353 295.088,155.404 293.405,154.889 292.674 C 154.607 292.273,154.193 291.945,153.971 291.945 C 153.748 291.945,152.476 291.410,151.144 290.755 C 148.208 289.312,145.812 287.720,140.966 283.993 C 137.858 281.604,131.856 275.827,128.993 272.471 C 126.130 269.115,123.379 265.505,123.379 265.104 C 123.379 264.891,122.786 263.992,122.062 263.105 C 121.337 262.219,120.465 260.949,120.123 260.285 C 117.802 255.776,110.896 253.600,105.992 255.832 " stroke="none" fill="#13100b" fill-rule="evenodd"></path><path id="path1" d="M187.426 40.718 C 184.941 41.017,182.024 41.443,180.943 41.663 C 179.862 41.883,176.238 42.430,172.888 42.877 C 168.348 43.484,165.937 44.022,163.419 44.990 C 161.560 45.705,158.643 46.508,156.936 46.775 C 154.777 47.113,152.943 47.723,150.917 48.778 C 149.314 49.612,147.708 50.295,147.348 50.295 C 146.988 50.295,146.578 50.409,146.439 50.549 C 146.299 50.689,145.341 51.114,144.310 51.495 C 143.280 51.875,140.933 52.744,139.096 53.425 C 137.259 54.107,134.961 55.163,133.988 55.774 C 133.016 56.384,131.313 57.176,130.203 57.534 C 129.094 57.893,127.857 58.557,127.453 59.011 C 127.049 59.464,125.741 60.302,124.545 60.872 C 123.349 61.441,121.846 62.271,121.205 62.716 C 120.564 63.161,119.173 63.936,118.114 64.439 C 117.056 64.941,115.641 65.822,114.971 66.396 C 114.301 66.970,113.035 67.805,112.159 68.251 C 111.282 68.698,110.035 69.570,109.388 70.190 C 108.740 70.809,107.700 71.670,107.077 72.102 C 106.454 72.534,105.491 73.263,104.937 73.721 C 104.383 74.179,103.280 74.901,102.486 75.326 C 101.691 75.750,100.571 76.657,99.995 77.341 C 99.419 78.026,98.762 78.585,98.536 78.585 C 98.309 78.585,96.661 80.071,94.873 81.888 C 93.086 83.704,91.293 85.295,90.889 85.423 C 90.486 85.551,89.895 86.044,89.577 86.518 C 88.838 87.619,87.619 88.838,86.518 89.577 C 86.044 89.895,85.551 90.486,85.423 90.889 C 85.295 91.293,83.744 93.066,81.978 94.829 C 80.211 96.593,78.520 98.519,78.220 99.109 C 77.920 99.700,77.362 100.282,76.982 100.403 C 76.601 100.524,75.904 101.363,75.433 102.267 C 74.961 103.172,74.196 104.369,73.732 104.928 C 73.268 105.487,72.534 106.454,72.102 107.077 C 71.670 107.700,70.809 108.740,70.190 109.388 C 69.570 110.035,68.702 111.282,68.260 112.159 C 67.819 113.035,67.057 114.194,66.567 114.735 C 66.078 115.275,65.027 116.955,64.232 118.468 C 63.438 119.980,62.570 121.483,62.303 121.807 C 62.037 122.132,61.427 123.254,60.948 124.302 C 60.469 125.351,59.644 126.675,59.116 127.245 C 58.587 127.815,57.868 129.168,57.519 130.251 C 57.169 131.334,56.384 133.016,55.774 133.988 C 55.163 134.961,54.107 137.259,53.425 139.096 C 52.744 140.933,51.875 143.280,51.495 144.310 C 51.114 145.341,50.689 146.299,50.549 146.439 C 50.409 146.578,50.295 146.980,50.295 147.330 C 50.295 147.681,49.921 148.668,49.465 149.524 C 49.009 150.380,48.363 151.596,48.029 152.225 C 47.695 152.855,47.118 155.065,46.746 157.137 C 46.374 159.209,45.709 161.699,45.268 162.672 C 43.943 165.595,43.631 166.929,42.831 173.084 C 42.410 176.326,41.898 179.774,41.694 180.747 C 39.496 191.212,39.486 219.643,41.676 230.205 C 41.884 231.205,42.470 234.941,42.980 238.507 C 43.650 243.195,44.235 245.806,45.092 247.937 C 45.744 249.558,46.495 252.299,46.761 254.028 C 47.096 256.204,47.668 257.956,48.621 259.725 C 49.377 261.130,50.330 263.340,50.738 264.637 C 51.145 265.933,51.813 267.701,52.221 268.566 C 52.629 269.430,53.353 271.287,53.831 272.692 C 54.309 274.096,55.193 276.041,55.795 277.014 C 56.397 277.986,57.012 279.224,57.160 279.764 C 57.596 281.352,58.441 283.047,59.218 283.890 C 60.110 284.859,61.690 287.526,61.690 288.064 C 61.690 288.283,62.108 289.024,62.620 289.712 C 63.132 290.400,64.024 291.920,64.601 293.091 C 65.179 294.261,66.175 295.814,66.814 296.543 C 67.453 297.271,67.976 298.110,67.976 298.409 C 67.976 298.708,68.684 299.710,69.548 300.637 C 70.413 301.564,71.120 302.451,71.120 302.607 C 71.120 302.763,71.341 303.126,71.611 303.414 C 72.820 304.704,75.835 308.813,75.835 309.172 C 75.835 309.391,76.345 309.980,76.969 310.482 C 77.592 310.984,78.400 311.985,78.764 312.706 C 79.129 313.427,79.944 314.311,80.575 314.671 C 81.207 315.030,81.725 315.455,81.726 315.614 C 81.734 316.445,94.192 328.880,95.017 328.880 C 95.230 328.880,95.770 329.502,96.219 330.261 C 96.667 331.021,97.472 331.809,98.008 332.013 C 98.544 332.217,99.477 332.939,100.081 333.618 C 100.685 334.297,101.654 335.100,102.236 335.401 C 103.553 336.084,108.223 339.538,109.893 341.064 C 110.579 341.692,111.803 342.482,112.612 342.820 C 113.421 343.158,114.340 343.803,114.656 344.253 C 114.971 344.703,116.267 345.562,117.534 346.162 C 118.802 346.761,120.415 347.689,121.118 348.222 C 121.821 348.756,123.034 349.402,123.813 349.657 C 124.592 349.913,125.966 350.752,126.867 351.523 C 127.779 352.303,129.340 353.145,130.392 353.422 C 131.430 353.696,133.182 354.541,134.286 355.300 C 135.389 356.059,136.967 356.803,137.792 356.952 C 138.618 357.102,140.354 357.735,141.650 358.360 C 142.947 358.985,145.219 359.869,146.700 360.326 C 148.180 360.783,150.222 361.667,151.236 362.291 C 152.462 363.045,154.061 363.577,156.009 363.876 C 159.089 364.351,161.416 365.029,164.075 366.228 C 164.954 366.625,167.607 367.214,169.969 367.538 C 172.331 367.861,177.711 368.697,181.925 369.394 L 189.587 370.663 205.305 370.685 C 221.747 370.708,224.185 370.512,236.346 368.183 C 237.426 367.976,239.813 367.615,241.650 367.382 C 244.596 367.007,248.517 365.833,249.731 364.961 C 249.961 364.796,251.903 364.379,254.048 364.034 C 257.469 363.483,260.169 362.470,260.904 361.461 C 261.012 361.313,262.250 360.880,263.654 360.500 C 265.059 360.120,267.181 359.313,268.369 358.706 C 269.558 358.100,271.554 357.316,272.804 356.963 C 274.055 356.610,275.977 355.729,277.075 355.006 C 278.173 354.282,279.939 353.483,280.998 353.228 C 282.057 352.974,283.085 352.466,283.281 352.099 C 283.684 351.346,287.219 349.312,288.125 349.312 C 288.451 349.312,288.808 349.077,288.919 348.788 C 289.029 348.500,290.438 347.613,292.050 346.816 C 293.661 346.020,295.314 344.997,295.722 344.542 C 296.130 344.088,297.379 343.281,298.497 342.749 C 299.615 342.218,300.621 341.546,300.732 341.257 C 300.843 340.967,301.987 340.015,303.274 339.141 C 304.561 338.267,305.854 337.319,306.147 337.034 C 306.440 336.749,307.516 336.030,308.539 335.436 C 309.561 334.842,310.578 334.020,310.799 333.608 C 311.019 333.196,311.907 332.462,312.771 331.976 C 313.635 331.490,314.342 330.962,314.342 330.803 C 314.342 330.463,315.962 328.857,318.262 326.916 C 319.158 326.159,320.502 324.921,321.248 324.165 C 321.994 323.409,322.764 322.643,322.960 322.463 C 323.750 321.738,325.720 319.647,327.102 318.065 C 329.506 315.314,329.849 314.966,330.960 314.150 C 331.545 313.721,332.024 313.153,332.024 312.889 C 332.024 312.624,332.722 311.716,333.575 310.872 C 334.428 310.027,335.268 308.826,335.441 308.204 C 336.072 305.938,335.824 211.416,335.182 209.339 L 334.607 207.480 333.671 210.125 C 333.157 211.580,332.240 213.401,331.633 214.172 C 330.434 215.696,328.880 218.432,328.880 219.020 C 328.880 219.223,328.638 219.667,328.341 220.008 C 328.045 220.350,327.229 221.690,326.530 222.986 C 325.830 224.283,325.042 225.521,324.779 225.737 C 324.516 225.953,323.634 227.014,322.820 228.094 C 319.925 231.938,310.183 241.257,309.061 241.257 C 308.791 241.257,308.279 241.579,307.923 241.972 C 307.568 242.364,305.952 243.350,304.332 244.161 C 302.712 244.972,301.285 245.801,301.161 246.002 C 300.875 246.464,298.017 247.746,296.464 248.108 C 295.457 248.343,292.882 249.441,290.263 250.752 C 286.412 252.679,267.856 253.511,258.947 252.155 C 253.205 251.282,253.755 251.441,248.723 249.196 C 247.750 248.762,246.172 248.198,245.216 247.942 C 244.260 247.686,242.412 246.785,241.111 245.939 C 239.809 245.093,238.586 244.401,238.392 244.401 C 237.933 244.401,230.377 239.433,230.197 239.012 C 230.121 238.835,229.528 238.284,228.880 237.789 C 226.749 236.161,222.334 231.680,220.102 228.880 C 218.897 227.367,217.710 225.953,217.465 225.737 C 217.219 225.521,216.437 224.283,215.725 222.986 C 215.014 221.690,214.285 220.533,214.105 220.417 C 213.825 220.236,212.712 217.927,210.418 212.770 C 210.130 212.122,209.685 210.796,209.430 209.823 C 208.803 207.433,207.525 203.518,207.057 202.554 C 204.730 197.768,205.087 178.260,207.637 170.771 C 208.381 168.586,209.195 166.002,209.445 165.029 C 210.129 162.370,212.998 156.129,214.430 154.185 C 214.923 153.516,215.724 152.255,216.209 151.383 C 218.684 146.942,228.480 136.661,232.179 134.623 C 232.526 134.432,233.251 133.870,233.792 133.373 C 234.332 132.876,235.831 131.916,237.123 131.238 C 238.414 130.561,239.652 129.861,239.873 129.682 C 240.816 128.920,243.574 127.545,245.580 126.839 C 251.784 124.654,253.053 124.318,262.475 122.366 C 265.887 121.659,276.427 121.669,279.764 122.382 C 281.169 122.683,283.998 123.288,286.051 123.727 C 292.868 125.186,298.779 127.295,301.835 129.360 C 302.413 129.749,303.916 130.606,305.175 131.264 C 306.435 131.922,307.731 132.784,308.055 133.180 C 308.379 133.575,309.107 134.140,309.673 134.435 C 311.490 135.382,313.649 137.236,317.676 141.309 C 323.765 147.469,325.983 150.489,329.180 156.972 C 329.925 158.484,330.867 160.186,331.272 160.755 C 331.677 161.324,332.257 162.740,332.561 163.901 C 332.864 165.062,333.584 167.338,334.159 168.959 C 334.735 170.580,335.480 173.124,335.815 174.614 C 336.689 178.500,337.442 179.671,339.317 180.061 C 341.390 180.491,345.383 181.965,345.383 182.299 C 345.383 182.447,346.387 182.884,347.615 183.271 C 348.842 183.658,350.062 184.176,350.325 184.423 C 350.589 184.670,351.471 185.403,352.286 186.051 C 353.100 186.699,354.135 187.655,354.585 188.175 C 355.035 188.695,355.882 189.558,356.467 190.092 C 360.911 194.148,361.386 197.622,361.691 228.291 C 361.924 251.761,362.232 258.082,363.067 256.548 C 363.234 256.242,363.492 255.020,363.642 253.831 C 364.063 250.483,364.626 248.636,365.634 247.303 C 366.770 245.801,366.837 245.531,367.766 238.703 C 368.177 235.678,368.994 230.639,369.581 227.505 C 371.214 218.785,371.221 192.372,369.593 183.301 C 369.011 180.059,368.171 174.754,367.726 171.513 C 367.281 168.271,366.600 164.912,366.212 164.047 C 365.049 161.455,364.361 159.103,363.855 155.992 C 363.549 154.115,362.973 152.382,362.266 151.218 C 361.656 150.214,360.783 148.180,360.326 146.700 C 359.869 145.219,358.985 142.947,358.360 141.650 C 357.735 140.354,357.102 138.618,356.952 137.792 C 356.803 136.967,356.059 135.389,355.300 134.286 C 354.541 133.182,353.694 131.422,353.418 130.375 C 353.142 129.328,352.366 127.844,351.694 127.079 C 351.022 126.314,350.092 124.859,349.627 123.846 C 349.162 122.833,348.457 121.532,348.060 120.954 C 347.663 120.377,346.804 118.874,346.151 117.614 C 345.497 116.355,344.612 115.028,344.183 114.665 C 343.753 114.303,343.133 113.362,342.804 112.574 C 342.474 111.786,341.685 110.579,341.049 109.893 C 339.513 108.234,336.110 103.604,335.358 102.150 C 335.028 101.512,334.335 100.712,333.817 100.374 C 333.300 100.035,332.581 99.134,332.220 98.372 C 331.858 97.610,330.966 96.635,330.238 96.205 C 329.511 95.776,328.809 95.091,328.680 94.683 C 328.550 94.275,327.747 93.389,326.894 92.714 C 326.041 92.039,325.340 91.280,325.335 91.028 C 325.327 90.613,324.284 89.580,317.826 83.595 C 316.719 82.569,315.670 81.729,315.497 81.729 C 315.323 81.729,315.064 81.361,314.921 80.911 C 314.778 80.461,313.879 79.597,312.923 78.991 C 311.967 78.385,310.822 77.427,310.377 76.862 C 309.933 76.297,309.394 75.835,309.179 75.835 C 308.727 75.835,306.404 74.146,303.640 71.807 C 303.193 71.429,302.704 71.120,302.554 71.120 C 302.404 71.120,301.648 70.505,300.874 69.752 C 300.099 69.000,298.746 68.097,297.866 67.745 C 296.987 67.393,296.267 66.945,296.267 66.749 C 296.267 66.552,295.648 66.097,294.892 65.736 C 294.136 65.375,293.517 64.965,293.517 64.823 C 293.517 64.682,292.809 64.332,291.945 64.047 C 291.081 63.762,290.373 63.395,290.373 63.231 C 290.373 63.068,289.240 62.382,287.855 61.707 C 286.470 61.032,284.768 59.983,284.072 59.376 C 283.377 58.769,281.902 57.959,280.795 57.576 C 279.688 57.193,278.163 56.487,277.407 56.008 C 275.977 55.102,271.097 53.045,270.377 53.045 C 270.150 53.045,269.385 52.725,268.676 52.334 C 267.967 51.942,265.884 51.130,264.048 50.528 C 262.211 49.927,260.619 49.319,260.511 49.177 C 259.886 48.359,256.758 47.192,254.066 46.773 C 252.359 46.507,249.442 45.710,247.583 45.001 C 245.132 44.067,242.748 43.530,238.900 43.048 C 235.982 42.682,232.343 42.134,230.812 41.830 C 221.851 40.052,198.027 39.441,187.426 40.718 M143.702 156.394 C 148.938 157.602,155.925 163.008,157.173 166.815 C 157.454 167.670,157.966 168.803,158.311 169.334 C 159.667 171.416,159.374 205.286,157.991 206.287 C 157.842 206.395,157.411 207.308,157.033 208.316 C 156.407 209.986,155.545 210.975,150.610 215.681 C 150.291 215.985,148.940 216.551,147.608 216.938 C 146.276 217.324,144.479 217.908,143.615 218.233 C 141.599 218.994,138.159 218.992,136.149 218.230 C 135.285 217.902,133.694 217.402,132.613 217.118 C 129.602 216.329,129.151 216.075,126.624 213.749 C 124.406 211.708,123.780 210.747,121.266 205.522 L 120.236 203.382 120.236 187.494 L 120.236 171.606 122.190 167.630 C 126.517 158.827,135.014 154.389,143.702 156.394 M113.429 251.872 C 116.045 252.475,119.770 254.872,120.962 256.718 C 121.542 257.615,122.570 258.944,123.247 259.671 C 123.924 260.397,124.788 261.679,125.167 262.519 C 125.546 263.360,125.999 264.047,126.173 264.047 C 126.347 264.047,126.970 264.887,127.557 265.914 C 128.144 266.940,129.136 268.310,129.761 268.959 C 130.387 269.607,132.974 272.304,135.511 274.951 C 138.048 277.598,140.301 279.764,140.518 279.764 C 140.735 279.764,141.285 280.268,141.740 280.883 C 142.195 281.498,143.192 282.298,143.956 282.660 C 144.720 283.023,145.840 283.732,146.445 284.237 C 147.049 284.742,148.116 285.448,148.816 285.807 C 149.515 286.165,150.698 286.995,151.445 287.650 C 152.191 288.305,153.870 289.260,155.175 289.772 C 156.480 290.283,158.071 291.074,158.709 291.528 C 159.742 292.264,164.160 293.910,165.102 293.910 C 165.302 293.910,166.296 294.290,167.310 294.755 C 169.370 295.699,170.277 295.945,175.639 297.015 C 177.692 297.426,180.521 298.158,181.925 298.643 C 184.423 299.506,185.012 299.532,208.644 299.822 C 235.825 300.155,234.823 300.043,238.214 303.148 C 243.970 308.421,244.316 316.901,238.983 322.011 C 237.973 322.979,236.940 323.772,236.689 323.772 C 236.439 323.772,236.137 324.024,236.018 324.333 C 235.900 324.641,234.953 325.304,233.913 325.806 L 232.024 326.719 206.876 326.719 C 179.928 326.719,177.585 326.569,173.084 324.553 C 172.220 324.166,170.098 323.642,168.369 323.388 C 164.513 322.822,161.292 321.950,159.713 321.046 C 159.059 320.671,157.998 320.241,157.356 320.089 C 154.413 319.396,149.705 317.798,149.705 317.492 C 149.705 317.306,149.042 316.939,148.232 316.676 C 146.080 315.979,143.026 314.386,143.026 313.961 C 143.026 313.583,139.740 311.987,138.948 311.980 C 138.705 311.978,137.733 311.362,136.788 310.610 C 135.842 309.858,134.118 308.778,132.957 308.210 C 131.795 307.642,130.845 307.038,130.845 306.867 C 130.845 306.697,130.048 306.091,129.074 305.520 C 128.100 304.949,127.023 304.055,126.681 303.533 C 126.339 303.012,125.677 302.466,125.210 302.320 C 124.744 302.174,123.631 301.328,122.737 300.438 C 121.844 299.549,120.606 298.435,119.987 297.963 C 118.349 296.715,114.757 293.201,113.033 291.159 C 110.638 288.322,108.747 286.104,107.226 284.349 C 105.722 282.612,104.397 280.691,102.161 277.005 C 101.405 275.758,100.466 274.385,100.075 273.953 C 98.027 271.691,97.197 264.151,98.545 260.063 C 100.415 254.396,107.492 250.501,113.429 251.872 " stroke="none" fill="#f8c83b" fill-rule="evenodd"></path><path id="path2" d="M267.387 145.819 C 263.594 146.191,259.673 146.914,259.136 147.339 C 258.919 147.510,258.150 147.777,257.426 147.932 C 255.774 148.285,251.966 150.012,251.627 150.561 C 251.487 150.788,250.611 151.310,249.682 151.721 C 246.514 153.122,239.107 159.800,237.399 162.796 C 237.036 163.433,236.525 164.325,236.264 164.779 C 236.003 165.234,235.530 165.795,235.213 166.027 C 234.606 166.471,233.236 169.273,231.859 172.888 C 230.017 177.724,228.901 188.820,229.832 193.048 C 230.032 193.954,230.406 196.022,230.664 197.642 C 230.922 199.263,231.264 200.766,231.424 200.982 C 231.584 201.198,232.206 202.701,232.807 204.322 C 233.407 205.943,234.361 207.885,234.926 208.638 C 235.491 209.391,236.450 210.785,237.058 211.736 C 237.666 212.687,238.374 213.691,238.630 213.967 C 245.332 221.176,252.336 225.945,257.927 227.106 C 259.069 227.343,260.957 227.921,262.123 228.392 C 265.557 229.776,275.929 229.678,280.550 228.217 C 282.387 227.637,284.457 227.050,285.151 226.913 C 286.580 226.630,290.481 224.663,294.695 222.098 C 297.199 220.575,303.524 214.382,305.115 211.897 C 305.975 210.552,306.812 209.447,306.974 209.441 C 307.137 209.435,307.269 209.218,307.269 208.958 C 307.269 208.698,308.132 206.709,309.187 204.538 C 310.241 202.366,311.288 199.617,311.512 198.428 C 314.208 184.123,312.373 173.767,305.282 163.261 C 302.503 159.144,295.982 153.179,292.794 151.839 C 292.072 151.536,290.974 150.861,290.354 150.338 C 288.464 148.748,281.969 146.691,277.156 146.159 C 271.402 145.523,270.659 145.497,267.387 145.819 " stroke="none" fill="#add1e6" fill-rule="evenodd"></path><path id="path3" d="M262.279 122.387 C 252.333 124.508,251.778 124.656,245.580 126.839 C 243.574 127.545,240.816 128.920,239.873 129.682 C 239.652 129.861,238.414 130.561,237.123 131.238 C 235.831 131.916,234.332 132.876,233.792 133.373 C 233.251 133.870,232.526 134.432,232.179 134.623 C 228.480 136.661,218.684 146.942,216.209 151.383 C 215.724 152.255,214.923 153.516,214.430 154.185 C 212.998 156.129,210.129 162.370,209.445 165.029 C 209.195 166.002,208.381 168.586,207.637 170.771 C 205.087 178.260,204.730 197.768,207.057 202.554 C 207.525 203.518,208.803 207.433,209.430 209.823 C 209.685 210.796,210.130 212.122,210.418 212.770 C 212.712 217.927,213.825 220.236,214.105 220.417 C 214.285 220.533,215.014 221.690,215.725 222.986 C 216.437 224.283,217.219 225.521,217.465 225.737 C 217.710 225.953,218.897 227.367,220.102 228.880 C 222.334 231.680,226.749 236.161,228.880 237.789 C 229.528 238.284,230.121 238.835,230.197 239.012 C 230.377 239.433,237.933 244.401,238.392 244.401 C 238.586 244.401,239.809 245.093,241.111 245.939 C 242.412 246.785,244.260 247.686,245.216 247.942 C 246.172 248.198,247.750 248.762,248.723 249.196 C 253.755 251.441,253.205 251.282,258.947 252.155 C 267.856 253.511,286.412 252.679,290.263 250.752 C 292.882 249.441,295.457 248.343,296.464 248.108 C 298.017 247.746,300.875 246.464,301.161 246.002 C 301.285 245.801,302.712 244.972,304.332 244.161 C 305.952 243.350,307.568 242.364,307.923 241.972 C 308.279 241.579,308.791 241.257,309.061 241.257 C 310.183 241.257,319.925 231.938,322.820 228.094 C 323.634 227.014,324.516 225.953,324.779 225.737 C 325.042 225.521,325.830 224.283,326.530 222.986 C 327.229 221.690,328.045 220.350,328.341 220.008 C 328.638 219.667,328.880 219.223,328.880 219.020 C 328.880 218.432,330.434 215.696,331.633 214.172 C 332.240 213.401,333.157 211.580,333.671 210.125 L 334.607 207.480 335.182 209.339 C 335.673 210.928,335.756 218.208,335.756 259.407 C 335.756 285.921,335.904 307.228,336.085 306.754 C 336.266 306.281,336.354 278.487,336.281 244.990 L 336.149 184.086 337.023 182.861 C 338.343 181.011,342.607 180.724,344.381 182.366 C 344.858 182.808,345.383 182.810,345.383 182.371 C 345.383 181.978,341.586 180.532,339.317 180.061 C 337.442 179.671,336.689 178.500,335.815 174.614 C 335.480 173.124,334.735 170.580,334.159 168.959 C 333.584 167.338,332.864 165.062,332.561 163.901 C 332.257 162.740,331.677 161.324,331.272 160.755 C 330.867 160.186,329.925 158.484,329.180 156.972 C 325.983 150.489,323.765 147.469,317.676 141.309 C 313.649 137.236,311.490 135.382,309.673 134.435 C 309.107 134.140,308.379 133.575,308.055 133.180 C 307.731 132.784,306.435 131.922,305.175 131.264 C 303.916 130.606,302.413 129.749,301.835 129.360 C 298.779 127.295,292.868 125.186,286.051 123.727 C 283.998 123.288,281.169 122.683,279.764 122.382 C 276.527 121.690,265.533 121.693,262.279 122.387 M277.156 146.159 C 281.969 146.691,288.464 148.748,290.354 150.338 C 290.974 150.861,292.072 151.536,292.794 151.839 C 295.982 153.179,302.503 159.144,305.282 163.261 C 312.373 173.767,314.208 184.123,311.512 198.428 C 311.288 199.617,310.241 202.366,309.187 204.538 C 308.132 206.709,307.269 208.698,307.269 208.958 C 307.269 209.218,307.137 209.435,306.974 209.441 C 306.812 209.447,305.975 210.552,305.115 211.897 C 303.524 214.382,297.199 220.575,294.695 222.098 C 290.481 224.663,286.580 226.630,285.151 226.913 C 284.457 227.050,282.387 227.637,280.550 228.217 C 275.929 229.678,265.557 229.776,262.123 228.392 C 260.957 227.921,259.069 227.343,257.927 227.106 C 252.336 225.945,245.332 221.176,238.630 213.967 C 238.374 213.691,237.666 212.687,237.058 211.736 C 236.450 210.785,235.491 209.391,234.926 208.638 C 234.361 207.885,233.407 205.943,232.807 204.322 C 232.206 202.701,231.584 201.198,231.424 200.982 C 231.264 200.766,230.922 199.263,230.664 197.642 C 230.406 196.022,230.032 193.954,229.832 193.048 C 228.901 188.820,230.017 177.724,231.859 172.888 C 233.236 169.273,234.606 166.471,235.213 166.027 C 235.530 165.795,236.003 165.234,236.264 164.779 C 236.525 164.325,237.036 163.433,237.399 162.796 C 239.107 159.800,246.514 153.122,249.682 151.721 C 250.611 151.310,251.487 150.788,251.627 150.561 C 251.966 150.012,255.774 148.285,257.426 147.932 C 258.150 147.777,258.919 147.510,259.136 147.339 C 260.086 146.588,269.186 145.396,272.102 145.642 C 272.967 145.714,275.241 145.947,277.156 146.159 M346.955 183.340 C 353.675 186.102,359.688 193.679,360.697 200.658 C 360.911 202.142,361.107 213.521,361.135 226.130 C 361.163 238.664,361.324 249.980,361.493 251.277 C 361.661 252.574,361.719 242.318,361.621 228.487 C 361.403 197.666,360.933 194.169,356.467 190.092 C 355.882 189.558,355.035 188.695,354.585 188.175 C 354.135 187.655,353.100 186.699,352.286 186.051 C 351.471 185.403,350.601 184.683,350.353 184.451 C 349.920 184.048,346.269 182.677,345.804 182.743 C 345.681 182.761,346.198 183.030,346.955 183.340 " stroke="none" fill="#777774" fill-rule="evenodd"></path><path id="path4" d="M234.394 13.664 C 234.278 13.968,234.282 14.377,234.403 14.574 C 234.525 14.770,234.437 14.931,234.208 14.931 C 233.979 14.931,233.792 15.196,233.792 15.521 C 233.792 15.920,234.204 16.116,235.069 16.129 C 236.984 16.157,240.556 16.470,241.509 16.692 C 242.236 16.863,243.081 18.453,242.904 19.319 C 242.784 19.909,246.744 20.172,254.496 20.090 C 259.252 20.040,259.285 20.033,259.081 19.155 C 258.968 18.669,258.861 18.050,258.842 17.780 C 258.823 17.510,258.721 17.376,258.615 17.482 C 258.509 17.588,258.215 17.503,257.963 17.294 C 257.561 16.960,252.354 16.035,251.569 16.158 C 249.725 16.445,243.631 16.027,243.713 15.619 C 243.767 15.349,243.590 15.172,243.320 15.226 C 243.050 15.280,242.873 15.103,242.927 14.833 C 242.981 14.563,242.672 14.335,242.239 14.327 C 241.807 14.319,241.188 14.147,240.864 13.944 C 240.540 13.741,239.745 13.536,239.096 13.490 C 238.448 13.443,237.172 13.338,236.262 13.258 C 235.097 13.155,234.543 13.275,234.394 13.664 M161.309 16.929 C 161.033 17.637,159.967 17.765,159.224 17.179 C 158.949 16.962,158.610 16.897,158.471 17.036 C 158.332 17.175,158.425 17.289,158.677 17.289 C 158.929 17.289,159.136 17.476,159.136 17.705 C 159.136 17.934,158.929 17.993,158.676 17.837 C 158.374 17.650,158.296 17.761,158.449 18.158 C 158.644 18.669,158.455 18.714,157.238 18.444 C 155.881 18.142,155.842 18.160,156.582 18.737 C 157.356 19.342,157.354 19.349,156.483 19.143 C 155.996 19.028,155.688 19.078,155.797 19.255 C 156.235 19.965,165.109 19.718,164.711 19.008 C 164.510 18.649,164.442 17.983,164.560 17.528 C 164.739 16.830,164.680 16.776,164.185 17.181 C 163.720 17.562,163.494 17.562,163.111 17.181 C 162.726 16.800,162.685 16.863,162.910 17.485 C 163.141 18.121,163.038 18.083,162.373 17.289 C 161.687 16.468,161.512 16.409,161.309 16.929 M261.002 19.916 C 260.300 20.011,259.711 20.210,259.695 20.359 C 259.355 23.389,259.445 23.488,262.672 23.632 C 266.742 23.813,269.542 23.219,269.457 22.191 C 269.416 21.687,269.242 21.361,269.072 21.466 C 268.902 21.571,268.762 21.363,268.762 21.003 C 268.762 20.606,268.548 20.431,268.218 20.557 C 267.919 20.672,267.344 20.554,266.941 20.294 C 266.181 19.805,263.219 19.616,261.002 19.916 M148.382 20.315 C 148.230 20.467,147.505 20.550,146.770 20.501 C 145.949 20.446,145.235 20.647,144.917 21.025 C 144.633 21.362,144.180 21.885,143.910 22.186 C 143.639 22.487,143.418 22.835,143.418 22.958 C 143.418 23.266,149.120 23.244,149.430 22.935 C 149.820 22.544,148.928 21.167,148.468 21.451 C 148.205 21.613,148.217 21.403,148.501 20.873 C 148.948 20.037,148.897 19.799,148.382 20.315 M272.836 23.753 C 271.207 24.896,271.419 26.591,273.255 27.103 C 275.735 27.796,278.760 27.448,278.760 26.471 C 278.760 24.199,274.794 22.380,272.836 23.753 M135.560 24.397 C 135.560 24.619,135.339 24.674,135.069 24.518 C 134.799 24.363,134.712 24.383,134.876 24.564 C 135.040 24.745,134.788 25.304,134.316 25.806 L 133.458 26.719 135.337 26.719 C 136.889 26.719,137.174 26.611,136.977 26.098 C 136.846 25.756,136.739 25.244,136.739 24.961 C 136.739 24.677,136.473 24.344,136.149 24.219 C 135.825 24.095,135.560 24.175,135.560 24.397 M279.144 27.104 C 278.923 27.324,278.815 28.117,278.902 28.867 C 279.099 30.549,279.719 30.800,283.759 30.825 C 287.138 30.847,287.217 30.886,287.585 32.691 L 287.850 33.988 291.462 34.101 C 294.592 34.199,295.067 34.304,295.019 34.887 C 294.798 37.593,294.911 37.721,297.544 37.727 C 300.426 37.734,300.824 37.926,301.208 39.493 C 301.583 41.021,301.971 41.244,304.269 41.251 L 306.180 41.257 305.996 40.008 L 305.813 38.758 306.719 39.811 C 307.716 40.971,308.146 41.166,307.817 40.308 C 307.474 39.416,304.621 37.623,303.543 37.623 C 302.905 37.623,302.543 37.396,302.523 36.984 C 302.503 36.577,302.420 36.524,302.294 36.837 C 302.185 37.107,301.923 37.328,301.712 37.328 C 301.501 37.328,301.445 37.140,301.588 36.909 C 301.730 36.679,301.520 36.223,301.120 35.898 C 300.720 35.572,300.658 35.441,300.982 35.606 C 301.494 35.867,301.499 35.817,301.022 35.229 C 300.719 34.856,300.277 34.623,300.039 34.710 C 299.802 34.797,299.047 34.641,298.362 34.364 C 297.677 34.086,297.028 33.948,296.918 34.058 C 296.512 34.464,295.134 33.738,295.332 33.222 C 295.443 32.931,295.354 32.580,295.132 32.444 C 294.911 32.307,294.827 31.891,294.946 31.520 C 295.130 30.947,295.099 30.934,294.739 31.434 C 294.375 31.940,294.167 31.777,294.226 31.034 C 294.235 30.922,293.239 30.780,292.013 30.719 C 288.365 30.538,288.204 30.477,288.286 29.325 C 288.327 28.756,288.184 28.291,287.968 28.291 C 287.753 28.291,287.703 28.495,287.857 28.744 C 288.035 29.032,287.964 29.091,287.664 28.906 C 287.299 28.680,287.304 28.466,287.689 27.961 C 287.962 27.602,288.036 27.435,287.853 27.589 C 287.669 27.744,287.211 27.705,286.834 27.503 C 285.802 26.951,279.618 26.630,279.144 27.104 M126.723 28.536 C 126.352 29.102,126.243 29.446,126.482 29.298 C 126.720 29.151,126.916 29.135,126.916 29.263 C 126.916 29.390,126.518 29.655,126.031 29.850 C 125.349 30.125,125.672 30.211,127.453 30.230 C 129.656 30.254,129.747 30.216,129.521 29.371 C 129.390 28.885,129.281 28.266,129.278 27.996 C 129.268 27.076,127.425 27.466,126.723 28.536 M188.998 37.754 C 186.081 37.926,182.191 38.272,180.354 38.522 C 174.180 39.363,169.553 40.161,168.931 40.490 C 168.591 40.670,167.088 41.024,165.591 41.276 C 162.303 41.830,156.778 43.544,156.778 44.009 C 156.778 44.194,155.761 44.556,154.519 44.815 C 150.737 45.602,147.017 46.753,146.463 47.306 C 146.174 47.595,144.620 48.229,143.009 48.716 C 141.397 49.202,139.018 50.090,137.721 50.688 C 136.424 51.286,134.258 52.270,132.908 52.875 C 131.557 53.480,130.452 54.129,130.452 54.316 C 130.452 54.504,129.789 54.924,128.978 55.251 C 128.168 55.578,126.948 56.099,126.267 56.410 C 125.586 56.720,124.862 56.974,124.658 56.974 C 124.454 56.974,123.977 57.316,123.599 57.735 C 123.221 58.153,121.646 59.125,120.100 59.895 C 116.256 61.809,113.354 63.653,112.163 64.937 C 111.615 65.528,110.945 66.012,110.673 66.012 C 110.402 66.012,109.834 66.278,109.412 66.602 C 108.487 67.314,106.456 68.750,104.322 70.202 C 103.458 70.790,102.574 71.462,102.358 71.696 C 102.141 71.929,101.036 72.794,99.902 73.618 C 98.767 74.442,97.839 75.271,97.839 75.461 C 97.839 75.651,97.213 76.232,96.449 76.751 C 92.692 79.304,78.968 93.003,76.898 96.267 C 76.511 96.878,75.759 97.663,75.227 98.011 C 74.696 98.360,73.813 99.353,73.266 100.220 C 72.719 101.086,71.999 102.098,71.665 102.469 C 70.121 104.185,66.628 109.175,66.109 110.406 C 65.791 111.159,65.191 112.014,64.774 112.305 C 64.358 112.597,63.481 113.750,62.827 114.866 C 62.173 115.982,61.121 117.741,60.489 118.774 C 59.858 119.807,59.236 121.072,59.107 121.586 C 58.978 122.099,58.446 122.920,57.924 123.410 C 57.402 123.901,56.974 124.465,56.974 124.665 C 56.974 124.865,56.720 125.586,56.410 126.267 C 56.099 126.948,55.578 128.168,55.251 128.978 C 54.924 129.789,54.504 130.452,54.316 130.452 C 54.129 130.452,53.480 131.557,52.875 132.908 C 52.270 134.258,51.265 136.424,50.642 137.721 C 50.019 139.018,49.509 140.378,49.509 140.743 C 49.509 141.108,49.332 141.517,49.116 141.650 C 48.900 141.784,48.723 142.300,48.723 142.797 C 48.723 143.294,48.214 144.655,47.591 145.821 C 46.509 147.849,45.760 150.215,44.774 154.715 C 44.526 155.850,44.176 156.778,43.998 156.778 C 43.582 156.778,41.755 162.405,41.436 164.671 C 41.301 165.625,40.856 167.554,40.447 168.959 C 39.663 171.649,38.777 177.530,38.021 185.069 C 37.423 191.027,37.426 220.017,38.025 225.933 C 38.636 231.971,39.538 238.319,40.093 240.479 C 40.341 241.447,40.856 243.654,41.237 245.383 C 42.314 250.262,42.828 251.951,43.686 253.429 C 44.122 254.180,44.718 255.859,45.011 257.161 C 45.962 261.391,46.230 262.252,47.149 264.047 C 47.646 265.020,48.557 267.367,49.171 269.263 C 49.786 271.159,50.544 273.104,50.855 273.585 C 51.167 274.066,51.794 275.461,52.249 276.684 C 52.703 277.907,53.599 279.567,54.239 280.373 C 54.879 281.178,55.403 282.001,55.403 282.201 C 55.403 282.855,57.380 286.905,58.003 287.528 C 58.337 287.863,59.135 289.281,59.776 290.681 C 60.417 292.080,61.375 293.794,61.905 294.489 C 62.435 295.184,62.868 295.929,62.868 296.146 C 62.868 296.362,63.452 297.141,64.165 297.877 C 64.878 298.612,66.068 300.319,66.809 301.670 C 67.551 303.021,68.288 304.126,68.448 304.126 C 68.608 304.126,69.337 305.054,70.068 306.189 C 70.799 307.323,71.777 308.588,72.241 309.000 C 72.705 309.412,73.085 309.942,73.086 310.179 C 73.089 310.705,75.347 313.163,75.828 313.163 C 76.019 313.163,76.276 313.483,76.401 313.874 C 76.525 314.265,77.508 315.547,78.585 316.723 C 79.663 317.899,81.735 320.187,83.190 321.807 C 84.646 323.428,87.278 326.056,89.039 327.646 C 90.801 329.237,93.173 331.403,94.310 332.460 C 95.448 333.517,96.596 334.381,96.862 334.381 C 97.127 334.381,97.759 334.985,98.264 335.723 C 98.770 336.461,99.721 337.347,100.378 337.692 C 101.498 338.280,103.846 339.985,106.090 341.840 C 107.621 343.105,109.937 344.597,110.370 344.597 C 110.585 344.597,111.435 345.226,112.257 345.995 C 113.080 346.764,114.371 347.742,115.128 348.169 C 115.884 348.595,117.310 349.445,118.296 350.056 C 119.282 350.667,120.740 351.383,121.537 351.646 C 122.334 351.909,122.986 352.284,122.986 352.481 C 122.986 352.947,127.143 355.030,128.782 355.385 C 129.484 355.537,130.059 355.822,130.059 356.018 C 130.059 356.524,132.721 358.135,134.546 358.735 C 135.392 359.013,136.630 359.552,137.296 359.934 C 137.962 360.315,139.745 361.010,141.257 361.477 C 142.770 361.945,144.657 362.667,145.450 363.083 C 147.662 364.241,150.814 365.292,153.635 365.809 C 155.039 366.067,156.454 366.495,156.778 366.759 C 157.901 367.674,160.528 368.585,164.244 369.347 C 166.297 369.768,169.568 370.470,171.513 370.907 C 185.221 373.988,216.062 374.603,232.699 372.128 C 237.551 371.407,242.078 370.516,242.743 370.153 C 243.114 369.950,245.095 369.493,247.144 369.139 C 249.583 368.716,251.753 368.046,253.430 367.197 C 254.839 366.483,256.788 365.784,257.760 365.642 C 260.462 365.248,265.226 363.560,265.226 362.997 C 265.226 362.849,266.206 362.509,267.405 362.241 C 268.603 361.972,269.675 361.606,269.786 361.427 C 269.897 361.247,270.301 361.100,270.684 361.100 C 271.066 361.100,272.249 360.658,273.313 360.119 C 274.376 359.579,275.864 358.933,276.621 358.683 C 278.294 358.131,280.943 356.505,280.943 356.030 C 280.943 355.840,281.426 355.563,282.017 355.415 C 283.544 355.032,287.005 353.408,287.659 352.768 C 287.963 352.471,289.583 351.581,291.257 350.790 C 292.932 349.998,294.303 349.179,294.303 348.969 C 294.303 348.759,294.879 348.397,295.583 348.165 C 296.756 347.778,298.744 346.262,299.076 345.502 C 299.152 345.329,300.096 344.745,301.173 344.204 C 302.251 343.664,303.666 342.768,304.317 342.214 C 304.968 341.659,306.123 340.830,306.883 340.372 C 307.643 339.913,308.691 339.085,309.211 338.531 C 309.731 337.978,310.337 337.525,310.558 337.525 C 311.151 337.525,313.163 335.495,313.163 334.897 C 313.163 334.613,313.419 334.381,313.732 334.381 C 315.200 334.381,334.381 315.583,334.381 314.145 C 334.381 313.855,334.979 313.420,335.709 313.179 C 336.439 312.938,337.351 312.394,337.734 311.969 C 338.118 311.545,338.650 311.198,338.916 311.198 C 340.934 311.198,340.855 313.197,340.975 258.546 C 341.082 210.026,340.949 201.917,339.890 192.534 C 339.520 189.257,340.437 185.533,341.552 185.787 C 341.714 185.824,342.540 185.855,343.386 185.855 C 344.722 185.855,345.039 186.037,345.776 187.231 C 346.244 187.987,347.056 188.714,347.581 188.846 C 348.106 188.978,348.913 189.616,349.375 190.265 C 349.837 190.914,350.776 191.679,351.463 191.966 C 352.404 192.359,352.827 192.877,353.187 194.080 C 353.511 195.159,354.025 195.860,354.782 196.251 C 356.463 197.120,356.451 196.908,356.748 231.434 C 356.899 249.047,357.056 263.494,357.097 263.538 C 357.138 263.582,357.611 264.059,358.150 264.597 L 359.128 265.576 361.260 264.517 C 363.628 263.341,364.623 261.724,365.459 257.693 C 365.698 256.542,366.294 254.892,366.783 254.028 C 367.840 252.162,369.208 247.739,369.579 244.990 C 369.724 243.910,369.995 242.834,370.180 242.601 C 370.365 242.367,370.792 240.422,371.128 238.278 C 371.465 236.135,371.913 233.395,372.124 232.190 C 373.897 222.068,373.902 189.265,372.132 178.585 C 370.275 167.388,368.024 158.193,366.792 156.778 C 366.509 156.454,366.067 155.039,365.809 153.635 C 365.292 150.814,364.241 147.662,363.083 145.450 C 362.667 144.657,361.940 142.770,361.467 141.257 C 360.994 139.745,360.187 137.713,359.675 136.742 C 359.162 135.771,358.743 134.833,358.743 134.657 C 358.743 133.872,357.099 130.839,356.413 130.359 C 355.996 130.066,355.528 129.305,355.374 128.666 C 354.983 127.049,352.913 122.986,352.481 122.986 C 352.284 122.986,351.909 122.334,351.646 121.537 C 351.383 120.740,350.667 119.282,350.056 118.296 C 349.445 117.310,348.595 115.884,348.169 115.128 C 347.742 114.371,346.764 113.080,345.995 112.257 C 345.226 111.435,344.597 110.585,344.597 110.370 C 344.597 109.937,343.105 107.621,341.840 106.090 C 339.982 103.842,338.280 101.497,337.689 100.372 C 337.343 99.712,336.533 98.828,335.889 98.407 C 335.245 97.987,334.439 97.112,334.097 96.464 C 333.755 95.815,332.927 94.735,332.258 94.064 C 331.589 93.392,329.715 91.375,328.094 89.582 C 324.467 85.567,325.152 86.229,316.193 78.094 C 315.300 77.284,314.348 76.621,314.077 76.621 C 313.806 76.621,313.381 76.242,313.133 75.778 C 312.593 74.769,310.777 73.114,310.191 73.097 C 309.962 73.090,309.266 72.554,308.644 71.906 C 308.023 71.257,307.317 70.727,307.076 70.727 C 306.834 70.727,305.939 70.087,305.087 69.305 C 304.234 68.523,302.564 67.367,301.375 66.737 C 300.187 66.107,299.037 65.361,298.821 65.079 C 298.113 64.154,292.985 60.831,290.535 59.709 C 289.215 59.105,287.863 58.337,287.528 58.003 C 286.814 57.288,282.813 55.403,282.011 55.403 C 281.707 55.403,281.121 55.030,280.709 54.574 C 280.298 54.118,279.165 53.392,278.193 52.961 C 277.220 52.530,275.363 51.677,274.067 51.066 C 272.770 50.454,270.472 49.577,268.959 49.116 C 267.446 48.654,265.413 47.868,264.440 47.367 C 262.620 46.430,259.529 45.472,256.790 44.997 C 255.932 44.848,254.518 44.313,253.647 43.810 C 250.867 42.201,240.777 39.925,230.255 38.534 C 221.599 37.388,201.618 37.011,188.998 37.754 M107.000 38.138 C 106.158 38.456,105.305 39.618,105.305 40.446 C 105.305 40.676,106.012 40.864,106.876 40.864 C 108.405 40.864,108.448 40.828,108.448 39.512 C 108.448 37.943,108.182 37.691,107.000 38.138 M222.622 40.678 C 225.596 41.008,229.282 41.526,230.812 41.830 C 232.343 42.134,235.982 42.682,238.900 43.048 C 242.748 43.530,245.132 44.067,247.583 45.001 C 249.442 45.710,252.359 46.507,254.066 46.773 C 256.758 47.192,259.886 48.359,260.511 49.177 C 260.619 49.319,262.211 49.927,264.048 50.528 C 265.884 51.130,267.967 51.942,268.676 52.334 C 269.385 52.725,270.150 53.045,270.377 53.045 C 271.097 53.045,275.977 55.102,277.407 56.008 C 278.163 56.487,279.688 57.193,280.795 57.576 C 281.902 57.959,283.377 58.769,284.072 59.376 C 284.768 59.983,286.470 61.032,287.855 61.707 C 289.240 62.382,290.373 63.068,290.373 63.231 C 290.373 63.395,291.081 63.762,291.945 64.047 C 292.809 64.332,293.517 64.682,293.517 64.823 C 293.517 64.965,294.136 65.375,294.892 65.736 C 295.648 66.097,296.267 66.552,296.267 66.749 C 296.267 66.945,296.987 67.393,297.866 67.745 C 298.746 68.097,300.099 69.000,300.874 69.752 C 301.648 70.505,302.404 71.120,302.554 71.120 C 302.704 71.120,303.193 71.429,303.640 71.807 C 306.404 74.146,308.727 75.835,309.179 75.835 C 309.394 75.835,309.933 76.297,310.377 76.862 C 310.822 77.427,311.967 78.385,312.923 78.991 C 313.879 79.597,314.778 80.461,314.921 80.911 C 315.064 81.361,315.323 81.729,315.497 81.729 C 315.670 81.729,316.719 82.569,317.826 83.595 C 324.284 89.580,325.327 90.613,325.335 91.028 C 325.340 91.280,326.041 92.039,326.894 92.714 C 327.747 93.389,328.550 94.275,328.680 94.683 C 328.809 95.091,329.511 95.776,330.238 96.205 C 330.966 96.635,331.858 97.610,332.220 98.372 C 332.581 99.134,333.300 100.035,333.817 100.374 C 334.335 100.712,335.028 101.512,335.358 102.150 C 336.110 103.604,339.513 108.234,341.049 109.893 C 341.685 110.579,342.474 111.786,342.804 112.574 C 343.133 113.362,343.753 114.303,344.183 114.665 C 344.612 115.028,345.497 116.355,346.151 117.614 C 346.804 118.874,347.663 120.377,348.060 120.954 C 348.457 121.532,349.162 122.833,349.627 123.846 C 350.092 124.859,351.022 126.314,351.694 127.079 C 352.366 127.844,353.142 129.328,353.418 130.375 C 353.694 131.422,354.541 133.182,355.300 134.286 C 356.059 135.389,356.803 136.967,356.952 137.792 C 357.102 138.618,357.735 140.354,358.360 141.650 C 358.985 142.947,359.869 145.219,360.326 146.700 C 360.783 148.180,361.656 150.214,362.266 151.218 C 362.973 152.382,363.549 154.115,363.855 155.992 C 364.361 159.103,365.049 161.455,366.212 164.047 C 366.600 164.912,367.281 168.271,367.726 171.513 C 368.171 174.754,369.011 180.059,369.593 183.301 C 371.221 192.372,371.214 218.785,369.581 227.505 C 368.994 230.639,368.177 235.678,367.766 238.703 C 366.837 245.531,366.770 245.801,365.634 247.303 C 364.626 248.636,364.063 250.483,363.642 253.831 C 363.220 257.185,362.853 257.453,362.052 254.990 C 361.425 253.061,361.330 250.215,361.100 226.326 C 360.927 208.491,360.700 199.380,360.405 198.509 C 358.285 192.253,352.118 185.037,347.741 183.691 C 347.200 183.525,345.874 182.997,344.794 182.518 C 341.740 181.164,341.429 181.095,339.612 181.368 C 338.307 181.563,337.700 181.913,337.028 182.855 L 336.149 184.086 336.291 244.857 C 336.449 313.088,336.651 308.165,333.581 310.922 C 332.724 311.691,332.024 312.556,332.024 312.845 C 332.024 313.133,331.545 313.721,330.960 314.150 C 329.849 314.966,329.506 315.314,327.102 318.065 C 325.720 319.647,323.750 321.738,322.960 322.463 C 322.764 322.643,321.994 323.409,321.248 324.165 C 320.502 324.921,319.158 326.159,318.262 326.916 C 315.962 328.857,314.342 330.463,314.342 330.803 C 314.342 330.962,313.635 331.490,312.771 331.976 C 311.907 332.462,311.019 333.196,310.799 333.608 C 310.578 334.020,309.561 334.842,308.539 335.436 C 307.516 336.030,306.440 336.749,306.147 337.034 C 305.854 337.319,304.561 338.267,303.274 339.141 C 301.987 340.015,300.843 340.967,300.732 341.257 C 300.621 341.546,299.615 342.218,298.497 342.749 C 297.379 343.281,296.130 344.088,295.722 344.542 C 295.314 344.997,293.661 346.020,292.050 346.816 C 290.438 347.613,289.029 348.500,288.919 348.788 C 288.808 349.077,288.451 349.312,288.125 349.312 C 287.219 349.312,283.684 351.346,283.281 352.099 C 283.085 352.466,282.057 352.974,280.998 353.228 C 279.939 353.483,278.173 354.282,277.075 355.006 C 275.977 355.729,274.055 356.610,272.804 356.963 C 271.554 357.316,269.558 358.100,268.369 358.706 C 267.181 359.313,265.059 360.120,263.654 360.500 C 262.250 360.880,261.012 361.313,260.904 361.461 C 260.169 362.470,257.469 363.483,254.048 364.034 C 251.903 364.379,249.961 364.796,249.731 364.961 C 248.517 365.833,244.596 367.007,241.650 367.382 C 239.813 367.615,237.426 367.976,236.346 368.183 C 224.185 370.512,221.747 370.708,205.305 370.685 L 189.587 370.663 181.925 369.394 C 177.711 368.697,172.331 367.861,169.969 367.538 C 167.607 367.214,164.954 366.625,164.075 366.228 C 161.416 365.029,159.089 364.351,156.009 363.876 C 154.061 363.577,152.462 363.045,151.236 362.291 C 150.222 361.667,148.180 360.783,146.700 360.326 C 145.219 359.869,142.947 358.985,141.650 358.360 C 140.354 357.735,138.618 357.102,137.792 356.952 C 136.967 356.803,135.389 356.059,134.286 355.300 C 133.182 354.541,131.430 353.696,130.392 353.422 C 129.340 353.145,127.779 352.303,126.867 351.523 C 125.966 350.752,124.592 349.913,123.813 349.657 C 123.034 349.402,121.821 348.756,121.118 348.222 C 120.415 347.689,118.802 346.761,117.534 346.162 C 116.267 345.562,114.971 344.703,114.656 344.253 C 114.340 343.803,113.421 343.158,112.612 342.820 C 111.803 342.482,110.579 341.692,109.893 341.064 C 108.223 339.538,103.553 336.084,102.236 335.401 C 101.654 335.100,100.685 334.297,100.081 333.618 C 99.477 332.939,98.544 332.217,98.008 332.013 C 97.472 331.809,96.667 331.021,96.219 330.261 C 95.770 329.502,95.230 328.880,95.017 328.880 C 94.192 328.880,81.734 316.445,81.726 315.614 C 81.725 315.455,81.207 315.030,80.575 314.671 C 79.944 314.311,79.129 313.427,78.764 312.706 C 78.400 311.985,77.592 310.984,76.969 310.482 C 76.345 309.980,75.835 309.391,75.835 309.172 C 75.835 308.813,72.820 304.704,71.611 303.414 C 71.341 303.126,71.120 302.763,71.120 302.607 C 71.120 302.451,70.413 301.564,69.548 300.637 C 68.684 299.710,67.976 298.708,67.976 298.409 C 67.976 298.110,67.453 297.271,66.814 296.543 C 66.175 295.814,65.179 294.261,64.601 293.091 C 64.024 291.920,63.132 290.400,62.620 289.712 C 62.108 289.024,61.690 288.283,61.690 288.064 C 61.690 287.526,60.110 284.859,59.218 283.890 C 58.441 283.047,57.596 281.352,57.160 279.764 C 57.012 279.224,56.397 277.986,55.795 277.014 C 55.193 276.041,54.309 274.096,53.831 272.692 C 53.353 271.287,52.629 269.430,52.221 268.566 C 51.813 267.701,51.145 265.933,50.738 264.637 C 50.330 263.340,49.377 261.130,48.621 259.725 C 47.668 257.956,47.096 256.204,46.761 254.028 C 46.495 252.299,45.744 249.558,45.092 247.937 C 44.235 245.806,43.650 243.195,42.980 238.507 C 42.470 234.941,41.884 231.205,41.676 230.205 C 39.486 219.643,39.496 191.212,41.694 180.747 C 41.898 179.774,42.410 176.326,42.831 173.084 C 43.631 166.929,43.943 165.595,45.268 162.672 C 45.709 161.699,46.374 159.209,46.746 157.137 C 47.118 155.065,47.695 152.855,48.029 152.225 C 48.363 151.596,49.009 150.380,49.465 149.524 C 49.921 148.668,50.295 147.681,50.295 147.330 C 50.295 146.980,50.409 146.578,50.549 146.439 C 50.689 146.299,51.114 145.341,51.495 144.310 C 51.875 143.280,52.744 140.933,53.425 139.096 C 54.107 137.259,55.163 134.961,55.774 133.988 C 56.384 133.016,57.169 131.334,57.519 130.251 C 57.868 129.168,58.587 127.815,59.116 127.245 C 59.644 126.675,60.469 125.351,60.948 124.302 C 61.427 123.254,62.037 122.132,62.303 121.807 C 62.570 121.483,63.438 119.980,64.232 118.468 C 65.027 116.955,66.078 115.275,66.567 114.735 C 67.057 114.194,67.819 113.035,68.260 112.159 C 68.702 111.282,69.570 110.035,70.190 109.388 C 70.809 108.740,71.670 107.700,72.102 107.077 C 72.534 106.454,73.268 105.487,73.732 104.928 C 74.196 104.369,74.961 103.172,75.433 102.267 C 75.904 101.363,76.601 100.524,76.982 100.403 C 77.362 100.282,77.920 99.700,78.220 99.109 C 78.520 98.519,80.211 96.593,81.978 94.829 C 83.744 93.066,85.295 91.293,85.423 90.889 C 85.551 90.486,86.044 89.895,86.518 89.577 C 87.619 88.838,88.838 87.619,89.577 86.518 C 89.895 86.044,90.486 85.551,90.889 85.423 C 91.293 85.295,93.086 83.704,94.873 81.888 C 96.661 80.071,98.309 78.585,98.536 78.585 C 98.762 78.585,99.419 78.026,99.995 77.341 C 100.571 76.657,101.691 75.750,102.486 75.326 C 103.280 74.901,104.383 74.179,104.937 73.721 C 105.491 73.263,106.454 72.534,107.077 72.102 C 107.700 71.670,108.740 70.809,109.388 70.190 C 110.035 69.570,111.282 68.698,112.159 68.251 C 113.035 67.805,114.301 66.970,114.971 66.396 C 115.641 65.822,117.056 64.941,118.114 64.439 C 119.173 63.936,120.564 63.161,121.205 62.716 C 121.846 62.271,123.349 61.441,124.545 60.872 C 125.741 60.302,127.049 59.464,127.453 59.011 C 127.857 58.557,129.094 57.893,130.203 57.534 C 131.313 57.176,133.016 56.384,133.988 55.774 C 134.961 55.163,137.259 54.107,139.096 53.425 C 140.933 52.744,143.280 51.875,144.310 51.495 C 145.341 51.114,146.299 50.689,146.439 50.549 C 146.578 50.409,146.988 50.295,147.348 50.295 C 147.708 50.295,149.314 49.612,150.917 48.778 C 152.943 47.723,154.777 47.113,156.936 46.775 C 158.643 46.508,161.560 45.705,163.419 44.990 C 165.937 44.022,168.348 43.484,172.888 42.877 C 176.238 42.430,179.862 41.883,180.943 41.663 C 188.845 40.052,212.032 39.504,222.622 40.678 M309.303 41.957 C 308.613 43.334,309.344 44.598,310.826 44.589 C 311.863 44.583,312.168 44.423,312.127 43.906 C 312.097 43.534,312.218 43.320,312.394 43.429 C 312.571 43.538,312.844 43.421,313.000 43.168 C 313.167 42.898,313.115 42.812,312.875 42.961 C 312.425 43.239,311.482 42.323,311.791 41.909 C 311.897 41.767,311.878 41.727,311.747 41.822 C 311.617 41.916,311.090 41.833,310.576 41.638 C 309.849 41.361,309.566 41.432,309.303 41.957 M100.196 41.942 C 98.333 42.666,98.203 44.401,100.012 44.401 C 101.354 44.401,101.397 44.355,101.307 43.026 C 101.211 41.599,101.173 41.562,100.196 41.942 M313.163 46.390 L 313.163 47.937 314.761 47.937 C 316.237 47.937,316.339 47.869,316.090 47.053 C 315.316 44.513,313.163 44.025,313.163 46.390 M95.481 45.776 C 95.212 46.100,95.146 46.371,95.335 46.377 C 95.524 46.384,95.365 46.572,94.982 46.794 C 93.980 47.378,94.524 47.937,96.094 47.937 C 97.377 47.937,97.446 47.867,97.446 46.562 C 97.446 45.048,96.424 44.640,95.481 45.776 M320.367 49.214 C 319.476 50.635,319.782 51.473,321.191 51.473 L 322.567 51.473 321.755 50.098 C 320.846 48.557,320.798 48.527,320.367 49.214 M89.882 50.184 C 88.918 51.252,89.019 51.499,90.373 51.396 C 91.410 51.317,92.134 50.688,91.188 50.688 C 90.988 50.688,90.767 50.403,90.697 50.055 C 90.586 49.505,90.479 49.522,89.882 50.184 M84.976 53.347 C 83.770 54.819,83.849 55.010,85.658 55.010 C 86.946 55.010,87.230 54.873,87.230 54.256 C 87.230 52.099,86.304 51.726,84.976 53.347 M323.772 53.635 C 323.772 54.944,323.838 55.010,325.147 55.010 C 326.676 55.010,326.824 54.656,325.888 53.228 C 324.905 51.727,323.772 51.945,323.772 53.635 M82.316 56.121 C 82.422 56.227,82.157 56.561,81.726 56.863 C 80.538 57.695,80.738 58.546,82.122 58.546 C 83.196 58.546,83.301 58.430,83.301 57.236 C 83.301 56.334,83.117 55.927,82.711 55.927 C 82.387 55.927,82.209 56.014,82.316 56.121 M328.273 56.160 C 328.416 56.392,328.258 56.582,327.921 56.582 C 327.530 56.582,327.308 56.936,327.308 57.564 C 327.308 58.741,329.396 59.030,329.825 57.913 C 330.005 57.443,329.901 57.344,329.418 57.529 C 328.916 57.722,328.866 57.662,329.198 57.262 C 329.521 56.873,329.428 56.622,328.819 56.242 C 328.375 55.964,328.129 55.928,328.273 56.160 M78.389 60.118 C 78.523 60.334,78.246 60.511,77.775 60.511 C 77.052 60.511,76.995 60.604,77.414 61.109 C 77.829 61.610,77.805 61.667,77.266 61.460 C 76.907 61.322,76.621 61.406,76.621 61.648 C 76.621 61.893,77.305 62.083,78.193 62.083 C 79.705 62.083,79.764 62.034,79.758 60.806 C 79.754 59.836,79.660 59.671,79.371 60.118 C 79.117 60.511,78.988 60.544,78.984 60.216 C 78.981 59.946,78.791 59.725,78.562 59.725 C 78.333 59.725,78.255 59.902,78.389 60.118 M331.532 61.175 C 330.504 61.443,330.703 62.083,331.815 62.083 C 332.516 62.083,332.722 61.919,332.559 61.493 C 332.434 61.169,332.307 60.924,332.276 60.949 C 332.245 60.974,331.911 61.076,331.532 61.175 M65.054 72.273 C 64.201 73.163,64.007 73.656,64.202 74.434 C 64.367 75.092,64.293 75.442,63.989 75.442 C 63.733 75.442,63.656 75.574,63.817 75.736 C 63.979 75.898,64.384 75.677,64.718 75.245 C 65.314 74.472,65.321 74.474,65.115 75.344 C 65.000 75.831,65.067 76.130,65.263 76.009 C 65.459 75.888,65.619 75.192,65.619 74.462 C 65.619 73.733,65.791 72.682,66.002 72.128 C 66.487 70.852,66.403 70.864,65.054 72.273 M60.938 76.538 C 59.763 76.729,58.941 77.517,58.933 78.459 C 58.924 79.513,58.467 79.991,57.403 80.058 C 56.882 80.091,56.332 80.319,56.180 80.564 C 56.028 80.809,55.758 80.995,55.578 80.976 C 55.399 80.957,55.242 81.458,55.229 82.088 C 55.201 83.517,55.069 83.647,53.522 83.764 C 52.402 83.850,52.240 84.023,51.962 85.431 C 51.750 86.503,51.404 87.070,50.875 87.214 C 48.829 87.773,48.534 88.237,48.330 91.229 L 48.134 94.106 46.638 94.229 C 44.957 94.368,44.812 94.610,44.433 97.925 C 44.415 98.080,44.136 98.105,43.811 97.981 C 43.487 97.857,43.222 97.939,43.222 98.163 C 43.222 98.388,42.866 98.685,42.430 98.823 C 41.995 98.961,41.733 99.226,41.847 99.412 C 41.962 99.597,41.892 99.851,41.692 99.974 C 40.673 100.604,41.930 102.144,43.471 102.155 C 44.360 102.161,44.779 101.258,44.788 99.312 C 44.793 98.320,44.918 98.232,46.317 98.232 C 48.103 98.232,48.611 97.747,48.789 95.873 C 48.907 94.635,49.056 94.480,50.295 94.303 L 51.670 94.106 51.972 91.375 C 52.283 88.559,52.619 88.032,54.112 88.022 C 55.100 88.015,55.796 86.970,55.796 85.495 C 55.796 84.720,56.040 84.443,56.876 84.267 C 58.599 83.905,59.122 83.488,59.332 82.311 C 59.481 81.476,59.862 81.097,60.904 80.748 C 63.159 79.993,63.190 76.172,60.938 76.538 M355.599 85.867 C 355.599 86.643,355.798 86.837,356.595 86.837 C 357.449 86.837,357.535 86.731,357.196 86.097 C 356.542 84.877,355.599 84.741,355.599 85.867 M359.303 89.860 C 359.360 90.250,359.537 90.540,359.697 90.504 C 360.294 90.369,360.316 90.078,359.766 89.621 C 359.305 89.239,359.218 89.283,359.303 89.860 M366.285 99.705 C 366.402 101.523,366.435 101.568,367.583 101.445 C 369.140 101.278,370.042 100.191,369.061 99.665 C 368.681 99.461,368.053 98.967,367.666 98.567 C 366.528 97.388,366.156 97.695,366.285 99.705 M370.441 103.442 C 371.523 104.593,371.546 104.898,370.530 104.633 C 369.872 104.460,369.745 104.620,369.745 105.619 C 369.745 106.275,369.658 107.047,369.552 107.335 C 369.446 107.623,369.491 108.060,369.650 108.306 C 370.058 108.934,372.797 109.252,373.008 108.696 C 373.264 108.024,372.845 105.697,372.469 105.697 C 372.287 105.697,371.852 105.092,371.501 104.353 C 371.150 103.613,370.571 102.896,370.215 102.759 C 369.751 102.581,369.815 102.775,370.441 103.442 M38.333 105.785 C 37.071 107.586,37.510 109.234,39.251 109.234 C 40.861 109.234,41.257 108.807,41.257 107.073 C 41.257 104.830,39.533 104.071,38.333 105.785 M373.281 112.377 L 373.281 115.521 374.904 115.521 L 376.527 115.521 376.327 113.752 C 376.218 112.780,376.275 111.984,376.454 111.984 C 376.633 111.984,376.370 111.542,375.869 111.002 C 375.369 110.462,374.748 110.020,374.490 110.020 C 374.232 110.020,374.130 109.843,374.263 109.627 C 374.397 109.411,374.230 109.234,373.894 109.234 C 373.390 109.234,373.281 109.792,373.281 112.377 M35.939 110.428 C 35.514 110.897,35.211 111.351,35.265 111.436 C 35.319 111.522,35.231 111.581,35.069 111.568 C 34.702 111.539,34.276 113.000,34.224 114.463 C 34.186 115.523,34.250 115.561,35.855 115.445 L 37.525 115.324 37.581 113.083 C 37.654 110.195,37.044 109.207,35.939 110.428 M32.809 116.699 C 32.908 117.211,32.779 117.373,32.392 117.225 C 32.084 117.107,31.929 116.852,32.049 116.658 C 32.424 116.051,31.949 116.275,31.384 116.971 C 30.924 117.539,30.926 117.587,31.403 117.300 C 31.827 117.044,31.897 117.128,31.697 117.649 C 31.553 118.027,31.431 118.542,31.428 118.794 C 31.425 119.058,31.260 119.002,31.041 118.664 C 30.755 118.221,30.647 118.442,30.605 119.548 C 30.497 122.433,30.444 122.653,29.761 123.035 C 29.381 123.248,28.891 123.311,28.671 123.175 C 28.451 123.039,28.304 123.074,28.343 123.252 C 28.456 123.759,27.844 124.964,27.562 124.790 C 27.423 124.705,27.262 125.269,27.205 126.044 C 27.148 126.819,27.031 127.839,26.946 128.310 C 26.699 129.672,27.566 130.961,28.844 131.130 C 30.412 131.338,30.635 130.802,30.642 126.817 L 30.648 123.379 32.194 123.379 C 33.389 123.379,33.795 123.203,33.986 122.600 C 34.383 121.349,33.762 116.379,33.181 116.156 C 32.845 116.027,32.716 116.215,32.809 116.699 M376.848 118.982 L 376.817 122.248 378.291 122.126 C 379.742 122.006,379.765 121.979,379.786 120.313 C 379.812 118.374,378.659 116.119,377.809 116.445 C 377.508 116.561,377.175 116.444,377.070 116.186 C 376.965 115.928,376.865 117.187,376.848 118.982 M380.616 123.281 C 380.431 123.589,380.200 128.430,380.297 129.962 C 380.345 130.710,380.552 130.832,381.631 130.748 C 383.308 130.617,383.982 129.931,383.753 128.589 C 383.651 127.993,383.440 126.753,383.285 125.835 C 383.110 124.797,382.795 124.165,382.452 124.165 C 382.149 124.165,381.799 123.900,381.675 123.576 C 381.433 122.945,380.906 122.798,380.616 123.281 M383.817 134.830 C 383.624 136.857,383.895 137.216,385.503 137.063 C 387.724 136.850,387.481 134.287,385.177 133.626 C 383.983 133.284,383.963 133.301,383.817 134.830 M25.777 134.185 C 25.367 134.495,24.899 134.667,24.738 134.567 C 24.576 134.467,24.339 134.659,24.211 134.993 C 24.053 135.405,24.134 135.507,24.464 135.308 C 24.845 135.080,24.849 135.142,24.482 135.596 C 23.867 136.357,24.301 136.908,25.639 137.063 C 26.678 137.183,26.719 137.120,26.719 135.392 C 26.719 134.404,26.675 133.601,26.621 133.608 C 26.567 133.615,26.187 133.874,25.777 134.185 M21.960 144.858 C 20.627 145.214,20.140 147.741,21.405 147.741 C 21.698 147.741,22.028 147.962,22.137 148.232 C 22.289 148.610,22.342 148.604,22.366 148.209 C 22.383 147.926,22.574 147.804,22.790 147.937 C 23.030 148.085,23.183 147.483,23.183 146.389 C 23.183 145.403,23.050 144.618,22.888 144.643 C 22.726 144.668,22.309 144.765,21.960 144.858 M387.426 145.972 C 387.426 147.232,387.523 147.348,388.582 147.348 C 390.119 147.348,390.335 146.869,389.357 145.626 C 388.199 144.154,387.426 144.292,387.426 145.972 M135.632 156.412 C 129.918 157.537,125.227 161.452,122.190 167.630 L 120.236 171.606 120.236 187.494 L 120.236 203.382 121.266 205.522 C 123.780 210.747,124.406 211.708,126.624 213.749 C 129.151 216.075,129.602 216.329,132.613 217.118 C 133.694 217.402,135.285 217.902,136.149 218.230 C 138.159 218.992,141.599 218.994,143.615 218.233 C 144.479 217.908,146.276 217.324,147.608 216.938 C 148.940 216.551,150.291 215.985,150.610 215.681 C 155.545 210.975,156.407 209.986,157.033 208.316 C 157.411 207.308,157.842 206.395,157.991 206.287 C 159.374 205.286,159.667 171.416,158.311 169.334 C 157.966 168.803,157.454 167.670,157.173 166.815 C 154.965 160.079,143.972 154.771,135.632 156.412 M144.061 159.858 C 146.067 160.299,147.693 160.918,148.427 161.518 C 149.070 162.045,149.990 162.741,150.472 163.065 C 155.202 166.245,155.796 168.986,155.796 187.623 C 155.796 206.934,155.827 206.785,150.747 211.368 C 150.132 211.923,149.011 212.941,148.256 213.630 C 145.404 216.235,133.640 216.298,131.344 213.721 C 130.782 213.090,130.172 212.574,129.988 212.574 C 129.804 212.574,129.225 212.087,128.701 211.493 C 123.508 205.598,123.589 205.977,123.582 187.623 C 123.575 169.937,124.150 167.190,128.655 163.384 C 129.247 162.884,130.178 162.083,130.725 161.604 C 131.879 160.592,132.266 160.451,135.842 159.739 C 139.433 159.025,140.337 159.038,144.061 159.858 M108.251 251.739 C 104.235 252.630,99.720 256.502,98.545 260.063 C 97.197 264.151,98.027 271.691,100.075 273.953 C 100.466 274.385,101.405 275.758,102.161 277.005 C 104.397 280.691,105.722 282.612,107.226 284.349 C 108.747 286.104,110.638 288.322,113.033 291.159 C 114.757 293.201,118.349 296.715,119.987 297.963 C 120.606 298.435,121.844 299.549,122.737 300.438 C 123.631 301.328,124.744 302.174,125.210 302.320 C 125.677 302.466,126.339 303.012,126.681 303.533 C 127.023 304.055,128.100 304.949,129.074 305.520 C 130.048 306.091,130.845 306.697,130.845 306.867 C 130.845 307.038,131.795 307.642,132.957 308.210 C 134.118 308.778,135.842 309.858,136.788 310.610 C 137.733 311.362,138.705 311.978,138.948 311.980 C 139.740 311.987,143.026 313.583,143.026 313.961 C 143.026 314.386,146.080 315.979,148.232 316.676 C 149.042 316.939,149.705 317.306,149.705 317.492 C 149.705 317.798,154.413 319.396,157.356 320.089 C 157.998 320.241,159.059 320.671,159.713 321.046 C 161.292 321.950,164.513 322.822,168.369 323.388 C 170.098 323.642,172.220 324.166,173.084 324.553 C 177.585 326.569,179.928 326.719,206.876 326.719 L 232.024 326.719 233.913 325.806 C 234.953 325.304,235.900 324.641,236.018 324.333 C 236.137 324.024,236.439 323.772,236.689 323.772 C 236.940 323.772,237.973 322.979,238.983 322.011 C 244.316 316.901,243.970 308.421,238.214 303.148 C 234.823 300.043,235.825 300.155,208.644 299.822 C 185.012 299.532,184.423 299.506,181.925 298.643 C 180.521 298.158,177.692 297.426,175.639 297.015 C 170.277 295.945,169.370 295.699,167.310 294.755 C 166.296 294.290,165.302 293.910,165.102 293.910 C 164.160 293.910,159.742 292.264,158.709 291.528 C 158.071 291.074,156.480 290.283,155.175 289.772 C 153.870 289.260,152.191 288.305,151.445 287.650 C 150.698 286.995,149.515 286.165,148.816 285.807 C 148.116 285.448,147.049 284.742,146.445 284.237 C 145.840 283.732,144.720 283.023,143.956 282.660 C 143.192 282.298,142.195 281.498,141.740 280.883 C 141.285 280.268,140.735 279.764,140.518 279.764 C 140.301 279.764,138.048 277.598,135.511 274.951 C 132.974 272.304,130.387 269.607,129.761 268.959 C 129.136 268.310,128.144 266.940,127.557 265.914 C 126.970 264.887,126.347 264.047,126.173 264.047 C 125.999 264.047,125.546 263.360,125.167 262.519 C 124.788 261.679,123.924 260.397,123.247 259.671 C 122.570 258.944,121.542 257.615,120.962 256.718 C 118.727 253.256,112.467 250.804,108.251 251.739 M115.481 255.775 C 116.958 256.565,119.459 258.995,120.123 260.285 C 120.465 260.949,121.337 262.219,122.062 263.105 C 122.786 263.992,123.379 264.891,123.379 265.104 C 123.379 265.505,126.130 269.115,128.993 272.471 C 131.856 275.827,137.858 281.604,140.966 283.993 C 145.812 287.720,148.208 289.312,151.144 290.755 C 152.476 291.410,153.748 291.945,153.971 291.945 C 154.193 291.945,154.607 292.273,154.889 292.674 C 155.404 293.405,158.353 295.088,159.119 295.088 C 159.343 295.088,160.632 295.599,161.983 296.223 C 163.334 296.847,166.208 297.756,168.369 298.243 C 170.530 298.731,172.917 299.433,173.674 299.804 C 177.041 301.454,182.860 301.830,209.447 302.113 L 232.449 302.358 233.734 303.340 C 234.440 303.880,235.616 304.941,236.347 305.697 C 237.078 306.454,238.081 307.483,238.576 307.984 C 240.039 309.464,239.976 317.878,238.502 317.878 C 238.300 317.878,237.856 318.417,237.515 319.075 C 236.660 320.730,235.683 321.807,235.041 321.807 C 234.743 321.807,233.943 322.054,233.262 322.355 C 229.220 324.144,228.924 324.165,208.571 324.159 C 191.022 324.154,188.750 324.079,184.479 323.365 C 181.886 322.931,178.261 322.396,176.424 322.176 C 170.365 321.449,166.660 320.638,164.752 319.621 C 163.716 319.069,161.991 318.428,160.919 318.197 C 159.847 317.966,157.725 317.252,156.204 316.609 C 154.683 315.966,152.466 315.161,151.277 314.820 C 150.088 314.478,148.232 313.633,147.151 312.942 C 146.071 312.251,144.494 311.464,143.647 311.193 C 141.774 310.594,139.489 309.284,139.489 308.809 C 139.489 308.618,138.630 308.026,137.581 307.494 C 136.531 306.962,135.135 306.075,134.479 305.523 C 133.822 304.971,133.190 304.519,133.074 304.519 C 132.640 304.519,128.880 302.032,128.880 301.746 C 128.880 301.582,128.085 300.945,127.113 300.331 C 126.141 299.717,125.345 299.089,125.345 298.935 C 125.344 298.577,123.283 296.660,122.899 296.660 C 122.739 296.660,120.761 294.759,118.504 292.436 C 112.031 285.772,111.481 285.168,110.287 283.399 C 109.667 282.480,109.015 281.729,108.838 281.729 C 108.661 281.729,107.850 280.535,107.037 279.077 C 106.224 277.618,105.330 276.248,105.051 276.031 C 104.772 275.815,104.287 275.020,103.973 274.263 C 103.659 273.507,102.846 272.269,102.165 271.513 C 101.484 270.756,100.828 269.648,100.707 269.049 C 100.587 268.450,100.334 267.865,100.146 267.749 C 98.787 266.909,100.374 260.902,102.479 258.920 C 103.385 258.067,104.126 257.214,104.126 257.025 C 104.126 255.377,112.926 254.407,115.481 255.775 M161.886 391.945 C 161.886 392.905,161.952 392.927,164.833 392.927 C 167.714 392.927,167.780 392.905,167.780 391.945 C 167.780 390.985,167.714 390.963,164.833 390.963 C 161.952 390.963,161.886 390.985,161.886 391.945 M243.222 391.945 C 243.222 392.899,243.301 392.927,245.972 392.927 C 248.644 392.927,248.723 392.899,248.723 391.945 C 248.723 390.991,248.644 390.963,245.972 390.963 C 243.301 390.963,243.222 390.991,243.222 391.945 " stroke="none" fill="#75642f" fill-rule="evenodd"></path></g></svg>