<svg id="svg" version="1.1" xmlns="http://www.w3.org/2000/svg" xmlns:xlink="http://www.w3.org/1999/xlink" width="400" height="562.9629629629629" viewBox="0, 0, 400,562.9629629629629"><g id="svgg"><path id="path0" d="M156.340 41.155 C 153.271 41.492,152.555 42.223,152.219 45.360 L 151.950 47.876 145.311 48.138 C 141.660 48.282,137.269 48.400,135.555 48.400 C 130.593 48.400,130.016 48.909,130.005 53.300 L 130.000 55.600 123.700 55.640 C 115.069 55.694,115.480 55.513,115.039 59.461 L 114.678 62.693 111.679 62.946 C 110.029 63.086,107.217 63.200,105.429 63.200 C 101.652 63.200,100.400 63.789,100.400 65.567 C 100.400 66.184,100.286 67.523,100.146 68.544 L 99.891 70.400 97.119 70.400 C 93.017 70.400,92.800 70.599,92.800 74.358 L 92.800 77.489 90.700 77.741 C 89.545 77.880,88.021 77.995,87.314 77.997 C 85.613 78.001,85.200 78.856,85.200 82.374 L 85.200 85.200 82.029 85.200 C 79.730 85.200,78.690 85.367,78.252 85.805 C 77.919 86.138,77.114 86.517,76.463 86.647 C 74.895 86.961,72.400 89.054,72.400 90.055 C 72.400 91.913,70.882 93.562,68.402 94.400 C 66.557 95.023,65.026 96.750,64.522 98.776 C 64.382 99.339,64.032 99.980,63.745 100.200 C 63.405 100.460,63.184 101.788,63.111 104.000 L 63.000 107.400 59.819 107.518 C 55.728 107.670,55.600 107.794,55.600 111.596 L 55.600 114.695 52.614 114.886 C 48.575 115.146,48.401 115.338,48.398 119.549 C 48.396 121.447,48.281 124.467,48.141 126.260 L 47.888 129.520 44.727 129.664 C 40.691 129.847,40.814 129.595,40.806 137.700 L 40.800 144.400 37.876 144.400 C 33.536 144.400,33.656 144.191,33.343 152.272 L 33.077 159.143 30.149 159.418 C 25.988 159.808,26.221 159.067,26.073 172.383 L 25.946 183.844 24.369 184.819 C 23.502 185.355,22.692 186.110,22.569 186.497 C 22.447 186.884,22.178 187.200,21.973 187.200 C 21.768 187.200,21.600 187.474,21.600 187.809 C 21.600 188.143,21.155 188.620,20.612 188.868 C 18.622 189.774,18.602 190.089,18.657 220.616 C 18.721 255.681,18.582 254.731,23.717 255.372 L 25.951 255.651 26.076 265.965 C 26.223 278.166,26.022 277.600,30.204 277.600 L 33.110 277.600 33.368 287.100 C 33.716 299.914,33.743 299.982,38.451 299.994 L 40.703 300.000 40.888 306.100 C 41.139 314.354,41.412 314.800,46.200 314.800 C 48.139 314.800,48.400 315.348,48.400 319.407 C 48.400 321.918,48.532 322.000,52.571 322.000 L 55.477 322.000 55.748 327.998 C 56.120 336.252,56.472 336.791,61.500 336.798 L 63.200 336.800 63.200 339.938 C 63.200 344.010,63.578 344.400,67.531 344.400 L 70.400 344.400 70.400 347.226 C 70.400 351.435,70.559 351.600,74.614 351.600 L 78.000 351.600 78.000 354.920 C 78.000 359.062,78.132 359.200,82.080 359.200 L 85.200 359.200 85.200 361.774 C 85.200 366.198,85.383 366.400,89.390 366.400 L 92.800 366.400 92.800 369.720 C 92.800 373.862,92.932 374.000,96.880 374.000 L 100.000 374.000 100.000 376.574 C 100.000 380.998,100.183 381.200,104.190 381.200 L 107.600 381.200 107.600 387.800 C 107.600 395.906,107.651 396.000,112.000 396.000 L 114.800 396.000 114.817 453.300 C 114.827 484.815,114.987 511.387,115.173 512.349 C 115.603 514.575,115.977 514.786,119.500 514.794 L 122.400 514.800 122.400 517.927 C 122.400 523.494,123.456 527.777,124.943 528.241 C 125.414 528.388,125.905 528.670,126.033 528.868 C 126.161 529.067,128.714 529.340,131.707 529.475 L 137.149 529.721 137.423 532.276 C 137.877 536.517,137.983 536.575,145.565 536.742 L 152.000 536.884 152.000 539.753 C 152.000 543.904,152.446 544.400,156.181 544.400 L 159.117 544.400 159.401 547.609 C 159.624 550.127,159.843 550.902,160.420 551.211 C 160.891 551.463,174.087 551.568,197.078 551.502 L 233.000 551.400 233.115 547.915 L 233.231 544.430 236.915 544.315 L 240.600 544.200 240.715 540.526 L 240.829 536.851 247.830 536.726 C 255.952 536.580,255.585 536.780,255.594 532.500 L 255.600 529.600 261.350 529.600 C 270.149 529.600,270.400 529.456,270.400 524.398 L 270.400 522.116 273.268 521.876 C 277.590 521.513,277.378 522.095,277.530 510.186 L 277.661 500.000 280.630 500.000 C 282.343 500.000,283.600 499.831,283.600 499.600 C 283.600 499.380,283.851 499.200,284.157 499.200 C 285.181 499.200,285.200 498.169,285.200 443.411 L 285.200 388.887 288.187 388.737 C 291.931 388.548,292.103 388.361,292.319 384.254 L 292.496 380.890 294.527 380.621 C 298.393 380.108,299.112 379.171,299.826 373.715 C 300.079 371.787,300.202 371.595,301.464 371.179 C 302.214 370.931,303.135 370.250,303.509 369.664 C 303.883 369.079,304.417 368.362,304.695 368.071 C 304.973 367.781,305.200 367.286,305.200 366.971 C 305.200 366.603,305.627 366.400,306.400 366.400 L 307.600 366.400 307.600 362.849 L 307.600 359.297 313.837 359.130 C 320.734 358.944,321.569 358.597,321.591 355.900 C 321.596 355.295,321.780 354.800,322.000 354.800 C 322.246 354.800,322.400 352.805,322.400 349.616 L 322.400 344.431 325.900 344.316 L 329.400 344.200 329.515 340.500 L 329.630 336.800 332.782 336.800 C 337.316 336.800,337.200 336.901,337.200 332.957 L 337.200 329.600 339.100 329.553 C 344.059 329.429,344.344 328.941,344.377 320.500 L 344.400 314.800 347.511 314.800 C 352.019 314.800,352.000 314.835,352.000 306.595 L 352.000 300.000 355.186 300.000 C 359.282 300.000,359.200 300.166,359.200 291.867 L 359.200 285.282 362.567 285.141 C 366.925 284.958,366.583 285.907,366.718 273.623 L 366.836 262.912 369.323 262.680 C 372.300 262.402,373.032 262.153,373.469 261.269 C 373.651 260.901,373.818 246.740,373.841 229.800 C 373.863 212.860,373.759 199.900,373.609 201.000 C 373.459 202.100,373.204 203.369,373.043 203.820 C 372.750 204.635,371.200 205.883,371.200 205.303 C 371.200 204.956,369.202 204.901,368.600 205.232 C 367.524 205.823,366.994 205.326,366.647 203.400 C 366.449 202.300,366.103 201.281,365.878 201.136 C 365.304 200.765,365.310 192.632,365.885 191.939 C 366.134 191.638,366.466 190.269,366.621 188.896 C 366.915 186.298,367.813 185.573,369.120 186.880 C 369.482 187.242,369.600 187.245,369.600 186.890 C 369.600 186.559,369.884 186.528,370.559 186.784 C 371.086 186.985,371.626 187.040,371.759 186.908 C 371.891 186.775,372.000 186.862,372.000 187.100 C 372.000 187.338,371.775 187.640,371.500 187.771 C 371.225 187.902,371.392 187.937,371.870 187.850 C 372.495 187.735,372.679 187.851,372.522 188.260 C 372.401 188.573,372.616 189.176,372.999 189.599 C 373.459 190.107,373.634 190.787,373.514 191.602 C 373.415 192.280,373.483 192.928,373.667 193.041 C 374.153 193.342,374.084 176.104,373.595 175.191 C 373.372 174.775,372.580 174.320,371.833 174.180 C 370.630 173.954,370.426 173.725,370.032 172.163 C 369.788 171.193,369.411 170.400,369.194 170.400 C 368.977 170.400,368.800 170.165,368.800 169.878 C 368.800 169.590,368.350 168.745,367.800 168.000 C 367.096 167.045,366.800 166.852,366.800 167.346 C 366.800 167.732,366.620 167.936,366.400 167.800 C 366.180 167.664,366.000 167.743,366.000 167.976 C 366.000 168.243,364.674 168.400,362.423 168.400 C 358.634 168.400,357.600 167.867,357.600 165.911 C 357.600 165.520,357.445 165.200,357.255 165.200 C 356.724 165.200,355.942 159.578,356.253 158.000 C 357.274 152.829,359.587 151.623,365.753 153.047 L 366.905 153.313 366.615 150.599 C 366.455 149.106,366.155 147.686,365.948 147.442 C 365.742 147.199,365.349 146.675,365.076 146.278 C 363.925 144.607,359.206 144.304,359.187 145.900 C 359.164 147.905,356.732 149.200,352.989 149.200 C 351.581 149.200,349.240 147.292,349.212 146.120 C 349.205 145.856,348.891 145.467,348.513 145.255 C 347.944 144.937,347.905 144.711,348.285 143.936 C 348.538 143.421,348.962 142.280,349.228 141.400 C 349.494 140.520,350.070 139.289,350.508 138.664 L 351.306 137.528 355.289 137.664 L 359.272 137.800 358.994 135.200 C 358.841 133.770,358.468 132.120,358.165 131.533 C 357.619 130.476,357.209 130.314,353.781 129.800 L 352.163 129.557 351.781 131.253 C 350.319 137.757,340.240 134.221,340.989 127.467 C 341.455 123.257,342.409 122.400,346.626 122.400 L 348.732 122.400 347.492 121.000 C 346.811 120.230,346.081 119.600,345.870 119.600 C 344.816 119.600,344.425 118.067,344.413 113.882 C 344.396 108.250,343.902 107.600,339.642 107.600 L 336.847 107.600 337.029 104.241 L 337.211 100.882 335.946 100.441 C 333.897 99.727,330.400 99.940,330.400 100.778 C 330.400 100.940,330.947 101.039,331.616 100.999 C 332.365 100.954,332.974 101.171,333.203 101.563 C 333.520 102.105,333.580 102.110,333.604 101.600 C 333.620 101.263,333.893 101.482,334.229 102.100 C 334.557 102.705,335.065 103.200,335.358 103.200 C 335.688 103.200,335.848 103.580,335.780 104.202 C 335.720 104.753,335.797 105.126,335.951 105.030 C 336.106 104.935,336.260 105.547,336.293 106.391 C 336.364 108.161,336.132 108.272,332.136 108.376 C 330.629 108.415,329.560 108.259,329.384 107.974 C 329.018 107.382,329.137 101.033,329.516 100.901 C 329.966 100.744,329.584 93.863,329.093 93.271 C 328.820 92.942,327.949 92.769,326.825 92.820 C 325.821 92.866,324.415 92.880,323.700 92.852 L 322.400 92.800 322.400 89.771 C 322.400 85.829,322.094 85.519,317.960 85.280 L 314.800 85.097 314.800 82.211 C 314.800 78.420,314.368 78.000,310.469 78.000 L 307.600 78.000 307.600 75.600 C 307.600 74.267,307.422 73.200,307.200 73.200 C 306.980 73.200,306.800 72.846,306.800 72.414 C 306.800 71.008,305.308 70.651,298.700 70.473 L 292.400 70.304 292.400 67.232 C 292.400 63.429,292.189 63.200,288.694 63.200 C 285.453 63.200,284.400 62.751,284.400 61.369 C 284.400 60.817,284.224 60.149,284.010 59.883 C 283.795 59.617,283.208 58.891,282.704 58.269 C 281.256 56.481,278.197 55.868,269.900 55.705 L 262.800 55.565 262.800 52.659 C 262.800 48.198,263.492 48.469,251.300 48.150 L 240.800 47.875 240.800 45.147 C 240.800 40.583,245.074 41.008,198.618 40.953 C 176.608 40.928,157.583 41.018,156.340 41.155 M206.315 75.000 C 206.714 75.561,211.421 77.086,213.700 77.393 C 214.745 77.534,215.600 77.818,215.600 78.025 C 215.600 78.231,216.321 78.400,217.203 78.400 C 220.102 78.400,238.997 80.828,239.133 81.218 C 239.207 81.428,239.589 81.600,239.983 81.600 C 241.491 81.600,244.208 82.875,245.542 84.208 C 246.773 85.440,248.841 86.391,250.300 86.398 C 250.575 86.399,250.800 86.580,250.800 86.800 C 250.800 87.020,251.115 87.202,251.500 87.205 C 252.565 87.212,258.043 88.631,259.399 89.252 C 260.688 89.841,262.240 91.393,262.602 92.455 C 262.749 92.886,264.187 93.490,266.813 94.223 C 269.006 94.836,270.800 95.464,270.800 95.618 C 270.800 95.773,271.315 96.003,271.944 96.129 C 273.084 96.357,275.154 98.180,276.519 100.158 C 276.914 100.731,277.499 101.200,277.819 101.200 C 278.138 101.200,278.400 101.351,278.400 101.536 C 278.400 101.721,279.141 102.117,280.047 102.416 C 281.802 102.995,283.600 104.216,283.600 104.829 C 283.600 105.033,283.960 105.560,284.400 106.000 C 284.840 106.440,285.200 107.067,285.200 107.392 C 285.200 107.718,285.695 108.104,286.300 108.249 C 288.172 108.699,290.469 110.021,291.493 111.237 C 292.031 111.877,292.723 112.400,293.032 112.400 C 293.340 112.400,293.999 113.028,294.496 113.795 C 294.993 114.562,295.552 115.192,295.738 115.195 C 296.411 115.205,305.250 124.530,306.023 126.045 C 306.459 126.900,306.993 127.600,307.208 127.600 C 307.424 127.600,307.600 127.854,307.600 128.164 C 307.600 128.475,308.185 129.196,308.900 129.767 C 310.981 131.429,311.985 132.523,312.507 133.700 C 312.776 134.305,313.124 134.800,313.282 134.800 C 313.439 134.800,313.787 135.533,314.056 136.429 C 314.424 137.657,314.895 138.237,315.972 138.789 C 316.979 139.305,317.636 140.062,318.200 141.357 C 318.640 142.366,319.113 143.194,319.251 143.196 C 319.389 143.198,320.005 145.000,320.620 147.200 C 321.234 149.400,321.886 151.200,322.068 151.200 C 322.251 151.200,322.400 151.447,322.400 151.748 C 322.400 152.050,323.042 152.725,323.827 153.248 C 325.468 154.342,326.481 156.108,327.186 159.100 C 327.457 160.255,327.828 161.200,328.008 161.200 C 328.189 161.200,328.462 161.785,328.616 162.500 C 328.961 164.102,329.666 165.505,330.752 166.749 C 331.779 167.927,333.034 171.218,333.408 173.716 C 333.564 174.752,333.833 175.600,334.006 175.600 C 334.180 175.600,334.444 176.725,334.593 178.100 C 334.742 179.475,335.210 182.566,335.632 184.970 C 336.054 187.373,336.400 190.118,336.400 191.070 C 336.400 192.021,336.580 192.800,336.800 192.800 C 337.020 192.800,337.200 193.750,337.200 194.911 C 337.200 196.072,337.450 197.379,337.755 197.814 C 338.060 198.250,338.546 199.415,338.836 200.403 C 339.125 201.392,339.533 202.318,339.744 202.463 C 341.286 203.521,341.099 239.600,339.551 239.600 C 339.358 239.600,339.194 240.005,339.187 240.500 C 339.181 240.995,338.732 242.300,338.191 243.400 C 337.650 244.500,337.206 245.805,337.204 246.300 C 337.202 246.795,337.051 247.200,336.869 247.200 C 336.438 247.200,335.763 250.929,334.984 257.608 C 334.640 260.562,334.214 263.073,334.037 263.189 C 333.860 263.305,333.598 264.030,333.454 264.800 C 333.092 266.738,331.316 270.444,330.461 271.042 C 330.072 271.315,329.404 272.632,328.977 273.969 C 328.550 275.306,328.086 276.400,327.945 276.400 C 327.805 276.400,327.461 277.615,327.181 279.099 C 326.539 282.504,325.748 284.223,323.991 286.030 C 321.799 288.284,321.225 289.225,320.391 291.922 C 319.963 293.310,319.339 294.718,319.006 295.051 C 318.673 295.384,318.400 295.883,318.400 296.159 C 318.400 296.814,316.832 298.238,315.751 298.565 C 315.156 298.745,314.697 299.475,314.214 301.011 C 313.835 302.215,313.376 303.200,313.194 303.200 C 313.011 303.200,312.660 303.812,312.413 304.561 C 312.166 305.309,311.027 306.954,309.882 308.215 C 306.355 312.101,306.004 312.553,305.315 314.100 C 304.947 314.925,304.513 315.600,304.350 315.600 C 304.187 315.600,303.931 316.005,303.781 316.500 C 303.469 317.528,302.046 319.200,301.483 319.200 C 300.804 319.200,298.221 322.217,297.213 324.188 C 296.422 325.735,295.834 326.299,294.244 327.036 C 292.314 327.930,290.000 330.560,290.000 331.860 C 290.000 332.157,289.865 332.401,289.700 332.402 C 289.535 332.403,288.825 332.943,288.122 333.602 C 287.419 334.261,286.689 334.800,286.499 334.800 C 285.574 334.800,283.455 336.935,282.523 338.805 C 281.645 340.566,281.152 341.049,279.426 341.839 C 277.986 342.499,277.080 343.256,276.387 344.379 C 275.844 345.259,275.265 345.983,275.100 345.989 C 274.935 345.995,274.800 346.241,274.800 346.536 C 274.800 347.075,272.272 349.600,271.732 349.600 C 270.508 349.600,268.507 351.771,268.036 353.612 C 267.643 355.144,267.175 355.877,266.061 356.707 C 265.257 357.306,264.510 357.890,264.400 358.004 C 264.290 358.119,263.782 358.481,263.271 358.808 C 262.710 359.168,262.031 360.327,261.554 361.737 C 261.121 363.021,260.324 364.548,259.783 365.132 C 259.242 365.715,258.800 366.410,258.800 366.676 C 258.800 366.942,258.199 367.618,257.464 368.179 C 256.728 368.739,255.788 369.829,255.373 370.599 C 254.958 371.370,254.502 372.000,254.361 372.000 C 254.084 372.000,253.518 374.007,252.740 377.745 C 252.472 379.035,252.028 380.315,251.754 380.589 C 251.479 380.863,250.951 382.148,250.579 383.444 C 249.924 385.729,248.900 387.975,248.312 388.416 C 247.645 388.917,246.683 395.007,246.418 400.400 C 246.262 403.590,245.942 406.560,245.708 407.000 C 244.103 410.016,243.871 411.121,244.547 412.544 C 244.906 413.301,245.200 414.104,245.200 414.327 C 245.200 414.551,245.425 414.808,245.700 414.900 C 246.082 415.027,246.200 417.417,246.200 425.042 L 246.200 435.019 245.100 436.205 C 244.495 436.858,244.000 437.511,244.000 437.657 C 244.000 438.305,241.157 438.800,237.429 438.800 C 233.368 438.800,232.569 439.027,230.900 440.655 C 230.328 441.213,230.181 448.400,230.742 448.400 C 230.929 448.400,231.569 448.850,232.162 449.400 C 233.111 450.279,233.598 450.400,236.201 450.400 C 240.900 450.400,242.949 450.992,244.257 452.727 C 244.867 453.537,245.509 454.260,245.683 454.333 C 246.254 454.574,246.060 463.997,245.473 464.585 C 245.183 464.875,244.478 465.667,243.907 466.346 C 242.660 467.828,240.644 468.376,236.389 468.390 C 233.444 468.400,232.459 468.735,230.900 470.255 C 228.924 472.183,231.180 480.396,233.687 480.401 C 236.058 480.406,241.453 481.373,241.720 481.840 C 241.896 482.148,242.289 482.400,242.593 482.400 C 243.412 482.400,244.690 484.405,245.023 486.214 C 245.184 487.086,245.496 487.917,245.716 488.060 C 246.303 488.440,246.311 494.360,245.725 494.722 C 245.464 494.884,245.060 495.517,244.827 496.130 C 244.276 497.577,241.807 498.675,238.288 499.035 C 236.810 499.187,235.600 499.466,235.600 499.655 C 235.600 499.845,235.126 500.000,234.547 500.000 C 233.880 500.000,233.037 500.478,232.247 501.304 C 231.061 502.545,229.521 503.367,226.400 504.426 C 225.595 504.699,224.490 505.571,223.800 506.476 C 221.760 509.154,219.432 511.357,217.577 512.366 C 215.821 513.320,214.633 514.261,212.232 516.600 L 211.000 517.800 198.686 517.800 C 190.135 517.800,186.284 517.665,186.086 517.358 C 185.929 517.115,185.080 516.682,184.200 516.396 C 182.136 515.726,179.600 514.408,179.600 514.005 C 179.600 513.832,178.979 513.397,178.221 513.037 C 177.462 512.677,176.490 511.888,176.059 511.283 C 174.773 509.476,172.573 507.200,172.114 507.200 C 171.878 507.200,171.107 506.660,170.400 506.000 C 169.693 505.340,168.982 504.800,168.820 504.800 C 168.657 504.800,168.198 504.440,167.800 504.000 C 167.402 503.560,166.667 503.200,166.167 503.200 C 165.666 503.200,164.987 502.930,164.657 502.600 C 164.327 502.270,163.819 501.994,163.529 501.988 C 163.238 501.981,162.280 501.532,161.400 500.990 C 160.520 500.448,159.485 500.003,159.100 500.002 C 158.715 500.001,158.400 499.834,158.400 499.631 C 158.400 499.428,157.799 499.064,157.063 498.821 C 154.162 497.863,153.051 495.358,152.601 488.755 L 152.314 484.543 153.657 483.444 C 154.396 482.839,155.270 482.132,155.600 481.872 C 155.930 481.613,157.501 480.986,159.092 480.480 C 160.682 479.973,162.122 479.330,162.292 479.050 C 162.461 478.769,162.915 478.424,163.300 478.282 C 164.124 477.979,164.385 470.400,163.571 470.400 C 163.336 470.400,162.878 470.135,162.553 469.811 C 161.937 469.194,160.719 468.839,156.401 468.021 C 154.972 467.750,153.710 467.378,153.597 467.196 C 153.484 467.013,152.901 466.740,152.300 466.589 C 150.934 466.247,148.800 463.866,148.801 462.686 C 148.803 458.689,150.499 453.600,151.829 453.600 C 152.106 453.600,152.663 453.149,153.067 452.598 C 153.641 451.814,154.644 451.388,157.692 450.635 C 159.833 450.106,161.871 449.387,162.221 449.036 C 162.571 448.686,163.114 448.400,163.429 448.400 C 163.884 448.400,164.000 447.627,164.000 444.600 C 164.000 442.164,163.846 440.800,163.571 440.800 C 163.336 440.800,162.878 440.535,162.553 440.211 C 161.714 439.372,159.577 438.908,155.117 438.598 L 151.234 438.328 149.317 436.543 L 147.400 434.759 147.171 411.679 C 146.948 389.271,146.563 382.400,145.528 382.400 C 145.348 382.400,145.200 382.064,145.200 381.654 C 145.200 381.244,144.322 380.017,143.250 378.927 C 141.474 377.124,140.000 373.998,140.000 372.038 C 140.000 371.797,139.831 371.600,139.625 371.600 C 139.418 371.600,139.126 370.745,138.975 369.700 C 138.609 367.157,137.773 365.200,137.053 365.200 C 135.924 365.200,133.237 362.130,132.394 359.877 C 131.941 358.664,131.151 357.398,130.640 357.063 C 128.972 355.970,126.026 353.113,125.786 352.354 C 125.496 351.443,122.444 348.400,121.819 348.400 C 121.218 348.400,118.794 345.784,117.642 343.890 C 117.136 343.060,116.155 342.087,115.461 341.729 C 113.882 340.912,111.276 338.470,110.976 337.525 C 110.694 336.636,107.633 333.600,107.019 333.600 C 106.424 333.600,103.955 330.959,102.973 329.272 C 102.548 328.542,101.570 327.561,100.800 327.092 C 98.995 325.993,96.400 323.567,96.400 322.979 C 96.400 322.728,96.024 322.090,95.565 321.561 C 95.105 321.033,94.498 320.060,94.215 319.400 C 93.662 318.107,93.118 317.435,89.773 313.911 C 88.578 312.651,87.600 311.359,87.600 311.039 C 87.600 310.719,87.359 310.216,87.064 309.921 C 86.770 309.627,86.352 308.849,86.136 308.193 C 85.895 307.461,85.181 306.691,84.286 306.200 C 83.485 305.760,82.424 304.860,81.928 304.200 C 81.433 303.540,80.926 302.910,80.803 302.800 C 80.679 302.690,80.269 301.598,79.892 300.373 C 79.514 299.147,78.837 297.797,78.388 297.373 C 77.939 296.948,77.263 296.258,76.886 295.840 C 76.509 295.422,75.930 294.780,75.600 294.414 C 74.477 293.168,72.400 288.221,72.400 286.792 C 72.400 286.356,72.234 286.000,72.032 286.000 C 71.829 286.000,71.541 285.443,71.392 284.763 C 71.209 283.928,70.661 283.255,69.710 282.694 C 68.310 281.868,66.413 278.657,66.404 277.100 C 66.402 276.715,66.238 276.400,66.039 276.400 C 65.841 276.400,65.549 275.275,65.391 273.900 C 64.922 269.825,63.774 265.997,62.819 265.328 C 62.350 265.000,61.684 264.026,61.339 263.165 C 60.995 262.304,60.581 261.600,60.420 261.600 C 59.646 261.600,58.525 253.760,58.023 244.840 C 57.820 241.232,57.492 238.172,57.294 238.040 C 55.452 236.811,55.419 200.749,57.259 199.571 C 57.456 199.445,57.878 195.665,58.197 191.171 C 58.829 182.274,59.419 178.238,60.203 177.454 C 60.480 177.177,61.087 176.206,61.551 175.296 C 62.015 174.387,62.646 173.498,62.954 173.321 C 63.611 172.944,65.042 168.311,65.431 165.300 C 65.581 164.145,65.840 163.200,66.007 163.200 C 66.174 163.200,66.435 162.541,66.586 161.734 C 66.973 159.669,68.724 156.478,69.626 156.192 C 70.044 156.059,70.695 155.287,71.072 154.475 C 71.450 153.664,71.880 152.910,72.028 152.800 C 72.176 152.690,72.598 151.271,72.966 149.647 C 73.992 145.108,76.296 141.200,77.945 141.200 C 78.397 141.200,80.400 137.454,80.400 136.607 C 80.400 136.273,80.558 136.000,80.751 136.000 C 80.945 136.000,81.334 135.415,81.616 134.700 C 82.185 133.261,83.528 131.600,84.124 131.600 C 84.700 131.600,86.400 129.643,86.400 128.979 C 86.400 128.661,86.580 128.400,86.800 128.400 C 87.020 128.400,87.202 128.175,87.203 127.900 C 87.210 127.014,90.078 124.338,91.823 123.590 C 93.135 123.028,93.622 122.546,93.982 121.455 C 94.466 119.988,97.420 116.800,98.296 116.800 C 98.573 116.800,98.800 116.620,98.800 116.400 C 98.800 116.180,99.011 116.000,99.269 116.000 C 99.938 116.000,101.200 114.776,101.200 114.127 C 101.200 113.614,102.789 111.644,104.587 109.929 C 105.021 109.516,105.914 109.038,106.572 108.867 C 107.423 108.647,108.097 107.999,108.903 106.628 C 110.367 104.136,111.323 103.369,113.935 102.592 C 115.941 101.996,116.616 101.472,119.525 98.254 C 119.896 97.844,121.006 97.157,121.992 96.729 C 122.978 96.300,123.878 95.811,123.992 95.641 C 124.106 95.471,125.820 94.943,127.800 94.468 C 130.131 93.909,131.541 93.360,131.800 92.909 C 133.422 90.085,137.317 88.014,142.300 87.326 C 143.235 87.197,144.000 86.936,144.000 86.746 C 144.000 86.556,144.345 86.400,144.767 86.400 C 145.892 86.400,149.073 84.955,149.463 84.267 C 149.809 83.657,154.093 81.600,155.016 81.600 C 155.301 81.600,155.593 81.437,155.667 81.239 C 155.818 80.830,162.004 80.003,164.923 80.001 C 167.473 80.000,174.792 78.465,175.466 77.791 C 176.125 77.133,180.146 75.600,181.215 75.600 C 181.647 75.600,182.000 75.428,182.000 75.218 C 182.000 74.442,205.766 74.228,206.315 75.000 M323.213 97.347 C 322.689 97.871,322.678 99.077,323.195 99.397 C 323.427 99.540,323.496 99.342,323.363 98.921 C 323.147 98.240,323.167 98.239,323.707 98.894 C 324.022 99.275,324.353 99.545,324.444 99.494 C 324.535 99.442,324.365 99.613,324.066 99.873 C 323.142 100.675,322.400 100.030,322.400 98.424 C 322.400 97.351,322.572 96.933,323.013 96.933 C 323.435 96.933,323.498 97.062,323.213 97.347 M350.955 123.028 C 351.090 123.379,351.200 123.751,351.200 123.856 C 351.200 123.961,351.380 123.936,351.600 123.800 C 352.194 123.433,352.085 122.918,351.355 122.638 C 350.884 122.457,350.776 122.562,350.955 123.028 " stroke="none" fill="#0c0b09" fill-rule="evenodd"></path><path id="path1" d="M183.800 82.808 C 180.940 82.969,175.945 83.241,172.700 83.411 C 169.455 83.582,166.800 83.842,166.800 83.989 C 166.800 84.137,165.114 84.489,163.054 84.772 C 159.430 85.270,159.289 85.327,158.754 86.543 C 158.208 87.782,155.441 89.523,153.933 89.576 C 153.567 89.589,153.207 89.774,153.133 89.986 C 153.060 90.198,151.200 90.565,149.000 90.801 C 144.517 91.281,140.800 92.309,140.800 93.069 C 140.800 94.876,136.567 97.306,132.100 98.064 C 130.505 98.335,129.200 98.683,129.200 98.839 C 129.200 98.994,128.662 99.309,128.004 99.539 C 127.263 99.797,126.563 100.470,126.163 101.309 C 125.744 102.188,124.869 103.001,123.666 103.631 C 122.648 104.164,121.578 104.820,121.289 105.089 C 120.761 105.581,119.143 106.096,116.229 106.699 C 114.826 106.989,114.596 107.211,114.074 108.779 C 113.387 110.839,111.988 112.207,109.900 112.859 C 109.075 113.116,108.400 113.449,108.400 113.599 C 108.400 113.749,107.959 114.072,107.420 114.318 C 106.784 114.608,106.296 115.299,106.030 116.290 C 105.579 117.962,102.840 120.800,101.675 120.800 C 100.530 120.800,99.281 121.921,99.000 123.200 C 98.855 123.860,98.571 124.400,98.368 124.400 C 98.166 124.400,98.000 124.615,98.000 124.878 C 98.000 125.535,95.971 127.600,95.325 127.600 C 95.036 127.600,94.800 127.760,94.800 127.957 C 94.800 128.153,94.306 128.437,93.702 128.589 C 92.050 129.003,91.678 129.469,90.963 132.019 C 90.270 134.488,88.716 136.028,86.333 136.610 C 85.409 136.835,85.229 137.136,84.994 138.846 C 84.844 139.932,84.470 141.073,84.161 141.382 C 83.852 141.690,83.600 142.136,83.600 142.373 C 83.600 142.609,83.240 143.475,82.800 144.296 C 82.360 145.116,82.000 146.019,82.000 146.301 C 82.000 146.957,79.419 149.477,78.424 149.792 C 77.497 150.087,77.022 151.386,76.376 155.387 C 76.103 157.079,75.637 158.706,75.340 159.003 C 75.043 159.300,74.800 159.790,74.800 160.091 C 74.800 161.117,72.658 163.949,71.700 164.189 C 70.537 164.481,69.600 166.533,69.600 168.787 C 69.600 169.674,69.449 170.400,69.264 170.400 C 69.079 170.400,68.713 172.155,68.450 174.300 C 67.963 178.272,66.492 184.426,65.937 184.814 C 65.769 184.932,65.357 185.685,65.021 186.487 C 64.686 187.290,64.076 188.184,63.667 188.473 C 61.001 190.358,60.289 233.470,62.669 248.889 C 62.805 249.772,63.166 250.462,63.557 250.586 C 63.919 250.701,64.555 251.426,64.971 252.198 C 65.386 252.969,65.865 253.600,66.035 253.600 C 66.572 253.600,67.535 257.625,68.259 262.900 C 68.644 265.705,69.104 268.000,69.280 268.000 C 69.456 268.000,69.601 268.585,69.602 269.300 C 69.606 271.731,70.346 273.488,71.709 274.308 C 72.636 274.865,73.282 275.776,74.000 277.540 C 74.550 278.891,75.112 279.997,75.248 279.998 C 75.384 279.999,75.710 281.125,75.971 282.500 C 76.609 285.855,77.590 288.400,78.245 288.400 C 80.251 288.400,82.229 290.965,83.256 294.900 C 83.528 295.945,83.886 296.800,84.051 296.800 C 84.216 296.800,84.475 297.629,84.627 298.642 C 84.870 300.262,85.071 300.554,86.296 301.066 C 88.472 301.975,90.199 303.946,90.795 306.200 C 91.441 308.640,91.831 309.170,93.500 309.867 C 94.215 310.166,94.800 310.588,94.800 310.805 C 94.800 311.022,95.058 311.200,95.373 311.200 C 96.080 311.200,97.392 313.022,97.749 314.500 C 97.896 315.105,98.164 315.600,98.347 315.600 C 98.529 315.600,99.005 316.324,99.404 317.209 C 99.839 318.173,100.479 318.905,101.002 319.036 C 101.481 319.157,102.307 319.958,102.837 320.817 C 103.367 321.676,103.914 322.383,104.053 322.389 C 104.383 322.403,107.597 325.617,107.611 325.947 C 107.617 326.086,108.324 326.633,109.183 327.163 C 110.042 327.693,110.842 328.503,110.961 328.963 C 111.079 329.423,111.694 330.143,112.326 330.562 C 112.959 330.981,113.819 331.841,114.238 332.474 C 114.657 333.106,115.363 333.717,115.806 333.832 C 116.637 334.046,118.400 336.284,118.400 337.125 C 118.400 337.386,118.625 337.605,118.900 337.611 C 119.442 337.623,122.393 340.224,122.411 340.705 C 122.417 340.867,123.124 341.433,123.983 341.963 C 124.842 342.493,125.642 343.303,125.761 343.763 C 125.879 344.223,126.494 344.943,127.126 345.362 C 127.759 345.781,128.619 346.641,129.038 347.274 C 129.457 347.906,130.163 348.517,130.606 348.632 C 131.414 348.840,133.200 351.075,133.200 351.879 C 133.200 352.115,133.628 352.589,134.152 352.932 C 134.675 353.275,135.431 354.465,135.831 355.578 C 136.231 356.690,136.702 357.600,136.879 357.600 C 137.056 357.600,137.200 358.042,137.200 358.582 C 137.200 359.386,137.452 359.611,138.591 359.825 C 140.153 360.118,142.400 362.975,142.400 364.669 C 142.400 365.181,142.560 365.600,142.755 365.600 C 142.950 365.600,143.206 366.095,143.325 366.700 C 143.845 369.353,144.592 370.738,145.787 371.265 C 146.454 371.559,147.253 372.340,147.562 373.000 C 147.871 373.660,148.285 374.306,148.482 374.436 C 149.261 374.949,150.047 378.899,150.622 385.194 C 150.955 388.827,151.400 391.860,151.613 391.933 C 151.826 392.007,152.000 392.535,152.000 393.108 C 152.000 393.680,152.337 394.520,152.750 394.974 C 153.345 395.630,153.549 396.689,153.743 400.122 C 153.914 403.148,154.165 404.622,154.581 405.039 C 155.238 405.695,163.752 407.592,166.067 407.597 C 166.873 407.599,167.607 407.821,167.697 408.091 C 167.817 408.450,169.505 408.582,174.000 408.582 C 178.495 408.582,180.183 408.450,180.303 408.091 C 180.393 407.821,181.113 407.600,181.902 407.600 C 182.692 407.600,184.882 407.309,186.769 406.952 C 192.822 405.810,213.178 406.698,214.086 408.145 C 214.513 408.826,231.673 408.782,231.900 408.100 C 232.101 407.498,234.425 407.450,237.080 407.993 C 241.979 408.995,241.483 409.965,242.083 398.200 C 242.329 393.360,242.654 389.310,242.805 389.200 C 242.956 389.090,243.187 387.193,243.318 384.984 C 243.601 380.211,244.501 377.748,246.351 376.677 C 247.038 376.280,247.600 375.785,247.600 375.577 C 247.600 375.370,247.867 375.200,248.192 375.200 C 248.518 375.200,248.868 374.795,248.969 374.300 C 250.259 368.015,251.178 364.800,251.683 364.800 C 251.868 364.800,252.196 364.336,252.412 363.770 C 252.651 363.140,253.411 362.480,254.365 362.072 C 255.454 361.607,256.082 361.010,256.438 360.103 C 256.719 359.386,257.073 358.800,257.225 358.800 C 257.376 358.800,257.599 358.305,257.721 357.700 C 258.141 355.610,259.671 353.906,261.751 353.214 C 263.621 352.591,263.730 352.470,264.402 350.300 C 265.342 347.261,267.836 344.800,269.974 344.800 C 270.542 344.800,270.800 344.542,270.800 343.974 C 270.800 343.184,271.453 341.622,271.960 341.200 C 272.092 341.090,272.392 340.640,272.626 340.200 C 273.123 339.268,276.193 337.640,277.500 337.616 C 278.115 337.605,278.400 337.357,278.400 336.833 C 278.400 333.879,282.022 330.000,284.780 330.000 C 285.342 330.000,285.600 329.740,285.600 329.174 C 285.600 328.384,286.253 326.822,286.760 326.400 C 286.892 326.290,287.193 325.840,287.430 325.400 C 287.666 324.960,288.476 324.295,289.230 323.921 C 289.983 323.548,290.817 323.053,291.083 322.821 C 291.349 322.590,291.914 322.400,292.339 322.400 C 292.913 322.400,293.182 322.019,293.390 320.914 C 293.788 318.793,294.579 317.437,296.404 315.748 C 297.282 314.936,298.000 314.059,298.000 313.800 C 298.000 313.541,298.466 313.116,299.035 312.857 C 299.656 312.574,300.321 311.747,300.696 310.793 C 301.040 309.917,301.464 309.200,301.638 309.200 C 301.813 309.200,302.438 308.125,303.027 306.811 C 303.962 304.727,304.358 304.293,306.125 303.412 C 308.205 302.376,309.556 300.470,309.586 298.529 C 309.594 298.049,309.827 297.419,310.105 297.129 C 310.382 296.838,310.836 296.088,311.113 295.462 C 311.395 294.827,312.144 294.125,312.809 293.874 C 313.464 293.627,314.000 293.284,314.000 293.112 C 314.000 292.941,314.250 292.800,314.555 292.800 C 314.905 292.800,315.208 292.138,315.379 291.000 C 315.528 290.010,315.791 289.200,315.965 289.200 C 316.139 289.200,316.604 287.985,316.999 286.500 C 318.302 281.602,320.001 279.200,322.161 279.200 C 322.797 279.200,323.254 277.435,324.054 271.900 C 324.333 269.975,324.681 268.400,324.829 268.400 C 324.976 268.400,325.218 267.545,325.365 266.500 C 325.773 263.609,327.294 260.434,328.698 259.546 C 329.528 259.020,329.998 258.334,330.176 257.387 C 330.319 256.624,330.582 256.000,330.759 256.000 C 331.089 256.000,331.209 254.650,332.216 239.600 C 332.892 229.511,332.963 216.311,332.395 206.200 C 332.173 202.240,331.828 195.765,331.628 191.811 C 331.401 187.324,331.102 184.567,330.832 184.477 C 330.595 184.398,330.400 183.921,330.400 183.417 C 330.400 181.410,329.889 180.132,328.791 179.394 C 327.080 178.244,326.031 176.017,325.507 172.425 C 325.249 170.651,324.894 169.200,324.719 169.200 C 324.543 169.200,324.395 168.615,324.388 167.900 C 324.382 167.185,324.027 165.340,323.600 163.800 C 323.173 162.260,322.818 160.595,322.812 160.100 C 322.803 159.459,322.561 159.200,321.968 159.200 C 320.111 159.200,317.823 156.075,317.063 152.500 C 316.677 150.685,316.210 149.200,316.025 149.200 C 315.840 149.200,315.571 148.570,315.426 147.800 C 315.282 147.030,315.022 146.400,314.849 146.400 C 314.677 146.400,314.294 145.950,314.000 145.400 C 313.706 144.850,313.238 144.400,312.961 144.400 C 312.685 144.400,312.087 143.905,311.633 143.300 C 311.180 142.695,310.604 141.959,310.355 141.664 C 310.105 141.369,309.551 139.963,309.125 138.541 C 308.647 136.948,308.090 135.874,307.674 135.743 C 304.555 134.762,303.713 133.890,302.417 130.300 C 302.199 129.695,301.847 129.200,301.637 129.200 C 301.426 129.200,301.134 128.822,300.987 128.360 C 300.835 127.880,299.957 127.182,298.941 126.733 C 297.699 126.183,296.963 125.530,296.506 124.573 C 296.146 123.818,295.705 123.200,295.526 123.200 C 295.347 123.200,295.200 122.964,295.200 122.675 C 295.200 122.062,293.150 120.000,292.540 120.000 C 292.312 120.000,291.601 119.550,290.962 119.000 C 290.323 118.451,289.659 118.001,289.486 118.000 C 289.313 118.000,288.824 117.190,288.400 116.200 C 287.975 115.209,287.359 114.400,287.028 114.400 C 286.698 114.400,286.235 114.040,286.000 113.600 C 285.765 113.160,285.164 112.800,284.666 112.800 C 282.991 112.800,280.570 110.833,279.551 108.644 C 278.661 106.731,278.472 106.571,276.600 106.146 C 274.081 105.575,273.200 105.213,273.200 104.747 C 273.200 104.545,272.750 104.209,272.200 104.000 C 271.650 103.791,271.200 103.448,271.200 103.238 C 271.200 102.329,268.475 100.055,266.795 99.564 C 265.808 99.275,264.900 98.895,264.777 98.720 C 264.654 98.545,263.484 98.204,262.177 97.963 C 259.150 97.406,256.522 96.216,256.221 95.267 C 256.092 94.860,255.540 94.289,254.993 93.996 C 254.447 93.704,254.000 93.265,254.000 93.021 C 254.000 92.476,249.735 91.356,245.300 90.737 C 243.485 90.483,242.000 90.138,242.000 89.969 C 242.000 89.801,241.415 89.542,240.700 89.393 C 238.809 88.998,236.253 87.420,235.635 86.265 C 235.089 85.245,232.040 84.400,228.901 84.400 C 228.222 84.400,227.607 84.246,227.533 84.058 C 227.206 83.218,193.564 82.257,183.800 82.808 " stroke="none" fill="#fbd379" fill-rule="evenodd"></path><path id="path2" d="M153.571 406.500 C 153.317 407.435,152.950 408.722,152.755 409.360 C 152.560 409.998,152.400 415.698,152.400 422.027 L 152.400 433.534 154.420 433.967 C 155.531 434.205,156.686 434.400,156.986 434.400 C 157.287 434.400,157.593 434.568,157.667 434.774 C 157.740 434.980,159.420 435.363,161.400 435.624 C 165.461 436.161,168.007 436.839,169.001 437.650 C 169.859 438.349,171.253 439.742,171.900 440.545 C 172.520 441.316,172.602 448.400,171.990 448.400 C 171.765 448.400,171.409 448.850,171.200 449.400 C 170.964 450.022,170.096 450.742,168.910 451.300 C 167.859 451.795,166.899 452.335,166.776 452.500 C 166.653 452.665,164.943 453.040,162.976 453.332 C 159.392 453.865,157.600 454.493,157.600 455.214 C 157.600 455.426,157.353 455.600,157.052 455.600 C 156.649 455.600,156.429 456.552,156.222 459.191 C 155.931 462.921,156.054 463.600,157.024 463.600 C 157.341 463.600,157.600 463.766,157.600 463.969 C 157.600 464.470,159.709 465.081,162.555 465.404 C 165.381 465.725,168.077 466.497,169.001 467.250 C 169.859 467.949,171.253 469.342,171.900 470.145 C 172.479 470.865,172.609 478.000,172.043 478.000 C 171.847 478.000,171.585 478.407,171.460 478.905 C 170.861 481.291,166.097 484.400,163.038 484.400 C 162.687 484.400,162.400 484.580,162.400 484.800 C 162.400 485.020,161.873 485.200,161.229 485.200 C 159.494 485.200,157.600 488.312,157.600 491.162 C 157.600 491.403,157.420 491.600,157.200 491.600 C 156.470 491.600,156.785 492.340,158.100 493.713 C 159.318 494.985,159.650 495.100,163.382 495.544 C 165.572 495.805,167.466 496.183,167.590 496.384 C 167.715 496.585,168.308 496.937,168.908 497.165 C 169.508 497.393,170.336 498.133,170.746 498.808 C 171.560 500.146,173.844 502.000,174.678 502.000 C 174.965 502.000,175.202 502.135,175.205 502.300 C 175.207 502.465,175.939 502.950,176.832 503.377 C 177.956 503.916,178.635 504.589,179.045 505.569 C 179.370 506.347,180.192 507.527,180.871 508.192 L 182.107 509.400 196.753 509.515 L 211.400 509.631 212.534 508.715 C 213.157 508.212,214.602 506.880,215.744 505.755 C 216.886 504.631,218.205 503.589,218.674 503.440 C 219.144 503.291,219.828 502.712,220.194 502.153 C 220.560 501.595,221.368 500.960,221.990 500.744 C 222.611 500.527,223.201 500.046,223.301 499.675 C 223.492 498.961,227.173 496.800,228.197 496.800 C 228.529 496.800,228.800 496.638,228.800 496.440 C 228.800 495.930,231.906 495.288,236.800 494.785 C 242.059 494.245,242.725 493.707,241.663 490.862 C 241.079 489.297,240.791 489.024,239.238 488.567 C 238.270 488.282,237.370 487.902,237.238 487.724 C 236.894 487.256,232.692 485.186,232.100 485.194 C 231.825 485.197,231.600 485.020,231.600 484.800 C 231.600 484.580,231.264 484.400,230.854 484.400 C 230.444 484.400,229.650 484.040,229.091 483.600 C 228.531 483.160,227.899 482.800,227.685 482.800 C 227.472 482.800,227.076 482.266,226.806 481.613 C 226.535 480.961,225.978 480.320,225.567 480.190 C 222.305 479.154,222.195 468.800,225.446 468.800 C 225.719 468.800,226.360 468.277,226.871 467.639 C 228.001 466.226,230.330 465.405,235.049 464.756 C 237.002 464.487,238.691 464.133,238.801 463.969 C 238.912 463.806,239.542 463.611,240.201 463.536 L 241.400 463.400 241.518 460.000 C 241.701 454.725,241.974 455.038,236.509 454.263 C 231.135 453.500,228.800 452.930,228.800 452.381 C 228.800 452.172,228.561 452.000,228.270 452.000 C 227.978 452.000,227.317 451.550,226.800 451.000 C 226.283 450.450,225.667 449.997,225.430 449.993 C 223.186 449.957,222.087 441.868,224.075 440.016 C 224.557 439.567,225.174 439.200,225.446 439.200 C 225.719 439.200,226.360 438.677,226.871 438.039 C 228.261 436.302,231.035 435.517,236.594 435.290 C 240.381 435.136,241.492 434.959,241.882 434.447 C 242.669 433.414,242.576 418.003,241.762 414.525 C 241.412 413.026,241.097 411.080,241.062 410.200 C 241.028 409.320,240.910 408.632,240.800 408.671 C 240.690 408.710,239.430 408.492,238.000 408.185 C 234.706 407.479,232.119 407.443,231.900 408.100 C 231.673 408.782,214.513 408.826,214.086 408.145 C 213.178 406.698,192.822 405.810,186.769 406.952 C 184.882 407.309,182.692 407.600,181.902 407.600 C 181.113 407.600,180.393 407.821,180.303 408.091 C 180.183 408.450,178.495 408.582,174.000 408.582 C 169.505 408.582,167.817 408.450,167.697 408.091 C 167.607 407.821,166.873 407.599,166.067 407.597 C 163.979 407.592,155.026 405.675,154.867 405.198 C 154.573 404.322,154.008 404.890,153.571 406.500 " stroke="none" fill="#d9d9d9" fill-rule="evenodd"></path><path id="path3" d="M185.800 78.828 C 181.109 79.370,171.812 80.934,171.600 81.217 C 171.490 81.364,168.608 81.779,165.196 82.140 C 158.745 82.823,156.719 83.317,155.513 84.500 C 155.121 84.885,154.556 85.200,154.258 85.200 C 153.961 85.200,153.263 85.620,152.709 86.134 C 151.673 87.094,150.731 87.406,144.672 88.791 C 142.732 89.235,140.874 89.869,140.544 90.199 C 140.213 90.530,139.685 90.800,139.370 90.800 C 138.460 90.800,135.969 92.267,135.330 93.179 C 135.009 93.637,134.090 94.286,133.287 94.621 C 132.485 94.957,131.732 95.359,131.614 95.516 C 131.496 95.672,129.824 96.322,127.897 96.961 C 124.458 98.100,123.616 98.598,121.069 100.994 C 119.627 102.350,118.453 103.047,116.303 103.822 C 115.480 104.119,114.580 104.548,114.303 104.775 C 114.027 105.002,113.215 105.657,112.500 106.230 C 111.785 106.802,111.200 107.491,111.200 107.760 C 111.200 108.029,110.615 108.675,109.900 109.195 C 109.185 109.715,108.456 110.379,108.280 110.670 C 108.104 110.962,107.726 111.200,107.440 111.200 C 106.766 111.200,103.251 115.013,102.778 116.257 C 102.578 116.784,102.002 117.371,101.499 117.563 C 100.428 117.970,96.400 121.577,96.400 122.128 C 96.400 122.611,93.023 126.000,92.543 126.000 C 91.953 126.000,89.014 129.310,87.996 131.122 C 87.477 132.045,86.930 132.800,86.779 132.800 C 85.810 132.800,82.907 136.582,82.076 138.926 C 81.568 140.360,80.893 141.632,80.576 141.754 C 80.259 141.875,80.000 142.235,80.000 142.552 C 80.000 142.869,79.503 143.550,78.895 144.064 C 77.685 145.089,76.000 147.725,76.000 148.594 C 76.000 148.896,75.748 149.395,75.440 149.703 C 75.132 150.011,74.564 151.419,74.177 152.832 C 73.335 155.910,72.635 157.381,71.356 158.760 C 70.830 159.328,70.400 159.985,70.400 160.220 C 70.400 160.456,70.031 161.045,69.581 161.528 C 68.515 162.672,67.766 164.848,66.966 169.129 C 66.608 171.038,66.187 172.690,66.030 172.800 C 65.873 172.910,65.324 174.321,64.810 175.936 C 64.297 177.551,63.651 178.959,63.375 179.065 C 62.427 179.429,60.800 185.769,60.800 189.100 C 60.800 189.815,60.643 190.400,60.452 190.400 C 60.260 190.400,59.979 191.885,59.826 193.700 C 59.674 195.515,59.290 198.754,58.975 200.897 C 58.173 206.335,58.170 230.829,58.970 236.303 C 59.283 238.446,59.665 242.315,59.818 244.900 C 59.971 247.485,60.234 249.600,60.403 249.600 C 60.571 249.600,60.836 250.443,60.990 251.472 C 61.380 254.076,62.764 258.421,63.408 259.065 C 63.887 259.544,64.652 261.765,65.418 264.900 C 65.566 265.505,65.823 266.000,65.989 266.000 C 66.155 266.000,66.512 267.125,66.783 268.500 C 67.800 273.662,68.876 277.410,69.429 277.720 C 69.743 277.896,70.000 278.285,70.000 278.584 C 70.000 278.884,70.495 279.550,71.100 280.064 C 72.253 281.045,73.129 282.789,74.232 286.300 C 74.595 287.455,75.030 288.400,75.198 288.400 C 75.366 288.400,75.722 288.929,75.989 289.575 C 76.257 290.221,77.162 291.492,78.000 292.400 C 78.838 293.308,79.758 294.624,80.045 295.325 C 80.332 296.026,80.799 296.838,81.083 297.128 C 81.366 297.418,81.715 298.138,81.856 298.728 C 82.218 300.236,83.548 302.800,83.968 302.800 C 84.741 302.800,88.337 306.796,88.784 308.152 C 89.047 308.948,89.434 309.600,89.644 309.600 C 89.853 309.600,90.136 309.915,90.271 310.300 C 90.622 311.297,92.454 313.200,93.065 313.200 C 93.348 313.200,93.850 313.723,94.180 314.362 C 94.511 315.001,95.018 315.766,95.307 316.062 C 95.596 316.358,96.216 317.381,96.684 318.336 C 97.644 320.293,99.013 322.227,100.200 323.301 C 100.954 323.983,104.994 327.988,106.644 329.690 C 107.060 330.119,108.840 331.883,110.600 333.612 C 112.360 335.340,114.123 337.214,114.519 337.777 C 114.914 338.340,115.454 338.805,115.719 338.811 C 115.983 338.816,117.190 339.915,118.400 341.252 C 119.610 342.589,121.101 344.159,121.713 344.741 C 123.138 346.097,127.645 350.674,130.773 353.943 C 132.111 355.341,133.314 356.916,133.446 357.443 C 133.579 357.969,133.835 358.400,134.016 358.400 C 134.198 358.400,134.458 358.754,134.596 359.187 C 134.733 359.620,136.079 361.227,137.587 362.759 C 139.095 364.291,140.420 365.872,140.532 366.272 C 141.447 369.544,142.598 373.035,142.816 373.200 C 142.961 373.310,143.587 374.210,144.206 375.200 C 144.825 376.190,145.567 377.180,145.855 377.400 C 146.563 377.940,147.518 380.776,147.848 383.318 C 147.996 384.463,148.237 385.490,148.382 385.600 C 149.271 386.273,150.078 399.126,150.279 415.800 L 150.492 433.400 151.408 434.281 C 152.079 434.926,153.326 435.328,156.062 435.779 C 162.055 436.769,164.400 437.287,164.400 437.623 C 164.400 437.795,164.931 438.053,165.580 438.195 C 168.426 438.821,169.600 440.677,169.600 444.555 C 169.600 448.978,168.532 450.288,163.971 451.463 C 162.447 451.856,161.200 452.317,161.200 452.489 C 161.200 452.660,160.795 452.814,160.300 452.830 C 157.464 452.926,154.800 454.944,154.800 456.997 C 154.800 457.769,154.641 458.400,154.446 458.400 C 154.251 458.400,153.965 459.415,153.810 460.656 C 153.399 463.945,154.854 464.979,161.900 466.404 C 163.275 466.682,164.400 467.050,164.400 467.223 C 164.400 467.395,164.931 467.653,165.580 467.795 C 166.228 467.938,167.398 468.640,168.180 469.356 L 169.600 470.657 169.600 474.328 C 169.600 476.509,169.438 478.000,169.200 478.000 C 168.980 478.000,168.800 478.254,168.800 478.564 C 168.800 478.875,168.215 479.598,167.500 480.170 C 166.785 480.743,165.947 481.423,165.637 481.680 C 164.978 482.229,160.971 483.600,160.027 483.600 C 156.308 483.600,154.341 492.661,157.539 495.061 C 158.343 495.664,159.090 496.271,159.200 496.410 C 159.310 496.548,161.110 496.980,163.200 497.369 C 166.293 497.945,167.223 498.291,168.200 499.227 C 171.425 502.317,172.687 503.288,174.663 504.198 C 175.358 504.518,175.988 504.946,176.063 505.150 C 176.587 506.564,180.641 510.409,181.848 510.635 C 182.592 510.775,183.200 511.020,183.200 511.180 C 183.200 512.510,210.775 512.835,211.783 511.516 C 212.012 511.216,213.078 510.461,214.150 509.839 C 216.458 508.500,217.214 507.875,220.883 504.273 C 222.411 502.773,224.457 501.204,225.431 500.787 C 226.404 500.370,227.200 499.855,227.200 499.644 C 227.200 498.822,232.367 496.813,234.500 496.804 C 235.105 496.802,235.600 496.620,235.600 496.400 C 235.600 496.180,236.365 495.979,237.300 495.953 C 241.407 495.838,243.861 494.114,243.401 491.664 C 243.250 490.860,242.992 490.111,242.827 490.001 C 242.662 489.890,242.201 488.937,241.802 487.882 C 241.148 486.152,240.908 485.919,239.339 485.499 C 238.382 485.243,237.600 484.912,237.600 484.762 C 237.600 484.613,236.752 484.364,235.715 484.208 C 231.464 483.571,227.507 480.641,226.960 477.725 C 226.359 474.526,226.940 469.537,227.992 468.848 C 228.537 468.492,229.260 467.930,229.600 467.600 C 230.560 466.667,232.653 466.095,237.000 465.578 C 242.502 464.924,243.200 464.225,243.200 459.372 C 243.200 454.452,242.621 453.885,236.907 453.208 C 234.446 452.916,232.413 452.470,232.094 452.151 C 231.791 451.848,231.282 451.600,230.963 451.600 C 229.641 451.600,227.221 449.521,226.968 448.168 C 226.360 444.932,226.934 439.941,227.992 439.248 C 228.537 438.892,229.260 438.330,229.600 438.000 C 230.730 436.902,233.018 436.400,236.896 436.400 C 241.218 436.400,242.720 435.843,243.568 433.927 C 244.361 432.135,244.009 417.057,243.131 415.200 C 241.625 412.016,241.479 410.931,242.339 409.306 C 243.639 406.850,244.021 405.211,244.226 401.200 C 244.494 395.968,245.262 389.200,245.587 389.200 C 245.735 389.200,246.090 387.715,246.376 385.900 C 246.933 382.360,247.733 380.188,248.602 379.855 C 249.203 379.624,250.571 376.755,250.991 374.842 C 251.141 374.159,251.429 373.600,251.632 373.600 C 251.834 373.600,252.000 373.326,252.000 372.992 C 252.000 371.659,254.021 367.524,255.366 366.105 C 256.151 365.277,256.795 364.394,256.797 364.143 C 256.798 363.891,257.079 363.579,257.420 363.448 C 257.761 363.317,258.478 362.218,259.015 361.005 C 259.551 359.792,260.172 358.800,260.395 358.800 C 260.618 358.800,260.800 358.561,260.800 358.270 C 260.800 357.649,262.456 356.000,263.080 356.000 C 263.315 356.000,263.780 355.595,264.112 355.100 C 264.444 354.605,265.051 353.840,265.461 353.400 C 265.871 352.960,266.474 352.074,266.803 351.431 C 268.027 349.034,268.209 348.787,268.924 348.561 C 269.987 348.223,274.000 344.228,274.000 343.508 C 274.000 343.171,274.675 342.386,275.500 341.764 C 276.325 341.142,277.060 340.491,277.133 340.317 C 277.207 340.142,277.477 339.995,277.733 339.989 C 278.272 339.977,281.200 337.345,281.200 336.873 C 281.200 336.196,283.702 333.200,284.268 333.200 C 285.030 333.200,288.800 329.473,288.800 328.720 C 288.800 328.408,289.516 327.624,290.391 326.977 C 291.265 326.330,291.985 325.665,291.991 325.500 C 291.996 325.335,292.241 325.200,292.536 325.200 C 293.273 325.200,295.810 322.388,296.819 320.454 C 297.276 319.577,298.044 318.598,298.525 318.279 C 300.343 317.072,301.861 315.285,303.011 313.000 C 303.665 311.700,304.605 310.197,305.100 309.660 C 305.595 309.123,306.000 308.506,306.000 308.290 C 306.000 308.074,306.765 307.127,307.700 306.185 C 310.244 303.625,310.680 303.028,311.647 300.778 C 312.170 299.564,313.533 297.699,314.967 296.239 C 317.050 294.116,317.508 293.375,318.150 291.080 C 318.562 289.606,319.032 288.400,319.195 288.400 C 319.358 288.400,319.801 287.589,320.180 286.597 C 320.559 285.605,321.573 284.061,322.434 283.164 C 323.295 282.268,324.000 281.292,324.000 280.996 C 324.000 280.700,324.295 280.162,324.655 279.802 C 325.015 279.442,325.531 278.124,325.802 276.873 C 326.669 272.862,327.758 269.200,328.084 269.200 C 328.258 269.200,328.400 269.009,328.400 268.775 C 328.400 268.123,330.491 264.000,330.821 264.000 C 331.337 264.000,332.769 257.922,333.248 253.700 C 333.504 251.445,333.868 249.600,334.056 249.600 C 334.245 249.600,334.400 249.134,334.400 248.565 C 334.400 246.555,336.475 234.198,336.835 234.067 C 337.351 233.878,337.316 210.000,336.800 210.000 C 336.580 210.000,336.400 209.325,336.400 208.500 C 336.400 207.675,336.035 204.840,335.589 202.200 C 335.143 199.560,334.666 195.375,334.530 192.900 C 334.393 190.425,334.162 188.400,334.017 188.400 C 333.872 188.400,333.520 186.755,333.235 184.743 C 332.673 180.767,331.480 176.043,330.939 175.648 C 330.605 175.403,329.531 172.728,328.673 170.000 C 328.430 169.230,328.122 168.510,327.987 168.400 C 327.853 168.290,327.144 166.130,326.414 163.600 C 325.683 161.070,324.956 158.910,324.798 158.800 C 324.641 158.690,324.218 158.026,323.858 157.324 C 323.499 156.623,322.868 155.813,322.457 155.524 C 321.396 154.779,319.600 152.026,319.600 151.144 C 319.600 150.735,319.447 150.400,319.259 150.400 C 319.072 150.400,318.597 149.185,318.203 147.700 C 317.301 144.293,316.693 143.233,314.160 140.652 C 313.037 139.509,311.903 137.919,311.639 137.119 C 311.376 136.320,310.719 135.377,310.180 135.024 C 309.641 134.670,309.199 134.161,309.199 133.891 C 309.198 133.621,308.650 133.040,307.980 132.600 C 307.310 132.160,306.419 131.252,305.999 130.582 C 305.580 129.912,304.868 128.940,304.418 128.421 C 303.968 127.902,303.597 127.370,303.594 127.239 C 303.589 127.028,297.280 120.175,295.925 118.910 C 295.636 118.640,294.074 117.150,292.454 115.599 C 290.833 114.048,288.673 112.298,287.654 111.709 C 286.634 111.120,285.710 110.531,285.600 110.400 C 285.490 110.269,284.812 109.751,284.094 109.249 C 283.376 108.747,282.512 107.803,282.175 107.151 C 281.838 106.499,281.120 105.798,280.581 105.593 C 280.041 105.388,279.600 105.033,279.600 104.805 C 279.600 104.577,278.619 103.956,277.421 103.426 C 276.067 102.827,274.438 101.620,273.120 100.236 C 271.176 98.197,270.696 97.921,267.399 96.949 C 265.420 96.365,263.710 95.773,263.600 95.632 C 263.490 95.492,262.615 95.032,261.657 94.609 C 260.698 94.186,259.652 93.440,259.332 92.952 C 258.688 91.969,255.658 90.400,254.404 90.400 C 253.962 90.400,253.600 90.235,253.600 90.033 C 253.600 89.832,251.974 89.285,249.987 88.818 C 245.704 87.813,244.543 87.400,243.741 86.598 C 243.412 86.269,242.908 86.000,242.620 86.000 C 242.333 86.000,241.883 85.742,241.621 85.426 C 241.359 85.110,240.617 84.736,239.972 84.594 C 239.328 84.452,238.800 84.190,238.800 84.011 C 238.800 83.329,229.315 81.600,225.571 81.600 C 224.707 81.600,224.000 81.438,224.000 81.241 C 224.000 81.044,221.525 80.766,218.500 80.623 C 212.451 80.339,208.442 79.831,205.427 78.966 C 203.237 78.338,190.806 78.250,185.800 78.828 M215.800 83.184 C 222.180 83.476,227.460 83.869,227.533 84.058 C 227.607 84.246,228.222 84.400,228.901 84.400 C 232.040 84.400,235.089 85.245,235.635 86.265 C 236.253 87.420,238.809 88.998,240.700 89.393 C 241.415 89.542,242.000 89.801,242.000 89.969 C 242.000 90.138,243.485 90.483,245.300 90.737 C 249.735 91.356,254.000 92.476,254.000 93.021 C 254.000 93.265,254.447 93.704,254.993 93.996 C 255.540 94.289,256.092 94.860,256.221 95.267 C 256.522 96.216,259.150 97.406,262.177 97.963 C 263.484 98.204,264.654 98.545,264.777 98.720 C 264.900 98.895,265.808 99.275,266.795 99.564 C 268.475 100.055,271.200 102.329,271.200 103.238 C 271.200 103.448,271.650 103.791,272.200 104.000 C 272.750 104.209,273.200 104.545,273.200 104.747 C 273.200 105.213,274.081 105.575,276.600 106.146 C 278.472 106.571,278.661 106.731,279.551 108.644 C 280.570 110.833,282.991 112.800,284.666 112.800 C 285.164 112.800,285.765 113.160,286.000 113.600 C 286.235 114.040,286.698 114.400,287.028 114.400 C 287.359 114.400,287.975 115.209,288.400 116.200 C 288.824 117.190,289.313 118.000,289.486 118.000 C 289.659 118.001,290.323 118.451,290.962 119.000 C 291.601 119.550,292.312 120.000,292.540 120.000 C 293.150 120.000,295.200 122.062,295.200 122.675 C 295.200 122.964,295.347 123.200,295.526 123.200 C 295.705 123.200,296.146 123.818,296.506 124.573 C 296.963 125.530,297.699 126.183,298.941 126.733 C 299.957 127.182,300.835 127.880,300.987 128.360 C 301.134 128.822,301.426 129.200,301.637 129.200 C 301.847 129.200,302.199 129.695,302.417 130.300 C 303.713 133.890,304.555 134.762,307.674 135.743 C 308.090 135.874,308.647 136.948,309.125 138.541 C 309.551 139.963,310.105 141.369,310.355 141.664 C 310.604 141.959,311.180 142.695,311.633 143.300 C 312.087 143.905,312.685 144.400,312.961 144.400 C 313.238 144.400,313.706 144.850,314.000 145.400 C 314.294 145.950,314.677 146.400,314.849 146.400 C 315.022 146.400,315.282 147.030,315.426 147.800 C 315.571 148.570,315.840 149.200,316.025 149.200 C 316.210 149.200,316.677 150.685,317.063 152.500 C 317.823 156.075,320.111 159.200,321.968 159.200 C 322.561 159.200,322.803 159.459,322.812 160.100 C 322.818 160.595,323.173 162.260,323.600 163.800 C 324.027 165.340,324.382 167.185,324.388 167.900 C 324.395 168.615,324.543 169.200,324.719 169.200 C 324.894 169.200,325.249 170.651,325.507 172.425 C 326.031 176.017,327.080 178.244,328.791 179.394 C 329.889 180.132,330.400 181.410,330.400 183.417 C 330.400 183.921,330.595 184.398,330.832 184.477 C 331.102 184.567,331.401 187.324,331.628 191.811 C 331.828 195.765,332.173 202.240,332.395 206.200 C 332.963 216.311,332.892 229.511,332.216 239.600 C 331.209 254.650,331.089 256.000,330.759 256.000 C 330.582 256.000,330.319 256.624,330.176 257.387 C 329.998 258.334,329.528 259.020,328.698 259.546 C 327.294 260.434,325.773 263.609,325.365 266.500 C 325.218 267.545,324.976 268.400,324.829 268.400 C 324.681 268.400,324.333 269.975,324.054 271.900 C 323.254 277.435,322.797 279.200,322.161 279.200 C 320.001 279.200,318.302 281.602,316.999 286.500 C 316.604 287.985,316.139 289.200,315.965 289.200 C 315.791 289.200,315.528 290.010,315.379 291.000 C 315.208 292.138,314.905 292.800,314.555 292.800 C 314.250 292.800,314.000 292.941,314.000 293.112 C 314.000 293.284,313.464 293.627,312.809 293.874 C 312.144 294.125,311.395 294.827,311.113 295.462 C 310.836 296.088,310.382 296.838,310.105 297.129 C 309.827 297.419,309.594 298.049,309.586 298.529 C 309.556 300.470,308.205 302.376,306.125 303.412 C 304.358 304.293,303.962 304.727,303.027 306.811 C 302.438 308.125,301.813 309.200,301.638 309.200 C 301.464 309.200,301.040 309.917,300.696 310.793 C 300.321 311.747,299.656 312.574,299.035 312.857 C 298.466 313.116,298.000 313.541,298.000 313.800 C 298.000 314.059,297.282 314.936,296.404 315.748 C 294.579 317.437,293.788 318.793,293.390 320.914 C 293.182 322.019,292.913 322.400,292.339 322.400 C 291.914 322.400,291.349 322.590,291.083 322.821 C 290.817 323.053,289.983 323.548,289.230 323.921 C 288.476 324.295,287.666 324.960,287.430 325.400 C 287.193 325.840,286.892 326.290,286.760 326.400 C 286.253 326.822,285.600 328.384,285.600 329.174 C 285.600 329.740,285.342 330.000,284.780 330.000 C 282.022 330.000,278.400 333.879,278.400 336.833 C 278.400 337.357,278.115 337.605,277.500 337.616 C 276.193 337.640,273.123 339.268,272.626 340.200 C 272.392 340.640,272.092 341.090,271.960 341.200 C 271.453 341.622,270.800 343.184,270.800 343.974 C 270.800 344.542,270.542 344.800,269.974 344.800 C 267.836 344.800,265.342 347.261,264.402 350.300 C 263.730 352.470,263.621 352.591,261.751 353.214 C 259.671 353.906,258.141 355.610,257.721 357.700 C 257.599 358.305,257.376 358.800,257.225 358.800 C 257.073 358.800,256.719 359.386,256.438 360.103 C 256.082 361.010,255.454 361.607,254.365 362.072 C 253.411 362.480,252.651 363.140,252.412 363.770 C 252.196 364.336,251.868 364.800,251.683 364.800 C 251.178 364.800,250.259 368.015,248.969 374.300 C 248.868 374.795,248.518 375.200,248.192 375.200 C 247.867 375.200,247.600 375.370,247.600 375.577 C 247.600 375.785,247.038 376.280,246.351 376.677 C 244.479 377.760,243.587 380.231,243.312 385.098 C 243.184 387.354,242.948 389.200,242.788 389.200 C 242.628 389.200,242.367 392.509,242.207 396.553 C 242.048 400.597,241.702 405.502,241.440 407.453 C 241.023 410.552,241.052 411.379,241.668 414.000 C 242.548 417.747,242.711 433.358,241.882 434.447 C 241.492 434.959,240.381 435.136,236.594 435.290 C 231.035 435.517,228.261 436.302,226.871 438.039 C 226.360 438.677,225.719 439.200,225.446 439.200 C 223.082 439.200,222.058 447.104,224.163 449.100 C 224.685 449.595,225.281 450.000,225.487 450.000 C 225.692 450.000,226.283 450.450,226.800 451.000 C 227.317 451.550,227.978 452.000,228.270 452.000 C 228.561 452.000,228.800 452.172,228.800 452.381 C 228.800 452.930,231.135 453.500,236.509 454.263 C 241.974 455.038,241.701 454.725,241.518 460.000 L 241.400 463.400 240.201 463.536 C 239.542 463.611,238.912 463.806,238.801 463.969 C 238.691 464.133,237.002 464.487,235.049 464.756 C 230.330 465.405,228.001 466.226,226.871 467.639 C 226.360 468.277,225.719 468.800,225.446 468.800 C 222.195 468.800,222.305 479.154,225.567 480.190 C 225.978 480.320,226.535 480.961,226.806 481.613 C 227.076 482.266,227.472 482.800,227.685 482.800 C 227.899 482.800,228.531 483.160,229.091 483.600 C 229.650 484.040,230.444 484.400,230.854 484.400 C 231.264 484.400,231.600 484.580,231.600 484.800 C 231.600 485.020,231.825 485.197,232.100 485.194 C 232.692 485.186,236.894 487.256,237.238 487.724 C 237.370 487.902,238.270 488.282,239.238 488.567 C 240.791 489.024,241.079 489.297,241.663 490.862 C 242.725 493.707,242.059 494.245,236.800 494.785 C 231.906 495.288,228.800 495.930,228.800 496.440 C 228.800 496.638,228.529 496.800,228.197 496.800 C 227.173 496.800,223.492 498.961,223.301 499.675 C 223.201 500.046,222.611 500.527,221.990 500.744 C 221.368 500.960,220.560 501.595,220.194 502.153 C 219.828 502.712,219.144 503.291,218.674 503.440 C 218.205 503.589,216.886 504.631,215.744 505.755 C 214.602 506.880,213.157 508.212,212.534 508.715 L 211.400 509.631 196.753 509.515 L 182.107 509.400 180.871 508.192 C 180.192 507.527,179.370 506.347,179.045 505.569 C 178.635 504.589,177.956 503.916,176.832 503.377 C 175.939 502.950,175.207 502.465,175.205 502.300 C 175.202 502.135,174.965 502.000,174.678 502.000 C 173.844 502.000,171.560 500.146,170.746 498.808 C 170.336 498.133,169.508 497.393,168.908 497.165 C 168.308 496.937,167.715 496.585,167.590 496.384 C 167.466 496.183,165.572 495.805,163.382 495.544 C 159.650 495.100,159.318 494.985,158.100 493.713 C 156.785 492.340,156.470 491.600,157.200 491.600 C 157.420 491.600,157.600 491.403,157.600 491.162 C 157.600 488.312,159.494 485.200,161.229 485.200 C 161.873 485.200,162.400 485.020,162.400 484.800 C 162.400 484.580,162.687 484.400,163.038 484.400 C 166.097 484.400,170.861 481.291,171.460 478.905 C 171.585 478.407,171.847 478.000,172.043 478.000 C 172.609 478.000,172.479 470.865,171.900 470.145 C 171.253 469.342,169.859 467.949,169.001 467.250 C 168.077 466.497,165.381 465.725,162.555 465.404 C 159.709 465.081,157.600 464.470,157.600 463.969 C 157.600 463.766,157.341 463.600,157.024 463.600 C 156.054 463.600,155.931 462.921,156.222 459.191 C 156.429 456.552,156.649 455.600,157.052 455.600 C 157.353 455.600,157.600 455.426,157.600 455.214 C 157.600 454.493,159.392 453.865,162.976 453.332 C 164.943 453.040,166.653 452.665,166.776 452.500 C 166.899 452.335,167.859 451.795,168.910 451.300 C 170.096 450.742,170.964 450.022,171.200 449.400 C 171.409 448.850,171.765 448.400,171.990 448.400 C 172.602 448.400,172.520 441.316,171.900 440.545 C 171.253 439.742,169.859 438.349,169.001 437.650 C 168.007 436.839,165.461 436.161,161.400 435.624 C 159.420 435.363,157.740 434.980,157.667 434.774 C 157.593 434.568,157.287 434.400,156.986 434.400 C 156.686 434.400,155.531 434.205,154.420 433.967 L 152.400 433.534 152.400 422.160 C 152.400 412.032,152.488 410.457,153.203 407.788 C 154.251 403.879,153.984 396.333,152.750 394.974 C 152.337 394.520,152.000 393.680,152.000 393.108 C 152.000 392.535,151.826 392.007,151.613 391.933 C 151.400 391.860,150.955 388.827,150.622 385.194 C 150.047 378.899,149.261 374.949,148.482 374.436 C 148.285 374.306,147.871 373.660,147.562 373.000 C 147.253 372.340,146.454 371.559,145.787 371.265 C 144.592 370.738,143.845 369.353,143.325 366.700 C 143.206 366.095,142.950 365.600,142.755 365.600 C 142.560 365.600,142.400 365.181,142.400 364.669 C 142.400 362.975,140.153 360.118,138.591 359.825 C 137.452 359.611,137.200 359.386,137.200 358.582 C 137.200 358.042,137.056 357.600,136.879 357.600 C 136.702 357.600,136.231 356.690,135.831 355.578 C 135.431 354.465,134.675 353.275,134.152 352.932 C 133.628 352.589,133.200 352.115,133.200 351.879 C 133.200 351.075,131.414 348.840,130.606 348.632 C 130.163 348.517,129.457 347.906,129.038 347.274 C 128.619 346.641,127.759 345.781,127.126 345.362 C 126.494 344.943,125.879 344.223,125.761 343.763 C 125.642 343.303,124.842 342.493,123.983 341.963 C 123.124 341.433,122.417 340.867,122.411 340.705 C 122.393 340.224,119.442 337.623,118.900 337.611 C 118.625 337.605,118.400 337.386,118.400 337.125 C 118.400 336.284,116.637 334.046,115.806 333.832 C 115.363 333.717,114.657 333.106,114.238 332.474 C 113.819 331.841,112.959 330.981,112.326 330.562 C 111.694 330.143,111.079 329.423,110.961 328.963 C 110.842 328.503,110.042 327.693,109.183 327.163 C 108.324 326.633,107.617 326.086,107.611 325.947 C 107.597 325.617,104.383 322.403,104.053 322.389 C 103.914 322.383,103.367 321.676,102.837 320.817 C 102.307 319.958,101.481 319.157,101.002 319.036 C 100.479 318.905,99.839 318.173,99.404 317.209 C 99.005 316.324,98.529 315.600,98.347 315.600 C 98.164 315.600,97.896 315.105,97.749 314.500 C 97.392 313.022,96.080 311.200,95.373 311.200 C 95.058 311.200,94.800 311.022,94.800 310.805 C 94.800 310.588,94.215 310.166,93.500 309.867 C 91.831 309.170,91.441 308.640,90.795 306.200 C 90.199 303.946,88.472 301.975,86.296 301.066 C 85.071 300.554,84.870 300.262,84.627 298.642 C 84.475 297.629,84.216 296.800,84.051 296.800 C 83.886 296.800,83.528 295.945,83.256 294.900 C 82.229 290.965,80.251 288.400,78.245 288.400 C 77.590 288.400,76.609 285.855,75.971 282.500 C 75.710 281.125,75.384 279.999,75.248 279.998 C 75.112 279.997,74.550 278.891,74.000 277.540 C 73.282 275.776,72.636 274.865,71.709 274.308 C 70.346 273.488,69.606 271.731,69.602 269.300 C 69.601 268.585,69.456 268.000,69.280 268.000 C 69.104 268.000,68.644 265.705,68.259 262.900 C 67.535 257.625,66.572 253.600,66.035 253.600 C 65.865 253.600,65.386 252.969,64.971 252.198 C 64.555 251.426,63.919 250.701,63.557 250.586 C 63.166 250.462,62.805 249.772,62.669 248.889 C 60.289 233.470,61.001 190.358,63.667 188.473 C 64.076 188.184,64.686 187.290,65.021 186.487 C 65.357 185.685,65.769 184.932,65.937 184.814 C 66.492 184.426,67.963 178.272,68.450 174.300 C 68.713 172.155,69.079 170.400,69.264 170.400 C 69.449 170.400,69.600 169.674,69.600 168.787 C 69.600 166.533,70.537 164.481,71.700 164.189 C 72.658 163.949,74.800 161.117,74.800 160.091 C 74.800 159.790,75.043 159.300,75.340 159.003 C 75.637 158.706,76.103 157.079,76.376 155.387 C 77.022 151.386,77.497 150.087,78.424 149.792 C 79.419 149.477,82.000 146.957,82.000 146.301 C 82.000 146.019,82.360 145.116,82.800 144.296 C 83.240 143.475,83.600 142.609,83.600 142.373 C 83.600 142.136,83.852 141.690,84.161 141.382 C 84.470 141.073,84.844 139.932,84.994 138.846 C 85.229 137.136,85.409 136.835,86.333 136.610 C 88.716 136.028,90.270 134.488,90.963 132.019 C 91.678 129.469,92.050 129.003,93.702 128.589 C 94.306 128.437,94.800 128.153,94.800 127.957 C 94.800 127.760,95.036 127.600,95.325 127.600 C 95.971 127.600,98.000 125.535,98.000 124.878 C 98.000 124.615,98.166 124.400,98.368 124.400 C 98.571 124.400,98.855 123.860,99.000 123.200 C 99.281 121.921,100.530 120.800,101.675 120.800 C 102.840 120.800,105.579 117.962,106.030 116.290 C 106.296 115.299,106.784 114.608,107.420 114.318 C 107.959 114.072,108.400 113.749,108.400 113.599 C 108.400 113.449,109.075 113.116,109.900 112.859 C 111.988 112.207,113.387 110.839,114.074 108.779 C 114.596 107.211,114.826 106.989,116.229 106.699 C 119.143 106.096,120.761 105.581,121.289 105.089 C 121.578 104.820,122.648 104.164,123.666 103.631 C 124.869 103.001,125.744 102.188,126.163 101.309 C 126.563 100.470,127.263 99.797,128.004 99.539 C 128.662 99.309,129.200 98.994,129.200 98.839 C 129.200 98.683,130.505 98.335,132.100 98.064 C 136.567 97.306,140.800 94.876,140.800 93.069 C 140.800 92.309,144.517 91.281,149.000 90.801 C 151.200 90.565,153.060 90.198,153.133 89.986 C 153.207 89.774,153.567 89.589,153.933 89.576 C 155.441 89.523,158.208 87.782,158.754 86.543 C 159.289 85.327,159.430 85.270,163.054 84.772 C 165.114 84.489,166.800 84.137,166.800 83.989 C 166.800 83.842,169.455 83.582,172.700 83.411 C 175.945 83.241,180.940 82.969,183.800 82.808 C 190.789 82.414,201.784 82.543,215.800 83.184 " stroke="none" fill="#a4844c" fill-rule="evenodd"></path><path id="path4" d="M184.700 74.684 C 183.215 74.768,182.000 75.008,182.000 75.218 C 182.000 75.428,181.647 75.600,181.215 75.600 C 180.146 75.600,176.125 77.133,175.466 77.791 C 174.792 78.465,167.473 80.000,164.923 80.001 C 162.004 80.003,155.818 80.830,155.667 81.239 C 155.593 81.437,155.301 81.600,155.016 81.600 C 154.093 81.600,149.809 83.657,149.463 84.267 C 149.073 84.955,145.892 86.400,144.767 86.400 C 144.345 86.400,144.000 86.556,144.000 86.746 C 144.000 86.936,143.235 87.197,142.300 87.326 C 137.317 88.014,133.422 90.085,131.800 92.909 C 131.541 93.360,130.131 93.909,127.800 94.468 C 125.820 94.943,124.106 95.471,123.992 95.641 C 123.878 95.811,122.978 96.300,121.992 96.729 C 121.006 97.157,119.896 97.844,119.525 98.254 C 116.616 101.472,115.941 101.996,113.935 102.592 C 111.323 103.369,110.367 104.136,108.903 106.628 C 108.097 107.999,107.423 108.647,106.572 108.867 C 105.914 109.038,105.021 109.516,104.587 109.929 C 102.789 111.644,101.200 113.614,101.200 114.127 C 101.200 114.776,99.938 116.000,99.269 116.000 C 99.011 116.000,98.800 116.180,98.800 116.400 C 98.800 116.620,98.573 116.800,98.296 116.800 C 97.420 116.800,94.466 119.988,93.982 121.455 C 93.622 122.546,93.135 123.028,91.823 123.590 C 90.078 124.338,87.210 127.014,87.203 127.900 C 87.202 128.175,87.020 128.400,86.800 128.400 C 86.580 128.400,86.400 128.661,86.400 128.979 C 86.400 129.643,84.700 131.600,84.124 131.600 C 83.528 131.600,82.185 133.261,81.616 134.700 C 81.334 135.415,80.945 136.000,80.751 136.000 C 80.558 136.000,80.400 136.273,80.400 136.607 C 80.400 137.454,78.397 141.200,77.945 141.200 C 76.296 141.200,73.992 145.108,72.966 149.647 C 72.598 151.271,72.176 152.690,72.028 152.800 C 71.880 152.910,71.450 153.664,71.072 154.475 C 70.695 155.287,70.044 156.059,69.626 156.192 C 68.724 156.478,66.973 159.669,66.586 161.734 C 66.435 162.541,66.174 163.200,66.007 163.200 C 65.840 163.200,65.581 164.145,65.431 165.300 C 65.042 168.311,63.611 172.944,62.954 173.321 C 62.646 173.498,62.015 174.387,61.551 175.296 C 61.087 176.206,60.480 177.177,60.203 177.454 C 59.419 178.238,58.829 182.274,58.197 191.171 C 57.878 195.665,57.456 199.445,57.259 199.571 C 55.419 200.749,55.452 236.811,57.294 238.040 C 57.492 238.172,57.820 241.232,58.023 244.840 C 58.525 253.760,59.646 261.600,60.420 261.600 C 60.581 261.600,60.995 262.304,61.339 263.165 C 61.684 264.026,62.350 265.000,62.819 265.328 C 63.774 265.997,64.922 269.825,65.391 273.900 C 65.549 275.275,65.841 276.400,66.039 276.400 C 66.238 276.400,66.402 276.715,66.404 277.100 C 66.413 278.657,68.310 281.868,69.710 282.694 C 70.661 283.255,71.209 283.928,71.392 284.763 C 71.541 285.443,71.829 286.000,72.032 286.000 C 72.234 286.000,72.400 286.356,72.400 286.792 C 72.400 288.221,74.477 293.168,75.600 294.414 C 75.930 294.780,76.509 295.422,76.886 295.840 C 77.263 296.258,77.939 296.948,78.388 297.373 C 78.837 297.797,79.514 299.147,79.892 300.373 C 80.269 301.598,80.679 302.690,80.803 302.800 C 80.926 302.910,81.433 303.540,81.928 304.200 C 82.424 304.860,83.485 305.760,84.286 306.200 C 85.181 306.691,85.895 307.461,86.136 308.193 C 86.352 308.849,86.770 309.627,87.064 309.921 C 87.359 310.216,87.600 310.719,87.600 311.039 C 87.600 311.359,88.578 312.651,89.773 313.911 C 93.118 317.435,93.662 318.107,94.215 319.400 C 94.498 320.060,95.105 321.033,95.565 321.561 C 96.024 322.090,96.400 322.728,96.400 322.979 C 96.400 323.567,98.995 325.993,100.800 327.092 C 101.570 327.561,102.548 328.542,102.973 329.272 C 103.955 330.959,106.424 333.600,107.019 333.600 C 107.633 333.600,110.694 336.636,110.976 337.525 C 111.276 338.470,113.882 340.912,115.461 341.729 C 116.155 342.087,117.136 343.060,117.642 343.890 C 118.794 345.784,121.218 348.400,121.819 348.400 C 122.444 348.400,125.496 351.443,125.786 352.354 C 126.026 353.113,128.972 355.970,130.640 357.063 C 131.151 357.398,131.941 358.664,132.394 359.877 C 133.237 362.130,135.924 365.200,137.053 365.200 C 137.773 365.200,138.609 367.157,138.975 369.700 C 139.126 370.745,139.418 371.600,139.625 371.600 C 139.831 371.600,140.000 371.797,140.000 372.038 C 140.000 373.998,141.474 377.124,143.250 378.927 C 144.322 380.017,145.200 381.244,145.200 381.654 C 145.200 382.064,145.348 382.400,145.528 382.400 C 146.563 382.400,146.948 389.271,147.171 411.679 L 147.400 434.759 149.317 436.543 L 151.234 438.328 155.117 438.598 C 159.577 438.908,161.714 439.372,162.553 440.211 C 162.878 440.535,163.336 440.800,163.571 440.800 C 163.846 440.800,164.000 442.164,164.000 444.600 C 164.000 447.627,163.884 448.400,163.429 448.400 C 163.114 448.400,162.571 448.686,162.221 449.036 C 161.871 449.387,159.833 450.106,157.692 450.635 C 154.644 451.388,153.641 451.814,153.067 452.598 C 152.663 453.149,152.106 453.600,151.829 453.600 C 150.499 453.600,148.803 458.689,148.801 462.686 C 148.800 463.866,150.934 466.247,152.300 466.589 C 152.901 466.740,153.484 467.013,153.597 467.196 C 153.710 467.378,154.972 467.750,156.401 468.021 C 160.719 468.839,161.937 469.194,162.553 469.811 C 162.878 470.135,163.336 470.400,163.571 470.400 C 164.385 470.400,164.124 477.979,163.300 478.282 C 162.915 478.424,162.461 478.769,162.292 479.050 C 162.122 479.330,160.682 479.973,159.092 480.480 C 157.501 480.986,155.930 481.613,155.600 481.872 C 155.270 482.132,154.396 482.839,153.657 483.444 L 152.314 484.543 152.601 488.755 C 153.051 495.358,154.162 497.863,157.063 498.821 C 157.799 499.064,158.400 499.428,158.400 499.631 C 158.400 499.834,158.715 500.001,159.100 500.002 C 159.485 500.003,160.520 500.448,161.400 500.990 C 162.280 501.532,163.238 501.981,163.529 501.988 C 163.819 501.994,164.327 502.270,164.657 502.600 C 164.987 502.930,165.666 503.200,166.167 503.200 C 166.667 503.200,167.402 503.560,167.800 504.000 C 168.198 504.440,168.657 504.800,168.820 504.800 C 168.982 504.800,169.693 505.340,170.400 506.000 C 171.107 506.660,171.878 507.200,172.114 507.200 C 172.573 507.200,174.773 509.476,176.059 511.283 C 176.490 511.888,177.462 512.677,178.221 513.037 C 178.979 513.397,179.600 513.832,179.600 514.005 C 179.600 514.408,182.136 515.726,184.200 516.396 C 185.080 516.682,185.929 517.115,186.086 517.358 C 186.284 517.665,190.135 517.800,198.686 517.800 L 211.000 517.800 212.232 516.600 C 214.633 514.261,215.821 513.320,217.577 512.366 C 219.432 511.357,221.760 509.154,223.800 506.476 C 224.490 505.571,225.595 504.699,226.400 504.426 C 229.521 503.367,231.061 502.545,232.247 501.304 C 233.037 500.478,233.880 500.000,234.547 500.000 C 235.126 500.000,235.600 499.845,235.600 499.655 C 235.600 499.466,236.810 499.187,238.288 499.035 C 241.807 498.675,244.276 497.577,244.827 496.130 C 245.060 495.517,245.464 494.884,245.725 494.722 C 246.311 494.360,246.303 488.440,245.716 488.060 C 245.496 487.917,245.184 487.086,245.023 486.214 C 244.690 484.405,243.412 482.400,242.593 482.400 C 242.289 482.400,241.896 482.148,241.720 481.840 C 241.453 481.373,236.058 480.406,233.687 480.401 C 231.180 480.396,228.924 472.183,230.900 470.255 C 232.459 468.735,233.444 468.400,236.389 468.390 C 240.644 468.376,242.660 467.828,243.907 466.346 C 244.478 465.667,245.183 464.875,245.473 464.585 C 246.060 463.997,246.254 454.574,245.683 454.333 C 245.509 454.260,244.867 453.537,244.257 452.727 C 242.949 450.992,240.900 450.400,236.201 450.400 C 233.598 450.400,233.111 450.279,232.162 449.400 C 231.569 448.850,230.929 448.400,230.742 448.400 C 230.181 448.400,230.328 441.213,230.900 440.655 C 232.569 439.027,233.368 438.800,237.429 438.800 C 241.157 438.800,244.000 438.305,244.000 437.657 C 244.000 437.511,244.495 436.858,245.100 436.205 L 246.200 435.019 246.200 425.042 C 246.200 417.417,246.082 415.027,245.700 414.900 C 245.425 414.808,245.200 414.551,245.200 414.327 C 245.200 414.104,244.906 413.301,244.547 412.544 C 243.871 411.121,244.103 410.016,245.708 407.000 C 245.942 406.560,246.262 403.590,246.418 400.400 C 246.683 395.007,247.645 388.917,248.312 388.416 C 248.900 387.975,249.924 385.729,250.579 383.444 C 250.951 382.148,251.479 380.863,251.754 380.589 C 252.028 380.315,252.472 379.035,252.740 377.745 C 253.518 374.007,254.084 372.000,254.361 372.000 C 254.502 372.000,254.958 371.370,255.373 370.599 C 255.788 369.829,256.728 368.739,257.464 368.179 C 258.199 367.618,258.800 366.942,258.800 366.676 C 258.800 366.410,259.242 365.715,259.783 365.132 C 260.324 364.548,261.121 363.021,261.554 361.737 C 262.031 360.327,262.710 359.168,263.271 358.808 C 263.782 358.481,264.290 358.119,264.400 358.004 C 264.510 357.890,265.257 357.306,266.061 356.707 C 267.175 355.877,267.643 355.144,268.036 353.612 C 268.507 351.771,270.508 349.600,271.732 349.600 C 272.272 349.600,274.800 347.075,274.800 346.536 C 274.800 346.241,274.935 345.995,275.100 345.989 C 275.265 345.983,275.844 345.259,276.387 344.379 C 277.080 343.256,277.986 342.499,279.426 341.839 C 281.152 341.049,281.645 340.566,282.523 338.805 C 283.455 336.935,285.574 334.800,286.499 334.800 C 286.689 334.800,287.419 334.261,288.122 333.602 C 288.825 332.943,289.535 332.403,289.700 332.402 C 289.865 332.401,290.000 332.157,290.000 331.860 C 290.000 330.560,292.314 327.930,294.244 327.036 C 295.834 326.299,296.422 325.735,297.213 324.188 C 298.221 322.217,300.804 319.200,301.483 319.200 C 302.046 319.200,303.469 317.528,303.781 316.500 C 303.931 316.005,304.187 315.600,304.350 315.600 C 304.513 315.600,304.947 314.925,305.315 314.100 C 306.004 312.553,306.355 312.101,309.882 308.215 C 311.027 306.954,312.166 305.309,312.413 304.561 C 312.660 303.812,313.011 303.200,313.194 303.200 C 313.376 303.200,313.835 302.215,314.214 301.011 C 314.697 299.475,315.156 298.745,315.751 298.565 C 316.832 298.238,318.400 296.814,318.400 296.159 C 318.400 295.883,318.673 295.384,319.006 295.051 C 319.339 294.718,319.963 293.310,320.391 291.922 C 321.225 289.225,321.799 288.284,323.991 286.030 C 325.748 284.223,326.539 282.504,327.181 279.099 C 327.461 277.615,327.805 276.400,327.945 276.400 C 328.086 276.400,328.550 275.306,328.977 273.969 C 329.404 272.632,330.072 271.315,330.461 271.042 C 331.316 270.444,333.092 266.738,333.454 264.800 C 333.598 264.030,333.860 263.305,334.037 263.189 C 334.214 263.073,334.640 260.562,334.984 257.608 C 335.763 250.929,336.438 247.200,336.869 247.200 C 337.051 247.200,337.202 246.795,337.204 246.300 C 337.206 245.805,337.650 244.500,338.191 243.400 C 338.732 242.300,339.181 240.995,339.187 240.500 C 339.194 240.005,339.358 239.600,339.551 239.600 C 341.099 239.600,341.286 203.521,339.744 202.463 C 339.533 202.318,339.125 201.392,338.836 200.403 C 338.546 199.415,338.060 198.250,337.755 197.814 C 337.450 197.379,337.200 196.072,337.200 194.911 C 337.200 193.750,337.020 192.800,336.800 192.800 C 336.580 192.800,336.400 192.021,336.400 191.070 C 336.400 190.118,336.054 187.373,335.632 184.970 C 335.210 182.566,334.742 179.475,334.593 178.100 C 334.444 176.725,334.180 175.600,334.006 175.600 C 333.833 175.600,333.564 174.752,333.408 173.716 C 333.034 171.218,331.779 167.927,330.752 166.749 C 329.666 165.505,328.961 164.102,328.616 162.500 C 328.462 161.785,328.189 161.200,328.008 161.200 C 327.828 161.200,327.457 160.255,327.186 159.100 C 326.481 156.108,325.468 154.342,323.827 153.248 C 323.042 152.725,322.400 152.050,322.400 151.748 C 322.400 151.447,322.251 151.200,322.068 151.200 C 321.886 151.200,321.234 149.400,320.620 147.200 C 320.005 145.000,319.389 143.198,319.251 143.196 C 319.113 143.194,318.640 142.366,318.200 141.357 C 317.636 140.062,316.979 139.305,315.972 138.789 C 314.895 138.237,314.424 137.657,314.056 136.429 C 313.787 135.533,313.439 134.800,313.282 134.800 C 313.124 134.800,312.776 134.305,312.507 133.700 C 311.985 132.523,310.981 131.429,308.900 129.767 C 308.185 129.196,307.600 128.475,307.600 128.164 C 307.600 127.854,307.424 127.600,307.208 127.600 C 306.993 127.600,306.459 126.900,306.023 126.045 C 305.250 124.530,296.411 115.205,295.738 115.195 C 295.552 115.192,294.993 114.562,294.496 113.795 C 293.999 113.028,293.340 112.400,293.032 112.400 C 292.723 112.400,292.031 111.877,291.493 111.237 C 290.469 110.021,288.172 108.699,286.300 108.249 C 285.695 108.104,285.200 107.718,285.200 107.392 C 285.200 107.067,284.840 106.440,284.400 106.000 C 283.960 105.560,283.600 105.033,283.600 104.829 C 283.600 104.216,281.802 102.995,280.047 102.416 C 279.141 102.117,278.400 101.721,278.400 101.536 C 278.400 101.351,278.138 101.200,277.819 101.200 C 277.499 101.200,276.914 100.731,276.519 100.158 C 275.154 98.180,273.084 96.357,271.944 96.129 C 271.315 96.003,270.800 95.773,270.800 95.618 C 270.800 95.464,269.006 94.836,266.813 94.223 C 264.187 93.490,262.749 92.886,262.602 92.455 C 262.240 91.393,260.688 89.841,259.399 89.252 C 258.043 88.631,252.565 87.212,251.500 87.205 C 251.115 87.202,250.800 87.020,250.800 86.800 C 250.800 86.580,250.575 86.399,250.300 86.398 C 248.841 86.391,246.773 85.440,245.542 84.208 C 244.208 82.875,241.491 81.600,239.983 81.600 C 239.589 81.600,239.207 81.428,239.133 81.218 C 238.997 80.828,220.102 78.400,217.203 78.400 C 216.321 78.400,215.600 78.231,215.600 78.025 C 215.600 77.818,214.745 77.534,213.700 77.393 C 211.421 77.086,206.714 75.561,206.315 75.000 C 206.031 74.602,190.234 74.371,184.700 74.684 M205.427 78.966 C 208.442 79.831,212.451 80.339,218.500 80.623 C 221.525 80.766,224.000 81.044,224.000 81.241 C 224.000 81.438,224.707 81.600,225.571 81.600 C 229.315 81.600,238.800 83.329,238.800 84.011 C 238.800 84.190,239.328 84.452,239.972 84.594 C 240.617 84.736,241.359 85.110,241.621 85.426 C 241.883 85.742,242.333 86.000,242.620 86.000 C 242.908 86.000,243.412 86.269,243.741 86.598 C 244.543 87.400,245.704 87.813,249.987 88.818 C 251.974 89.285,253.600 89.832,253.600 90.033 C 253.600 90.235,253.962 90.400,254.404 90.400 C 255.658 90.400,258.688 91.969,259.332 92.952 C 259.652 93.440,260.698 94.186,261.657 94.609 C 262.615 95.032,263.490 95.492,263.600 95.632 C 263.710 95.773,265.420 96.365,267.399 96.949 C 270.696 97.921,271.176 98.197,273.120 100.236 C 274.438 101.620,276.067 102.827,277.421 103.426 C 278.619 103.956,279.600 104.577,279.600 104.805 C 279.600 105.033,280.041 105.388,280.581 105.593 C 281.120 105.798,281.838 106.499,282.175 107.151 C 282.512 107.803,283.376 108.747,284.094 109.249 C 284.812 109.751,285.490 110.269,285.600 110.400 C 285.710 110.531,286.634 111.120,287.654 111.709 C 288.673 112.298,290.833 114.048,292.454 115.599 C 294.074 117.150,295.636 118.640,295.925 118.910 C 297.280 120.175,303.589 127.028,303.594 127.239 C 303.597 127.370,303.968 127.902,304.418 128.421 C 304.868 128.940,305.580 129.912,305.999 130.582 C 306.419 131.252,307.310 132.160,307.980 132.600 C 308.650 133.040,309.198 133.621,309.199 133.891 C 309.199 134.161,309.641 134.670,310.180 135.024 C 310.719 135.377,311.376 136.320,311.639 137.119 C 311.903 137.919,313.037 139.509,314.160 140.652 C 316.693 143.233,317.301 144.293,318.203 147.700 C 318.597 149.185,319.072 150.400,319.259 150.400 C 319.447 150.400,319.600 150.735,319.600 151.144 C 319.600 152.026,321.396 154.779,322.457 155.524 C 322.868 155.813,323.499 156.623,323.858 157.324 C 324.218 158.026,324.641 158.690,324.798 158.800 C 324.956 158.910,325.683 161.070,326.414 163.600 C 327.144 166.130,327.853 168.290,327.987 168.400 C 328.122 168.510,328.430 169.230,328.673 170.000 C 329.531 172.728,330.605 175.403,330.939 175.648 C 331.480 176.043,332.673 180.767,333.235 184.743 C 333.520 186.755,333.872 188.400,334.017 188.400 C 334.162 188.400,334.393 190.425,334.530 192.900 C 334.666 195.375,335.143 199.560,335.589 202.200 C 336.035 204.840,336.400 207.675,336.400 208.500 C 336.400 209.325,336.580 210.000,336.800 210.000 C 337.316 210.000,337.351 233.878,336.835 234.067 C 336.475 234.198,334.400 246.555,334.400 248.565 C 334.400 249.134,334.245 249.600,334.056 249.600 C 333.868 249.600,333.504 251.445,333.248 253.700 C 332.769 257.922,331.337 264.000,330.821 264.000 C 330.491 264.000,328.400 268.123,328.400 268.775 C 328.400 269.009,328.258 269.200,328.084 269.200 C 327.758 269.200,326.669 272.862,325.802 276.873 C 325.531 278.124,325.015 279.442,324.655 279.802 C 324.295 280.162,324.000 280.700,324.000 280.996 C 324.000 281.292,323.295 282.268,322.434 283.164 C 321.573 284.061,320.559 285.605,320.180 286.597 C 319.801 287.589,319.358 288.400,319.195 288.400 C 319.032 288.400,318.562 289.606,318.150 291.080 C 317.508 293.375,317.050 294.116,314.967 296.239 C 313.533 297.699,312.170 299.564,311.647 300.778 C 310.680 303.028,310.244 303.625,307.700 306.185 C 306.765 307.127,306.000 308.074,306.000 308.290 C 306.000 308.506,305.595 309.123,305.100 309.660 C 304.605 310.197,303.665 311.700,303.011 313.000 C 301.861 315.285,300.343 317.072,298.525 318.279 C 298.044 318.598,297.276 319.577,296.819 320.454 C 295.810 322.388,293.273 325.200,292.536 325.200 C 292.241 325.200,291.996 325.335,291.991 325.500 C 291.985 325.665,291.265 326.330,290.391 326.977 C 289.516 327.624,288.800 328.408,288.800 328.720 C 288.800 329.473,285.030 333.200,284.268 333.200 C 283.702 333.200,281.200 336.196,281.200 336.873 C 281.200 337.345,278.272 339.977,277.733 339.989 C 277.477 339.995,277.207 340.142,277.133 340.317 C 277.060 340.491,276.325 341.142,275.500 341.764 C 274.675 342.386,274.000 343.171,274.000 343.508 C 274.000 344.228,269.987 348.223,268.924 348.561 C 268.209 348.787,268.027 349.034,266.803 351.431 C 266.474 352.074,265.871 352.960,265.461 353.400 C 265.051 353.840,264.444 354.605,264.112 355.100 C 263.780 355.595,263.315 356.000,263.080 356.000 C 262.456 356.000,260.800 357.649,260.800 358.270 C 260.800 358.561,260.618 358.800,260.395 358.800 C 260.172 358.800,259.551 359.792,259.015 361.005 C 258.478 362.218,257.761 363.317,257.420 363.448 C 257.079 363.579,256.798 363.891,256.797 364.143 C 256.795 364.394,256.151 365.277,255.366 366.105 C 254.021 367.524,252.000 371.659,252.000 372.992 C 252.000 373.326,251.834 373.600,251.632 373.600 C 251.429 373.600,251.141 374.159,250.991 374.842 C 250.571 376.755,249.203 379.624,248.602 379.855 C 247.733 380.188,246.933 382.360,246.376 385.900 C 246.090 387.715,245.735 389.200,245.587 389.200 C 245.262 389.200,244.494 395.968,244.226 401.200 C 244.021 405.211,243.639 406.850,242.339 409.306 C 241.479 410.931,241.625 412.016,243.131 415.200 C 244.009 417.057,244.361 432.135,243.568 433.927 C 242.720 435.843,241.218 436.400,236.896 436.400 C 233.018 436.400,230.730 436.902,229.600 438.000 C 229.260 438.330,228.537 438.892,227.992 439.248 C 226.934 439.941,226.360 444.932,226.968 448.168 C 227.221 449.521,229.641 451.600,230.963 451.600 C 231.282 451.600,231.791 451.848,232.094 452.151 C 232.413 452.470,234.446 452.916,236.907 453.208 C 242.621 453.885,243.200 454.452,243.200 459.372 C 243.200 464.225,242.502 464.924,237.000 465.578 C 232.653 466.095,230.560 466.667,229.600 467.600 C 229.260 467.930,228.537 468.492,227.992 468.848 C 226.940 469.537,226.359 474.526,226.960 477.725 C 227.507 480.641,231.464 483.571,235.715 484.208 C 236.752 484.364,237.600 484.613,237.600 484.762 C 237.600 484.912,238.382 485.243,239.339 485.499 C 240.908 485.919,241.148 486.152,241.802 487.882 C 242.201 488.937,242.662 489.890,242.827 490.001 C 242.992 490.111,243.250 490.860,243.401 491.664 C 243.861 494.114,241.407 495.838,237.300 495.953 C 236.365 495.979,235.600 496.180,235.600 496.400 C 235.600 496.620,235.105 496.802,234.500 496.804 C 232.367 496.813,227.200 498.822,227.200 499.644 C 227.200 499.855,226.404 500.370,225.431 500.787 C 224.457 501.204,222.411 502.773,220.883 504.273 C 217.214 507.875,216.458 508.500,214.150 509.839 C 213.078 510.461,212.012 511.216,211.783 511.516 C 210.775 512.835,183.200 512.510,183.200 511.180 C 183.200 511.020,182.592 510.775,181.848 510.635 C 180.641 510.409,176.587 506.564,176.063 505.150 C 175.988 504.946,175.358 504.518,174.663 504.198 C 172.687 503.288,171.425 502.317,168.200 499.227 C 167.223 498.291,166.293 497.945,163.200 497.369 C 161.110 496.980,159.310 496.548,159.200 496.410 C 159.090 496.271,158.343 495.664,157.539 495.061 C 154.341 492.661,156.308 483.600,160.027 483.600 C 160.971 483.600,164.978 482.229,165.637 481.680 C 165.947 481.423,166.785 480.743,167.500 480.170 C 168.215 479.598,168.800 478.875,168.800 478.564 C 168.800 478.254,168.980 478.000,169.200 478.000 C 169.438 478.000,169.600 476.509,169.600 474.328 L 169.600 470.657 168.180 469.356 C 167.398 468.640,166.228 467.938,165.580 467.795 C 164.931 467.653,164.400 467.395,164.400 467.223 C 164.400 467.050,163.275 466.682,161.900 466.404 C 154.854 464.979,153.399 463.945,153.810 460.656 C 153.965 459.415,154.251 458.400,154.446 458.400 C 154.641 458.400,154.800 457.769,154.800 456.997 C 154.800 454.944,157.464 452.926,160.300 452.830 C 160.795 452.814,161.200 452.660,161.200 452.489 C 161.200 452.317,162.447 451.856,163.971 451.463 C 168.532 450.288,169.600 448.978,169.600 444.555 C 169.600 440.677,168.426 438.821,165.580 438.195 C 164.931 438.053,164.400 437.795,164.400 437.623 C 164.400 437.287,162.055 436.769,156.062 435.779 C 153.326 435.328,152.079 434.926,151.408 434.281 L 150.492 433.400 150.279 415.800 C 150.078 399.126,149.271 386.273,148.382 385.600 C 148.237 385.490,147.996 384.463,147.848 383.318 C 147.518 380.776,146.563 377.940,145.855 377.400 C 145.567 377.180,144.825 376.190,144.206 375.200 C 143.587 374.210,142.961 373.310,142.816 373.200 C 142.598 373.035,141.447 369.544,140.532 366.272 C 140.420 365.872,139.095 364.291,137.587 362.759 C 136.079 361.227,134.733 359.620,134.596 359.187 C 134.458 358.754,134.198 358.400,134.016 358.400 C 133.835 358.400,133.579 357.969,133.446 357.443 C 133.314 356.916,132.111 355.341,130.773 353.943 C 127.645 350.674,123.138 346.097,121.713 344.741 C 121.101 344.159,119.610 342.589,118.400 341.252 C 117.190 339.915,115.983 338.816,115.719 338.811 C 115.454 338.805,114.914 338.340,114.519 337.777 C 114.123 337.214,112.360 335.340,110.600 333.612 C 108.840 331.883,107.060 330.119,106.644 329.690 C 104.994 327.988,100.954 323.983,100.200 323.301 C 99.013 322.227,97.644 320.293,96.684 318.336 C 96.216 317.381,95.596 316.358,95.307 316.062 C 95.018 315.766,94.511 315.001,94.180 314.362 C 93.850 313.723,93.348 313.200,93.065 313.200 C 92.454 313.200,90.622 311.297,90.271 310.300 C 90.136 309.915,89.853 309.600,89.644 309.600 C 89.434 309.600,89.047 308.948,88.784 308.152 C 88.337 306.796,84.741 302.800,83.968 302.800 C 83.548 302.800,82.218 300.236,81.856 298.728 C 81.715 298.138,81.366 297.418,81.083 297.128 C 80.799 296.838,80.332 296.026,80.045 295.325 C 79.758 294.624,78.838 293.308,78.000 292.400 C 77.162 291.492,76.257 290.221,75.989 289.575 C 75.722 288.929,75.366 288.400,75.198 288.400 C 75.030 288.400,74.595 287.455,74.232 286.300 C 73.129 282.789,72.253 281.045,71.100 280.064 C 70.495 279.550,70.000 278.884,70.000 278.584 C 70.000 278.285,69.743 277.896,69.429 277.720 C 68.876 277.410,67.800 273.662,66.783 268.500 C 66.512 267.125,66.155 266.000,65.989 266.000 C 65.823 266.000,65.566 265.505,65.418 264.900 C 64.652 261.765,63.887 259.544,63.408 259.065 C 62.764 258.421,61.380 254.076,60.990 251.472 C 60.836 250.443,60.571 249.600,60.403 249.600 C 60.234 249.600,59.971 247.485,59.818 244.900 C 59.665 242.315,59.283 238.446,58.970 236.303 C 58.170 230.829,58.173 206.335,58.975 200.897 C 59.290 198.754,59.674 195.515,59.826 193.700 C 59.979 191.885,60.260 190.400,60.452 190.400 C 60.643 190.400,60.800 189.815,60.800 189.100 C 60.800 185.769,62.427 179.429,63.375 179.065 C 63.651 178.959,64.297 177.551,64.810 175.936 C 65.324 174.321,65.873 172.910,66.030 172.800 C 66.187 172.690,66.608 171.038,66.966 169.129 C 67.766 164.848,68.515 162.672,69.581 161.528 C 70.031 161.045,70.400 160.456,70.400 160.220 C 70.400 159.985,70.830 159.328,71.356 158.760 C 72.635 157.381,73.335 155.910,74.177 152.832 C 74.564 151.419,75.132 150.011,75.440 149.703 C 75.748 149.395,76.000 148.896,76.000 148.594 C 76.000 147.725,77.685 145.089,78.895 144.064 C 79.503 143.550,80.000 142.869,80.000 142.552 C 80.000 142.235,80.259 141.875,80.576 141.754 C 80.893 141.632,81.568 140.360,82.076 138.926 C 82.907 136.582,85.810 132.800,86.779 132.800 C 86.930 132.800,87.477 132.045,87.996 131.122 C 89.014 129.310,91.953 126.000,92.543 126.000 C 93.023 126.000,96.400 122.611,96.400 122.128 C 96.400 121.577,100.428 117.970,101.499 117.563 C 102.002 117.371,102.578 116.784,102.778 116.257 C 103.251 115.013,106.766 111.200,107.440 111.200 C 107.726 111.200,108.104 110.962,108.280 110.670 C 108.456 110.379,109.185 109.715,109.900 109.195 C 110.615 108.675,111.200 108.029,111.200 107.760 C 111.200 107.491,111.785 106.802,112.500 106.230 C 113.215 105.657,114.027 105.002,114.303 104.775 C 114.580 104.548,115.480 104.119,116.303 103.822 C 118.453 103.047,119.627 102.350,121.069 100.994 C 123.616 98.598,124.458 98.100,127.897 96.961 C 129.824 96.322,131.496 95.672,131.614 95.516 C 131.732 95.359,132.485 94.957,133.287 94.621 C 134.090 94.286,135.009 93.637,135.330 93.179 C 135.969 92.267,138.460 90.800,139.370 90.800 C 139.685 90.800,140.213 90.530,140.544 90.199 C 140.874 89.869,142.732 89.235,144.672 88.791 C 150.731 87.406,151.673 87.094,152.709 86.134 C 153.263 85.620,153.961 85.200,154.258 85.200 C 154.556 85.200,155.121 84.885,155.513 84.500 C 156.719 83.317,158.745 82.823,165.196 82.140 C 168.608 81.779,171.490 81.364,171.600 81.217 C 171.812 80.934,181.109 79.370,185.800 78.828 C 190.806 78.250,203.237 78.338,205.427 78.966 M322.400 98.424 C 322.400 100.030,323.142 100.675,324.066 99.873 C 324.365 99.613,324.535 99.442,324.444 99.494 C 324.353 99.545,324.022 99.275,323.707 98.894 C 323.167 98.239,323.147 98.240,323.363 98.921 C 323.496 99.342,323.427 99.540,323.195 99.397 C 322.678 99.077,322.689 97.871,323.213 97.347 C 323.498 97.062,323.435 96.933,323.013 96.933 C 322.572 96.933,322.400 97.351,322.400 98.424 M329.779 100.366 C 329.903 100.567,329.831 100.792,329.619 100.866 C 329.167 101.023,328.960 107.288,329.384 107.974 C 329.560 108.259,330.629 108.415,332.136 108.376 C 336.132 108.272,336.364 108.161,336.293 106.391 C 336.260 105.547,336.106 104.935,335.951 105.030 C 335.797 105.126,335.720 104.753,335.780 104.202 C 335.848 103.580,335.688 103.200,335.358 103.200 C 335.065 103.200,334.557 102.705,334.229 102.100 C 333.893 101.482,333.620 101.263,333.604 101.600 C 333.580 102.110,333.520 102.105,333.203 101.563 C 332.974 101.171,332.365 100.954,331.616 100.999 C 330.392 101.072,329.971 100.640,330.900 100.265 C 331.175 100.154,330.984 100.049,330.476 100.032 C 329.968 100.014,329.655 100.165,329.779 100.366 M343.158 122.846 C 340.074 123.977,340.082 130.288,343.171 133.173 C 345.413 135.267,350.680 134.619,351.626 132.132 C 352.117 130.841,352.119 123.479,351.629 123.782 C 351.425 123.908,351.143 123.649,351.002 123.206 C 350.716 122.305,345.308 122.056,343.158 122.846 M350.483 138.700 C 350.058 139.305,349.494 140.520,349.228 141.400 C 348.962 142.280,348.538 143.421,348.285 143.936 C 347.905 144.711,347.944 144.937,348.513 145.255 C 348.891 145.467,349.205 145.856,349.212 146.120 C 349.240 147.292,351.581 149.200,352.989 149.200 C 354.960 149.200,358.107 148.320,358.698 147.604 C 359.461 146.678,359.307 138.127,358.523 137.826 C 356.474 137.039,351.249 137.608,350.483 138.700 M358.564 153.300 C 357.432 154.615,356.548 156.406,356.244 158.000 C 355.941 159.589,356.729 165.200,357.255 165.200 C 357.445 165.200,357.600 165.520,357.600 165.911 C 357.600 167.867,358.634 168.400,362.423 168.400 C 364.674 168.400,366.000 168.243,366.000 167.976 C 366.000 167.743,366.180 167.664,366.400 167.800 C 366.661 167.961,366.800 165.494,366.800 160.692 L 366.800 153.337 364.769 152.869 C 361.500 152.114,359.464 152.256,358.564 153.300 M366.621 188.896 C 366.466 190.269,366.134 191.638,365.885 191.939 C 365.310 192.632,365.304 200.765,365.878 201.136 C 366.103 201.281,366.449 202.300,366.647 203.400 C 366.994 205.326,367.524 205.823,368.600 205.232 C 369.202 204.901,371.200 204.956,371.200 205.303 C 371.200 205.961,372.677 204.636,373.160 203.546 C 373.690 202.349,374.113 193.710,373.676 193.000 C 373.540 192.780,373.483 192.091,373.548 191.469 C 373.616 190.818,373.377 190.017,372.985 189.583 C 372.610 189.169,372.401 188.573,372.522 188.260 C 372.679 187.851,372.495 187.735,371.870 187.850 C 371.392 187.937,371.225 187.902,371.500 187.771 C 371.775 187.640,372.000 187.338,372.000 187.100 C 372.000 186.862,371.891 186.775,371.759 186.908 C 371.626 187.040,371.086 186.985,370.559 186.784 C 369.884 186.528,369.600 186.559,369.600 186.890 C 369.600 187.245,369.482 187.242,369.120 186.880 C 367.813 185.573,366.915 186.298,366.621 188.896 " stroke="none" fill="#6c6c6c" fill-rule="evenodd"></path></g></svg>