<svg id="svg" version="1.1" xmlns="http://www.w3.org/2000/svg" xmlns:xlink="http://www.w3.org/1999/xlink" width="400" height="417.39130434782606" viewBox="0, 0, 400,417.39130434782606"><g id="svgg"><path id="path0" d="M218.800 20.674 C 217.835 21.069,217.613 21.671,217.606 23.900 L 217.600 26.000 213.016 26.000 C 203.637 26.000,201.082 26.849,200.590 30.126 L 200.323 31.909 197.908 32.084 C 194.964 32.297,194.400 32.907,194.400 35.876 L 194.400 38.000 192.300 38.006 C 188.925 38.016,188.497 38.910,188.429 46.100 L 188.400 49.200 186.626 49.200 C 185.650 49.200,184.390 49.376,183.826 49.590 L 182.800 49.980 182.800 58.334 L 182.800 66.688 180.543 66.921 C 176.748 67.313,176.848 66.603,176.821 93.282 L 176.800 113.163 174.100 113.282 L 171.400 113.400 171.283 116.054 L 171.166 118.709 168.598 118.872 C 165.449 119.073,165.473 119.050,165.274 122.170 L 165.113 124.709 163.256 124.961 C 160.047 125.397,159.626 126.289,159.610 132.700 L 159.600 136.400 156.843 136.400 C 153.677 136.400,153.600 136.482,153.600 139.833 L 153.600 142.000 151.574 142.000 C 148.391 142.000,148.000 142.373,148.000 145.414 C 148.000 147.828,147.940 148.000,147.100 148.002 C 143.289 148.012,142.572 149.091,142.134 155.484 L 141.881 159.169 140.241 159.379 C 139.338 159.495,138.150 159.637,137.600 159.695 C 136.656 159.794,136.593 159.951,136.482 162.500 L 136.363 165.200 134.082 165.206 C 131.001 165.214,130.752 165.444,130.506 168.519 L 130.295 171.139 128.331 171.410 C 125.559 171.791,125.153 172.565,124.897 177.957 L 124.691 182.307 121.980 182.574 C 118.901 182.878,118.800 182.994,118.800 186.233 L 118.800 188.400 116.480 188.400 C 113.588 188.400,113.200 188.787,113.200 191.669 L 113.200 193.978 72.985 194.089 C 37.756 194.186,32.724 194.274,32.391 194.800 C 31.653 195.968,31.889 383.831,32.629 384.572 C 33.199 385.142,46.750 385.192,177.329 385.101 L 321.400 385.000 321.517 382.349 L 321.634 379.698 328.717 379.511 C 337.653 379.274,338.593 378.876,338.888 375.200 L 339.000 373.800 341.386 373.677 C 344.487 373.518,344.800 373.213,344.800 370.351 L 344.800 368.000 347.171 368.000 C 350.680 368.000,350.800 367.788,350.800 361.590 L 350.800 356.437 353.500 356.318 L 356.200 356.200 356.308 347.519 L 356.415 338.838 358.898 338.719 C 362.162 338.563,362.386 338.125,362.394 331.900 L 362.400 327.200 364.026 327.200 C 366.535 327.200,367.100 326.702,367.626 324.028 L 368.092 321.662 370.015 321.398 C 373.394 320.933,373.973 319.785,373.990 313.518 L 374.000 310.037 376.700 309.918 L 379.400 309.800 379.511 304.100 L 379.622 298.400 381.811 298.400 C 385.986 298.400,385.630 301.740,385.507 263.758 L 385.400 230.729 384.456 229.965 C 383.814 229.445,382.885 229.200,381.556 229.200 L 379.600 229.200 379.600 223.624 C 379.600 217.384,379.753 217.687,376.434 217.340 L 374.000 217.086 374.000 214.823 C 374.000 211.951,373.621 211.600,370.520 211.600 L 368.000 211.600 368.000 208.850 L 368.000 206.100 366.750 205.850 C 366.063 205.713,364.803 205.600,363.950 205.600 L 362.400 205.600 362.387 197.900 C 362.372 188.786,362.390 188.832,358.838 188.510 L 356.416 188.290 356.308 179.845 L 356.200 171.400 355.200 171.295 C 354.650 171.237,353.435 171.091,352.500 170.970 L 350.800 170.751 350.790 167.475 C 350.773 161.407,350.127 160.119,346.909 159.738 C 344.698 159.477,344.416 159.113,344.405 156.510 C 344.397 154.624,342.963 154.036,337.619 153.731 L 333.234 153.480 333.117 150.840 L 333.000 148.200 327.350 147.849 L 321.699 147.498 321.460 145.480 C 321.052 142.029,321.199 142.055,301.700 142.024 L 286.800 142.000 286.753 100.100 C 286.698 51.698,286.986 55.916,283.700 55.430 L 281.200 55.060 281.200 50.206 C 281.200 44.213,281.044 43.927,277.654 43.681 L 275.200 43.504 275.200 40.802 L 275.200 38.100 273.950 37.850 C 273.262 37.712,272.002 37.600,271.150 37.600 L 269.600 37.600 269.600 35.043 C 269.600 32.077,269.508 32.000,265.967 32.000 L 263.600 32.000 263.600 29.649 C 263.600 26.483,263.428 26.387,257.225 26.112 L 252.000 25.879 252.000 24.758 C 252.000 23.016,251.207 21.686,249.845 21.147 C 248.525 20.624,219.983 20.189,218.800 20.674 M235.420 49.175 C 235.629 49.381,237.600 49.922,239.800 50.378 C 246.923 51.854,246.917 51.851,248.287 53.475 C 250.243 55.792,252.286 57.638,254.067 58.698 C 255.198 59.372,256.630 62.990,257.646 67.745 C 257.922 69.035,258.392 70.335,258.692 70.635 C 258.991 70.934,259.684 72.668,260.231 74.489 L 261.226 77.800 261.108 107.200 C 260.978 139.415,261.047 138.463,258.556 142.400 C 258.069 143.170,257.176 145.570,256.571 147.734 C 255.566 151.331,255.323 151.792,253.736 153.118 C 252.781 153.916,251.999 154.846,251.999 155.185 C 251.997 155.857,250.670 158.187,249.785 159.072 C 249.479 159.379,248.921 160.148,248.546 160.783 C 248.171 161.418,247.430 162.170,246.898 162.455 C 244.882 163.534,244.350 166.234,245.550 169.300 L 245.980 170.400 275.310 170.400 C 292.675 170.400,304.795 170.550,305.020 170.769 C 305.440 171.177,310.172 172.184,313.600 172.595 C 317.791 173.098,321.200 174.829,321.200 176.454 C 321.200 176.951,321.715 177.314,322.900 177.651 C 324.714 178.168,325.582 178.963,326.772 181.200 C 327.181 181.970,328.325 183.432,329.314 184.449 C 332.061 187.273,332.199 188.216,332.207 204.200 C 332.216 220.617,331.756 219.164,337.200 219.985 C 339.500 220.331,339.979 220.567,341.348 222.024 C 342.387 223.130,343.531 223.860,344.829 224.246 C 347.157 224.937,348.874 226.305,349.763 228.178 C 350.125 228.941,351.216 230.136,352.188 230.834 C 354.376 232.406,355.125 234.161,355.661 238.981 C 355.883 240.972,356.247 243.410,356.471 244.400 C 356.695 245.390,357.031 248.000,357.219 250.200 C 357.407 252.400,357.741 255.010,357.961 256.000 C 358.368 257.824,357.662 261.267,356.769 261.819 C 356.212 262.163,356.326 265.068,356.921 265.671 C 358.370 267.141,358.846 269.531,358.166 271.924 C 357.811 273.176,357.370 276.000,357.187 278.200 C 357.004 280.400,356.669 283.460,356.443 285.000 C 356.217 286.540,355.854 289.060,355.635 290.600 C 355.038 294.811,354.555 295.818,352.363 297.427 C 351.284 298.220,350.400 299.060,350.400 299.295 C 350.400 300.366,347.706 303.217,346.100 303.844 C 345.165 304.210,344.400 304.753,344.400 305.052 C 344.400 306.469,341.369 307.856,337.151 308.367 C 331.548 309.046,331.952 307.940,332.241 321.800 C 332.594 338.706,332.103 341.991,328.674 345.684 C 328.121 346.280,327.384 347.180,327.038 347.684 C 324.723 351.051,321.102 353.913,318.053 354.785 C 313.869 355.981,312.731 356.420,311.800 357.197 C 309.219 359.352,309.374 359.342,271.400 359.722 C 252.040 359.916,232.780 360.062,228.600 360.046 C 224.420 360.031,186.258 359.916,143.795 359.791 L 66.590 359.564 65.006 358.676 C 63.391 357.769,61.648 354.996,60.966 352.244 C 60.477 350.274,60.285 230.159,60.767 227.800 C 60.992 226.700,61.275 225.149,61.396 224.354 C 61.686 222.447,63.495 220.150,65.000 219.776 C 65.660 219.612,79.970 219.363,96.800 219.222 C 132.658 218.922,130.170 219.232,132.034 214.838 C 132.546 213.633,133.670 212.013,134.576 211.175 C 135.469 210.349,137.183 208.037,138.384 206.037 C 139.585 204.036,140.696 202.400,140.853 202.400 C 141.660 202.400,143.645 200.144,144.062 198.751 C 144.497 197.299,146.722 194.800,147.581 194.800 C 147.775 194.800,148.256 193.955,148.651 192.923 C 149.064 191.841,150.689 189.523,152.484 187.454 C 154.198 185.479,155.600 183.620,155.600 183.324 C 155.600 182.443,157.518 179.672,158.486 179.154 C 159.821 178.439,160.327 177.831,161.171 175.925 C 162.014 174.020,164.142 171.600,164.974 171.600 C 165.267 171.600,165.915 170.565,166.413 169.300 C 166.976 167.869,168.107 166.169,169.406 164.800 C 170.554 163.590,172.367 161.120,173.435 159.312 C 174.765 157.060,175.734 155.876,176.508 155.555 C 177.693 155.064,178.800 153.380,178.800 152.066 C 178.800 151.322,181.633 148.400,182.355 148.400 C 182.549 148.400,183.095 147.444,183.569 146.276 C 184.086 145.003,185.397 143.119,186.840 141.576 C 188.164 140.159,189.482 138.550,189.769 138.000 C 190.056 137.450,190.658 136.280,191.107 135.400 C 191.557 134.520,192.638 133.309,193.510 132.709 C 194.382 132.108,195.331 131.028,195.619 130.309 C 196.458 128.212,198.477 125.596,199.444 125.353 C 200.075 125.195,200.597 124.467,201.227 122.865 C 201.761 121.508,202.889 119.798,204.041 118.600 C 207.341 115.167,207.199 116.329,207.208 92.713 C 207.218 67.237,207.609 63.905,210.812 62.067 C 211.470 61.690,212.277 60.584,212.850 59.274 C 213.845 57.004,215.211 55.600,216.427 55.600 C 216.822 55.600,217.250 55.272,217.378 54.870 C 218.108 52.570,225.354 49.751,231.000 49.571 C 231.880 49.543,233.050 49.376,233.600 49.200 C 234.988 48.755,234.995 48.755,235.420 49.175 M282.799 146.463 L 283.952 147.726 282.676 148.420 C 280.756 149.465,279.830 148.589,280.738 146.587 C 281.499 144.908,281.385 144.915,282.799 146.463 " stroke="none" fill="#080704" fill-rule="evenodd"></path><path id="path1" d="M229.600 51.595 C 224.694 51.928,222.529 52.560,220.800 54.167 C 220.030 54.882,218.860 55.872,218.200 56.366 C 215.448 58.428,214.015 60.058,213.599 61.602 C 213.363 62.481,213.011 63.200,212.818 63.200 C 212.047 63.200,209.837 66.599,209.472 68.347 C 209.258 69.366,208.975 80.280,208.842 92.600 C 208.567 118.023,208.723 116.856,205.075 120.765 C 204.133 121.774,202.941 123.475,202.424 124.545 C 201.864 125.706,200.870 126.914,199.958 127.545 C 199.082 128.149,198.239 129.157,197.983 129.904 C 197.737 130.621,197.325 131.431,197.068 131.704 C 194.114 134.838,190.752 139.462,190.229 141.109 C 190.072 141.603,189.239 142.574,188.377 143.266 C 187.516 143.959,186.415 145.342,185.932 146.340 C 185.449 147.338,184.025 149.209,182.766 150.499 C 181.508 151.789,180.259 153.375,179.991 154.022 C 179.722 154.670,179.345 155.200,179.151 155.200 C 178.958 155.200,178.800 155.441,178.800 155.735 C 178.800 156.029,177.990 157.029,177.000 157.957 C 176.010 158.885,175.200 159.859,175.199 160.122 C 175.198 160.832,172.178 165.165,170.407 167.000 C 169.557 167.880,168.399 169.481,167.832 170.558 C 166.532 173.029,166.054 173.599,164.928 174.027 C 164.430 174.217,163.744 175.039,163.403 175.855 C 162.841 177.200,160.794 179.989,159.164 181.632 C 158.209 182.593,155.728 186.475,155.423 187.484 C 155.277 187.970,154.469 188.911,153.630 189.576 C 152.790 190.242,151.878 191.329,151.603 191.993 C 151.328 192.657,150.945 193.200,150.751 193.200 C 150.558 193.200,150.400 193.469,150.400 193.797 C 150.400 194.126,149.365 195.447,148.100 196.733 C 146.835 198.019,145.397 199.881,144.905 200.870 C 144.413 201.859,143.198 203.407,142.205 204.311 C 141.212 205.214,140.400 206.176,140.400 206.447 C 140.400 207.143,137.753 211.016,135.608 213.459 C 133.012 216.414,132.800 216.705,132.800 217.313 C 132.800 217.614,132.339 218.294,131.775 218.824 C 129.636 220.833,128.474 220.910,96.200 221.164 C 65.220 221.408,64.371 221.455,63.986 222.946 C 62.868 227.272,62.816 230.238,62.808 289.694 C 62.799 355.985,62.663 352.423,65.324 355.446 L 66.854 357.184 142.127 357.394 C 242.272 357.673,236.192 357.677,272.800 357.317 C 290.510 357.142,305.213 356.862,305.474 356.693 C 306.339 356.131,314.180 354.005,315.400 354.001 C 317.666 353.993,323.817 349.086,325.994 345.548 C 326.647 344.487,327.506 343.294,327.904 342.896 C 330.765 340.035,331.274 333.579,330.165 314.200 L 329.937 310.200 331.100 309.091 C 331.961 308.269,333.248 307.744,336.058 307.064 C 338.196 306.547,340.211 305.809,340.672 305.373 C 341.123 304.948,342.954 303.610,344.742 302.400 C 346.530 301.190,347.994 299.975,347.996 299.700 C 347.998 299.425,348.972 298.235,350.160 297.057 C 354.048 293.200,354.722 290.674,355.139 278.400 C 355.390 270.987,355.336 269.386,354.743 266.800 C 354.129 264.119,354.116 263.544,354.622 261.400 C 356.786 252.227,354.172 233.750,350.437 231.819 C 349.771 231.475,348.913 230.459,348.409 229.419 C 347.577 227.700,336.073 221.200,333.862 221.200 C 331.577 221.200,329.814 217.535,330.153 213.494 C 331.507 197.384,330.538 187.493,327.405 185.440 C 326.902 185.111,326.109 184.052,325.642 183.087 C 325.175 182.122,324.390 180.985,323.896 180.559 C 322.658 179.490,320.487 178.000,320.169 178.000 C 320.024 178.000,319.188 177.282,318.310 176.404 C 315.219 173.313,312.488 173.084,275.400 172.815 C 242.889 172.579,238.595 172.311,240.851 170.659 C 241.703 170.034,242.587 168.193,243.161 165.846 C 243.807 163.204,244.933 161.094,246.570 159.457 C 247.320 158.706,248.956 156.542,250.204 154.646 C 251.452 152.751,252.634 151.200,252.831 151.200 C 253.652 151.200,255.296 147.936,255.593 145.718 C 255.763 144.443,256.364 141.600,256.927 139.400 C 258.719 132.403,258.800 130.885,258.800 104.436 L 258.800 79.225 257.780 76.112 C 257.219 74.401,256.428 71.069,256.023 68.710 C 255.205 63.939,252.844 59.200,251.285 59.200 C 251.072 59.200,250.651 58.899,250.349 58.531 C 245.473 52.593,240.314 50.869,229.600 51.595 M237.882 52.783 C 241.367 53.184,243.178 53.895,244.799 55.500 C 245.348 56.044,246.776 57.324,247.971 58.344 C 256.003 65.205,255.803 63.952,255.793 107.200 C 255.788 129.185,255.649 139.260,255.328 140.800 C 255.077 142.010,254.635 144.170,254.346 145.599 C 253.891 147.854,253.556 148.473,251.811 150.281 C 250.705 151.427,249.187 153.448,248.438 154.773 C 247.688 156.098,246.482 157.589,245.756 158.086 C 244.533 158.924,242.235 163.062,241.396 165.937 C 241.246 166.452,240.321 167.686,239.342 168.680 C 237.307 170.745,237.308 170.913,239.362 172.577 L 240.873 173.800 274.937 174.032 C 304.031 174.230,309.383 174.356,311.626 174.896 C 315.070 175.724,317.199 176.634,317.203 177.280 C 317.204 177.566,317.789 178.172,318.503 178.626 C 323.662 181.911,323.906 182.129,324.775 184.225 C 325.249 185.369,326.256 186.868,327.012 187.556 C 327.768 188.244,328.490 189.301,328.616 189.904 C 328.742 190.507,329.035 191.752,329.266 192.670 C 329.671 194.277,329.528 203.913,328.959 213.317 C 328.670 218.084,328.847 218.871,330.589 220.563 C 332.116 222.046,340.826 226.498,343.600 227.214 C 345.872 227.800,346.241 228.113,347.437 230.473 C 348.031 231.645,349.037 232.811,350.013 233.456 C 350.991 234.103,351.696 234.921,351.825 235.558 C 351.942 236.131,352.342 237.680,352.714 239.000 C 353.632 242.252,353.659 257.284,352.754 261.200 C 352.225 263.489,352.222 264.183,352.732 267.000 C 353.550 271.524,353.527 286.831,352.697 290.457 C 351.942 293.753,351.737 294.120,349.999 295.281 C 349.230 295.795,348.309 296.795,347.953 297.503 C 346.935 299.529,346.406 299.998,343.705 301.275 C 342.312 301.933,340.902 302.883,340.572 303.387 C 339.995 304.267,337.308 305.444,333.762 306.370 C 332.861 306.605,331.361 307.350,330.429 308.025 L 328.734 309.253 328.961 314.126 C 329.963 335.686,329.740 338.703,326.932 341.566 C 325.979 342.537,325.200 343.686,325.200 344.118 C 325.200 344.551,324.255 345.795,323.100 346.883 C 314.930 354.576,318.369 354.019,276.800 354.388 C 246.376 354.658,243.840 354.734,238.800 355.526 C 231.139 356.729,223.992 356.718,221.351 355.500 L 219.400 354.600 143.000 354.400 C 100.980 354.290,66.372 354.053,66.094 353.873 C 63.881 352.441,63.999 356.074,64.006 289.716 C 64.012 224.294,63.925 227.279,65.925 223.700 L 66.428 222.800 95.514 222.786 C 130.029 222.770,131.429 222.620,133.538 218.703 C 133.902 218.027,135.430 216.028,136.933 214.262 C 138.437 212.495,140.043 210.249,140.502 209.272 C 140.962 208.295,142.133 206.664,143.106 205.647 C 144.078 204.631,145.419 202.847,146.085 201.683 C 147.334 199.499,149.367 197.200,150.049 197.200 C 150.262 197.200,150.855 196.297,151.366 195.194 C 151.878 194.090,153.174 192.230,154.248 191.060 C 156.081 189.062,159.028 184.745,159.701 183.073 C 159.867 182.661,160.317 182.241,160.701 182.138 C 161.565 181.908,163.390 179.377,163.744 177.917 C 163.889 177.322,164.831 176.152,165.839 175.317 C 166.846 174.483,168.090 172.990,168.602 172.000 C 169.115 171.010,170.465 169.210,171.603 168.000 C 172.741 166.790,174.388 164.540,175.264 163.000 C 176.139 161.460,177.495 159.573,178.277 158.806 C 179.059 158.040,180.219 156.490,180.856 155.363 C 181.967 153.395,182.492 152.778,184.884 150.638 C 185.480 150.105,186.087 149.158,186.232 148.534 C 186.378 147.911,187.438 146.410,188.588 145.200 C 189.738 143.990,191.102 142.280,191.619 141.400 C 192.135 140.520,192.683 139.710,192.835 139.600 C 192.988 139.490,193.510 138.635,193.997 137.700 C 194.483 136.765,195.036 136.000,195.225 136.000 C 195.868 136.000,197.285 134.206,198.070 132.400 C 198.890 130.510,200.642 128.400,201.390 128.400 C 201.632 128.400,202.515 127.208,203.353 125.751 C 204.191 124.294,205.684 122.295,206.671 121.308 C 209.681 118.298,209.600 119.047,209.600 94.227 C 209.600 69.943,209.766 68.183,212.229 66.281 C 213.071 65.631,215.200 61.769,215.200 60.891 C 215.200 60.386,217.295 58.578,218.757 57.822 C 219.433 57.473,220.394 56.632,220.893 55.954 C 222.333 53.997,224.524 53.297,231.200 52.661 C 233.958 52.399,234.644 52.411,237.882 52.783 " stroke="none" fill="#84641c" fill-rule="evenodd"></path><path id="path2" d="M225.730 54.907 C 223.686 55.235,223.223 55.456,223.039 56.187 C 222.631 57.811,221.262 59.119,219.690 59.385 C 217.448 59.764,217.170 60.067,216.531 62.832 C 215.878 65.660,213.785 69.487,212.704 69.830 C 211.042 70.358,211.008 70.814,210.800 95.800 C 210.655 113.166,210.470 120.021,210.129 120.600 C 209.870 121.040,209.557 121.724,209.434 122.120 C 209.310 122.517,208.413 123.193,207.439 123.624 C 205.848 124.328,205.641 124.579,205.386 126.103 C 205.157 127.475,204.635 128.260,202.659 130.200 C 201.315 131.520,199.901 133.230,199.516 134.000 C 199.132 134.770,198.654 135.670,198.455 136.000 C 198.256 136.330,197.847 137.123,197.546 137.762 C 197.246 138.401,196.450 139.154,195.778 139.435 C 195.052 139.738,194.275 140.523,193.867 141.367 C 193.488 142.149,192.868 143.438,192.489 144.231 C 191.762 145.754,190.324 147.007,189.019 147.255 C 188.495 147.355,188.099 147.930,187.817 149.002 C 187.179 151.431,186.240 152.879,184.448 154.200 C 183.552 154.860,182.815 155.680,182.809 156.022 C 182.791 157.246,178.910 162.686,177.870 162.947 C 176.885 163.194,175.829 164.959,174.965 167.800 C 174.701 168.667,174.082 169.257,172.730 169.928 C 171.072 170.751,170.829 171.042,170.583 172.502 C 170.363 173.805,169.800 174.649,167.883 176.548 C 166.265 178.151,164.937 179.991,163.884 182.088 C 162.635 184.574,162.036 185.341,161.005 185.772 C 159.960 186.209,159.416 186.920,158.255 189.365 C 157.177 191.636,156.526 192.525,155.704 192.849 C 153.659 193.657,153.435 193.862,153.096 195.233 C 152.469 197.771,151.579 199.176,149.839 200.373 C 148.674 201.175,148.031 201.947,147.873 202.734 C 147.745 203.377,147.395 204.150,147.097 204.452 C 146.799 204.753,146.143 205.736,145.640 206.636 C 145.137 207.536,144.157 208.605,143.462 209.011 C 141.760 210.007,141.315 210.637,140.576 213.096 C 139.914 215.296,138.829 216.400,137.326 216.400 C 136.610 216.400,136.340 216.741,135.979 218.100 C 135.383 220.340,133.961 222.163,132.324 222.788 C 131.596 223.066,129.757 223.902,128.237 224.647 L 125.474 226.000 96.217 226.000 L 66.961 226.000 66.480 227.328 C 65.730 229.402,65.815 350.722,66.567 351.713 C 67.431 352.852,211.147 352.595,213.036 351.451 L 214.273 350.703 213.708 349.051 C 213.398 348.143,212.726 346.950,212.216 346.400 C 208.725 342.637,208.800 344.455,208.800 264.093 C 208.800 184.209,208.717 186.169,212.273 181.912 C 213.003 181.039,213.600 180.151,213.600 179.940 C 213.600 178.735,215.607 175.503,217.554 173.574 C 218.789 172.350,220.160 170.855,220.600 170.251 C 221.040 169.648,222.300 168.705,223.400 168.155 C 226.915 166.400,227.546 165.995,228.342 164.983 C 229.190 163.905,231.851 162.800,233.601 162.800 C 234.207 162.800,235.992 162.509,237.569 162.152 L 240.436 161.505 241.606 159.189 C 242.814 156.796,244.537 155.200,245.913 155.200 C 247.010 155.200,247.545 154.424,247.952 152.243 C 248.359 150.069,249.199 148.997,251.009 148.342 C 253.459 147.456,253.966 140.189,253.992 105.600 C 254.019 70.262,253.678 66.124,250.581 64.166 C 249.519 63.495,248.664 62.585,248.410 61.855 C 247.830 60.194,246.844 59.200,245.774 59.200 C 244.848 59.200,243.047 57.409,242.620 56.063 C 242.097 54.415,232.779 53.777,225.730 54.907 M231.800 175.161 C 229.025 176.761,225.729 180.938,225.050 183.713 C 224.901 184.326,224.413 185.136,223.966 185.513 C 220.683 188.289,219.333 206.247,222.230 208.615 L 223.400 209.571 273.241 209.586 C 300.654 209.594,324.179 209.485,325.520 209.345 L 327.957 209.091 328.379 207.126 C 329.653 201.185,328.693 192.227,326.685 191.312 C 325.424 190.737,323.611 187.622,322.779 184.600 C 322.401 183.226,321.880 182.169,321.560 182.127 C 318.709 181.753,317.994 181.444,316.180 179.799 C 315.091 178.811,314.065 178.003,313.900 178.002 C 313.735 178.001,313.600 177.751,313.600 177.447 C 313.600 176.367,311.024 176.268,276.000 175.997 C 240.916 175.726,237.524 175.586,236.220 174.358 C 235.513 173.692,233.810 174.002,231.800 175.161 M222.175 222.426 L 221.000 223.652 220.857 237.249 C 220.694 252.740,220.822 254.456,222.313 256.756 L 223.379 258.400 287.220 258.400 L 351.062 258.400 351.531 255.854 C 352.167 252.400,352.146 241.067,351.500 239.255 C 351.225 238.484,350.127 237.035,349.060 236.035 C 347.128 234.223,345.202 231.071,345.198 229.713 C 345.195 228.943,340.661 227.600,338.065 227.600 C 335.627 227.600,329.413 224.092,328.357 222.120 L 327.865 221.200 275.607 221.200 L 223.350 221.200 222.175 222.426 M222.175 272.826 L 221.000 274.053 221.000 289.849 L 221.000 305.646 222.000 306.414 C 223.376 307.471,327.523 307.656,328.398 306.603 C 328.886 306.015,329.558 305.800,334.080 304.791 C 335.876 304.390,336.385 304.106,336.480 303.454 C 336.653 302.264,339.365 300.604,342.543 299.743 C 345.262 299.007,345.293 298.983,346.026 297.045 C 346.952 294.594,348.167 293.280,349.788 292.976 C 350.996 292.749,351.067 292.627,351.524 289.962 C 352.137 286.387,352.145 275.178,351.537 273.146 L 351.073 271.600 287.212 271.600 L 223.350 271.600 222.175 272.826 M222.122 319.604 C 219.209 320.778,220.545 338.968,223.766 341.974 C 224.339 342.510,224.984 343.590,225.198 344.374 C 225.781 346.514,229.370 350.182,232.082 351.409 L 234.363 352.442 271.682 352.299 C 315.718 352.130,316.768 352.059,317.342 349.191 C 317.600 347.898,319.580 346.404,321.038 346.401 C 322.110 346.400,323.200 345.200,323.200 344.023 C 323.200 342.643,325.068 339.527,326.567 338.408 C 328.600 336.891,329.751 325.639,328.379 320.700 L 327.962 319.200 275.481 319.225 C 246.083 319.240,222.614 319.406,222.122 319.604 " stroke="none" fill="#fbcb3b" fill-rule="evenodd"></path><path id="path3" d="M231.200 52.661 C 224.524 53.297,222.333 53.997,220.893 55.954 C 220.394 56.632,219.433 57.473,218.757 57.822 C 217.295 58.578,215.200 60.386,215.200 60.891 C 215.200 61.769,213.071 65.631,212.229 66.281 C 209.766 68.183,209.600 69.943,209.600 94.227 C 209.600 119.047,209.681 118.298,206.671 121.308 C 205.684 122.295,204.191 124.294,203.353 125.751 C 202.515 127.208,201.632 128.400,201.390 128.400 C 200.642 128.400,198.890 130.510,198.070 132.400 C 197.285 134.206,195.868 136.000,195.225 136.000 C 195.036 136.000,194.483 136.765,193.997 137.700 C 193.510 138.635,192.988 139.490,192.835 139.600 C 192.683 139.710,192.135 140.520,191.619 141.400 C 191.102 142.280,189.738 143.990,188.588 145.200 C 187.438 146.410,186.378 147.911,186.232 148.534 C 186.087 149.158,185.480 150.105,184.884 150.638 C 182.492 152.778,181.967 153.395,180.856 155.363 C 180.219 156.490,179.059 158.040,178.277 158.806 C 177.495 159.573,176.139 161.460,175.264 163.000 C 174.388 164.540,172.741 166.790,171.603 168.000 C 170.465 169.210,169.115 171.010,168.602 172.000 C 168.090 172.990,166.846 174.483,165.839 175.317 C 164.831 176.152,163.889 177.322,163.744 177.917 C 163.390 179.377,161.565 181.908,160.701 182.138 C 160.317 182.241,159.867 182.661,159.701 183.073 C 159.028 184.745,156.081 189.062,154.248 191.060 C 153.174 192.230,151.878 194.090,151.366 195.194 C 150.855 196.297,150.262 197.200,150.049 197.200 C 149.367 197.200,147.334 199.499,146.085 201.683 C 145.419 202.847,144.078 204.631,143.106 205.647 C 142.133 206.664,140.962 208.295,140.502 209.272 C 140.043 210.249,138.437 212.495,136.933 214.262 C 135.430 216.028,133.902 218.027,133.538 218.703 C 131.429 222.620,130.029 222.770,95.514 222.786 L 66.428 222.800 65.925 223.700 C 63.925 227.279,64.012 224.294,64.006 289.716 C 63.999 356.074,63.881 352.441,66.094 353.873 C 66.372 354.053,100.980 354.290,143.000 354.400 L 219.400 354.600 221.351 355.500 C 223.992 356.718,231.139 356.729,238.800 355.526 C 243.840 354.734,246.376 354.658,276.800 354.388 C 318.369 354.019,314.930 354.576,323.100 346.883 C 324.255 345.795,325.200 344.551,325.200 344.118 C 325.200 343.686,325.979 342.537,326.932 341.566 C 329.740 338.703,329.963 335.686,328.961 314.126 L 328.734 309.253 330.429 308.025 C 331.361 307.350,332.861 306.605,333.762 306.370 C 337.308 305.444,339.995 304.267,340.572 303.387 C 340.902 302.883,342.312 301.933,343.705 301.275 C 346.406 299.998,346.935 299.529,347.953 297.503 C 348.309 296.795,349.230 295.795,349.999 295.281 C 351.737 294.120,351.942 293.753,352.697 290.457 C 353.527 286.831,353.550 271.524,352.732 267.000 C 352.222 264.183,352.225 263.489,352.754 261.200 C 353.659 257.284,353.632 242.252,352.714 239.000 C 352.342 237.680,351.942 236.131,351.825 235.558 C 351.696 234.921,350.991 234.103,350.013 233.456 C 349.037 232.811,348.031 231.645,347.437 230.473 C 346.241 228.113,345.872 227.800,343.600 227.214 C 340.826 226.498,332.116 222.046,330.589 220.563 C 328.847 218.871,328.670 218.084,328.959 213.317 C 329.528 203.913,329.671 194.277,329.266 192.670 C 329.035 191.752,328.742 190.507,328.616 189.904 C 328.490 189.301,327.768 188.244,327.012 187.556 C 326.256 186.868,325.249 185.369,324.775 184.225 C 323.906 182.129,323.662 181.911,318.503 178.626 C 317.789 178.172,317.204 177.566,317.203 177.280 C 317.199 176.634,315.070 175.724,311.626 174.896 C 309.383 174.356,304.031 174.230,274.937 174.032 L 240.873 173.800 239.362 172.577 C 237.308 170.913,237.307 170.745,239.342 168.680 C 240.321 167.686,241.246 166.452,241.396 165.937 C 242.235 163.062,244.533 158.924,245.756 158.086 C 246.482 157.589,247.688 156.098,248.438 154.773 C 249.187 153.448,250.705 151.427,251.811 150.281 C 253.556 148.473,253.891 147.854,254.346 145.599 C 254.635 144.170,255.077 142.010,255.328 140.800 C 255.649 139.260,255.788 129.185,255.793 107.200 C 255.803 63.952,256.003 65.205,247.971 58.344 C 246.776 57.324,245.348 56.044,244.799 55.500 C 243.178 53.895,241.367 53.184,237.882 52.783 C 234.644 52.411,233.958 52.399,231.200 52.661 M241.373 54.861 C 241.930 55.114,242.491 55.655,242.620 56.063 C 243.047 57.409,244.848 59.200,245.774 59.200 C 246.844 59.200,247.830 60.194,248.410 61.855 C 248.664 62.585,249.519 63.495,250.581 64.166 C 253.678 66.124,254.019 70.262,253.992 105.600 C 253.966 140.189,253.459 147.456,251.009 148.342 C 249.199 148.997,248.359 150.069,247.952 152.243 C 247.545 154.424,247.010 155.200,245.913 155.200 C 244.537 155.200,242.814 156.796,241.606 159.189 L 240.436 161.505 237.569 162.152 C 235.992 162.509,234.207 162.800,233.601 162.800 C 231.851 162.800,229.190 163.905,228.342 164.983 C 227.546 165.995,226.915 166.400,223.400 168.155 C 222.300 168.705,221.040 169.648,220.600 170.251 C 220.160 170.855,218.789 172.350,217.554 173.574 C 215.607 175.503,213.600 178.735,213.600 179.940 C 213.600 180.151,213.003 181.039,212.273 181.912 C 208.717 186.169,208.800 184.209,208.800 264.093 C 208.800 344.455,208.725 342.637,212.216 346.400 C 212.726 346.950,213.398 348.143,213.708 349.051 L 214.273 350.703 213.036 351.451 C 211.147 352.595,67.431 352.852,66.567 351.713 C 65.815 350.722,65.730 229.402,66.480 227.328 L 66.961 226.000 96.217 226.000 L 125.474 226.000 128.237 224.647 C 129.757 223.902,131.596 223.066,132.324 222.788 C 133.961 222.163,135.383 220.340,135.979 218.100 C 136.340 216.741,136.610 216.400,137.326 216.400 C 138.829 216.400,139.914 215.296,140.576 213.096 C 141.315 210.637,141.760 210.007,143.462 209.011 C 144.157 208.605,145.137 207.536,145.640 206.636 C 146.143 205.736,146.799 204.753,147.097 204.452 C 147.395 204.150,147.745 203.377,147.873 202.734 C 148.031 201.947,148.674 201.175,149.839 200.373 C 151.579 199.176,152.469 197.771,153.096 195.233 C 153.435 193.862,153.659 193.657,155.704 192.849 C 156.526 192.525,157.177 191.636,158.255 189.365 C 159.416 186.920,159.960 186.209,161.005 185.772 C 162.036 185.341,162.635 184.574,163.884 182.088 C 164.937 179.991,166.265 178.151,167.883 176.548 C 169.800 174.649,170.363 173.805,170.583 172.502 C 170.829 171.042,171.072 170.751,172.730 169.928 C 174.082 169.257,174.701 168.667,174.965 167.800 C 175.829 164.959,176.885 163.194,177.870 162.947 C 178.910 162.686,182.791 157.246,182.809 156.022 C 182.815 155.680,183.552 154.860,184.448 154.200 C 186.240 152.879,187.179 151.431,187.817 149.002 C 188.099 147.930,188.495 147.355,189.019 147.255 C 190.324 147.007,191.762 145.754,192.489 144.231 C 192.868 143.438,193.488 142.149,193.867 141.367 C 194.275 140.523,195.052 139.738,195.778 139.435 C 196.450 139.154,197.246 138.401,197.546 137.762 C 197.847 137.123,198.256 136.330,198.455 136.000 C 198.654 135.670,199.132 134.770,199.516 134.000 C 199.901 133.230,201.315 131.520,202.659 130.200 C 204.635 128.260,205.157 127.475,205.386 126.103 C 205.641 124.579,205.848 124.328,207.439 123.624 C 208.413 123.193,209.310 122.517,209.434 122.120 C 209.557 121.724,209.870 121.040,210.129 120.600 C 210.470 120.021,210.655 113.166,210.800 95.800 C 211.008 70.814,211.042 70.358,212.704 69.830 C 213.785 69.487,215.878 65.660,216.531 62.832 C 217.170 60.067,217.448 59.764,219.690 59.385 C 221.262 59.119,222.631 57.811,223.039 56.187 C 223.420 54.670,238.554 53.576,241.373 54.861 M236.220 174.358 C 237.524 175.586,240.916 175.726,276.000 175.997 C 311.024 176.268,313.600 176.367,313.600 177.447 C 313.600 177.751,313.735 178.001,313.900 178.002 C 314.065 178.003,315.091 178.811,316.180 179.799 C 317.994 181.444,318.709 181.753,321.560 182.127 C 321.880 182.169,322.401 183.226,322.779 184.600 C 323.611 187.622,325.424 190.737,326.685 191.312 C 328.693 192.227,329.653 201.185,328.379 207.126 L 327.957 209.091 325.520 209.345 C 324.179 209.485,300.654 209.594,273.241 209.586 L 223.400 209.571 222.230 208.615 C 219.333 206.247,220.683 188.289,223.966 185.513 C 224.413 185.136,224.901 184.326,225.050 183.713 C 225.347 182.499,227.403 179.099,228.874 177.390 C 230.850 175.095,235.127 173.329,236.220 174.358 M328.357 222.120 C 329.413 224.092,335.627 227.600,338.065 227.600 C 340.661 227.600,345.195 228.943,345.198 229.713 C 345.202 231.071,347.128 234.223,349.060 236.035 C 350.127 237.035,351.225 238.484,351.500 239.255 C 352.146 241.067,352.167 252.400,351.531 255.854 L 351.062 258.400 287.220 258.400 L 223.379 258.400 222.313 256.756 C 220.822 254.456,220.694 252.740,220.857 237.249 L 221.000 223.652 222.175 222.426 L 223.350 221.200 275.607 221.200 L 327.865 221.200 328.357 222.120 M351.537 273.146 C 352.145 275.178,352.137 286.387,351.524 289.962 C 351.067 292.627,350.996 292.749,349.788 292.976 C 348.167 293.280,346.952 294.594,346.026 297.045 C 345.293 298.983,345.262 299.007,342.543 299.743 C 339.365 300.604,336.653 302.264,336.480 303.454 C 336.385 304.106,335.876 304.390,334.080 304.791 C 329.558 305.800,328.886 306.015,328.398 306.603 C 327.523 307.656,223.376 307.471,222.000 306.414 L 221.000 305.646 221.000 289.849 L 221.000 274.053 222.175 272.826 L 223.350 271.600 287.212 271.600 L 351.073 271.600 351.537 273.146 M328.379 320.700 C 329.751 325.639,328.600 336.891,326.567 338.408 C 325.068 339.527,323.200 342.643,323.200 344.023 C 323.200 345.200,322.110 346.400,321.038 346.401 C 319.580 346.404,317.600 347.898,317.342 349.191 C 316.768 352.059,315.718 352.130,271.682 352.299 L 234.363 352.442 232.082 351.409 C 229.370 350.182,225.781 346.514,225.198 344.374 C 224.984 343.590,224.339 342.510,223.766 341.974 C 220.545 338.968,219.209 320.778,222.122 319.604 C 222.614 319.406,246.083 319.240,275.481 319.225 L 327.962 319.200 328.379 320.700 " stroke="none" fill="#d18d09" fill-rule="evenodd"></path><path id="path4" d="M233.600 49.200 C 233.050 49.376,231.880 49.543,231.000 49.571 C 225.354 49.751,218.108 52.570,217.378 54.870 C 217.250 55.272,216.822 55.600,216.427 55.600 C 215.211 55.600,213.845 57.004,212.850 59.274 C 212.277 60.584,211.470 61.690,210.812 62.067 C 207.609 63.905,207.218 67.237,207.208 92.713 C 207.199 116.329,207.341 115.167,204.041 118.600 C 202.889 119.798,201.761 121.508,201.227 122.865 C 200.597 124.467,200.075 125.195,199.444 125.353 C 198.477 125.596,196.458 128.212,195.619 130.309 C 195.331 131.028,194.382 132.108,193.510 132.709 C 192.638 133.309,191.557 134.520,191.107 135.400 C 190.658 136.280,190.056 137.450,189.769 138.000 C 189.482 138.550,188.164 140.159,186.840 141.576 C 185.397 143.119,184.086 145.003,183.569 146.276 C 183.095 147.444,182.549 148.400,182.355 148.400 C 181.633 148.400,178.800 151.322,178.800 152.066 C 178.800 153.380,177.693 155.064,176.508 155.555 C 175.734 155.876,174.765 157.060,173.435 159.312 C 172.367 161.120,170.554 163.590,169.406 164.800 C 168.107 166.169,166.976 167.869,166.413 169.300 C 165.915 170.565,165.267 171.600,164.974 171.600 C 164.142 171.600,162.014 174.020,161.171 175.925 C 160.327 177.831,159.821 178.439,158.486 179.154 C 157.518 179.672,155.600 182.443,155.600 183.324 C 155.600 183.620,154.198 185.479,152.484 187.454 C 150.689 189.523,149.064 191.841,148.651 192.923 C 148.256 193.955,147.775 194.800,147.581 194.800 C 146.722 194.800,144.497 197.299,144.062 198.751 C 143.645 200.144,141.660 202.400,140.853 202.400 C 140.696 202.400,139.585 204.036,138.384 206.037 C 137.183 208.037,135.469 210.349,134.576 211.175 C 133.670 212.013,132.546 213.633,132.034 214.838 C 130.170 219.232,132.658 218.922,96.800 219.222 C 79.970 219.363,65.660 219.612,65.000 219.776 C 63.495 220.150,61.686 222.447,61.396 224.354 C 61.275 225.149,60.992 226.700,60.767 227.800 C 60.285 230.159,60.477 350.274,60.966 352.244 C 61.648 354.996,63.391 357.769,65.006 358.676 L 66.590 359.564 143.795 359.791 C 186.258 359.916,224.420 360.031,228.600 360.046 C 232.780 360.062,252.040 359.916,271.400 359.722 C 309.374 359.342,309.219 359.352,311.800 357.197 C 312.731 356.420,313.869 355.981,318.053 354.785 C 321.102 353.913,324.723 351.051,327.038 347.684 C 327.384 347.180,328.121 346.280,328.674 345.684 C 332.103 341.991,332.594 338.706,332.241 321.800 C 331.952 307.940,331.548 309.046,337.151 308.367 C 341.369 307.856,344.400 306.469,344.400 305.052 C 344.400 304.753,345.165 304.210,346.100 303.844 C 347.706 303.217,350.400 300.366,350.400 299.295 C 350.400 299.060,351.284 298.220,352.363 297.427 C 354.555 295.818,355.038 294.811,355.635 290.600 C 355.854 289.060,356.217 286.540,356.443 285.000 C 356.669 283.460,357.004 280.400,357.187 278.200 C 357.370 276.000,357.811 273.176,358.166 271.924 C 358.846 269.531,358.370 267.141,356.921 265.671 C 356.326 265.068,356.212 262.163,356.769 261.819 C 357.662 261.267,358.368 257.824,357.961 256.000 C 357.741 255.010,357.407 252.400,357.219 250.200 C 357.031 248.000,356.695 245.390,356.471 244.400 C 356.247 243.410,355.883 240.972,355.661 238.981 C 355.125 234.161,354.376 232.406,352.188 230.834 C 351.216 230.136,350.125 228.941,349.763 228.178 C 348.874 226.305,347.157 224.937,344.829 224.246 C 343.531 223.860,342.387 223.130,341.348 222.024 C 339.979 220.567,339.500 220.331,337.200 219.985 C 331.756 219.164,332.216 220.617,332.207 204.200 C 332.199 188.216,332.061 187.273,329.314 184.449 C 328.325 183.432,327.181 181.970,326.772 181.200 C 325.582 178.963,324.714 178.168,322.900 177.651 C 321.715 177.314,321.200 176.951,321.200 176.454 C 321.200 174.829,317.791 173.098,313.600 172.595 C 310.172 172.184,305.440 171.177,305.020 170.769 C 304.795 170.550,292.675 170.400,275.310 170.400 L 245.980 170.400 245.550 169.300 C 244.350 166.234,244.882 163.534,246.898 162.455 C 247.430 162.170,248.171 161.418,248.546 160.783 C 248.921 160.148,249.479 159.379,249.785 159.072 C 250.670 158.187,251.997 155.857,251.999 155.185 C 251.999 154.846,252.781 153.916,253.736 153.118 C 255.323 151.792,255.566 151.331,256.571 147.734 C 257.176 145.570,258.069 143.170,258.556 142.400 C 261.047 138.463,260.978 139.415,261.108 107.200 L 261.226 77.800 260.231 74.489 C 259.684 72.668,258.991 70.934,258.692 70.635 C 258.392 70.335,257.922 69.035,257.646 67.745 C 256.630 62.990,255.198 59.372,254.067 58.698 C 252.286 57.638,250.243 55.792,248.287 53.475 C 246.917 51.851,246.923 51.854,239.800 50.378 C 237.600 49.922,235.629 49.381,235.420 49.175 C 234.995 48.755,234.988 48.755,233.600 49.200 M242.062 52.255 C 243.740 52.781,248.731 56.561,250.349 58.531 C 250.651 58.899,251.072 59.200,251.285 59.200 C 252.844 59.200,255.205 63.939,256.023 68.710 C 256.428 71.069,257.219 74.401,257.780 76.112 L 258.800 79.225 258.800 104.436 C 258.800 130.885,258.719 132.403,256.927 139.400 C 256.364 141.600,255.763 144.443,255.593 145.718 C 255.296 147.936,253.652 151.200,252.831 151.200 C 252.634 151.200,251.452 152.751,250.204 154.646 C 248.956 156.542,247.320 158.706,246.570 159.457 C 244.933 161.094,243.807 163.204,243.161 165.846 C 242.587 168.193,241.703 170.034,240.851 170.659 C 238.595 172.311,242.889 172.579,275.400 172.815 C 312.488 173.084,315.219 173.313,318.310 176.404 C 319.188 177.282,320.024 178.000,320.169 178.000 C 320.487 178.000,322.658 179.490,323.896 180.559 C 324.390 180.985,325.175 182.122,325.642 183.087 C 326.109 184.052,326.902 185.111,327.405 185.440 C 330.538 187.493,331.507 197.384,330.153 213.494 C 329.814 217.535,331.577 221.200,333.862 221.200 C 336.073 221.200,347.577 227.700,348.409 229.419 C 348.913 230.459,349.771 231.475,350.437 231.819 C 354.172 233.750,356.786 252.227,354.622 261.400 C 354.116 263.544,354.129 264.119,354.743 266.800 C 355.336 269.386,355.390 270.987,355.139 278.400 C 354.722 290.674,354.048 293.200,350.160 297.057 C 348.972 298.235,347.998 299.425,347.996 299.700 C 347.994 299.975,346.530 301.190,344.742 302.400 C 342.954 303.610,341.123 304.948,340.672 305.373 C 340.211 305.809,338.196 306.547,336.058 307.064 C 333.248 307.744,331.961 308.269,331.100 309.091 L 329.937 310.200 330.165 314.200 C 331.274 333.579,330.765 340.035,327.904 342.896 C 327.506 343.294,326.647 344.487,325.994 345.548 C 323.817 349.086,317.666 353.993,315.400 354.001 C 314.180 354.005,306.339 356.131,305.474 356.693 C 305.213 356.862,290.510 357.142,272.800 357.317 C 236.192 357.677,242.272 357.673,142.127 357.394 L 66.854 357.184 65.324 355.446 C 62.663 352.423,62.799 355.985,62.808 289.694 C 62.816 230.238,62.868 227.272,63.986 222.946 C 64.371 221.455,65.220 221.408,96.200 221.164 C 128.474 220.910,129.636 220.833,131.775 218.824 C 132.339 218.294,132.800 217.614,132.800 217.313 C 132.800 216.705,133.012 216.414,135.608 213.459 C 137.753 211.016,140.400 207.143,140.400 206.447 C 140.400 206.176,141.212 205.214,142.205 204.311 C 143.198 203.407,144.413 201.859,144.905 200.870 C 145.397 199.881,146.835 198.019,148.100 196.733 C 149.365 195.447,150.400 194.126,150.400 193.797 C 150.400 193.469,150.558 193.200,150.751 193.200 C 150.945 193.200,151.328 192.657,151.603 191.993 C 151.878 191.329,152.790 190.242,153.630 189.576 C 154.469 188.911,155.277 187.970,155.423 187.484 C 155.728 186.475,158.209 182.593,159.164 181.632 C 160.794 179.989,162.841 177.200,163.403 175.855 C 163.744 175.039,164.430 174.217,164.928 174.027 C 166.054 173.599,166.532 173.029,167.832 170.558 C 168.399 169.481,169.557 167.880,170.407 167.000 C 172.178 165.165,175.198 160.832,175.199 160.122 C 175.200 159.859,176.010 158.885,177.000 157.957 C 177.990 157.029,178.800 156.029,178.800 155.735 C 178.800 155.441,178.958 155.200,179.151 155.200 C 179.345 155.200,179.722 154.670,179.991 154.022 C 180.259 153.375,181.508 151.789,182.766 150.499 C 184.025 149.209,185.449 147.338,185.932 146.340 C 186.415 145.342,187.516 143.959,188.377 143.266 C 189.239 142.574,190.072 141.603,190.229 141.109 C 190.752 139.462,194.114 134.838,197.068 131.704 C 197.325 131.431,197.737 130.621,197.983 129.904 C 198.239 129.157,199.082 128.149,199.958 127.545 C 200.870 126.914,201.864 125.706,202.424 124.545 C 202.941 123.475,204.133 121.774,205.075 120.765 C 208.723 116.856,208.567 118.023,208.842 92.600 C 208.975 80.280,209.258 69.366,209.472 68.347 C 209.837 66.599,212.047 63.200,212.818 63.200 C 213.011 63.200,213.363 62.481,213.599 61.602 C 214.015 60.058,215.448 58.428,218.200 56.366 C 218.860 55.872,220.030 54.882,220.800 54.167 C 223.666 51.505,236.104 50.386,242.062 52.255 M280.738 146.587 C 279.830 148.589,280.756 149.465,282.676 148.420 L 283.952 147.726 282.799 146.463 C 281.385 144.915,281.499 144.908,280.738 146.587 " stroke="none" fill="#6c541c" fill-rule="evenodd"></path></g></svg>